# Blender v2.93.6 OBJ File: ''
# www.blender.org
mtllib Pear Textured.mtl
o Pear_Textured
v 0.355138 -0.005438 -0.355138
v 0.000000 -0.005438 -0.502241
v 0.000000 0.477447 -1.076236
v 0.761014 0.477447 -0.761014
v -0.355138 -0.005438 -0.355138
v -0.761014 0.477447 -0.761014
v -0.502241 -0.005438 -0.000000
v -1.076236 0.477447 0.000000
v -0.355138 -0.005438 0.355138
v -0.761014 0.477447 0.761014
v 0.000000 -0.005438 0.502241
v 0.000000 0.477447 1.076236
v 0.355138 -0.005438 0.355138
v 0.761014 0.477447 0.761014
v 0.502241 -0.005438 -0.000000
v 1.076236 0.477447 0.000000
v 0.000000 0.953142 -1.312419
v 0.928020 0.953142 -0.928020
v -0.928020 0.953142 -0.928020
v -1.312419 0.953142 0.000000
v -0.928020 0.953142 0.928020
v 0.000000 0.953142 1.312419
v 0.928020 0.953142 0.928020
v 1.312419 0.953142 0.000000
v 0.000000 1.709320 -1.173396
v 0.829716 1.709320 -0.829716
v -0.829716 1.709320 -0.829716
v -1.173396 1.709320 0.000000
v -0.829716 1.709320 0.829716
v 0.000000 1.709320 1.173396
v 0.829716 1.709320 0.829716
v 1.173396 1.709320 0.000000
v 0.000000 2.553447 -0.656665
v 0.464332 2.553447 -0.464332
v -0.464332 2.553447 -0.464332
v -0.656665 2.553447 0.000000
v -0.464332 2.553447 0.464332
v 0.000000 2.553447 0.656665
v 0.464332 2.553447 0.464332
v 0.656665 2.553447 0.000000
v 0.000000 -0.105340 -0.000000
v 0.000000 2.998935 -0.519810
v 0.367561 2.998935 -0.367561
v -0.367561 2.998935 -0.367561
v -0.519810 2.998935 0.000000
v -0.367561 2.998935 0.367561
v 0.000000 2.998935 0.519810
v 0.367561 2.998935 0.367561
v 0.519810 2.998935 0.000000
v 0.000000 3.297180 -0.348357
v 0.246327 3.297180 -0.246325
v -0.246327 3.297180 -0.246325
v -0.348359 3.297180 0.000002
v -0.246327 3.297180 0.246329
v 0.000000 3.297180 0.348361
v 0.246327 3.297180 0.246329
v 0.348360 3.297180 0.000002
v 0.000000 3.412113 -0.079575
v 0.056269 3.412113 -0.056267
v -0.056269 3.412113 -0.056267
v -0.079577 3.412113 0.000002
v -0.056269 3.412113 0.056271
v 0.000000 3.412113 0.079579
v 0.056269 3.412113 0.056271
v 0.079577 3.412113 0.000002
v 0.000000 3.750386 -0.177186
v 0.056269 3.750386 -0.153878
v -0.056269 3.750386 -0.153878
v -0.079577 3.750386 -0.097609
v -0.056269 3.750386 -0.041339
v 0.000000 3.750386 -0.018032
v 0.056269 3.750386 -0.041339
v 0.079577 3.750386 -0.097609
v 0.000000 4.094216 -0.237412
v 0.060875 4.094216 -0.212196
v -0.060875 4.094216 -0.212196
v -0.086090 4.094216 -0.151321
v -0.060875 4.094216 -0.090446
v 0.000000 4.094216 -0.065231
v 0.060875 4.094216 -0.090446
v 0.086090 4.094216 -0.151321
v 0.000000 4.360276 -0.261522
v 0.065278 4.360276 -0.234483
v -0.065278 4.360276 -0.234483
v -0.092317 4.360276 -0.169205
v -0.065278 4.360276 -0.103927
v 0.000000 4.360276 -0.076888
v 0.065278 4.360276 -0.103927
v 0.092317 4.360276 -0.169205
v 0.000000 4.360276 -0.169205
vt 0.301375 0.153286
vt 0.412752 0.149802
vt 0.452045 0.183744
vt 0.367111 0.212676
vt 0.574799 0.172230
vt 0.683196 0.175489
vt 0.617038 0.230170
vt 0.535322 0.203409
vt 0.740731 0.168941
vt 0.740329 0.216137
vt 0.798146 0.176468
vt 0.863362 0.232267
vt 0.864453 0.183503
vt 0.968403 0.242261
vt 0.119330 0.155235
vt 0.182796 0.149074
vt 0.113012 0.203650
vt 0.008554 0.212149
vt 0.242344 0.143920
vt 0.240614 0.192606
vt 0.455138 0.329370
vt 0.392591 0.281292
vt 0.589452 0.295495
vt 0.526863 0.339363
vt 0.739799 0.278383
vt 0.889833 0.298053
vt 0.951665 0.342980
vt 0.082728 0.270284
vt 0.016927 0.313803
vt 0.238333 0.256817
vt 0.427644 0.449147
vt 0.371722 0.406160
vt 0.604326 0.417243
vt 0.548366 0.456465
vt 0.738747 0.401945
vt 0.872887 0.419531
vt 0.928171 0.459699
vt 0.094684 0.396319
vt 0.035852 0.435229
vt 0.233805 0.384279
vt 0.336595 0.580709
vt 0.305299 0.556652
vt 0.662199 0.565736
vt 0.630883 0.587685
vt 0.737425 0.557174
vt 0.812494 0.567016
vt 0.843432 0.589495
vt 0.150261 0.551146
vt 0.117337 0.572921
vt 0.228117 0.544407
vt 0.576292 0.775096
vt 0.491379 0.810537
vt 0.491055 0.690318
vt 0.611275 0.689994
vt 0.575834 0.605081
vt 0.490732 0.570098
vt 0.405819 0.605539
vt 0.370836 0.690641
vt 0.406277 0.775554
vt 0.311223 0.650947
vt 0.286450 0.631904
vt 0.677234 0.639374
vt 0.652445 0.656749
vt 0.736783 0.632597
vt 0.796207 0.640387
vt 0.820696 0.658181
vt 0.163722 0.627545
vt 0.137661 0.644781
vt 0.225353 0.622211
vt 0.280910 0.697496
vt 0.264308 0.684735
vt 0.696413 0.691452
vt 0.679800 0.703096
vt 0.736320 0.686910
vt 0.776144 0.692130
vt 0.792556 0.704056
vt 0.182061 0.681813
vt 0.164595 0.693364
vt 0.223363 0.678239
vt 0.235386 0.714232
vt 0.231594 0.711318
vt 0.726943 0.718576
vt 0.723148 0.721236
vt 0.736059 0.717538
vt 0.745157 0.718731
vt 0.748906 0.721455
vt 0.212806 0.710650
vt 0.208816 0.713288
vt 0.222241 0.709834
vt 0.222514 0.892107
vt 0.183783 0.879024
vt 0.205269 0.837749
vt 0.222228 0.843795
vt 0.298617 0.916147
vt 0.280417 0.910672
vt 0.305233 0.870475
vt 0.320104 0.874873
vt 0.270328 0.908552
vt 0.292128 0.867379
vt 0.261375 0.906863
vt 0.279749 0.864583
vt 0.252806 0.904656
vt 0.267289 0.861119
vt 0.244357 0.901515
vt 0.254032 0.856423
vt 0.235389 0.897474
vt 0.239128 0.850463
vt 0.220488 0.794471
vt 0.236772 0.800345
vt 0.320197 0.827148
vt 0.335322 0.831595
vt 0.306485 0.823950
vt 0.293484 0.821051
vt 0.280516 0.817468
vt 0.267062 0.812675
vt 0.252593 0.806763
vt 0.231523 0.761211
vt 0.252370 0.768604
vt 0.327316 0.792654
vt 0.346357 0.798334
vt 0.313274 0.789439
vt 0.301450 0.787014
vt 0.290437 0.784107
vt 0.279516 0.780102
vt 0.267635 0.774936
vt 0.364067 0.857483
vt 0.363078 0.830830
vt 0.389731 0.829840
vt 0.382624 0.848976
vt 0.362087 0.804176
vt 0.381224 0.811283
vt 0.336424 0.831820
vt 0.344931 0.850377
vt 0.343530 0.812683
vn 0.2577 -0.7394 -0.6220
vn -0.2577 -0.7394 -0.6220
vn -0.6220 -0.7394 -0.2577
vn -0.6220 -0.7394 0.2577
vn -0.2577 -0.7394 0.6220
vn 0.2577 -0.7394 0.6220
vn 0.6220 -0.7394 0.2577
vn 0.3478 -0.4169 -0.8398
vn -0.3478 -0.4170 -0.8397
vn -0.8398 -0.4169 -0.3478
vn -0.8397 -0.4170 0.3478
vn -0.3478 -0.4169 0.8398
vn 0.3478 -0.4170 0.8397
vn 0.8398 -0.4169 0.3478
vn 0.3773 0.1675 -0.9108
vn -0.3773 0.1675 -0.9108
vn -0.9108 0.1675 -0.3773
vn -0.9108 0.1675 0.3773
vn -0.3773 0.1675 0.9108
vn 0.3773 0.1675 0.9108
vn 0.9108 0.1675 0.3773
vn 0.3331 0.4923 -0.8042
vn -0.3331 0.4923 -0.8042
vn -0.8042 0.4923 -0.3331
vn -0.8042 0.4923 0.3331
vn -0.3331 0.4923 0.8042
vn 0.3331 0.4923 0.8042
vn 0.8042 0.4923 0.3331
vn -0.1379 -0.9808 -0.1379
vn 0.3681 0.2730 -0.8888
vn -0.3681 0.2730 -0.8888
vn -0.8888 0.2730 -0.3681
vn -0.8888 0.2730 0.3681
vn -0.3681 0.2730 0.8888
vn 0.3681 0.2730 0.8888
vn 0.8888 0.2730 0.3681
vn 0.3380 0.4691 -0.8159
vn -0.3380 0.4691 -0.8159
vn -0.8159 0.4691 -0.3380
vn -0.8159 0.4691 0.3380
vn -0.3380 0.4691 0.8159
vn 0.3380 0.4691 0.8159
vn 0.8159 0.4691 0.3380
vn 0.1607 0.9075 -0.3881
vn -0.1607 0.9075 -0.3881
vn -0.3881 0.9075 -0.1607
vn -0.3881 0.9075 0.1607
vn -0.1607 0.9075 0.3881
vn 0.1607 0.9075 0.3881
vn 0.3881 0.9075 0.1607
vn 0.3698 -0.2576 -0.8927
vn -0.3698 -0.2576 -0.8927
vn -0.9183 -0.1098 -0.3804
vn -0.9183 0.1098 0.3804
vn -0.3698 0.2576 0.8927
vn 0.3698 0.2576 0.8927
vn 0.9183 0.1098 0.3804
vn 0.3778 -0.1597 -0.9120
vn -0.3778 -0.1597 -0.9120
vn -0.9211 -0.0771 -0.3815
vn -0.9231 0.0422 0.3823
vn -0.3796 0.1258 0.9166
vn 0.3796 0.1258 0.9165
vn 0.9231 0.0422 0.3823
vn 0.3814 -0.0834 -0.9206
vn -0.3814 -0.0834 -0.9206
vn -0.9228 -0.0473 -0.3823
vn -0.9239 0.0041 0.3827
vn -0.3824 0.0404 0.9231
vn 0.3824 0.0404 0.9231
vn 0.9239 0.0041 0.3827
vn 0.0000 1.0000 0.0000
usemtl initialShadingGroup
s 1
f 1/1/1 2/2/1 3/3/1 4/4/1
f 2/5/1 5/6/2 6/7/2 3/8/1
f 5/6/2 7/9/3 8/10/3 6/7/2
f 7/9/3 9/11/4 10/12/4 8/10/3
f 9/11/4 11/13/5 12/14/5 10/12/4
f 11/15/5 13/16/6 14/17/6 12/18/5
f 13/16/6 15/19/7 16/20/7 14/17/6
f 15/19/7 1/1/1 4/4/1 16/20/7
f 3/3/1 17/21/8 18/22/8 4/4/1
f 6/7/2 19/23/9 17/24/8 3/8/1
f 8/10/3 20/25/10 19/23/9 6/7/2
f 10/12/4 21/26/11 20/25/10 8/10/3
f 12/14/5 22/27/12 21/26/11 10/12/4
f 14/17/6 23/28/13 22/29/12 12/18/5
f 16/20/7 24/30/14 23/28/13 14/17/6
f 4/4/1 18/22/8 24/30/14 16/20/7
f 18/22/8 17/21/8 25/31/15 26/32/15
f 17/24/8 19/23/9 27/33/16 25/34/15
f 19/23/9 20/25/10 28/35/17 27/33/16
f 20/25/10 21/26/11 29/36/18 28/35/17
f 21/26/11 22/27/12 30/37/19 29/36/18
f 22/29/12 23/28/13 31/38/20 30/39/19
f 23/28/13 24/30/14 32/40/21 31/38/20
f 24/30/14 18/22/8 26/32/15 32/40/21
f 25/31/15 33/41/22 34/42/22 26/32/15
f 27/33/16 35/43/23 33/44/22 25/34/15
f 28/35/17 36/45/24 35/43/23 27/33/16
f 29/36/18 37/46/25 36/45/24 28/35/17
f 30/37/19 38/47/26 37/46/25 29/36/18
f 31/38/20 39/48/27 38/49/26 30/39/19
f 32/40/21 40/50/28 39/48/27 31/38/20
f 26/32/15 34/42/22 40/50/28 32/40/21
f 5/51/2 2/52/1 41/53/29 7/54/3
f 9/55/4 7/54/3 41/53/29 11/56/5
f 13/57/6 11/56/5 41/53/29 15/58/7
f 1/59/1 15/58/7 41/53/29 2/52/1
f 34/42/22 33/41/22 42/60/30 43/61/30
f 33/44/22 35/43/23 44/62/31 42/63/30
f 35/43/23 36/45/24 45/64/32 44/62/31
f 36/45/24 37/46/25 46/65/33 45/64/32
f 37/46/25 38/47/26 47/66/34 46/65/33
f 38/49/26 39/48/27 48/67/35 47/68/34
f 39/48/27 40/50/28 49/69/36 48/67/35
f 40/50/28 34/42/22 43/61/30 49/69/36
f 43/61/30 42/60/30 50/70/37 51/71/37
f 42/63/30 44/62/31 52/72/38 50/73/37
f 44/62/31 45/64/32 53/74/39 52/72/38
f 45/64/32 46/65/33 54/75/40 53/74/39
f 46/65/33 47/66/34 55/76/41 54/75/40
f 47/68/34 48/67/35 56/77/42 55/78/41
f 48/67/35 49/69/36 57/79/43 56/77/42
f 49/69/36 43/61/30 51/71/37 57/79/43
f 51/71/37 50/70/37 58/80/44 59/81/44
f 50/73/37 52/72/38 60/82/45 58/83/44
f 52/72/38 53/74/39 61/84/46 60/82/45
f 53/74/39 54/75/40 62/85/47 61/84/46
f 54/75/40 55/76/41 63/86/48 62/85/47
f 55/78/41 56/77/42 64/87/49 63/88/48
f 56/77/42 57/79/43 65/89/50 64/87/49
f 57/79/43 51/71/37 59/81/44 65/89/50
f 59/90/51 58/91/51 66/92/51 67/93/51
f 58/94/51 60/95/52 68/96/52 66/97/51
f 60/95/52 61/98/53 69/99/53 68/96/52
f 61/98/53 62/100/54 70/101/54 69/99/53
f 62/100/54 63/102/55 71/103/55 70/101/54
f 63/102/55 64/104/56 72/105/56 71/103/55
f 64/104/56 65/106/57 73/107/57 72/105/56
f 65/106/57 59/90/51 67/93/51 73/107/57
f 67/93/51 66/92/51 74/108/58 75/109/58
f 66/97/51 68/96/52 76/110/59 74/111/58
f 68/96/52 69/99/53 77/112/60 76/110/59
f 69/99/53 70/101/54 78/113/61 77/112/60
f 70/101/54 71/103/55 79/114/62 78/113/61
f 71/103/55 72/105/56 80/115/63 79/114/62
f 72/105/56 73/107/57 81/116/64 80/115/63
f 73/107/57 67/93/51 75/109/58 81/116/64
f 75/109/58 74/108/58 82/117/65 83/118/65
f 74/111/58 76/110/59 84/119/66 82/120/65
f 76/110/59 77/112/60 85/121/67 84/119/66
f 77/112/60 78/113/61 86/122/68 85/121/67
f 78/113/61 79/114/62 87/123/69 86/122/68
f 79/114/62 80/115/63 88/124/70 87/123/69
f 80/115/63 81/116/64 89/125/71 88/124/70
f 81/116/64 75/109/58 83/118/65 89/125/71
f 87/126/72 90/127/72 85/128/72 86/129/72
f 82/130/72 84/131/72 85/128/72 90/127/72
f 89/132/72 90/127/72 87/126/72 88/133/72
f 82/130/72 90/127/72 89/132/72 83/134/72
