# This file uses centimeters as units for non-parametric coordinates.

mtllib windmill_body.mtl
g default
v -12.328317 -0.503516 3.185888
v -6.927884 -0.503516 3.185888
v -12.328317 8.823479 3.185888
v -6.927884 8.823479 3.185888
v -12.328317 8.823479 -3.185888
v -6.927884 8.823479 -3.185888
v -12.328317 -0.503516 -3.185888
v -6.927884 -0.503516 -3.185888
v -12.328317 9.935036 0.000000
v -6.927884 9.935036 0.000000
v -6.927884 -0.503516 0.000000
v -12.328317 -0.503516 0.000000
v -9.368294 -0.500000 9.368294
v 9.368294 -0.500000 9.368294
v -9.453368 2.947258 9.453368
v 9.453368 2.947258 9.453368
v -9.453368 2.947258 -9.453368
v 9.453368 2.947258 -9.453368
v -9.368294 -0.500000 -9.368294
v 9.368294 -0.500000 -9.368294
v -11.280977 2.947258 0.000000
v 13.026852 2.947258 0.000000
v 12.908305 -0.500000 0.000000
v -11.162431 -0.500000 0.000000
v -0.145863 -0.500000 13.054168
v -0.145863 -0.500000 0.000000
v -0.145863 -0.500000 -13.054168
v -0.145863 2.947258 -13.172713
v -0.145863 2.947258 13.172713
v -0.145863 3.568462 -10.834399
v 10.688537 3.568462 0.000000
v 7.775282 3.568462 -7.775282
v -0.145863 3.568462 10.834399
v 7.775282 3.568462 7.775282
v -9.656577 3.568462 0.000000
v -7.775282 3.568462 -7.775282
v -7.775282 3.568462 7.775282
v -0.145863 32.178020 -10.834399
v 10.688537 32.178020 0.000000
v 7.775282 32.178020 -7.775282
v -0.145863 32.178020 10.834399
v 7.775282 32.178020 7.775282
v -9.656577 32.178020 0.000000
v -7.775282 32.178020 -7.775282
v -7.775282 32.178020 7.775282
v -9.596859 32.178020 -4.261831
v -9.596859 3.568462 -4.261831
v -11.407037 2.947258 -5.181634
v -11.295428 -0.500000 -5.135002
v -0.201913 -0.500000 -7.155324
v 12.168365 -0.500000 -5.135002
v 12.279973 2.947258 -5.181634
v 10.078482 3.568462 -4.261831
v 10.078482 32.178020 -4.261831
v 4.139870 32.178020 -10.200443
v 4.139870 3.568462 -10.200443
v 5.059672 2.947258 -12.401936
v 5.013040 -0.500000 -12.290326
v 5.983226 -0.500000 -6.145163
v 6.953412 -0.500000 0.000000
v 5.013040 -0.500000 12.290326
v 5.059672 2.947258 12.401936
v 4.139870 3.568462 10.200443
v 4.139870 32.178020 10.200443
v -4.383793 32.178020 10.200443
v -4.383793 3.568462 10.200443
v -5.303596 2.947258 12.401936
v -5.256963 -0.500000 12.290326
v -6.240376 -0.500000 0.000000
v -5.748670 -0.500000 -6.145163
v -5.256963 -0.500000 -12.290326
v -5.303596 2.947258 -12.401936
v -4.383793 3.568462 -10.200443
v -4.383793 32.178020 -10.200443
v 10.078482 32.178020 4.261831
v 10.078482 3.568462 4.261831
v 12.279973 2.947258 5.181634
v 12.168365 -0.500000 5.135002
v 5.983226 -0.500000 6.145163
v -0.201913 -0.500000 7.155324
v -5.748670 -0.500000 6.145163
v -11.295428 -0.500000 5.135002
v -11.407037 2.947258 5.181634
v -9.596859 3.568462 4.261831
v -9.596859 32.178020 4.261831
v -9.801771 31.788620 9.850044
v 9.299302 31.788620 9.850044
v -9.335585 39.131310 4.792444
v 5.889991 39.102814 4.782345
v -9.335585 39.131310 -4.772246
v 5.889991 39.102814 -4.782345
v -9.801771 31.788620 -9.850044
v 9.299302 31.788620 -9.850044
v -0.550742 31.788620 13.003716
v -0.550742 31.788620 -13.003716
v -0.550742 39.102814 -6.313462
v -0.550742 39.102814 6.313462
v -9.340730 41.550995 0.000000
v -0.550742 41.529671 0.000000
v 7.421107 40.112312 0.000000
v 12.452973 31.788620 0.000000
v -0.550742 31.788620 0.000000
v -10.596222 31.788620 -0.478243
v -10.352215 35.997669 1.085474
v -9.624413 35.988979 1.084427
v -10.352215 38.168621 1.085474
v -9.624413 38.159927 1.084427
v -10.352215 38.168621 -1.085474
v -9.624413 38.159927 -1.086521
v -10.352215 35.997669 -1.085474
v -9.624413 35.988979 -1.086521
v -10.352215 38.654400 0.000233
v -9.624413 38.641834 -0.001280
v -9.624413 35.503197 -0.001280
v -10.352215 35.515762 0.000233
v -10.352215 37.085083 1.569552
v -9.624413 37.072514 1.568039
v -9.624413 37.072514 -1.570599
v -10.352215 37.085083 -1.569085
v -10.624413 37.083145 0.000000
vt 0.555301 0.808422
vt 0.555301 0.680480
vt 0.594350 0.680480
vt 0.594350 0.794798
vt 0.516253 0.680480
vt 0.516253 0.794798
vt 0.602256 0.683386
vt 0.641304 0.683386
vt 0.641304 0.811328
vt 0.602256 0.797704
vt 0.680353 0.683386
vt 0.680353 0.797704
vt 0.332985 0.831250
vt 0.290733 0.831250
vt 0.290733 0.768312
vt 0.332985 0.767740
vt 0.332985 0.894759
vt 0.290733 0.894188
vt 0.290733 0.716426
vt 0.332985 0.715383
vt 0.290733 0.946074
vt 0.332985 0.947117
vt 0.290733 0.680611
vt 0.332985 0.679243
vt 0.332985 0.983256
vt 0.290733 0.981888
vt 0.382676 0.895996
vt 0.340424 0.895424
vt 0.340424 0.832486
vt 0.382676 0.832486
vt 0.340424 0.947311
vt 0.382676 0.948353
vt 0.340424 0.769548
vt 0.382676 0.768977
vt 0.382676 0.984493
vt 0.340424 0.983125
vt 0.340424 0.717662
vt 0.382676 0.716620
vt 0.340424 0.681848
vt 0.382676 0.680480
vt 0.126977 0.001992
vt 0.179213 0.001992
vt 0.179213 0.352650
vt 0.126977 0.352650
vt 0.222276 0.001992
vt 0.222276 0.352650
vt 0.074741 0.352650
vt 0.074741 0.001992
vt 0.252001 0.001992
vt 0.252001 0.352650
vt 0.031678 0.001992
vt 0.031678 0.352650
vt 0.001953 0.352650
vt 0.001953 0.001992
vt 0.552728 0.352650
vt 0.552728 0.001992
vt 0.604964 0.001992
vt 0.604964 0.352650
vt 0.509665 0.001992
vt 0.509665 0.352650
vt 0.657200 0.001992
vt 0.657200 0.352650
vt 0.479940 0.352650
vt 0.479940 0.001992
vt 0.700263 0.001992
vt 0.700263 0.352650
vt 0.729987 0.001992
vt 0.729987 0.352650
vt 0.390115 0.921938
vt 0.390115 0.807070
vt 0.509769 0.801209
vt 0.480112 0.859701
vt 0.390115 0.680480
vt 0.480112 0.742469
vt 0.795783 0.820853
vt 0.815014 0.820829
vt 0.815017 0.840087
vt 0.801710 0.834133
vt 0.801710 0.807525
vt 0.815017 0.801618
vt 0.834252 0.820853
vt 0.828319 0.834133
vt 0.828319 0.807525
vt 0.912476 0.840666
vt 0.978667 0.840666
vt 0.978667 0.879715
vt 0.912476 0.879715
vt 0.912476 0.801618
vt 0.978667 0.801618
vt 0.840268 0.801618
vt 0.906460 0.801618
vt 0.906460 0.840666
vt 0.840268 0.840666
vt 0.906460 0.879715
vt 0.840268 0.879715
vt 0.513172 0.516565
vt 0.512485 0.428865
vt 0.588294 0.441246
vt 0.600185 0.516565
vt 0.438473 0.516565
vt 0.444500 0.441246
vt 0.576403 0.365926
vt 0.513172 0.356564
vt 0.664103 0.453627
vt 0.673173 0.516565
vt 0.588294 0.591884
vt 0.512485 0.604266
vt 0.376515 0.453627
vt 0.378145 0.516565
vt 0.450527 0.365926
vt 0.444500 0.591884
vt 0.629784 0.401741
vt 0.664103 0.579503
vt 0.513172 0.676566
vt 0.576403 0.667204
vt 0.400135 0.401741
vt 0.376515 0.579503
vt 0.450527 0.667204
vt 0.629784 0.631389
vt 0.400135 0.631389
vt 0.978667 0.518018
vt 0.969513 0.581528
vt 0.942530 0.570254
vt 0.950007 0.518018
vt 0.934868 0.633885
vt 0.914300 0.613317
vt 0.942530 0.465782
vt 0.969513 0.454508
vt 0.881016 0.670025
vt 0.869742 0.643042
vt 0.934868 0.402151
vt 0.914300 0.422719
vt 0.817214 0.679472
vt 0.817214 0.650812
vt 0.869742 0.392995
vt 0.881016 0.366012
vt 0.753997 0.670025
vt 0.765271 0.643042
vt 0.817214 0.356564
vt 0.817214 0.385224
vt 0.703134 0.633885
vt 0.723702 0.613317
vt 0.765271 0.392995
vt 0.753997 0.366012
vt 0.679189 0.581528
vt 0.701376 0.570254
vt 0.703134 0.402151
vt 0.723702 0.422719
vt 0.680734 0.518018
vt 0.700644 0.518018
vt 0.701376 0.465782
vt 0.679189 0.454508
vt 0.211116 0.593329
vt 0.211116 0.515947
vt 0.308825 0.515947
vt 0.290058 0.574562
vt 0.103380 0.515947
vt 0.103443 0.574439
vt 0.211116 0.438565
vt 0.290058 0.457331
vt 0.370499 0.515947
vt 0.331845 0.636676
vt 0.211116 0.675329
vt 0.103443 0.457207
vt 0.097730 0.636676
vt 0.211116 0.356564
vt 0.331845 0.395218
vt 0.097730 0.395218
vt 0.284460 0.838626
vt 0.125078 0.838626
vt 0.125078 0.679243
vt 0.245806 0.717897
vt 0.125078 0.998008
vt 0.245806 0.959355
vt 0.011691 0.717897
vt 0.001953 0.832764
vt 0.011691 0.959355
vt 0.750972 0.827621
vt 0.759892 0.827639
vt 0.759892 0.840941
vt 0.750972 0.840928
vt 0.750972 0.814319
vt 0.759892 0.814332
vt 0.736035 0.814332
vt 0.744956 0.814319
vt 0.744956 0.827621
vt 0.736035 0.827639
vt 0.744956 0.840928
vt 0.736035 0.840941
vt 0.787641 0.683386
vt 0.853832 0.683386
vt 0.853832 0.797704
vt 0.787641 0.797704
vt 0.860266 0.683386
vt 0.926457 0.683386
vt 0.926457 0.797704
vt 0.860266 0.797704
vt 0.730511 0.747189
vt 0.688259 0.747189
vt 0.688259 0.683957
vt 0.730511 0.683386
vt 0.730511 0.810405
vt 0.688259 0.809834
vt 0.780202 0.747189
vt 0.737950 0.747189
vt 0.737950 0.683386
vt 0.780202 0.683958
vt 0.780202 0.809834
vt 0.737950 0.810405
vt 0.362715 0.001992
vt 0.362715 0.352650
vt 0.310186 0.352650
vt 0.310186 0.001992
vt 0.258243 0.352650
vt 0.258243 0.001992
vt 0.421035 0.001992
vt 0.473563 0.001992
vt 0.473563 0.352650
vt 0.421035 0.352650
vt 0.369092 0.352650
vt 0.369092 0.001992
vt 0.780846 0.827754
vt 0.789766 0.827600
vt 0.789766 0.840928
vt 0.780846 0.841035
vt 0.780846 0.814426
vt 0.789766 0.814319
vt 0.765909 0.814319
vt 0.774829 0.814426
vt 0.774829 0.827754
vt 0.765909 0.827600
vt 0.774829 0.841035
vt 0.765909 0.840928
vn 0.000000 0.000000 1.000000
vn 0.000000 0.000000 1.000000
vn 0.000000 0.000000 1.000000
vn 0.000000 0.000000 1.000000
vn 0.000000 1.000000 0.000000
vn 0.000000 1.000000 0.000000
vn 0.000000 0.944182 -0.329425
vn 0.000000 0.944182 -0.329425
vn 0.000000 0.000000 -1.000000
vn 0.000000 0.000000 -1.000000
vn 0.000000 0.000000 -1.000000
vn 0.000000 0.000000 -1.000000
vn 0.000000 -1.000000 0.000000
vn 0.000000 -1.000000 0.000000
vn 0.000000 -1.000000 0.000000
vn 0.000000 -1.000000 0.000000
vn 1.000000 0.000000 0.000000
vn 1.000000 0.000000 0.000000
vn 1.000000 0.000000 0.000000
vn 1.000000 0.000000 0.000000
vn -1.000000 0.000000 0.000000
vn -1.000000 0.000000 0.000000
vn -1.000000 0.000000 0.000000
vn -1.000000 0.000000 0.000000
vn 0.000000 0.944182 0.329425
vn 0.000000 0.944182 0.329425
vn 1.000000 0.000000 0.000000
vn 1.000000 0.000000 0.000000
vn 0.000000 -1.000000 0.000000
vn 0.000000 -1.000000 0.000000
vn -1.000000 0.000000 0.000000
vn -1.000000 0.000000 0.000000
vn 0.000002 -0.034368 0.999409
vn -0.000002 -0.034368 0.999409
vn 0.360926 -0.035012 0.931937
vn 0.361171 -0.035012 0.931842
vn -0.000002 -0.034368 -0.999409
vn 0.000002 -0.034368 -0.999409
vn 0.361171 -0.035012 -0.931842
vn 0.360926 -0.035012 -0.931937
vn 0.000000 -1.000000 0.000000
vn 0.000000 -1.000000 0.000000
vn 0.000000 -1.000000 0.000000
vn 0.000000 -1.000000 0.000000
vn 0.999410 -0.034336 0.000000
vn 0.999410 -0.034336 0.000000
vn 0.934903 -0.034994 -0.353173
vn 0.934793 -0.034995 -0.353465
vn -0.981221 -0.034385 -0.189795
vn -0.981587 -0.034381 -0.187899
vn -0.999449 -0.033194 0.000000
vn -0.999449 -0.033194 0.000000
vn 0.934793 -0.034995 0.353465
vn 0.934903 -0.034994 0.353173
vn 0.000000 -1.000000 0.000000
vn 0.000000 -1.000000 0.000000
vn -0.981587 -0.034381 0.187899
vn -0.981221 -0.034385 0.189795
vn 0.000000 -1.000000 0.000000
vn 0.000000 -1.000000 0.000000
vn 0.000000 -1.000000 0.000000
vn -0.370809 -0.035107 -0.928045
vn -0.370932 -0.035107 -0.927996
vn -0.370932 -0.035107 0.927996
vn -0.370809 -0.035107 0.928045
vn 0.256821 0.965754 -0.036903
vn 0.235820 0.967606 -0.090158
vn 0.236693 0.967592 -0.087988
vn 0.256821 0.965754 -0.036903
vn 0.090257 0.967627 -0.235692
vn 0.092062 0.967637 -0.234955
vn 0.037979 0.965769 -0.256607
vn 0.037979 0.965769 -0.256607
vn 0.037979 0.965769 0.256607
vn 0.092062 0.967637 0.234955
vn 0.090257 0.967627 0.235692
vn 0.037979 0.965769 0.256607
vn 0.236693 0.967592 0.087988
vn 0.235820 0.967606 0.090158
vn 0.256821 0.965754 0.036903
vn 0.256821 0.965754 0.036903
vn -0.038354 0.965774 -0.256533
vn -0.094016 0.967818 -0.233429
vn -0.093176 0.967813 -0.233785
vn -0.038354 0.965774 -0.256533
vn -0.299741 0.952380 -0.055924
vn -0.285994 0.955297 -0.074936
vn -0.340729 0.940158 0.002394
vn -0.340729 0.940158 0.002394
vn -0.093176 0.967813 0.233785
vn -0.094016 0.967818 0.233429
vn -0.038354 0.965774 0.256532
vn -0.038354 0.965774 0.256532
vn -0.340729 0.940158 -0.002394
vn -0.285994 0.955297 0.074936
vn -0.299741 0.952380 0.055924
vn -0.340729 0.940158 -0.002394
vn 0.989910 0.000000 -0.141700
vn 0.936427 0.000000 -0.350862
vn 0.936427 0.000000 -0.350862
vn 0.989910 0.000000 -0.141700
vn 0.360264 0.000000 -0.932851
vn 0.360264 0.000000 -0.932851
vn 0.146330 0.000000 -0.989236
vn 0.146330 0.000000 -0.989236
vn 0.146330 0.000000 0.989236
vn 0.360264 0.000000 0.932851
vn 0.360264 0.000000 0.932851
vn 0.146330 0.000000 0.989236
vn 0.936427 0.000000 0.350862
vn 0.936427 0.000000 0.350862
vn 0.989910 0.000000 0.141700
vn 0.989910 0.000000 0.141700
vn -0.147945 0.000000 -0.988996
vn -0.372161 0.000000 -0.928168
vn -0.372161 0.000000 -0.928168
vn -0.147945 0.000000 -0.988996
vn -0.971954 0.000000 -0.235172
vn -0.971954 0.000000 -0.235172
vn -0.999902 0.000000 -0.014011
vn -0.999902 0.000000 -0.014011
vn -0.372161 0.000000 0.928168
vn -0.372161 0.000000 0.928168
vn -0.147945 0.000000 0.988996
vn -0.147945 0.000000 0.988996
vn -0.999902 0.000000 0.014011
vn -0.971954 0.000000 0.235172
vn -0.971954 0.000000 0.235172
vn -0.999902 0.000000 0.014011
vn -0.887776 0.000000 -0.460275
vn -0.887776 0.000000 -0.460275
vn -0.251258 0.960221 -0.121842
vn -0.251258 0.960221 -0.121842
vn -0.909244 -0.033864 -0.414884
vn -0.909244 -0.033864 -0.414884
vn 0.000000 -1.000000 0.000000
vn 0.000000 -1.000000 0.000000
vn 0.000000 -1.000000 0.000000
vn 0.833516 -0.034312 -0.551429
vn 0.833516 -0.034312 -0.551429
vn 0.214728 0.966371 -0.141488
vn 0.214728 0.966371 -0.141488
vn 0.836321 0.000000 -0.548240
vn 0.836321 0.000000 -0.548240
vn 0.554946 0.000000 -0.831886
vn 0.554946 0.000000 -0.831886
vn 0.143025 0.966373 -0.213700
vn 0.143025 0.966373 -0.213700
vn 0.556864 -0.034313 -0.829895
vn 0.556864 -0.034313 -0.829895
vn 0.000000 -1.000000 0.000000
vn 0.000000 -1.000000 0.000000
vn 0.000000 -1.000000 0.000000
vn 0.000000 -1.000000 0.000000
vn 0.556864 -0.034313 0.829895
vn 0.556864 -0.034313 0.829895
vn 0.143025 0.966373 0.213700
vn 0.143025 0.966373 0.213700
vn 0.554946 0.000000 0.831886
vn 0.554946 0.000000 0.831886
vn -0.581662 0.000000 0.813431
vn -0.581662 0.000000 0.813431
vn -0.149285 0.966346 0.209500
vn -0.149285 0.966346 0.209500
vn -0.578923 -0.034299 0.814660
vn -0.578923 -0.034299 0.814660
vn 0.000000 -1.000000 0.000000
vn 0.000000 -1.000000 0.000000
vn 0.000000 -1.000000 0.000000
vn 0.000000 -1.000000 0.000000
vn -0.578923 -0.034299 -0.814661
vn -0.578923 -0.034299 -0.814661
vn -0.149285 0.966346 -0.209500
vn -0.149285 0.966346 -0.209500
vn -0.581662 0.000000 -0.813431
vn -0.581662 0.000000 -0.813431
vn 0.836321 0.000000 0.548240
vn 0.836321 0.000000 0.548240
vn 0.214728 0.966371 0.141488
vn 0.214728 0.966371 0.141488
vn 0.833516 -0.034312 0.551429
vn 0.833516 -0.034312 0.551429
vn 0.000000 -1.000000 0.000000
vn 0.000000 -1.000000 0.000000
vn 0.000000 -1.000000 0.000000
vn 0.000000 -1.000000 0.000000
vn 0.000000 -1.000000 0.000000
vn -0.909244 -0.033864 0.414884
vn -0.909244 -0.033864 0.414884
vn -0.251258 0.960221 0.121842
vn -0.251258 0.960221 0.121842
vn -0.887776 0.000000 0.460275
vn -0.887776 0.000000 0.460275
vn 0.002910 0.642753 0.766068
vn 0.001473 0.642660 0.766150
vn 0.211945 0.641789 0.737012
vn 0.211945 0.641789 0.737012
vn 0.035655 0.931229 -0.362686
vn 0.038302 0.999266 0.000000
vn 0.132029 0.991246 0.000000
vn 0.125556 0.942652 -0.309263
vn 0.001025 0.642993 -0.765871
vn 0.002372 0.643078 -0.765797
vn 0.211945 0.641789 -0.737012
vn 0.211945 0.641789 -0.737012
vn 0.000000 -1.000000 0.000000
vn 0.000000 -1.000000 0.000000
vn 0.000000 -1.000000 -0.000000
vn 0.000000 -1.000000 0.000000
vn 0.835276 0.549831 -0.000000
vn 0.835276 0.549831 -0.000000
vn 0.798861 0.525860 -0.292047
vn 0.798862 0.525860 -0.292047
vn -0.989189 0.124656 -0.077247
vn -0.992523 0.122036 -0.002287
vn -0.992548 0.121813 0.003308
vn -0.989188 0.124656 -0.077247
vn 0.000000 -1.000000 -0.000000
vn 0.000000 -1.000000 -0.000000
vn -0.197217 0.617584 -0.761377
vn -0.197217 0.617584 -0.761377
vn -0.035198 0.999380 0.000001
vn -0.032515 0.915772 -0.400380
vn -0.196529 0.617022 0.762011
vn -0.196529 0.617021 0.762011
vn -0.032002 0.916055 0.399775
vn 0.035832 0.931337 0.362393
vn 0.125557 0.942652 0.309263
vn 0.798861 0.525860 0.292047
vn 0.798862 0.525860 0.292047
vn 0.000000 -1.000000 0.000000
vn 0.000000 -1.000000 0.000000
vn 0.000000 -1.000000 0.000000
vn -0.990350 0.118792 0.071380
vn -0.990350 0.118792 0.071380
vn 0.001825 0.004477 0.999988
vn 0.001694 -0.004474 0.999989
vn 0.007553 0.407117 0.913345
vn 0.007553 0.407117 0.913345
vn 0.014605 0.999893 0.000540
vn 0.014603 0.999893 -0.000537
vn 0.012623 0.913299 -0.407095
vn 0.012623 0.913299 -0.407095
vn 0.004341 0.407125 -0.913362
vn 0.004341 0.407125 -0.913362
vn -0.001824 -0.004477 -0.999988
vn -0.001693 0.004474 -0.999989
vn -0.014052 -0.913280 -0.407091
vn -0.014052 -0.913280 -0.407091
vn -0.014602 -0.999893 -0.000541
vn -0.014600 -0.999893 0.000537
vn -0.992231 0.000060 -0.124408
vn -1.000000 -0.000095 -0.000011
vn -0.992231 0.124407 0.000007
vn -0.984641 0.123456 -0.123456
vn 0.014055 0.913281 0.407087
vn 0.014055 0.913281 0.407087
vn -0.012621 -0.913297 0.407099
vn -0.012621 -0.913297 0.407099
vn -0.992231 0.000060 0.124408
vn -0.984641 0.123455 0.123456
vn -0.004340 -0.407127 0.913361
vn -0.004340 -0.407127 0.913361
vn -0.007552 -0.407119 -0.913344
vn -0.007552 -0.407119 -0.913344
vn -0.984641 -0.123456 -0.123456
vn -0.992231 -0.124407 0.000007
vn -0.984641 -0.123455 0.123456
s off
g pCube6
usemtl initialShadingGroup
f 1/190/1 2/191/2 4/192/3 3/193/4
s 1
f 9/84/5 10/85/6 6/86/7 5/87/8
s off
f 5/194/9 6/195/10 8/196/11 7/197/12
s 2
f 7/90/13 8/91/14 11/92/15 12/93/16
s 3
f 10/1/17 11/2/18 8/3/19 6/4/20
s 4
f 7/7/21 12/8/22 9/9/23 5/10/24
s 1
f 3/88/25 4/89/26 10/85/6 9/84/5
s 3
f 2/5/27 11/2/18 10/1/17 4/6/28
s 2
f 12/93/16 11/92/15 2/94/29 1/95/30
s 4
f 9/9/23 12/8/22 1/11/31 3/12/32
s 5
f 29/198/33 25/199/34 61/200/35 62/201/36
s 6
f 27/204/37 28/205/38 57/206/39 58/207/40
s 7
f 26/96/41 50/97/42 59/98/43 60/99/44
s 8
f 22/13/45 23/14/46 51/15/47 52/16/48
s 9
f 48/27/49 49/28/50 24/29/51 21/30/52
s 8
f 77/17/53 78/18/54 23/14/46 22/13/45
s 7
f 79/106/55 80/107/56 26/96/41 60/99/44
s 9
f 21/30/52 24/29/51 82/33/57 83/34/58
s 7
f 80/107/56 81/111/59 69/100/60 26/96/41
f 69/100/60 70/101/61 50/97/42 26/96/41
s 6
f 71/208/62 72/209/63 28/205/38 27/204/37
s 5
f 67/202/64 68/203/65 25/199/34 29/198/33
s 10
f 22/121/66 52/122/67 53/123/68 31/124/69
s 11
f 56/130/70 57/129/71 28/133/72 30/134/73
s 12
f 29/139/74 62/136/75 63/135/76 33/140/77
s 13
f 76/127/78 77/128/79 22/121/80 31/124/81
s 14
f 28/133/82 72/137/83 73/138/84 30/134/85
s 15
f 47/146/86 48/145/87 21/149/88 35/150/89
s 16
f 66/143/90 67/144/91 29/139/92 33/140/93
s 17
f 21/149/94 83/152/95 84/151/96 35/150/97
s 18
f 31/41/98 53/42/99 54/43/100 39/44/101
s 19
f 55/210/102 56/211/103 30/212/104 38/213/105
s 20
f 33/216/106 63/217/107 64/218/108 41/219/109
s 21
f 75/47/110 76/48/111 31/41/112 39/44/113
s 22
f 30/212/114 73/214/115 74/215/116 38/213/117
s 23
f 46/55/118 47/56/119 35/57/120 43/58/121
s 24
f 65/220/122 66/221/123 33/216/124 41/219/125
s 25
f 35/57/126 84/61/127 85/62/128 43/58/129
s 23
f 36/59/130 47/56/119 46/55/118 44/60/131
s 15
f 17/141/132 48/145/87 47/146/86 36/142/133
s 9
f 19/31/134 49/28/50 48/27/49 17/32/135
s 7
f 70/101/61 71/110/136 27/103/137 50/97/42
f 58/102/138 59/98/43 50/97/42 27/103/137
s 8
f 52/16/48 51/15/47 20/19/139 18/20/140
s 10
f 53/123/68 52/122/67 18/125/141 32/126/142
s 18
f 54/43/100 53/42/99 32/45/143 40/46/144
s 19
f 32/45/145 56/49/103 55/50/102 40/46/146
s 11
f 18/125/147 57/129/71 56/130/70 32/126/148
s 6
f 58/23/40 57/24/39 18/20/149 20/19/150
s 7
f 51/104/151 59/98/43 58/102/138 20/112/152
f 60/99/44 59/98/43 51/104/151 23/105/153
f 78/113/154 79/106/55 60/99/44 23/105/153
s 5
f 62/25/36 61/26/35 14/21/155 16/22/156
s 12
f 63/135/76 62/136/75 16/131/157 34/132/158
s 20
f 64/53/108 63/54/107 34/51/159 42/52/160
s 24
f 37/65/161 66/67/123 65/68/122 45/66/162
s 16
f 15/147/163 67/144/91 66/143/90 37/148/164
s 5
f 13/37/165 68/39/65 67/40/64 15/38/166
s 7
f 24/109/167 69/100/60 81/111/59 82/117/168
f 49/108/169 70/101/61 69/100/60 24/109/167
f 19/116/170 71/110/136 70/101/61 49/108/169
s 6
f 17/32/171 72/35/63 71/36/62 19/31/172
s 14
f 73/138/84 72/137/83 17/141/173 36/142/174
s 22
f 74/63/116 73/64/115 36/59/175 44/60/176
s 21
f 34/51/177 76/48/111 75/47/110 42/52/178
s 13
f 16/131/179 77/128/79 76/127/78 34/132/180
s 8
f 14/21/181 78/18/54 77/17/53 16/22/182
s 7
f 61/115/183 79/106/55 78/113/154 14/119/184
f 25/114/185 80/107/56 79/106/55 61/115/183
f 68/118/186 81/111/59 80/107/56 25/114/185
f 82/117/168 81/111/59 68/118/186 13/120/187
s 9
f 83/34/58 82/33/57 13/37/188 15/38/189
s 17
f 84/151/96 83/152/95 15/147/190 37/148/191
s 25
f 85/62/128 84/61/127 37/65/192 45/66/193
s 26
f 97/159/194 94/166/195 87/167/196 89/160/197
s 27
f 96/153/198 99/154/199 100/155/200 91/156/201
s 28
f 95/163/202 96/153/203 91/156/204 93/162/205
s 29
f 101/169/206 102/170/207 95/171/208 93/172/209
s 30
f 100/155/210 101/161/211 93/162/212 91/156/213
s 31
f 92/69/214 103/70/215 98/71/216 90/72/217
s 29
f 92/175/218 95/171/208 102/170/207 103/176/219
s 28
f 90/158/220 96/153/203 95/163/202 92/165/221
s 27
f 98/157/222 99/154/199 96/153/198 90/158/223
s 26
f 86/168/224 94/166/195 97/159/194 88/164/225
s 27
f 88/164/226 97/159/227 99/154/199 98/157/222
f 100/155/200 99/154/199 97/159/227 89/160/228
s 30
f 87/167/229 101/161/211 100/155/210 89/160/230
s 29
f 94/173/231 102/170/207 101/169/206 87/174/232
f 103/176/219 102/170/207 94/173/231 86/177/233
s 31
f 98/71/216 103/70/215 86/73/234 88/74/235
s 32
f 116/222/236 117/223/237 107/224/238 106/225/239
s 33
f 112/178/240 113/179/241 109/180/242 108/181/243
s 34
f 108/228/244 109/229/245 118/230/246 119/231/247
s 35
f 110/184/248 111/185/249 114/186/250 115/187/251
s 36
f 119/75/252 120/76/253 112/77/254 108/78/255
s 33
f 106/182/256 107/183/257 113/179/241 112/178/240
s 35
f 115/187/251 114/186/250 105/188/258 104/189/259
s 36
f 112/77/254 120/76/253 116/81/260 106/82/261
s 32
f 104/226/262 105/227/263 117/223/237 116/222/236
s 34
f 119/231/247 118/230/246 111/232/264 110/233/265
s 36
f 110/79/266 115/80/267 120/76/253 119/75/252
f 116/81/260 120/76/253 115/80/267 104/83/268
