# This file uses centimeters as units for non-parametric coordinates.

mtllib spinny_boy.mtl
g default
v -12.708872 76.856667 -0.507675
v -12.687446 58.277138 -0.439677
v -11.570180 77.097618 -4.370438
v -13.170748 77.029541 4.226322
v -11.954920 58.266602 0.459488
v -12.305565 76.951317 0.332848
v -12.678834 58.348503 19.140713
v -12.372977 58.392673 0.460800
v -11.349402 63.361927 19.282085
v -13.376358 52.589027 19.308750
v -12.090160 57.397671 0.447252
v -12.291780 57.457142 19.298573
v -13.071240 62.916191 -19.319506
v -12.061071 58.300568 -0.455880
v -12.852932 58.179939 -19.157160
v -12.629705 57.405403 -18.855703
v -12.688213 57.365547 -0.497958
v -11.602664 52.720787 -19.293707
v -13.294753 38.714146 -5.414329
v -12.101377 57.390919 -0.472220
v -12.319078 39.102043 -0.123771
v -12.612900 38.730217 0.340992
v -12.725365 57.392967 0.488197
v -11.458752 38.647148 5.612478
v -12.861890 57.353157 0.500516
v -9.060432 57.353157 0.500516
v -12.861890 58.353149 0.497724
v -9.060432 58.353149 0.497724
v -12.861890 58.350357 -0.502272
v -9.060432 58.350357 -0.502272
v -12.861890 57.350365 -0.499480
v -9.060432 57.350365 -0.499480
v -11.853625 57.353157 0.500516
v -11.853625 57.350365 -0.499480
v -11.853625 58.350357 -0.502272
v -11.853625 58.353149 0.497724
v -12.861890 57.350365 -0.499480
v -11.853625 57.350365 -0.499480
v -11.853625 57.353157 0.500516
v -12.861890 57.353157 0.500516
v -12.861890 58.350357 -0.502272
v -11.853625 58.350357 -0.502272
v -12.861890 58.353149 0.497724
v -11.853625 58.353149 0.497724
v -12.934460 58.215897 -19.871840
v -11.938823 58.374969 -19.872282
v -11.781055 57.387497 -19.869526
v -12.776693 57.228424 -19.869081
v -12.932901 77.522736 0.360561
v -11.936675 77.523170 0.515895
v -11.782614 77.520416 -0.472163
v -12.778840 77.519981 -0.627497
v -12.936625 57.490486 19.840570
v -11.941834 57.326195 19.841030
v -11.778891 58.312824 19.838274
v -12.773681 58.477116 19.837816
v -12.930316 38.204231 -0.365931
v -11.933146 38.203815 -0.515100
v -11.785199 38.206573 0.473891
v -12.782369 38.206993 0.623061
v -12.934460 58.218834 -18.820631
v -11.938823 58.377903 -18.821075
v -11.781055 57.390427 -18.818317
v -12.776693 57.231361 -18.817873
v -12.932901 76.766373 0.362673
v -11.936675 76.766808 0.518007
v -11.782614 76.764053 -0.470051
v -12.778840 76.763618 -0.625385
v -12.936625 57.488125 18.995230
v -11.941834 57.323837 18.995687
v -11.778891 58.310463 18.992933
v -12.773681 58.474754 18.992474
v -12.930316 39.161278 -0.368603
v -11.933146 39.160862 -0.517773
v -11.785199 39.163628 0.471219
v -12.782369 39.164040 0.620388
v -13.299336 62.927109 -19.232759
v -13.059476 62.965431 -19.232866
v -13.059476 62.964722 -19.486116
v -13.299336 62.926399 -19.486010
v -11.416179 52.679924 -19.204147
v -11.656039 52.641602 -19.204041
v -11.656039 52.640892 -19.457289
v -11.416179 52.679214 -19.457396
v -13.202773 77.030975 4.287375
v -12.874687 77.031113 4.338531
v -12.874687 77.280205 4.337835
v -13.202773 77.280060 4.286679
v -11.512742 77.006729 -4.396170
v -11.840828 77.006584 -4.447326
v -11.840828 77.255676 -4.448021
v -11.512742 77.255814 -4.396865
v -13.441071 52.418510 19.284792
v -13.094470 52.361267 19.284952
v -13.094470 52.362091 19.579483
v -13.441071 52.419331 19.579323
v -11.274445 63.381615 19.254181
v -11.621045 63.438858 19.254021
v -11.621045 63.439678 19.548552
v -11.274445 63.382439 19.548712
v -13.352761 38.815269 -5.552409
v -13.046453 38.815144 -5.598230
v -13.046453 38.521156 -5.597409
v -13.352761 38.521286 -5.551589
v -11.362754 38.846569 5.656877
v -11.669063 38.846699 5.702698
v -11.669063 38.552711 5.703518
v -11.362754 38.552586 5.657698
vt 0.814288 0.409940
vt 0.814288 0.409940
vt 0.814288 0.409940
vt 0.814288 0.409940
vt 0.814288 0.409940
vt 0.814288 0.409940
vt 0.814288 0.409940
vt 0.814288 0.409940
vt 0.814288 0.409940
vt 0.814288 0.409940
vt 0.814288 0.409940
vt 0.814288 0.409940
vt 0.814288 0.409940
vt 0.814288 0.409940
vt 0.814288 0.409940
vt 0.814288 0.409940
vt 0.814288 0.409940
vt 0.814288 0.409940
vt 0.079927 0.334736
vt 0.013185 0.338900
vt 0.081102 0.013711
vt 0.314295 0.335082
vt 0.247608 0.333742
vt 0.249777 0.013711
vt 0.102709 0.016145
vt 0.189009 0.013711
vt 0.103469 0.337696
vt 0.467961 0.013711
vt 0.540058 0.055603
vt 0.377540 0.334620
vt 0.641887 0.333223
vt 0.561665 0.330473
vt 0.563708 0.013711
vt 0.226001 0.328016
vt 0.145795 0.335515
vt 0.225319 0.013711
vt 0.587870 0.013711
vt 0.678144 0.020330
vt 0.672198 0.332397
vt 0.343104 0.015133
vt 0.433358 0.013711
vt 0.345624 0.334661
vt 0.940722 0.444487
vt 0.940772 0.426471
vt 0.958788 0.426522
vt 0.958738 0.444537
vt 0.099122 0.754389
vt 0.087931 0.754420
vt 0.087897 0.742506
vt 0.099089 0.742475
vt 0.098810 0.962011
vt 0.087476 0.962042
vt 0.034542 0.750047
vt 0.034535 0.747177
vt 0.151109 0.746852
vt 0.151117 0.749722
vt 0.203144 0.950092
vt 0.214336 0.950124
vt 0.214303 0.962038
vt 0.203111 0.962007
vt 0.204493 0.742475
vt 0.215827 0.742506
vt 0.267699 0.954794
vt 0.267691 0.957665
vt 0.151117 0.957339
vt 0.151125 0.954469
vt 0.560817 0.951099
vt 0.572010 0.951068
vt 0.572034 0.959636
vt 0.560841 0.959667
vt 0.561047 0.742506
vt 0.572375 0.742475
vt 0.616485 0.953817
vt 0.616493 0.956638
vt 0.517546 0.956915
vt 0.517537 0.954093
vt 0.659796 0.951063
vt 0.670990 0.951094
vt 0.670965 0.959662
vt 0.659773 0.959631
vt 0.661191 0.742475
vt 0.672519 0.742506
vt 0.715449 0.954091
vt 0.715441 0.956913
vt 0.616493 0.956637
vt 0.616501 0.953815
vt 0.323947 0.952140
vt 0.335130 0.952108
vt 0.335157 0.961690
vt 0.323974 0.961722
vt 0.324279 0.742506
vt 0.335614 0.742475
vt 0.392609 0.955070
vt 0.392618 0.958408
vt 0.267708 0.958757
vt 0.267699 0.955419
vt 0.461263 0.752088
vt 0.450080 0.752056
vt 0.450107 0.742475
vt 0.461290 0.742506
vt 0.459884 0.961716
vt 0.448550 0.961685
vt 0.392618 0.748774
vt 0.392628 0.745436
vt 0.517537 0.745785
vt 0.517528 0.749123
vt 0.785400 0.753316
vt 0.774198 0.753347
vt 0.774167 0.742506
vt 0.785370 0.742475
vt 0.785193 0.959353
vt 0.773866 0.959385
vt 0.715458 0.749756
vt 0.715449 0.746425
vt 0.842939 0.746069
vt 0.842948 0.749400
vt 0.912869 0.753347
vt 0.901666 0.753316
vt 0.901697 0.742475
vt 0.912899 0.742506
vt 0.911511 0.959380
vt 0.900184 0.959349
vt 0.842948 0.749396
vt 0.842957 0.746066
vt 0.970447 0.746422
vt 0.970438 0.749752
vt 0.922706 0.476794
vt 0.904690 0.476794
vt 0.904690 0.426471
vt 0.922706 0.426471
vt 0.886674 0.476795
vt 0.868658 0.476795
vt 0.868658 0.426471
vt 0.886674 0.426471
vt 0.886674 0.476795
vt 0.868658 0.476795
vt 0.536836 0.520806
vt 0.554817 0.518116
vt 0.557485 0.535950
vt 0.539504 0.538639
vt 0.529219 0.427297
vt 0.534742 0.426471
vt 0.565103 0.629425
vt 0.559579 0.630251
vt 0.643007 0.498189
vt 0.660971 0.495388
vt 0.663749 0.513204
vt 0.645785 0.516005
vt 0.638141 0.427394
vt 0.644057 0.426471
vt 0.668615 0.583974
vt 0.662699 0.584896
vt 0.814288 0.409940
vt 0.814288 0.409940
vt 0.814288 0.409940
vt 0.814288 0.409940
vt 0.807254 0.409940
vt 0.810771 0.409942
vt 0.810771 0.413655
vt 0.807254 0.413654
vt 0.814288 0.413654
vt 0.810771 0.413655
vt 0.810771 0.409942
vt 0.814288 0.409940
vt 0.782682 0.415025
vt 0.782684 0.409940
vt 0.787005 0.409940
vt 0.787003 0.415025
vt 0.791326 0.409940
vt 0.791328 0.415025
vt 0.787007 0.415025
vt 0.787005 0.409940
vt 0.192976 0.712966
vt 0.174538 0.712755
vt 0.179933 0.377766
vt 0.198141 0.377983
vt 0.203306 0.377766
vt 0.221745 0.377977
vt 0.216349 0.712959
vt 0.198141 0.712759
vt 0.098428 0.716263
vt 0.079985 0.716052
vt 0.085474 0.377766
vt 0.103670 0.377983
vt 0.108912 0.377766
vt 0.127355 0.377978
vt 0.121866 0.716255
vt 0.103670 0.716055
vt 0.850689 0.426471
vt 0.868658 0.429273
vt 0.851739 0.498181
vt 0.845821 0.497259
vt 0.840955 0.498194
vt 0.822990 0.495393
vt 0.839905 0.426471
vt 0.845821 0.427394
vt 0.701834 0.426471
vt 0.719820 0.429162
vt 0.699740 0.520793
vt 0.694215 0.519967
vt 0.686597 0.520810
vt 0.668615 0.518120
vt 0.688691 0.426471
vt 0.694215 0.427297
vt 0.904690 0.476794
vt 0.886674 0.476794
vt 0.886674 0.426471
vt 0.904690 0.426471
vt 0.940722 0.476794
vt 0.922706 0.476794
vt 0.922706 0.426471
vt 0.940722 0.426471
vt 0.610746 0.512157
vt 0.628711 0.509287
vt 0.631557 0.527104
vt 0.613592 0.529974
vt 0.604162 0.427163
vt 0.608490 0.426471
vt 0.638141 0.612059
vt 0.633813 0.612750
vt 0.574197 0.518924
vt 0.592130 0.515962
vt 0.595068 0.533749
vt 0.577134 0.536710
vt 0.565103 0.427503
vt 0.571351 0.426471
vt 0.604162 0.625142
vt 0.597914 0.626174
vt 0.791328 0.414750
vt 0.791330 0.409940
vt 0.794982 0.409940
vt 0.794980 0.414750
vt 0.798633 0.409940
vt 0.798635 0.414750
vt 0.794984 0.414750
vt 0.794982 0.409940
vt 0.798635 0.414428
vt 0.798637 0.409940
vt 0.802945 0.409940
vt 0.802942 0.414428
vt 0.807252 0.409940
vt 0.807254 0.414428
vt 0.802946 0.414428
vt 0.802945 0.409940
vt 0.145791 0.714652
vt 0.127355 0.714441
vt 0.132730 0.377766
vt 0.150946 0.377983
vt 0.156102 0.377766
vt 0.174538 0.377977
vt 0.169162 0.714644
vt 0.150946 0.714444
vt 0.240176 0.710475
vt 0.221745 0.710264
vt 0.227008 0.377766
vt 0.245236 0.377983
vt 0.250296 0.377766
vt 0.268728 0.377977
vt 0.263465 0.710469
vt 0.245236 0.710267
vt 0.805018 0.426471
vt 0.822990 0.429342
vt 0.802762 0.512150
vt 0.798432 0.511458
vt 0.791847 0.512170
vt 0.773880 0.509299
vt 0.794103 0.426471
vt 0.798432 0.427163
vt 0.755943 0.426471
vt 0.773880 0.429433
vt 0.753097 0.518911
vt 0.746848 0.517879
vt 0.737753 0.518926
vt 0.719820 0.515964
vt 0.740599 0.426471
vt 0.746848 0.427503
vn -0.959153 -0.002141 -0.282880
vn -0.959153 -0.002141 -0.282880
vn -0.959153 -0.002141 -0.282880
vn -0.976082 -0.019785 -0.216501
vn -0.976082 -0.019785 -0.216501
vn -0.976082 -0.019785 -0.216501
vn -0.966375 0.256687 -0.015216
vn -0.966375 0.256687 -0.015216
vn -0.966375 0.256687 -0.015216
vn -0.976014 0.217425 -0.011125
vn -0.976014 0.217425 -0.011125
vn -0.976014 0.217425 -0.011125
vn -0.998101 -0.044547 0.042550
vn -0.998101 -0.044547 0.042550
vn -0.998101 -0.044547 0.042550
vn -0.976864 -0.213830 -0.003578
vn -0.976864 -0.213830 -0.003578
vn -0.976864 -0.213830 -0.003578
vn -0.983502 0.015142 0.180265
vn -0.983502 0.015142 0.180265
vn -0.983502 0.015142 0.180265
vn -0.976858 -0.007573 0.213756
vn -0.976858 -0.007573 0.213756
vn -0.976858 -0.007573 0.213756
vn 0.000000 0.002792 0.999996
vn 0.000000 0.002792 0.999996
vn 0.000000 0.002792 0.999996
vn 0.000000 0.002792 0.999996
vn 0.000000 0.999996 -0.002797
vn 0.000000 0.999996 -0.002797
vn 0.000000 0.999996 -0.002797
vn 0.000000 0.999996 -0.002797
vn 0.000000 -0.002792 -0.999996
vn 0.000000 -0.002792 -0.999996
vn 0.000000 -0.002792 -0.999996
vn 0.000000 -0.002792 -0.999996
vn 0.000000 -0.999996 0.002792
vn 0.000000 -0.999996 0.002792
vn 0.000000 -0.999996 0.002792
vn 0.000000 -0.999996 0.002792
vn -1.000000 -0.000000 0.000000
vn -1.000000 -0.000000 0.000000
vn -1.000000 -0.000000 0.000000
vn -1.000000 -0.000000 0.000000
vn -0.000001 -0.999996 0.002790
vn -0.000001 -0.999996 0.002790
vn -0.000001 -0.999996 0.002790
vn -0.000001 -0.999996 0.002790
vn 0.000002 -0.002792 -0.999996
vn 0.000002 -0.002792 -0.999996
vn 0.000002 -0.002792 -0.999996
vn 0.000002 -0.002792 -0.999996
vn -0.000002 0.999996 -0.002773
vn -0.000002 0.999996 -0.002773
vn -0.000002 0.999996 -0.002773
vn -0.000002 0.999996 -0.002773
vn -0.000002 0.002792 0.999996
vn -0.000002 0.002792 0.999996
vn -0.000002 0.002792 0.999996
vn -0.000002 0.002792 0.999996
vn 0.000000 -0.000000 0.000000
vn 0.000000 -0.000000 0.000000
vn 0.000000 -0.000000 0.000000
vn 0.000118 -1.000000 0.000000
vn -0.000000 0.000000 0.000000
vn -0.000000 0.000000 0.000000
vn -0.000000 0.000000 0.000000
vn -0.000000 0.000000 0.000000
vn 0.000000 0.000000 0.000000
vn 0.000000 0.000000 0.000000
vn 0.000000 0.000000 0.000000
vn 0.000000 0.000000 0.000000
vn 0.000000 -1.000000 0.000000
vn 0.000000 -0.000000 0.000000
vn 0.000000 -0.000000 0.000000
vn 0.000000 -1.000000 0.000000
vn 0.000000 0.000000 0.000000
vn 0.000000 0.000000 0.000000
vn 0.000000 0.000000 0.000000
vn 0.000000 0.000000 0.000000
vn 0.000000 0.000000 0.000000
vn 0.000000 0.000000 0.000000
vn 0.000000 0.000000 0.000000
vn 0.000000 0.000000 0.000000
vn 0.000000 0.000000 0.000000
vn 0.000000 0.000000 0.000000
vn 0.000000 0.000000 0.000000
vn 0.000000 0.000000 0.000000
vn 0.000000 0.000000 0.000000
vn 0.000000 0.000000 0.000000
vn 0.000000 0.000000 0.000000
vn 0.000000 0.000000 0.000000
vn -0.157768 0.987472 -0.002760
vn -0.157768 0.987472 -0.002760
vn -0.157768 0.987472 -0.002760
vn -0.157768 0.987472 -0.002760
vn 0.996513 0.083437 -0.000211
vn 0.996515 0.083413 -0.000211
vn 0.987476 0.157766 -0.000440
vn 0.987476 0.157766 -0.000440
vn 0.157769 -0.987472 0.002775
vn 0.157769 -0.987472 0.002775
vn 0.157769 -0.987472 0.002775
vn 0.157769 -0.987472 0.002775
vn -0.996513 -0.083435 0.000211
vn -0.996515 -0.083414 0.000211
vn -0.987476 -0.157766 0.000441
vn -0.987476 -0.157766 0.000441
vn -0.154056 0.002758 0.988058
vn -0.154056 0.002758 0.988058
vn -0.154056 0.002758 0.988058
vn -0.154056 0.002758 0.988058
vn 0.996769 0.000224 0.080318
vn 0.996771 0.000224 0.080302
vn 0.988061 0.000430 0.154060
vn 0.988061 0.000430 0.154060
vn 0.154058 -0.002758 -0.988058
vn 0.154058 -0.002758 -0.988058
vn 0.154058 -0.002758 -0.988058
vn 0.154058 -0.002758 -0.988058
vn -0.996769 -0.000224 -0.080318
vn -0.996771 -0.000224 -0.080302
vn -0.988061 -0.000431 -0.154060
vn -0.988061 -0.000431 -0.154060
vn -0.162944 -0.986632 0.002747
vn -0.162944 -0.986631 0.002747
vn -0.162944 -0.986632 0.002747
vn -0.162944 -0.986632 0.002747
vn 0.996353 -0.085329 0.000215
vn 0.996355 -0.085309 0.000215
vn 0.986635 -0.162945 0.000456
vn 0.986635 -0.162945 0.000456
vn 0.162945 0.986631 -0.002747
vn 0.162945 0.986631 -0.002747
vn 0.162945 0.986631 -0.002747
vn 0.162945 0.986631 -0.002747
vn -0.996353 0.085329 -0.000215
vn -0.996354 0.085311 -0.000215
vn -0.986635 0.162943 -0.000457
vn -0.986635 0.162943 -0.000457
vn -0.147944 -0.002761 -0.988992
vn -0.147944 -0.002761 -0.988992
vn -0.147944 -0.002761 -0.988992
vn -0.147944 -0.002761 -0.988992
vn 0.996962 -0.000217 -0.077895
vn 0.996963 -0.000217 -0.077877
vn 0.988995 -0.000413 -0.147947
vn 0.988995 -0.000413 -0.147947
vn 0.147944 0.002762 0.988992
vn 0.147944 0.002762 0.988992
vn 0.147944 0.002762 0.988992
vn 0.147944 0.002762 0.988992
vn -0.996962 0.000218 0.077895
vn -0.996963 0.000217 0.077877
vn -0.988995 0.000413 0.147947
vn -0.988995 0.000413 0.147947
vn -0.079131 0.996861 -0.002488
vn -0.079131 0.996861 -0.002488
vn -0.079131 0.996861 -0.002488
vn -0.079131 0.996861 -0.002488
vn 0.996864 0.079131 -0.000198
vn 0.996864 0.079131 -0.000198
vn 0.079129 -0.996861 0.002489
vn 0.079129 -0.996861 0.002489
vn 0.079129 -0.996861 0.002489
vn 0.079129 -0.996861 0.002489
vn -0.996864 -0.079130 0.000198
vn -0.996864 -0.079130 0.000198
vn -0.077262 0.002784 0.997007
vn -0.077262 0.002784 0.997007
vn -0.077262 0.002784 0.997007
vn -0.077262 0.002784 0.997007
vn 0.997011 0.000216 0.077261
vn 0.997011 0.000216 0.077261
vn 0.077262 -0.002784 -0.997007
vn 0.077262 -0.002784 -0.997007
vn 0.077262 -0.002784 -0.997007
vn 0.077262 -0.002784 -0.997007
vn -0.997011 -0.000216 -0.077261
vn -0.997011 -0.000216 -0.077261
vn -0.081744 -0.996650 0.002487
vn -0.081744 -0.996650 0.002487
vn -0.081744 -0.996650 0.002487
vn -0.081744 -0.996650 0.002487
vn 0.996653 -0.081746 0.000204
vn 0.996653 -0.081746 0.000204
vn 0.081746 0.996650 -0.002486
vn 0.081746 0.996650 -0.002486
vn 0.081746 0.996650 -0.002486
vn 0.081746 0.996650 -0.002486
vn -0.996653 0.081746 -0.000204
vn -0.996653 0.081746 -0.000204
vn -0.074178 -0.002785 -0.997241
vn -0.074178 -0.002785 -0.997241
vn -0.074178 -0.002785 -0.997241
vn -0.074178 -0.002785 -0.997241
vn 0.997245 -0.000207 -0.074178
vn 0.997245 -0.000207 -0.074178
vn 0.074178 0.002785 0.997241
vn 0.074178 0.002785 0.997241
vn 0.074178 0.002785 0.997241
vn 0.074178 0.002785 0.997241
vn -0.997245 0.000207 0.074178
vn -0.997245 0.000207 0.074178
vn -0.013324 0.086167 0.996192
vn -0.013324 0.086167 0.996192
vn -0.013324 0.086167 0.996192
vn -0.013324 0.086167 0.996192
vn 0.971449 0.237248 -0.000664
vn 0.971449 0.237248 -0.000664
vn 0.971449 0.237248 -0.000664
vn 0.971449 0.237249 -0.000664
vn -0.013321 0.080603 -0.996657
vn -0.013321 0.080603 -0.996657
vn -0.013321 0.080603 -0.996657
vn -0.013321 0.080603 -0.996657
vn -0.997012 -0.077246 0.000216
vn -0.997012 -0.077246 0.000216
vn -0.997012 -0.077246 0.000216
vn -0.997012 -0.077246 0.000216
vn 0.013324 -0.080602 0.996657
vn 0.013324 -0.080602 0.996657
vn 0.013324 -0.080602 0.996657
vn 0.013324 -0.080602 0.996657
vn -0.971449 -0.237249 0.000662
vn -0.971449 -0.237249 0.000662
vn -0.971449 -0.237249 0.000662
vn -0.971449 -0.237249 0.000662
vn 0.013324 -0.086167 -0.996192
vn 0.013324 -0.086167 -0.996192
vn 0.013324 -0.086167 -0.996192
vn 0.013324 -0.086167 -0.996192
vn 0.997012 0.077247 -0.000216
vn 0.997012 0.077247 -0.000216
vn 0.997012 0.077247 -0.000216
vn 0.997012 0.077247 -0.000216
vn -0.009950 -0.997731 0.066583
vn -0.009950 -0.997731 0.066583
vn -0.009950 -0.997731 0.066583
vn -0.009950 -0.997731 0.066583
vn 0.971168 0.000663 0.238395
vn 0.971168 0.000663 0.238395
vn 0.971168 0.000663 0.238395
vn 0.971168 0.000663 0.238395
vn -0.009950 0.998088 0.061007
vn -0.009950 0.998088 0.061007
vn -0.009950 0.998088 0.061007
vn -0.009950 0.998088 0.061007
vn -0.997645 -0.000193 -0.068587
vn -0.997645 -0.000193 -0.068587
vn -0.997645 -0.000193 -0.068587
vn -0.997645 -0.000193 -0.068587
vn 0.009950 -0.998088 -0.061005
vn 0.009950 -0.998088 -0.061005
vn 0.009950 -0.998088 -0.061005
vn 0.009950 -0.998088 -0.061005
vn -0.971167 -0.000667 -0.238398
vn -0.971167 -0.000667 -0.238398
vn -0.971167 -0.000667 -0.238398
vn -0.971167 -0.000667 -0.238398
vn 0.009950 0.997731 -0.066583
vn 0.009950 0.997731 -0.066583
vn 0.009950 0.997731 -0.066583
vn 0.009950 0.997731 -0.066583
vn 0.997645 0.000191 0.068588
vn 0.997645 0.000191 0.068588
vn 0.997645 0.000191 0.068588
vn 0.997645 0.000191 0.068588
vn -0.008812 -0.056148 -0.998384
vn -0.008812 -0.056148 -0.998384
vn -0.008812 -0.056148 -0.998384
vn -0.008812 -0.056148 -0.998384
vn 0.974079 -0.226208 0.000631
vn 0.974079 -0.226208 0.000631
vn 0.974079 -0.226208 0.000631
vn 0.974079 -0.226208 0.000631
vn -0.008816 -0.050572 0.998682
vn -0.008816 -0.050572 0.998682
vn -0.008816 -0.050572 0.998682
vn -0.008816 -0.050572 0.998682
vn -0.995088 0.098999 -0.000277
vn -0.995088 0.098999 -0.000277
vn -0.995088 0.098999 -0.000277
vn -0.995088 0.098999 -0.000277
vn 0.008816 0.050572 -0.998682
vn 0.008816 0.050572 -0.998682
vn 0.008816 0.050572 -0.998682
vn 0.008816 0.050572 -0.998682
vn -0.974079 0.226208 -0.000631
vn -0.974079 0.226208 -0.000631
vn -0.974079 0.226208 -0.000631
vn -0.974079 0.226208 -0.000631
vn 0.008812 0.056148 0.998384
vn 0.008812 0.056148 0.998384
vn 0.008812 0.056148 0.998384
vn 0.008812 0.056148 0.998384
vn 0.995088 -0.098999 0.000277
vn 0.995088 -0.098999 0.000277
vn 0.995088 -0.098999 0.000277
vn 0.995088 -0.098999 0.000277
vn -0.009433 0.997786 -0.065831
vn -0.009433 0.997786 -0.065831
vn -0.009433 0.997786 -0.065831
vn -0.009433 0.997786 -0.065831
vn 0.976830 -0.000596 -0.214016
vn 0.976830 -0.000596 -0.214016
vn 0.976830 -0.000596 -0.214016
vn 0.976830 -0.000596 -0.214016
vn -0.009432 -0.998138 -0.060258
vn -0.009432 -0.998138 -0.060258
vn -0.009432 -0.998138 -0.060258
vn -0.009432 -0.998138 -0.060258
vn -0.996697 0.000227 0.081209
vn -0.996697 0.000227 0.081209
vn -0.996697 0.000227 0.081209
vn -0.996697 0.000227 0.081209
vn 0.009429 0.998138 0.060258
vn 0.009429 0.998138 0.060258
vn 0.009429 0.998138 0.060258
vn 0.009429 0.998138 0.060258
vn -0.976830 0.000598 0.214017
vn -0.976830 0.000598 0.214017
vn -0.976830 0.000598 0.214017
vn -0.976830 0.000598 0.214017
vn 0.009430 -0.997786 0.065832
vn 0.009430 -0.997786 0.065832
vn 0.009430 -0.997786 0.065832
vn 0.009430 -0.997786 0.065832
vn 0.996697 -0.000227 -0.081209
vn 0.996697 -0.000227 -0.081209
vn 0.996697 -0.000227 -0.081209
vn 0.996697 -0.000227 -0.081209
s off
g pPlane9
usemtl initialShadingGroup
f 1/19/1 3/20/2 2/21/3
f 4/22/4 6/23/5 5/24/6
f 7/25/7 9/26/8 8/27/9
f 10/28/10 12/29/11 11/30/12
f 13/31/13 15/32/14 14/33/15
f 16/34/16 18/35/17 17/36/18
f 19/37/19 21/38/20 20/39/21
f 22/40/22 24/41/23 23/42/24
f 36/205/25 33/206/26 26/207/27 28/208/28
f 35/127/29 36/128/30 28/129/31 30/130/32
f 34/209/33 35/210/34 30/211/35 32/212/36
f 33/131/37 34/132/38 32/133/39 26/134/40
f 31/43/41 25/44/42 27/45/43 29/46/44
f 57/137/45 58/138/46 59/139/47 60/140/48
f 45/213/49 46/214/50 47/215/51 48/216/52
f 49/145/53 50/146/54 51/147/55 52/148/56
f 53/221/57 54/222/58 55/223/59 56/224/60
f 34/132/61 33/131/62 39/135/63 38/136/64
f 25/8/65 31/9/66 37/10/67 40/11/68
f 35/3/69 34/4/70 38/7/71 42/12/72
f 31/153/73 29/154/74 41/155/75 37/156/76
f 36/1/77 35/3/78 42/12/79 44/15/80
f 29/13/81 27/6/82 43/16/83 41/14/84
f 33/2/85 36/1/86 44/15/87 39/17/88
f 27/6/89 25/5/90 40/18/91 43/16/92
f 77/157/93 78/158/94 79/159/95 80/160/96
s 1
f 62/47/97 63/48/98 47/49/99 46/50/100
s off
f 81/161/101 82/162/102 83/163/103 84/164/104
s 2
f 64/57/105 61/58/106 45/59/107 48/60/108
s off
f 85/229/109 86/230/110 87/231/111 88/232/112
s 3
f 66/67/113 67/68/114 51/69/115 50/70/116
s off
f 89/233/117 90/234/118 91/235/119 92/236/120
s 4
f 68/77/121 65/78/122 49/79/123 52/80/124
s off
f 93/165/125 94/166/126 95/167/127 96/168/128
s 5
f 70/87/129 71/88/130 55/89/131 54/90/132
s off
f 97/169/133 98/170/134 99/171/135 100/172/136
s 6
f 72/97/137 69/98/138 53/99/139 56/100/140
s off
f 101/237/141 102/238/142 103/239/143 104/240/144
s 7
f 74/107/145 75/108/146 59/109/147 58/110/148
s off
f 105/241/149 106/242/150 107/243/151 108/244/152
s 8
f 76/117/153 73/118/154 57/119/155 60/120/156
s off
f 41/173/157 42/174/158 62/175/159 61/176/160
s 1
f 42/51/161 38/52/162 63/48/98 62/47/97
s off
f 38/177/163 37/178/164 64/179/165 63/180/166
s 2
f 37/61/167 41/62/168 61/58/106 64/57/105
s off
f 43/245/169 44/246/170 66/247/171 65/248/172
s 3
f 44/71/173 42/72/174 67/68/114 66/67/113
s off
f 42/249/175 41/250/176 68/251/177 67/252/178
s 4
f 41/81/179 43/82/180 65/78/122 68/77/121
s off
f 40/181/181 39/182/182 70/183/183 69/184/184
s 5
f 39/91/185 44/92/186 71/88/130 70/87/129
s off
f 44/185/187 43/186/188 72/187/189 71/188/190
s 6
f 43/101/191 40/102/192 69/98/138 72/97/137
s off
f 37/253/193 38/254/194 74/255/195 73/256/196
s 7
f 38/111/197 39/112/198 75/108/146 74/107/145
s off
f 39/257/199 40/258/200 76/259/201 75/260/202
s 8
f 40/121/203 37/122/204 73/118/154 76/117/153
s off
f 61/261/205 62/262/206 78/263/207 77/264/208
f 62/47/209 46/50/210 79/55/211 78/56/212
f 46/214/213 45/213/214 80/217/215 79/218/216
f 45/59/217 61/58/218 77/63/219 80/64/220
f 63/265/221 64/266/222 82/267/223 81/268/224
f 64/57/225 48/60/226 83/65/227 82/66/228
f 48/216/229 47/215/230 84/219/231 83/220/232
f 47/49/233 63/48/234 81/53/235 84/54/236
f 65/189/237 66/190/238 86/191/239 85/192/240
f 66/67/241 50/70/242 87/75/243 86/76/244
f 50/146/245 49/145/246 88/149/247 87/150/248
f 49/79/249 65/78/250 85/83/251 88/84/252
f 67/193/253 68/194/254 90/195/255 89/196/256
f 68/77/257 52/80/258 91/85/259 90/86/260
f 52/148/261 51/147/262 92/151/263 91/152/264
f 51/69/265 67/68/266 89/73/267 92/74/268
f 69/269/269 70/270/270 94/271/271 93/272/272
f 70/87/273 54/90/274 95/95/275 94/96/276
f 54/222/277 53/221/278 96/225/279 95/226/280
f 53/99/281 69/98/282 93/103/283 96/104/284
f 71/273/285 72/274/286 98/275/287 97/276/288
f 72/97/289 56/100/290 99/105/291 98/106/292
f 56/224/293 55/223/294 100/227/295 99/228/296
f 55/89/297 71/88/298 97/93/299 100/94/300
f 73/197/301 74/198/302 102/199/303 101/200/304
f 74/107/305 58/110/306 103/115/307 102/116/308
f 58/138/309 57/137/310 104/141/311 103/142/312
f 57/119/313 73/118/314 101/123/315 104/124/316
f 75/201/317 76/202/318 106/203/319 105/204/320
f 76/117/321 60/120/322 107/125/323 106/126/324
f 60/140/325 59/139/326 108/143/327 107/144/328
f 59/109/329 75/108/330 105/113/331 108/114/332
