# This file uses centimeters as units for non-parametric coordinates.

mtllib Windmill_spinny.mtl
g default
v -12.708872 76.856667 -0.507675
v -12.687446 58.277138 -0.439677
v -11.570180 77.097618 -4.370438
v -13.170748 77.029541 4.226322
v -11.954920 58.266602 0.459488
v -12.305565 76.951317 0.332848
v -12.678834 58.348503 19.140713
v -12.372977 58.392673 0.460800
v -11.349402 63.361927 19.282085
v -13.376358 52.589027 19.308750
v -12.090160 57.397671 0.447252
v -12.291780 57.457142 19.298573
v -13.071240 62.916191 -19.319506
v -12.061071 58.300568 -0.455880
v -12.852932 58.179939 -19.157160
v -12.629705 57.405403 -18.855703
v -12.688213 57.365547 -0.497958
v -11.602664 52.720787 -19.293707
v -13.294753 38.714146 -5.414329
v -12.101377 57.390919 -0.472220
v -12.319078 39.102043 -0.123771
v -12.612900 38.730217 0.340992
v -12.725365 57.392967 0.488197
v -11.458752 38.647148 5.612478
v -12.861890 57.353157 0.500516
v -9.060432 57.353157 0.500516
v -12.861890 58.353149 0.497724
v -9.060432 58.353149 0.497724
v -12.861890 58.350357 -0.502272
v -9.060432 58.350357 -0.502272
v -12.861890 57.350365 -0.499480
v -9.060432 57.350365 -0.499480
v -11.853625 57.353157 0.500516
v -11.853625 57.350365 -0.499480
v -11.853625 58.350357 -0.502272
v -11.853625 58.353149 0.497724
v -12.861890 57.350365 -0.499480
v -11.853625 57.350365 -0.499480
v -11.853625 57.353157 0.500516
v -12.861890 57.353157 0.500516
v -12.861890 58.350357 -0.502272
v -11.853625 58.350357 -0.502272
v -12.861890 58.353149 0.497724
v -11.853625 58.353149 0.497724
v -12.934460 58.215897 -19.871840
v -11.938823 58.374969 -19.872282
v -11.781055 57.387497 -19.869526
v -12.776693 57.228424 -19.869081
v -12.932901 77.522736 0.360561
v -11.936675 77.523170 0.515895
v -11.782614 77.520416 -0.472163
v -12.778840 77.519981 -0.627497
v -12.936625 57.490486 19.840570
v -11.941834 57.326195 19.841030
v -11.778891 58.312824 19.838274
v -12.773681 58.477116 19.837816
v -12.930316 38.204231 -0.365931
v -11.933146 38.203815 -0.515100
v -11.785199 38.206573 0.473891
v -12.782369 38.206993 0.623061
v -12.934460 58.218834 -18.820631
v -11.938823 58.377903 -18.821075
v -11.781055 57.390427 -18.818317
v -12.776693 57.231361 -18.817873
v -12.932901 76.766373 0.362673
v -11.936675 76.766808 0.518007
v -11.782614 76.764053 -0.470051
v -12.778840 76.763618 -0.625385
v -12.936625 57.488125 18.995230
v -11.941834 57.323837 18.995687
v -11.778891 58.310463 18.992933
v -12.773681 58.474754 18.992474
v -12.930316 39.161278 -0.368603
v -11.933146 39.160862 -0.517773
v -11.785199 39.163628 0.471219
v -12.782369 39.164040 0.620388
v -13.299336 62.927109 -19.232759
v -13.059476 62.965431 -19.232866
v -13.059476 62.964722 -19.486116
v -13.299336 62.926399 -19.486010
v -11.416179 52.679924 -19.204147
v -11.656039 52.641602 -19.204041
v -11.656039 52.640892 -19.457289
v -11.416179 52.679214 -19.457396
v -13.202773 77.030975 4.287375
v -12.874687 77.031113 4.338531
v -12.874687 77.280205 4.337835
v -13.202773 77.280060 4.286679
v -11.512742 77.006729 -4.396170
v -11.840828 77.006584 -4.447326
v -11.840828 77.255676 -4.448021
v -11.512742 77.255814 -4.396865
v -13.441071 52.418510 19.284792
v -13.094470 52.361267 19.284952
v -13.094470 52.362091 19.579483
v -13.441071 52.419331 19.579323
v -11.274445 63.381615 19.254181
v -11.621045 63.438858 19.254021
v -11.621045 63.439678 19.548552
v -11.274445 63.382439 19.548712
v -13.352761 38.815269 -5.552409
v -13.046453 38.815144 -5.598230
v -13.046453 38.521156 -5.597409
v -13.352761 38.521286 -5.551589
v -11.362754 38.846569 5.656877
v -11.669063 38.846699 5.702698
v -11.669063 38.552711 5.703518
v -11.362754 38.552586 5.657698
vt 0.373815 0.799767
vt 0.353763 0.801018
vt 0.374168 0.703315
vt 0.444231 0.799871
vt 0.424195 0.799468
vt 0.424846 0.703315
vt 0.380660 0.704046
vt 0.406589 0.703315
vt 0.380888 0.800656
vt 0.490400 0.703315
vt 0.512061 0.715901
vt 0.463233 0.799732
vt 0.542655 0.799312
vt 0.518553 0.798486
vt 0.519167 0.703315
vt 0.417703 0.797748
vt 0.393605 0.800001
vt 0.417498 0.703315
vt 0.526426 0.703315
vt 0.553549 0.705304
vt 0.551762 0.799064
vt 0.452886 0.703742
vt 0.480003 0.703315
vt 0.453644 0.799744
vt 0.621614 0.842448
vt 0.616201 0.842448
vt 0.616201 0.827328
vt 0.621614 0.827328
vt 0.627027 0.842448
vt 0.621614 0.842448
vt 0.621614 0.827328
vt 0.627027 0.827328
vt 0.632440 0.842448
vt 0.627027 0.842448
vt 0.627027 0.827328
vt 0.632440 0.827328
vt 0.616201 0.842448
vt 0.610788 0.842448
vt 0.610788 0.827328
vt 0.616201 0.827328
vt 0.632440 0.832741
vt 0.632455 0.827328
vt 0.637868 0.827344
vt 0.637853 0.832756
vt 0.511093 0.855671
vt 0.516495 0.854863
vt 0.517297 0.860221
vt 0.511895 0.861029
vt 0.533299 0.853073
vt 0.538697 0.852210
vt 0.539552 0.857563
vt 0.534154 0.858426
vt 0.542992 0.848876
vt 0.548389 0.848034
vt 0.549224 0.853387
vt 0.543827 0.854229
vt 0.522318 0.855106
vt 0.527706 0.854216
vt 0.528589 0.859560
vt 0.523200 0.860449
vt 0.616201 0.842448
vt 0.610788 0.842448
vt 0.594453 0.822362
vt 0.594453 0.822362
vt 0.594453 0.822362
vt 0.594453 0.822362
vt 0.594453 0.822362
vt 0.594453 0.822362
vt 0.594453 0.822362
vt 0.594453 0.822362
vt 0.594453 0.822362
vt 0.594453 0.822362
vt 0.594453 0.822362
vt 0.594453 0.822362
vt 0.594453 0.822362
vt 0.594453 0.822362
vt 0.594453 0.822362
vt 0.594453 0.822362
vt 0.594453 0.822362
vt 0.594453 0.822362
vt 0.594453 0.822362
vt 0.594453 0.822362
vt 0.594453 0.822362
vt 0.594453 0.822362
vt 0.592340 0.822362
vt 0.593396 0.822362
vt 0.593396 0.823478
vt 0.592340 0.823477
vt 0.379582 0.925851
vt 0.376220 0.925860
vt 0.376210 0.922281
vt 0.379572 0.922271
vt 0.594453 0.823477
vt 0.593396 0.823478
vt 0.593396 0.822362
vt 0.594453 0.822362
vt 0.410836 0.984650
vt 0.414198 0.984659
vt 0.414188 0.988239
vt 0.410826 0.988229
vt 0.587555 0.823807
vt 0.587555 0.822362
vt 0.588653 0.822362
vt 0.588652 0.823807
vt 0.518298 0.984952
vt 0.521661 0.984943
vt 0.521668 0.987517
vt 0.518305 0.987526
vt 0.589750 0.822362
vt 0.589750 0.823807
vt 0.588653 0.823807
vt 0.588653 0.822362
vt 0.548036 0.984941
vt 0.551399 0.984951
vt 0.551392 0.987525
vt 0.548029 0.987516
vt 0.584957 0.823889
vt 0.584958 0.822362
vt 0.586256 0.822362
vt 0.586255 0.823889
vt 0.447131 0.985265
vt 0.450491 0.985255
vt 0.450499 0.988134
vt 0.447139 0.988144
vt 0.587554 0.822362
vt 0.587555 0.823889
vt 0.586257 0.823889
vt 0.586256 0.822362
vt 0.488387 0.925160
vt 0.485027 0.925150
vt 0.485035 0.922271
vt 0.488395 0.922281
vt 0.589750 0.823710
vt 0.589751 0.822362
vt 0.591045 0.822362
vt 0.591044 0.823710
vt 0.585774 0.925528
vt 0.582408 0.925538
vt 0.582399 0.922281
vt 0.585765 0.922271
vt 0.592339 0.822362
vt 0.592340 0.823710
vt 0.591045 0.823710
vt 0.591045 0.822362
vt 0.624072 0.925538
vt 0.620706 0.925528
vt 0.620715 0.922271
vt 0.624081 0.922281
vt 0.407781 0.913405
vt 0.402241 0.913342
vt 0.403862 0.812695
vt 0.409332 0.812760
vt 0.379489 0.988231
vt 0.376083 0.988240
vt 0.410884 0.812695
vt 0.416424 0.812758
vt 0.414803 0.913403
vt 0.409332 0.913343
vt 0.411241 0.922271
vt 0.414646 0.922281
vt 0.393604 0.913912
vt 0.388065 0.913849
vt 0.389680 0.812695
vt 0.395153 0.812760
vt 0.518367 0.922281
vt 0.521771 0.922271
vt 0.396702 0.812695
vt 0.402241 0.812758
vt 0.400626 0.913909
vt 0.395153 0.913849
vt 0.548455 0.922271
vt 0.551859 0.922281
vt 0.379374 0.914396
vt 0.373833 0.914333
vt 0.375482 0.812695
vt 0.380949 0.812760
vt 0.447230 0.922281
vt 0.450636 0.922271
vt 0.382524 0.812695
vt 0.388065 0.812759
vt 0.386416 0.914394
vt 0.380949 0.914333
vt 0.487973 0.988142
vt 0.484568 0.988133
vt 0.421962 0.912657
vt 0.416424 0.912594
vt 0.418006 0.812695
vt 0.423482 0.812760
vt 0.585712 0.987432
vt 0.582308 0.987442
vt 0.425002 0.812695
vt 0.430540 0.812758
vt 0.428959 0.912655
vt 0.423482 0.912594
vt 0.623664 0.987440
vt 0.620260 0.987431
vt 0.591668 0.827328
vt 0.597068 0.828191
vt 0.590990 0.853070
vt 0.589689 0.852863
vt 0.395202 0.923586
vt 0.395204 0.924449
vt 0.531321 0.827536
vt 0.532621 0.827328
vt 0.430231 0.986062
vt 0.430229 0.986925
vt 0.587711 0.853076
vt 0.582313 0.852214
vt 0.588389 0.827328
vt 0.589689 0.827536
vt 0.395204 0.986827
vt 0.395207 0.985965
vt 0.541530 0.883088
vt 0.540230 0.883296
vt 0.360179 0.924546
vt 0.360177 0.923684
vt 0.605390 0.827328
vt 0.610788 0.828170
vt 0.605705 0.848873
vt 0.603927 0.848596
vt 0.505297 0.986700
vt 0.505295 0.985852
vt 0.541530 0.827606
vt 0.543307 0.827328
vt 0.564757 0.985851
vt 0.564755 0.986699
vt 0.602465 0.848877
vt 0.597068 0.848036
vt 0.602150 0.827328
vt 0.603927 0.827606
vt 0.535026 0.986616
vt 0.535028 0.985768
vt 0.550686 0.874650
vt 0.548908 0.874927
vt 0.535023 0.985769
vt 0.535026 0.986616
vt 0.576923 0.827328
vt 0.582313 0.828218
vt 0.576068 0.855102
vt 0.574191 0.854792
vt 0.430234 0.987253
vt 0.430231 0.986250
vt 0.519586 0.827638
vt 0.521463 0.827328
vt 0.467763 0.924164
vt 0.467766 0.923161
vt 0.571458 0.855106
vt 0.566070 0.854216
vt 0.572313 0.827328
vt 0.574191 0.827638
vt 0.505295 0.923266
vt 0.505292 0.924269
vt 0.531321 0.887019
vt 0.529444 0.887329
vt 0.467760 0.986145
vt 0.467763 0.987148
vt 0.560666 0.827328
vt 0.566070 0.828137
vt 0.560037 0.855667
vt 0.558377 0.855419
vt 0.603061 0.923351
vt 0.603064 0.924352
vt 0.508804 0.827577
vt 0.510464 0.827328
vt 0.603064 0.924351
vt 0.603067 0.923350
vt 0.556089 0.855672
vt 0.550686 0.854864
vt 0.556718 0.827328
vt 0.558377 0.827577
vt 0.641371 0.923457
vt 0.641368 0.924458
vt 0.519586 0.888306
vt 0.517926 0.888554
vt 0.564760 0.924459
vt 0.564757 0.923458
vn -0.959153 -0.002141 -0.282880
vn -0.959153 -0.002141 -0.282880
vn -0.959153 -0.002141 -0.282880
vn -0.976082 -0.019785 -0.216501
vn -0.976082 -0.019785 -0.216501
vn -0.976082 -0.019785 -0.216501
vn -0.966375 0.256687 -0.015216
vn -0.966375 0.256687 -0.015216
vn -0.966375 0.256687 -0.015216
vn -0.976014 0.217425 -0.011125
vn -0.976014 0.217425 -0.011125
vn -0.976014 0.217425 -0.011125
vn -0.998101 -0.044547 0.042550
vn -0.998101 -0.044547 0.042550
vn -0.998101 -0.044547 0.042550
vn -0.976864 -0.213830 -0.003578
vn -0.976864 -0.213830 -0.003578
vn -0.976864 -0.213830 -0.003578
vn -0.983502 0.015142 0.180265
vn -0.983502 0.015142 0.180265
vn -0.983502 0.015142 0.180265
vn -0.976858 -0.007573 0.213756
vn -0.976858 -0.007573 0.213756
vn -0.976858 -0.007573 0.213756
vn 0.000000 0.002792 0.999996
vn 0.000000 0.002792 0.999996
vn 0.000000 0.002792 0.999996
vn 0.000000 0.002792 0.999996
vn 0.000000 0.999996 -0.002797
vn 0.000000 0.999996 -0.002797
vn 0.000000 0.999996 -0.002797
vn 0.000000 0.999996 -0.002797
vn 0.000000 -0.002792 -0.999996
vn 0.000000 -0.002792 -0.999996
vn 0.000000 -0.002792 -0.999996
vn 0.000000 -0.002792 -0.999996
vn 0.000000 -0.999996 0.002792
vn 0.000000 -0.999996 0.002792
vn 0.000000 -0.999996 0.002792
vn 0.000000 -0.999996 0.002792
vn -1.000000 0.000000 0.000000
vn -1.000000 0.000000 0.000000
vn -1.000000 0.000000 0.000000
vn -1.000000 0.000000 0.000000
vn -0.000001 -0.999996 0.002790
vn -0.000001 -0.999996 0.002790
vn -0.000001 -0.999996 0.002790
vn -0.000001 -0.999996 0.002790
vn 0.000002 -0.002792 -0.999996
vn 0.000002 -0.002792 -0.999996
vn 0.000002 -0.002792 -0.999996
vn 0.000002 -0.002792 -0.999996
vn -0.000002 0.999996 -0.002773
vn -0.000002 0.999996 -0.002773
vn -0.000002 0.999996 -0.002773
vn -0.000002 0.999996 -0.002773
vn -0.000002 0.002792 0.999996
vn -0.000002 0.002792 0.999996
vn -0.000002 0.002792 0.999996
vn -0.000002 0.002792 0.999996
vn 0.000000 -0.000000 0.000000
vn 0.000000 -0.000000 0.000000
vn 0.000000 -0.000000 0.000000
vn 0.000118 -1.000000 0.000000
vn 0.000000 0.000000 0.000000
vn 0.000000 0.000000 0.000000
vn 0.000000 0.000000 0.000000
vn 0.000000 0.000000 0.000000
vn 0.000000 0.000000 0.000000
vn 0.000000 0.000000 0.000000
vn 0.000000 0.000000 0.000000
vn 0.000000 0.000000 0.000000
vn 0.000000 -1.000000 0.000000
vn 0.000000 -0.000000 0.000000
vn 0.000000 -0.000000 0.000000
vn 0.000000 -1.000000 0.000000
vn 0.000000 0.000000 0.000000
vn 0.000000 0.000000 0.000000
vn 0.000000 0.000000 0.000000
vn 0.000000 0.000000 0.000000
vn 0.000000 0.000000 0.000000
vn 0.000000 0.000000 0.000000
vn 0.000000 0.000000 0.000000
vn 0.000000 0.000000 0.000000
vn 0.000000 0.000000 0.000000
vn 0.000000 0.000000 0.000000
vn 0.000000 0.000000 0.000000
vn 0.000000 0.000000 0.000000
vn 0.000000 0.000000 0.000000
vn 0.000000 0.000000 0.000000
vn 0.000000 0.000000 0.000000
vn 0.000000 0.000000 0.000000
vn -0.157768 0.987472 -0.002760
vn -0.157768 0.987472 -0.002760
vn -0.157768 0.987472 -0.002760
vn -0.157768 0.987472 -0.002760
vn 0.996513 0.083437 -0.000211
vn 0.996515 0.083413 -0.000211
vn 0.987476 0.157766 -0.000440
vn 0.987476 0.157766 -0.000440
vn 0.157769 -0.987472 0.002775
vn 0.157769 -0.987472 0.002775
vn 0.157769 -0.987472 0.002775
vn 0.157769 -0.987472 0.002775
vn -0.996513 -0.083435 0.000211
vn -0.996515 -0.083414 0.000211
vn -0.987476 -0.157766 0.000441
vn -0.987476 -0.157766 0.000441
vn -0.154056 0.002758 0.988058
vn -0.154056 0.002758 0.988058
vn -0.154056 0.002758 0.988058
vn -0.154056 0.002758 0.988058
vn 0.996769 0.000224 0.080318
vn 0.996771 0.000224 0.080302
vn 0.988061 0.000430 0.154060
vn 0.988061 0.000430 0.154060
vn 0.154058 -0.002758 -0.988058
vn 0.154058 -0.002758 -0.988058
vn 0.154058 -0.002758 -0.988058
vn 0.154058 -0.002758 -0.988058
vn -0.996769 -0.000224 -0.080318
vn -0.996771 -0.000224 -0.080302
vn -0.988061 -0.000431 -0.154060
vn -0.988061 -0.000431 -0.154060
vn -0.162944 -0.986632 0.002747
vn -0.162944 -0.986632 0.002747
vn -0.162944 -0.986632 0.002747
vn -0.162944 -0.986632 0.002747
vn 0.996353 -0.085329 0.000215
vn 0.996355 -0.085309 0.000215
vn 0.986635 -0.162945 0.000456
vn 0.986635 -0.162945 0.000456
vn 0.162945 0.986631 -0.002747
vn 0.162945 0.986631 -0.002747
vn 0.162945 0.986631 -0.002747
vn 0.162945 0.986631 -0.002747
vn -0.996353 0.085329 -0.000215
vn -0.996354 0.085311 -0.000215
vn -0.986635 0.162943 -0.000457
vn -0.986635 0.162943 -0.000457
vn -0.147944 -0.002761 -0.988992
vn -0.147944 -0.002761 -0.988992
vn -0.147944 -0.002761 -0.988992
vn -0.147944 -0.002761 -0.988992
vn 0.996962 -0.000217 -0.077895
vn 0.996963 -0.000217 -0.077877
vn 0.988995 -0.000413 -0.147947
vn 0.988995 -0.000413 -0.147947
vn 0.147944 0.002762 0.988992
vn 0.147944 0.002762 0.988992
vn 0.147944 0.002762 0.988992
vn 0.147944 0.002762 0.988992
vn -0.996962 0.000218 0.077895
vn -0.996963 0.000217 0.077877
vn -0.988995 0.000413 0.147947
vn -0.988995 0.000413 0.147947
vn -0.079131 0.996861 -0.002488
vn -0.079131 0.996861 -0.002488
vn -0.079131 0.996861 -0.002488
vn -0.079131 0.996861 -0.002488
vn 0.996864 0.079131 -0.000198
vn 0.996864 0.079131 -0.000198
vn 0.996515 0.083413 -0.000211
vn 0.996513 0.083437 -0.000211
vn 0.079129 -0.996861 0.002489
vn 0.079129 -0.996861 0.002489
vn 0.079129 -0.996861 0.002489
vn 0.079129 -0.996861 0.002489
vn -0.996864 -0.079130 0.000198
vn -0.996864 -0.079130 0.000198
vn -0.996515 -0.083414 0.000211
vn -0.996513 -0.083435 0.000211
vn -0.077262 0.002784 0.997007
vn -0.077262 0.002784 0.997007
vn -0.077262 0.002784 0.997007
vn -0.077262 0.002784 0.997007
vn 0.997011 0.000216 0.077261
vn 0.997011 0.000216 0.077261
vn 0.996771 0.000224 0.080302
vn 0.996769 0.000224 0.080318
vn 0.077262 -0.002784 -0.997007
vn 0.077262 -0.002784 -0.997007
vn 0.077262 -0.002784 -0.997007
vn 0.077262 -0.002784 -0.997007
vn -0.997011 -0.000216 -0.077261
vn -0.997011 -0.000216 -0.077261
vn -0.996771 -0.000224 -0.080302
vn -0.996769 -0.000224 -0.080318
vn -0.081744 -0.996650 0.002487
vn -0.081744 -0.996650 0.002487
vn -0.081744 -0.996650 0.002487
vn -0.081744 -0.996650 0.002487
vn 0.996653 -0.081746 0.000204
vn 0.996653 -0.081746 0.000204
vn 0.996355 -0.085309 0.000215
vn 0.996353 -0.085329 0.000215
vn 0.081746 0.996650 -0.002486
vn 0.081746 0.996650 -0.002486
vn 0.081746 0.996650 -0.002486
vn 0.081746 0.996650 -0.002486
vn -0.996653 0.081746 -0.000204
vn -0.996653 0.081746 -0.000204
vn -0.996354 0.085311 -0.000215
vn -0.996353 0.085329 -0.000215
vn -0.074178 -0.002785 -0.997241
vn -0.074178 -0.002785 -0.997241
vn -0.074178 -0.002785 -0.997241
vn -0.074178 -0.002785 -0.997241
vn 0.997245 -0.000207 -0.074178
vn 0.997245 -0.000207 -0.074178
vn 0.996963 -0.000217 -0.077877
vn 0.996962 -0.000217 -0.077895
vn 0.074178 0.002785 0.997241
vn 0.074178 0.002785 0.997241
vn 0.074178 0.002785 0.997241
vn 0.074178 0.002785 0.997241
vn -0.997245 0.000207 0.074178
vn -0.997245 0.000207 0.074178
vn -0.996963 0.000217 0.077877
vn -0.996962 0.000218 0.077895
vn -0.013324 0.086167 0.996192
vn -0.013324 0.086167 0.996192
vn -0.013324 0.086167 0.996192
vn -0.013324 0.086167 0.996192
vn 0.971449 0.237248 -0.000664
vn 0.971449 0.237248 -0.000664
vn 0.971449 0.237248 -0.000664
vn 0.971449 0.237249 -0.000664
vn -0.013321 0.080603 -0.996657
vn -0.013321 0.080603 -0.996657
vn -0.013321 0.080603 -0.996657
vn -0.013321 0.080603 -0.996657
vn -0.997012 -0.077246 0.000216
vn -0.997012 -0.077246 0.000216
vn -0.997012 -0.077246 0.000216
vn -0.997012 -0.077246 0.000216
vn 0.013324 -0.080602 0.996657
vn 0.013324 -0.080602 0.996657
vn 0.013324 -0.080602 0.996657
vn 0.013324 -0.080602 0.996657
vn -0.971449 -0.237249 0.000662
vn -0.971449 -0.237249 0.000662
vn -0.971449 -0.237249 0.000662
vn -0.971449 -0.237249 0.000662
vn 0.013324 -0.086167 -0.996192
vn 0.013324 -0.086167 -0.996192
vn 0.013324 -0.086167 -0.996192
vn 0.013324 -0.086167 -0.996192
vn 0.997012 0.077247 -0.000216
vn 0.997012 0.077247 -0.000216
vn 0.997012 0.077247 -0.000216
vn 0.997012 0.077247 -0.000216
vn -0.009950 -0.997731 0.066583
vn -0.009950 -0.997731 0.066583
vn -0.009950 -0.997731 0.066583
vn -0.009950 -0.997731 0.066583
vn 0.971168 0.000663 0.238395
vn 0.971168 0.000663 0.238395
vn 0.971168 0.000663 0.238395
vn 0.971168 0.000663 0.238395
vn -0.009950 0.998088 0.061007
vn -0.009950 0.998088 0.061007
vn -0.009950 0.998088 0.061007
vn -0.009950 0.998088 0.061007
vn -0.997645 -0.000193 -0.068587
vn -0.997645 -0.000193 -0.068587
vn -0.997645 -0.000193 -0.068587
vn -0.997645 -0.000193 -0.068587
vn 0.009950 -0.998088 -0.061005
vn 0.009950 -0.998088 -0.061005
vn 0.009950 -0.998088 -0.061005
vn 0.009950 -0.998088 -0.061005
vn -0.971167 -0.000667 -0.238398
vn -0.971167 -0.000667 -0.238398
vn -0.971167 -0.000667 -0.238398
vn -0.971167 -0.000667 -0.238398
vn 0.009950 0.997731 -0.066583
vn 0.009950 0.997731 -0.066583
vn 0.009950 0.997731 -0.066583
vn 0.009950 0.997731 -0.066583
vn 0.997645 0.000191 0.068588
vn 0.997645 0.000191 0.068588
vn 0.997645 0.000191 0.068588
vn 0.997645 0.000191 0.068588
vn -0.008812 -0.056148 -0.998384
vn -0.008812 -0.056148 -0.998384
vn -0.008812 -0.056148 -0.998384
vn -0.008812 -0.056148 -0.998384
vn 0.974079 -0.226208 0.000631
vn 0.974079 -0.226208 0.000631
vn 0.974079 -0.226208 0.000631
vn 0.974079 -0.226208 0.000631
vn -0.008816 -0.050572 0.998682
vn -0.008816 -0.050572 0.998682
vn -0.008816 -0.050572 0.998682
vn -0.008816 -0.050572 0.998682
vn -0.995088 0.098999 -0.000277
vn -0.995088 0.098999 -0.000277
vn -0.995088 0.098999 -0.000277
vn -0.995088 0.098999 -0.000277
vn 0.008816 0.050572 -0.998682
vn 0.008816 0.050572 -0.998682
vn 0.008816 0.050572 -0.998682
vn 0.008816 0.050572 -0.998682
vn -0.974079 0.226208 -0.000631
vn -0.974079 0.226208 -0.000631
vn -0.974079 0.226208 -0.000631
vn -0.974079 0.226208 -0.000631
vn 0.008812 0.056148 0.998384
vn 0.008812 0.056148 0.998384
vn 0.008812 0.056148 0.998384
vn 0.008812 0.056148 0.998384
vn 0.995088 -0.098999 0.000277
vn 0.995088 -0.098999 0.000277
vn 0.995088 -0.098999 0.000277
vn 0.995088 -0.098999 0.000277
vn -0.009433 0.997786 -0.065831
vn -0.009433 0.997786 -0.065831
vn -0.009433 0.997786 -0.065831
vn -0.009433 0.997786 -0.065831
vn 0.976830 -0.000596 -0.214016
vn 0.976830 -0.000596 -0.214016
vn 0.976830 -0.000596 -0.214016
vn 0.976830 -0.000596 -0.214016
vn -0.009432 -0.998138 -0.060258
vn -0.009432 -0.998138 -0.060258
vn -0.009432 -0.998138 -0.060258
vn -0.009432 -0.998138 -0.060258
vn -0.996697 0.000227 0.081209
vn -0.996697 0.000227 0.081209
vn -0.996697 0.000227 0.081209
vn -0.996697 0.000227 0.081209
vn 0.009429 0.998138 0.060258
vn 0.009429 0.998138 0.060258
vn 0.009429 0.998138 0.060258
vn 0.009429 0.998138 0.060258
vn -0.976830 0.000598 0.214017
vn -0.976830 0.000598 0.214017
vn -0.976830 0.000598 0.214017
vn -0.976830 0.000598 0.214017
vn 0.009430 -0.997786 0.065832
vn 0.009430 -0.997786 0.065832
vn 0.009430 -0.997786 0.065832
vn 0.009430 -0.997786 0.065832
vn 0.996697 -0.000227 -0.081209
vn 0.996697 -0.000227 -0.081209
vn 0.996697 -0.000227 -0.081209
vn 0.996697 -0.000227 -0.081209
s off
g pPlane9
usemtl lambert2SG
f 1/1/1 3/2/2 2/3/3
f 4/4/4 6/5/5 5/6/6
f 7/7/7 9/8/8 8/9/9
f 10/10/10 12/11/11 11/12/12
f 13/13/13 15/14/14 14/15/15
f 16/16/16 18/17/17 17/18/18
f 19/19/19 21/20/20 20/21/21
f 22/22/22 24/23/23 23/24/24
f 36/25/25 33/26/26 26/27/27 28/28/28
f 35/29/29 36/30/30 28/31/31 30/32/32
f 34/33/33 35/34/34 30/35/35 32/36/36
f 33/37/37 34/38/38 32/39/39 26/40/40
f 31/41/41 25/42/42 27/43/43 29/44/44
f 57/45/45 58/46/46 59/47/47 60/48/48
f 45/49/49 46/50/50 47/51/51 48/52/52
f 49/53/53 50/54/54 51/55/55 52/56/56
f 53/57/57 54/58/58 55/59/59 56/60/60
f 34/38/61 33/37/62 39/61/63 38/62/64
f 25/63/65 31/64/66 37/65/67 40/66/68
f 35/67/69 34/68/70 38/69/71 42/70/72
f 31/71/73 29/72/74 41/73/75 37/74/76
f 36/75/77 35/67/78 42/70/79 44/76/80
f 29/77/81 27/78/82 43/79/83 41/80/84
f 33/81/85 36/75/86 44/76/87 39/82/88
f 27/78/89 25/83/90 40/84/91 43/79/92
f 77/85/93 78/86/94 79/87/95 80/88/96
f 62/89/97 63/90/98 47/91/99 46/92/100
f 81/93/101 82/94/102 83/95/103 84/96/104
f 64/97/105 61/98/106 45/99/107 48/100/108
f 85/101/109 86/102/110 87/103/111 88/104/112
f 66/105/113 67/106/114 51/107/115 50/108/116
f 89/109/117 90/110/118 91/111/119 92/112/120
f 68/113/121 65/114/122 49/115/123 52/116/124
f 93/117/125 94/118/126 95/119/127 96/120/128
f 70/121/129 71/122/130 55/123/131 54/124/132
f 97/125/133 98/126/134 99/127/135 100/128/136
f 72/129/137 69/130/138 53/131/139 56/132/140
f 101/133/141 102/134/142 103/135/143 104/136/144
f 74/137/145 75/138/146 59/139/147 58/140/148
f 105/141/149 106/142/150 107/143/151 108/144/152
f 76/145/153 73/146/154 57/147/155 60/148/156
f 41/149/157 42/150/158 62/151/159 61/152/160
f 42/153/161 38/154/162 63/90/163 62/89/164
f 38/155/165 37/156/166 64/157/167 63/158/168
f 37/159/169 41/160/170 61/98/171 64/97/172
f 43/161/173 44/162/174 66/163/175 65/164/176
f 44/165/177 42/166/178 67/106/179 66/105/180
f 42/167/181 41/168/182 68/169/183 67/170/184
f 41/171/185 43/172/186 65/114/187 68/113/188
f 40/173/189 39/174/190 70/175/191 69/176/192
f 39/177/193 44/178/194 71/122/195 70/121/196
f 44/179/197 43/180/198 72/181/199 71/182/200
f 43/183/201 40/184/202 69/130/203 72/129/204
f 37/185/205 38/186/206 74/187/207 73/188/208
f 38/189/209 39/190/210 75/138/211 74/137/212
f 39/191/213 40/192/214 76/193/215 75/194/216
f 40/195/217 37/196/218 73/146/219 76/145/220
f 61/197/221 62/198/222 78/199/223 77/200/224
f 62/89/225 46/92/226 79/201/227 78/202/228
f 46/50/229 45/49/230 80/203/231 79/204/232
f 45/99/233 61/98/234 77/205/235 80/206/236
f 63/207/237 64/208/238 82/209/239 81/210/240
f 64/97/241 48/100/242 83/211/243 82/212/244
f 48/52/245 47/51/246 84/213/247 83/214/248
f 47/91/249 63/90/250 81/215/251 84/216/252
f 65/217/253 66/218/254 86/219/255 85/220/256
f 66/105/257 50/108/258 87/221/259 86/222/260
f 50/54/261 49/53/262 88/223/263 87/224/264
f 49/115/265 65/114/266 85/225/267 88/226/268
f 67/227/269 68/228/270 90/229/271 89/230/272
f 68/113/273 52/116/274 91/231/275 90/232/276
f 52/56/277 51/55/278 92/233/279 91/234/280
f 51/107/281 67/106/282 89/235/283 92/236/284
f 69/237/285 70/238/286 94/239/287 93/240/288
f 70/121/289 54/124/290 95/241/291 94/242/292
f 54/58/293 53/57/294 96/243/295 95/244/296
f 53/131/297 69/130/298 93/245/299 96/246/300
f 71/247/301 72/248/302 98/249/303 97/250/304
f 72/129/305 56/132/306 99/251/307 98/252/308
f 56/60/309 55/59/310 100/253/311 99/254/312
f 55/123/313 71/122/314 97/255/315 100/256/316
f 73/257/317 74/258/318 102/259/319 101/260/320
f 74/137/321 58/140/322 103/261/323 102/262/324
f 58/46/325 57/45/326 104/263/327 103/264/328
f 57/147/329 73/146/330 101/265/331 104/266/332
f 75/267/333 76/268/334 106/269/335 105/270/336
f 76/145/337 60/148/338 107/271/339 106/272/340
f 60/48/341 59/47/342 108/273/343 107/274/344
f 59/139/345 75/138/346 105/275/347 108/276/348
