# This file uses centimeters as units for non-parametric coordinates.

mtllib windmill_spinny.mtl
g default
v -12.708872 56.085625 0.103266
v -12.687446 37.513229 -0.416088
v -11.570180 56.448566 -3.749949
v -13.170748 56.108765 4.840363
v -11.954920 37.184151 0.389844
v -12.305565 56.153656 0.946362
v -12.678834 37.027905 17.187008
v -12.372977 37.610603 0.160114
v -11.349402 42.034351 17.486788
v -13.376358 31.265997 17.172899
v -12.090160 36.693062 0.133657
v -12.291780 36.131996 17.316610
v -13.071240 42.685417 -17.199614
v -11.947867 37.423042 -0.124555
v -12.852932 37.946396 -17.187065
v -12.629705 37.162724 -16.910244
v -12.761487 36.598358 -0.326675
v -11.602664 32.494289 -17.496113
v -13.294753 18.117271 -6.006660
v -12.101377 37.186913 -0.389741
v -12.319078 18.337732 -0.706484
v -12.612900 17.951401 -0.253707
v -12.725365 37.161819 0.480495
v -11.458752 17.701736 5.012518
v -12.861890 36.559994 0.494428
v -9.060432 36.559994 0.494428
v -12.861890 37.559578 0.523248
v -9.060432 37.559578 0.523248
v -12.861890 37.588398 -0.476337
v -9.060432 37.588398 -0.476337
v -12.861890 36.588814 -0.505157
v -9.060432 36.588814 -0.505157
v -11.853625 36.559994 0.494428
v -11.853625 36.588814 -0.505157
v -11.853625 37.588398 -0.476337
v -11.853625 37.559578 0.523248
v -12.861890 36.588814 -0.505157
v -11.853625 36.588814 -0.505157
v -11.853625 36.559994 0.494428
v -12.861890 36.559994 0.494428
v -12.861890 37.588398 -0.476337
v -11.853625 37.588398 -0.476337
v -12.861890 37.559578 0.523248
v -11.853625 37.559578 0.523248
v -12.934460 38.004932 -17.900249
v -11.938823 38.163937 -17.895666
v -11.781055 37.176868 -17.924126
v -12.776693 37.017864 -17.928709
v -12.932901 56.723919 0.992124
v -11.936675 56.719444 1.147394
v -11.782614 56.747917 0.159743
v -12.778840 56.752396 0.004473
v -12.936625 36.148190 17.859392
v -11.941834 35.983967 17.854658
v -11.778891 36.970192 17.883093
v -12.773681 37.134415 17.887827
v -12.930316 17.448027 -0.976904
v -11.933146 17.452326 -1.126012
v -11.785199 17.423822 -0.137427
v -12.782369 17.419523 0.011681
v -12.934460 37.974636 -16.849474
v -11.938823 38.133640 -16.844891
v -11.781055 37.146572 -16.873348
v -12.776693 36.987568 -16.877934
v -12.932901 55.967869 0.970325
v -11.936675 55.963390 1.125595
v -11.782614 55.991867 0.137944
v -12.778840 55.996342 -0.017326
v -12.936625 36.172554 17.014399
v -11.941834 36.008331 17.009665
v -11.778891 36.994553 17.038099
v -12.773681 37.158779 17.042833
v -12.930316 18.404680 -0.949322
v -11.933146 18.408979 -1.098430
v -11.785199 18.380478 -0.109845
v -12.782369 18.376179 0.039263
v -13.299336 42.693584 -17.112564
v -13.059476 42.731892 -17.111460
v -13.059476 42.739193 -17.364605
v -13.299336 42.700886 -17.365709
v -11.416179 32.450615 -17.407890
v -11.656039 32.412312 -17.408995
v -11.656039 32.419609 -17.662140
v -11.416179 32.457916 -17.661036
v -13.202773 56.108265 4.901430
v -12.874687 56.106792 4.952565
v -12.874687 56.355782 4.959744
v -13.202773 56.357254 4.908609
v -11.512742 56.358528 -3.778541
v -11.840828 56.360001 -3.829676
v -11.840828 56.608990 -3.822497
v -11.512742 56.607517 -3.771362
v -13.441071 31.096319 17.143560
v -13.094470 31.039101 17.141911
v -13.094470 31.030613 17.436321
v -13.441071 31.087830 17.437971
v -11.274445 42.054916 17.459520
v -11.621045 42.112129 17.461170
v -11.621045 42.103642 17.755579
v -11.274445 42.046425 17.753931
v -13.352761 18.222710 -6.141475
v -13.046453 18.224031 -6.187277
v -13.046453 17.930168 -6.195750
v -13.352761 17.928846 -6.149948
v -11.362754 17.899656 5.063199
v -11.669063 17.898336 5.109001
v -11.669063 17.604473 5.100528
v -11.362754 17.605793 5.054726
vt 0.000000 0.000037
vt 0.000000 0.000000
vt 0.000000 0.000074
vt 0.000000 0.000110
vt 0.000000 0.000147
vt 0.000000 0.000000
vt 0.000000 0.000031
vt 0.000000 0.000147
vt 0.000000 0.000110
vt 0.000000 0.000122
vt 0.000000 0.000092
vt 0.000000 0.000092
vt 0.000000 0.000122
vt 0.000000 0.000074
vt 0.000000 0.000061
vt 0.000000 0.000061
vt 0.000000 0.000037
vt 0.000000 0.000031
vt 0.000000 0.000000
vt 0.000000 0.000000
vt 0.215438 0.945629
vt 0.169836 0.948601
vt 0.215628 0.726248
vt 0.166458 0.949168
vt 0.120884 0.948380
vt 0.120772 0.726254
vt 0.396284 0.426446
vt 0.455255 0.424619
vt 0.397363 0.626858
vt 0.317027 0.425903
vt 0.374009 0.425863
vt 0.374777 0.627097
vt 0.119364 0.925636
vt 0.064524 0.923909
vt 0.064160 0.726273
vt 0.394466 0.878906
vt 0.339672 0.884184
vt 0.393458 0.684774
vt 0.894470 0.000000
vt 0.956173 0.004351
vt 0.953530 0.224156
vt 0.000000 0.727470
vt 0.061674 0.726326
vt 0.002109 0.952387
vt 0.037741 0.000000
vt 0.049305 0.000000
vt 0.049305 0.011564
vt 0.037741 0.011564
vt 0.439817 0.687562
vt 0.428346 0.687562
vt 0.428346 0.675350
vt 0.439817 0.675350
vt 0.438966 0.877810
vt 0.427349 0.877810
vt 0.373639 0.682927
vt 0.373639 0.679985
vt 0.493121 0.679985
vt 0.493121 0.682927
vt 0.494878 0.831038
vt 0.506349 0.831038
vt 0.506349 0.843249
vt 0.494878 0.843249
vt 0.495729 0.640789
vt 0.507345 0.640789
vt 0.561056 0.835673
vt 0.561056 0.838615
vt 0.441574 0.838615
vt 0.441574 0.835673
vt 0.580289 0.859388
vt 0.591760 0.859388
vt 0.591760 0.868169
vt 0.580289 0.868169
vt 0.581122 0.645618
vt 0.592731 0.645618
vt 0.637332 0.862332
vt 0.637332 0.865224
vt 0.535927 0.865224
vt 0.535927 0.862332
vt 0.651998 0.864494
vt 0.663469 0.864494
vt 0.663469 0.873275
vt 0.651998 0.873275
vt 0.652830 0.650724
vt 0.664440 0.650724
vt 0.709040 0.867438
vt 0.709040 0.870330
vt 0.607636 0.870330
vt 0.607636 0.867438
vt 0.752100 0.812205
vt 0.763562 0.812205
vt 0.763562 0.822026
vt 0.752100 0.822026
vt 0.752977 0.620243
vt 0.764594 0.620243
vt 0.822465 0.815405
vt 0.822465 0.818826
vt 0.694441 0.818826
vt 0.694441 0.815405
vt 0.647807 0.647793
vt 0.636345 0.647793
vt 0.636345 0.637973
vt 0.647807 0.637973
vt 0.646931 0.839756
vt 0.635314 0.839756
vt 0.577443 0.644594
vt 0.577443 0.641172
vt 0.705466 0.641172
vt 0.705466 0.644594
vt 0.577402 0.640972
vt 0.565921 0.640972
vt 0.565921 0.629862
vt 0.577402 0.629862
vt 0.576600 0.852124
vt 0.564992 0.852124
vt 0.505734 0.637123
vt 0.505734 0.633710
vt 0.636390 0.633710
vt 0.636390 0.637123
vt 0.396244 0.426333
vt 0.384763 0.426333
vt 0.384763 0.415224
vt 0.396244 0.415224
vt 0.395442 0.637486
vt 0.383833 0.637486
vt 0.324576 0.422485
vt 0.324576 0.419072
vt 0.455232 0.419072
vt 0.455232 0.422485
vt 0.622974 0.308881
vt 0.611410 0.308881
vt 0.611410 0.276581
vt 0.622974 0.276581
vt 0.607877 0.303735
vt 0.596313 0.303735
vt 0.596313 0.271435
vt 0.607877 0.271435
vt 0.295498 0.306560
vt 0.307039 0.304834
vt 0.308752 0.316280
vt 0.297210 0.318007
vt 0.290608 0.246551
vt 0.294154 0.246020
vt 0.313641 0.376290
vt 0.310096 0.376820
vt 0.961754 0.046025
vt 0.973284 0.044227
vt 0.975067 0.055663
vt 0.963537 0.057461
vt 0.958630 0.000592
vt 0.962427 0.000000
vt 0.978191 0.101096
vt 0.974393 0.101688
vt 0.075483 0.000000
vt 0.078274 0.000000
vt 0.078274 0.002947
vt 0.075483 0.002947
vt 0.082048 0.002947
vt 0.079257 0.002947
vt 0.079257 0.000000
vt 0.082048 0.000000
vt 0.052838 0.004035
vt 0.052838 0.000000
vt 0.056267 0.000000
vt 0.056267 0.004035
vt 0.060041 0.000000
vt 0.060041 0.004035
vt 0.056612 0.004035
vt 0.056612 0.000000
vt 0.970794 0.637041
vt 0.982491 0.637041
vt 0.981502 0.827025
vt 0.969952 0.827025
vt 0.996745 1.000000
vt 0.985049 1.000000
vt 0.986037 0.810016
vt 0.997587 0.810016
vt 0.985916 0.426560
vt 0.997615 0.426560
vt 0.996591 0.618288
vt 0.985049 0.618288
vt 0.996748 0.810016
vt 0.985049 0.810016
vt 0.986072 0.618288
vt 0.997615 0.618288
vt 0.584341 0.265008
vt 0.595873 0.266806
vt 0.585015 0.311041
vt 0.581217 0.310448
vt 0.826745 0.046033
vt 0.815213 0.044235
vt 0.826071 0.000000
vt 0.829869 0.000592
vt 0.869167 0.120172
vt 0.880710 0.121898
vt 0.867822 0.180719
vt 0.864277 0.180189
vt 0.917335 0.174753
vt 0.905792 0.173026
vt 0.918679 0.114206
vt 0.922225 0.114736
vt 0.011564 0.032300
vt 0.000000 0.032300
vt 0.000000 0.000000
vt 0.011564 0.000000
vt 0.241786 0.032300
vt 0.230222 0.032300
vt 0.230222 0.000000
vt 0.241786 0.000000
vt 0.819439 0.408329
vt 0.830970 0.406487
vt 0.832797 0.417924
vt 0.821266 0.419766
vt 0.815213 0.353787
vt 0.817991 0.353343
vt 0.837023 0.472466
vt 0.834245 0.472910
vt 0.281349 0.059333
vt 0.292860 0.057432
vt 0.294745 0.068849
vt 0.283234 0.070750
vt 0.275512 0.000662
vt 0.279522 0.000000
vt 0.300582 0.127520
vt 0.296572 0.128183
vt 0.067934 0.003817
vt 0.067934 0.000000
vt 0.070832 0.000000
vt 0.070832 0.003817
vt 0.074606 0.000000
vt 0.074606 0.003817
vt 0.071709 0.003817
vt 0.071709 0.000000
vt 0.064160 0.003562
vt 0.064160 0.000000
vt 0.067579 0.000000
vt 0.067579 0.003562
vt 0.063805 0.000000
vt 0.063805 0.003562
vt 0.060386 0.003562
vt 0.060386 0.000000
vt 0.793392 0.587024
vt 0.805086 0.587024
vt 0.804123 0.800596
vt 0.792568 0.800596
vt 0.819359 0.777772
vt 0.807665 0.777772
vt 0.808628 0.564200
vt 0.820183 0.564200
vt 0.597107 0.646438
vt 0.608798 0.646438
vt 0.607876 0.857361
vt 0.596313 0.857361
vt 0.981644 0.637041
vt 0.969952 0.637041
vt 0.970875 0.426119
vt 0.982438 0.426119
vt 0.585444 0.000000
vt 0.596978 0.001843
vt 0.583995 0.055001
vt 0.581217 0.054557
vt 0.887133 0.175972
vt 0.875599 0.174129
vt 0.888582 0.120971
vt 0.891360 0.121415
vt 0.855018 0.120376
vt 0.866530 0.122278
vt 0.853191 0.179715
vt 0.849180 0.179053
vt 0.894659 0.087639
vt 0.883147 0.085738
vt 0.896486 0.028300
vt 0.900497 0.028962
vn -0.959153 0.006802 -0.282806
vn -0.959153 0.006802 -0.282806
vn -0.959153 0.006802 -0.282806
vn -0.976100 -0.011676 -0.217008
vn -0.976100 -0.011676 -0.217008
vn -0.976100 -0.011676 -0.217008
vn -0.966342 0.257119 -0.008559
vn -0.966342 0.257119 -0.008559
vn -0.966342 0.257119 -0.008559
vn -0.976013 0.217671 -0.004345
vn -0.976013 0.217671 -0.004345
vn -0.976013 0.217671 -0.004345
vn -0.997621 -0.045820 0.051512
vn -0.997621 -0.045820 0.051512
vn -0.997621 -0.045820 0.051512
vn -0.976929 -0.213038 -0.015013
vn -0.976929 -0.213038 -0.015013
vn -0.976929 -0.213038 -0.015013
vn -0.983503 0.008323 0.180700
vn -0.983503 0.008323 0.180700
vn -0.983503 0.008323 0.180700
vn -0.976860 -0.013876 0.213431
vn -0.976860 -0.013876 0.213431
vn -0.976860 -0.013876 0.213431
vn 0.000000 -0.028820 0.999585
vn 0.000000 -0.028820 0.999585
vn 0.000000 -0.028820 0.999585
vn 0.000000 -0.028820 0.999585
vn 0.000000 0.999585 0.028819
vn 0.000000 0.999585 0.028819
vn 0.000000 0.999585 0.028819
vn 0.000000 0.999585 0.028819
vn 0.000000 0.028820 -0.999585
vn 0.000000 0.028820 -0.999585
vn 0.000000 0.028820 -0.999585
vn 0.000000 0.028820 -0.999585
vn 0.000000 -0.999585 -0.028822
vn 0.000000 -0.999585 -0.028822
vn 0.000000 -0.999585 -0.028822
vn 0.000000 -0.999585 -0.028822
vn -1.000000 -0.000000 0.000000
vn -1.000000 -0.000000 0.000000
vn -1.000000 -0.000000 0.000000
vn -1.000000 -0.000000 0.000000
vn -0.000000 -0.999585 -0.028821
vn -0.000000 -0.999585 -0.028821
vn -0.000000 -0.999585 -0.028821
vn -0.000000 -0.999585 -0.028821
vn -0.000004 0.028820 -0.999585
vn -0.000004 0.028820 -0.999585
vn -0.000004 0.028820 -0.999585
vn -0.000004 0.028820 -0.999585
vn -0.000000 0.999584 0.028824
vn -0.000000 0.999584 0.028824
vn -0.000000 0.999585 0.028824
vn -0.000000 0.999584 0.028824
vn 0.000000 -0.028820 0.999585
vn 0.000000 -0.028820 0.999585
vn 0.000000 -0.028820 0.999585
vn 0.000000 -0.028820 0.999585
vn 0.000000 0.000000 0.000000
vn 0.000000 0.000000 0.000000
vn 0.000000 0.000000 0.000000
vn 0.000000 0.000000 0.000000
vn 0.000000 0.000000 0.000000
vn 0.000000 0.000000 0.000000
vn 0.000000 0.000000 0.000000
vn 0.000000 0.000000 0.000000
vn 0.000000 0.000000 0.000000
vn 0.000000 0.000000 0.000000
vn 0.000000 0.000000 0.000000
vn 0.000000 0.000000 0.000000
vn 0.000000 0.000000 0.000000
vn 0.000000 0.000000 0.000000
vn 0.000000 0.000000 0.000000
vn 0.000000 0.000000 0.000000
vn 0.000000 0.000000 0.000000
vn 0.000000 0.000000 0.000000
vn 0.000000 0.000000 0.000000
vn 0.000000 0.000000 0.000000
vn 0.000000 0.000000 0.000000
vn 0.000000 0.000000 0.000000
vn 0.000000 0.000000 0.000000
vn 0.000000 0.000000 0.000000
vn 0.000000 0.000000 0.000000
vn 0.000000 0.000000 0.000000
vn 0.000000 0.000000 0.000000
vn 0.000000 0.000000 0.000000
vn 0.000000 0.000000 0.000000
vn 0.000000 0.000000 0.000000
vn 0.000000 0.000000 0.000000
vn 0.000000 0.000000 0.000000
vn -0.157773 0.987065 0.028479
vn -0.157773 0.987065 0.028479
vn -0.157773 0.987065 0.028479
vn -0.157773 0.987065 0.028479
vn 0.996473 0.083883 0.002419
vn 0.996475 0.083855 0.002418
vn 0.987477 0.157700 0.004547
vn 0.987477 0.157700 0.004547
vn 0.157763 -0.987067 -0.028456
vn 0.157763 -0.987067 -0.028456
vn 0.157763 -0.987067 -0.028456
vn 0.157763 -0.987067 -0.028456
vn -0.996473 -0.083881 -0.002418
vn -0.996475 -0.083854 -0.002418
vn -0.987476 -0.157701 -0.004547
vn -0.987477 -0.157701 -0.004547
vn -0.154063 -0.028476 0.987651
vn -0.154063 -0.028476 0.987651
vn -0.154063 -0.028476 0.987651
vn -0.154063 -0.028476 0.987651
vn 0.996769 -0.002315 0.080285
vn 0.996771 -0.002314 0.080269
vn 0.988061 -0.004440 0.153997
vn 0.988061 -0.004440 0.153997
vn 0.154061 0.028477 -0.987651
vn 0.154061 0.028477 -0.987651
vn 0.154061 0.028477 -0.987651
vn 0.154061 0.028477 -0.987651
vn -0.996769 0.002315 -0.080285
vn -0.996771 0.002314 -0.080269
vn -0.988061 0.004440 -0.153998
vn -0.988061 0.004440 -0.153998
vn -0.162943 -0.986225 -0.028444
vn -0.162943 -0.986225 -0.028444
vn -0.162943 -0.986225 -0.028444
vn -0.162943 -0.986225 -0.028444
vn 0.996318 -0.085702 -0.002471
vn 0.996320 -0.085678 -0.002470
vn 0.986635 -0.162877 -0.004696
vn 0.986635 -0.162877 -0.004696
vn 0.162936 0.986227 0.028426
vn 0.162936 0.986227 0.028426
vn 0.162936 0.986227 0.028426
vn 0.162936 0.986227 0.028426
vn -0.996318 0.085701 0.002471
vn -0.996320 0.085677 0.002470
vn -0.986635 0.162876 0.004696
vn -0.986635 0.162876 0.004696
vn -0.147947 0.028504 -0.988585
vn -0.147947 0.028504 -0.988585
vn -0.147947 0.028504 -0.988585
vn -0.147947 0.028504 -0.988585
vn 0.996962 0.002245 -0.077863
vn 0.996963 0.002244 -0.077844
vn 0.988995 0.004264 -0.147886
vn 0.988995 0.004264 -0.147886
vn 0.147945 -0.028502 0.988585
vn 0.147945 -0.028502 0.988585
vn 0.147945 -0.028502 0.988585
vn 0.147945 -0.028502 0.988585
vn -0.996962 -0.002245 0.077863
vn -0.996963 -0.002244 0.077844
vn -0.988995 -0.004263 0.147886
vn -0.988995 -0.004263 0.147886
vn -0.079131 0.996450 0.028730
vn -0.079131 0.996450 0.028730
vn -0.079131 0.996450 0.028730
vn -0.079131 0.996450 0.028730
vn 0.996864 0.079098 0.002281
vn 0.996864 0.079098 0.002281
vn 0.079131 -0.996450 -0.028729
vn 0.079131 -0.996450 -0.028729
vn 0.079131 -0.996450 -0.028729
vn 0.079131 -0.996450 -0.028729
vn -0.996864 -0.079096 -0.002281
vn -0.996864 -0.079096 -0.002281
vn -0.077262 -0.028734 0.996597
vn -0.077262 -0.028734 0.996597
vn -0.077262 -0.028734 0.996597
vn -0.077262 -0.028734 0.996597
vn 0.997011 -0.002227 0.077230
vn 0.997011 -0.002227 0.077230
vn 0.077262 0.028734 -0.996597
vn 0.077262 0.028734 -0.996597
vn 0.077262 0.028734 -0.996597
vn 0.077262 0.028734 -0.996597
vn -0.997011 0.002227 -0.077229
vn -0.997011 0.002227 -0.077229
vn -0.081746 -0.996239 -0.028724
vn -0.081746 -0.996239 -0.028724
vn -0.081746 -0.996239 -0.028724
vn -0.081746 -0.996239 -0.028724
vn 0.996653 -0.081713 -0.002356
vn 0.996653 -0.081713 -0.002356
vn 0.081748 0.996239 0.028724
vn 0.081748 0.996239 0.028724
vn 0.081748 0.996239 0.028724
vn 0.081748 0.996239 0.028724
vn -0.996653 0.081712 0.002356
vn -0.996653 0.081712 0.002356
vn -0.074178 0.028741 -0.996831
vn -0.074178 0.028741 -0.996831
vn -0.074178 0.028741 -0.996831
vn -0.074178 0.028741 -0.996831
vn 0.997245 0.002138 -0.074147
vn 0.997245 0.002138 -0.074147
vn 0.074178 -0.028741 0.996831
vn 0.074178 -0.028741 0.996831
vn 0.074178 -0.028741 0.996831
vn 0.074178 -0.028741 0.996831
vn -0.997245 -0.002138 0.074147
vn -0.997245 -0.002138 0.074147
vn -0.013316 0.054634 0.998418
vn -0.013316 0.054634 0.998418
vn -0.013316 0.054634 0.998418
vn -0.013316 0.054634 0.998418
vn 0.971449 0.237152 0.006837
vn 0.971449 0.237152 0.006837
vn 0.971448 0.237152 0.006837
vn 0.971449 0.237152 0.006837
vn -0.013321 0.112068 -0.993611
vn -0.013321 0.112068 -0.993611
vn -0.013321 0.112068 -0.993611
vn -0.013321 0.112068 -0.993611
vn -0.997012 -0.077214 -0.002226
vn -0.997012 -0.077214 -0.002226
vn -0.997012 -0.077214 -0.002226
vn -0.997012 -0.077214 -0.002226
vn 0.013324 -0.112068 0.993611
vn 0.013324 -0.112068 0.993611
vn 0.013324 -0.112068 0.993611
vn 0.013324 -0.112068 0.993611
vn -0.971449 -0.237151 -0.006836
vn -0.971449 -0.237151 -0.006836
vn -0.971449 -0.237151 -0.006836
vn -0.971449 -0.237151 -0.006836
vn 0.013321 -0.054634 -0.998418
vn 0.013321 -0.054634 -0.998418
vn 0.013321 -0.054634 -0.998418
vn 0.013321 -0.054634 -0.998418
vn 0.997012 0.077215 0.002226
vn 0.997012 0.077215 0.002226
vn 0.997012 0.077215 0.002226
vn 0.997012 0.077215 0.002226
vn -0.009947 -0.999338 0.035008
vn -0.009947 -0.999338 0.035008
vn -0.009947 -0.999338 0.035008
vn -0.009947 -0.999338 0.035008
vn 0.971168 -0.006871 0.238296
vn 0.971168 -0.006871 0.238296
vn 0.971168 -0.006871 0.238296
vn 0.971168 -0.006871 0.238296
vn -0.009950 0.995660 0.092529
vn -0.009950 0.995660 0.092529
vn -0.009950 0.995660 0.092529
vn -0.009950 0.995660 0.092529
vn -0.997645 0.001977 -0.068560
vn -0.997645 0.001977 -0.068560
vn -0.997645 0.001977 -0.068560
vn -0.997645 0.001977 -0.068560
vn 0.009950 -0.995660 -0.092528
vn 0.009950 -0.995660 -0.092528
vn 0.009950 -0.995660 -0.092528
vn 0.009950 -0.995660 -0.092528
vn -0.971168 0.006869 -0.238298
vn -0.971168 0.006869 -0.238298
vn -0.971168 0.006869 -0.238298
vn -0.971168 0.006869 -0.238298
vn 0.009947 0.999338 -0.035007
vn 0.009947 0.999338 -0.035007
vn 0.009947 0.999338 -0.035007
vn 0.009947 0.999338 -0.035007
vn 0.997645 -0.001977 0.068560
vn 0.997645 -0.001977 0.068560
vn 0.997645 -0.001977 0.068560
vn 0.997645 -0.001977 0.068560
vn -0.008812 -0.024560 -0.999660
vn -0.008812 -0.024560 -0.999660
vn -0.008812 -0.024560 -0.999660
vn -0.008812 -0.024560 -0.999660
vn 0.974079 -0.226115 -0.006521
vn 0.974079 -0.226115 -0.006521
vn 0.974079 -0.226115 -0.006521
vn 0.974079 -0.226115 -0.006521
vn -0.008809 -0.082116 0.996584
vn -0.008809 -0.082116 0.996584
vn -0.008809 -0.082116 0.996584
vn -0.008809 -0.082116 0.996584
vn -0.995088 0.098958 0.002853
vn -0.995088 0.098958 0.002853
vn -0.995088 0.098958 0.002853
vn -0.995088 0.098958 0.002853
vn 0.008812 0.082116 -0.996584
vn 0.008812 0.082116 -0.996584
vn 0.008812 0.082116 -0.996584
vn 0.008812 0.082116 -0.996584
vn -0.974078 0.226116 0.006521
vn -0.974078 0.226116 0.006521
vn -0.974079 0.226116 0.006521
vn -0.974078 0.226116 0.006521
vn 0.008809 0.024560 0.999660
vn 0.008809 0.024560 0.999660
vn 0.008809 0.024560 0.999660
vn 0.008809 0.024560 0.999660
vn 0.995088 -0.098959 -0.002853
vn 0.995087 -0.098959 -0.002853
vn 0.995087 -0.098959 -0.002853
vn 0.995088 -0.098959 -0.002853
vn -0.009432 0.999369 -0.034257
vn -0.009432 0.999369 -0.034257
vn -0.009432 0.999369 -0.034257
vn -0.009432 0.999369 -0.034257
vn 0.976830 0.006168 -0.213929
vn 0.976830 0.006168 -0.213929
vn 0.976830 0.006168 -0.213929
vn 0.976830 0.006168 -0.213929
vn -0.009430 -0.995735 -0.091781
vn -0.009430 -0.995735 -0.091781
vn -0.009430 -0.995735 -0.091781
vn -0.009430 -0.995735 -0.091781
vn -0.996697 -0.002340 0.081175
vn -0.996697 -0.002340 0.081175
vn -0.996697 -0.002340 0.081175
vn -0.996697 -0.002340 0.081175
vn 0.009432 0.995735 0.091781
vn 0.009432 0.995735 0.091781
vn 0.009432 0.995735 0.091781
vn 0.009432 0.995735 0.091781
vn -0.976830 -0.006167 0.213929
vn -0.976830 -0.006167 0.213929
vn -0.976830 -0.006167 0.213929
vn -0.976830 -0.006167 0.213929
vn 0.009431 -0.999369 0.034258
vn 0.009431 -0.999369 0.034258
vn 0.009431 -0.999369 0.034258
vn 0.009431 -0.999369 0.034258
vn 0.996697 0.002341 -0.081176
vn 0.996697 0.002341 -0.081176
vn 0.996697 0.002341 -0.081176
vn 0.996697 0.002341 -0.081176
s off
g pPlane9
usemtl initialShadingGroup
f 1/21/1 3/22/2 2/23/3
f 4/24/4 6/25/5 5/26/6
f 7/27/7 9/28/8 8/29/9
f 10/30/10 12/31/11 11/32/12
f 13/33/13 15/34/14 14/35/15
f 16/36/16 18/37/17 17/38/18
f 19/39/19 21/40/20 20/41/21
f 22/42/22 24/43/23 23/44/24
f 36/201/25 33/202/26 26/203/27 28/204/28
f 35/129/29 36/130/30 28/131/31 30/132/32
f 34/205/33 35/206/34 30/207/35 32/208/36
f 33/133/37 34/134/38 32/135/39 26/136/40
f 31/45/41 25/46/42 27/47/43 29/48/44
f 57/137/45 58/138/46 59/139/47 60/140/48
f 45/209/49 46/210/50 47/211/51 48/212/52
f 49/145/53 50/146/54 51/147/55 52/148/56
f 53/217/57 54/218/58 55/219/59 56/220/60
f 34/4/61 33/5/62 39/8/63 38/9/64
f 25/10/65 31/11/66 37/12/67 40/13/68
f 35/3/69 34/4/70 38/9/71 42/14/72
f 31/11/73 29/15/74 41/16/75 37/12/76
f 36/1/77 35/3/78 42/14/79 44/17/80
f 29/15/81 27/7/82 43/18/83 41/16/84
f 33/2/85 36/1/86 44/17/87 39/19/88
f 27/7/89 25/6/90 40/20/91 43/18/92
f 77/153/93 78/154/94 79/155/95 80/156/96
s 1
f 62/49/97 63/50/98 47/51/99 46/52/100
s off
f 81/157/101 82/158/102 83/159/103 84/160/104
s 2
f 64/59/105 61/60/106 45/61/107 48/62/108
s off
f 85/225/109 86/226/110 87/227/111 88/228/112
s 3
f 66/69/113 67/70/114 51/71/115 50/72/116
s off
f 89/229/117 90/230/118 91/231/119 92/232/120
s 4
f 68/79/121 65/80/122 49/81/123 52/82/124
s off
f 93/161/125 94/162/126 95/163/127 96/164/128
s 5
f 70/89/129 71/90/130 55/91/131 54/92/132
s off
f 97/165/133 98/166/134 99/167/135 100/168/136
s 6
f 72/99/137 69/100/138 53/101/139 56/102/140
s off
f 101/233/141 102/234/142 103/235/143 104/236/144
s 7
f 74/109/145 75/110/146 59/111/147 58/112/148
s off
f 105/237/149 106/238/150 107/239/151 108/240/152
s 8
f 76/119/153 73/120/154 57/121/155 60/122/156
s off
f 41/169/157 42/170/158 62/171/159 61/172/160
s 1
f 42/53/161 38/54/162 63/50/98 62/49/97
s off
f 38/173/163 37/174/164 64/175/165 63/176/166
s 2
f 37/63/167 41/64/168 61/60/106 64/59/105
s off
f 43/241/169 44/242/170 66/243/171 65/244/172
s 3
f 44/73/173 42/74/174 67/70/114 66/69/113
s off
f 42/245/175 41/246/176 68/247/177 67/248/178
s 4
f 41/83/179 43/84/180 65/80/122 68/79/121
s off
f 40/177/181 39/178/182 70/179/183 69/180/184
s 5
f 39/93/185 44/94/186 71/90/130 70/89/129
s off
f 44/181/187 43/182/188 72/183/189 71/184/190
s 6
f 43/103/191 40/104/192 69/100/138 72/99/137
s off
f 37/249/193 38/250/194 74/251/195 73/252/196
s 7
f 38/113/197 39/114/198 75/110/146 74/109/145
s off
f 39/253/199 40/254/200 76/255/201 75/256/202
s 8
f 40/123/203 37/124/204 73/120/154 76/119/153
s off
f 61/257/205 62/258/206 78/259/207 77/260/208
f 62/49/209 46/52/210 79/57/211 78/58/212
f 46/210/213 45/209/214 80/213/215 79/214/216
f 45/61/217 61/60/218 77/65/219 80/66/220
f 63/261/221 64/262/222 82/263/223 81/264/224
f 64/59/225 48/62/226 83/67/227 82/68/228
f 48/212/229 47/211/230 84/215/231 83/216/232
f 47/51/233 63/50/234 81/55/235 84/56/236
f 65/185/237 66/186/238 86/187/239 85/188/240
f 66/69/241 50/72/242 87/77/243 86/78/244
f 50/146/245 49/145/246 88/149/247 87/150/248
f 49/81/249 65/80/250 85/85/251 88/86/252
f 67/189/253 68/190/254 90/191/255 89/192/256
f 68/79/257 52/82/258 91/87/259 90/88/260
f 52/148/261 51/147/262 92/151/263 91/152/264
f 51/71/265 67/70/266 89/75/267 92/76/268
f 69/265/269 70/266/270 94/267/271 93/268/272
f 70/89/273 54/92/274 95/97/275 94/98/276
f 54/218/277 53/217/278 96/221/279 95/222/280
f 53/101/281 69/100/282 93/105/283 96/106/284
f 71/269/285 72/270/286 98/271/287 97/272/288
f 72/99/289 56/102/290 99/107/291 98/108/292
f 56/220/293 55/219/294 100/223/295 99/224/296
f 55/91/297 71/90/298 97/95/299 100/96/300
f 73/193/301 74/194/302 102/195/303 101/196/304
f 74/109/305 58/112/306 103/117/307 102/118/308
f 58/138/309 57/137/310 104/141/311 103/142/312
f 57/121/313 73/120/314 101/125/315 104/126/316
f 75/197/317 76/198/318 106/199/319 105/200/320
f 76/119/321 60/122/322 107/127/323 106/128/324
f 60/140/325 59/139/326 108/143/327 107/144/328
f 59/111/329 75/110/330 105/115/331 108/116/332
