# This file uses centimeters as units for non-parametric coordinates.

mtllib windmill_spinny.mtl
g default
v -12.708872 56.085625 0.103266
v -12.687446 37.513231 -0.416088
v -11.570180 56.448565 -3.749949
v -13.170748 56.108764 4.840363
v -11.954920 37.184150 0.389844
v -12.305565 56.153655 0.946362
v -12.678834 37.027905 17.187008
v -12.372977 37.610602 0.160114
v -11.349402 42.034353 17.486788
v -13.376358 31.265998 17.172898
v -12.090160 36.693061 0.133657
v -12.291780 36.131997 17.316611
v -13.071240 42.685418 -17.199613
v -11.947867 37.423042 -0.124555
v -12.852932 37.946397 -17.187066
v -12.629705 37.162722 -16.910243
v -12.761487 36.598359 -0.326675
v -11.602664 32.494290 -17.496113
v -13.294753 18.117272 -6.006660
v -12.101377 37.186912 -0.389741
v -12.319078 18.337731 -0.706484
v -12.612900 17.951401 -0.253707
v -12.725365 37.161821 0.480495
v -11.458752 17.701736 5.012518
v -12.861890 36.559992 0.494428
v -9.060432 36.559992 0.494428
v -12.861890 37.559577 0.523248
v -9.060432 37.559577 0.523248
v -12.861890 37.588397 -0.476337
v -9.060432 37.588397 -0.476337
v -12.861890 36.588812 -0.505157
v -9.060432 36.588812 -0.505157
v -11.853625 36.559992 0.494428
v -11.853625 36.588812 -0.505157
v -11.853625 37.588397 -0.476337
v -11.853625 37.559577 0.523248
v -12.861890 36.588812 -0.505157
v -11.853625 36.588812 -0.505157
v -11.853625 36.559992 0.494428
v -12.861890 36.559992 0.494428
v -12.861890 37.588397 -0.476337
v -11.853625 37.588397 -0.476337
v -12.861890 37.559577 0.523248
v -11.853625 37.559577 0.523248
v -12.934460 38.004932 -17.900250
v -11.938823 38.163935 -17.895666
v -11.781055 37.176869 -17.924125
v -12.776693 37.017866 -17.928709
v -12.932901 56.723920 0.992124
v -11.936675 56.719443 1.147394
v -11.782614 56.747919 0.159743
v -12.778840 56.752396 0.004473
v -12.936625 36.148191 17.859392
v -11.941834 35.983968 17.854657
v -11.778891 36.970191 17.883092
v -12.773681 37.134414 17.887827
v -12.930316 17.448026 -0.976904
v -11.933146 17.452325 -1.126012
v -11.785199 17.423823 -0.137427
v -12.782369 17.419523 0.011681
v -12.934460 37.974636 -16.849474
v -11.938823 38.133639 -16.844890
v -11.781055 37.146573 -16.873349
v -12.776693 36.987570 -16.877934
v -12.932901 55.967867 0.970325
v -11.936675 55.963390 1.125595
v -11.782614 55.991866 0.137944
v -12.778840 55.996343 -0.017326
v -12.936625 36.172554 17.014399
v -11.941834 36.008331 17.009664
v -11.778891 36.994554 17.038099
v -12.773681 37.158777 17.042834
v -12.930316 18.404681 -0.949322
v -11.933146 18.408980 -1.098430
v -11.785199 18.380477 -0.109845
v -12.782369 18.376178 0.039263
v -13.299336 42.693586 -17.112564
v -13.059476 42.731893 -17.111460
v -13.059476 42.739191 -17.364605
v -13.299336 42.700885 -17.365709
v -11.416179 32.450616 -17.407890
v -11.656039 32.412311 -17.408994
v -11.656039 32.419610 -17.662139
v -11.416179 32.457915 -17.661035
v -13.202773 56.108266 4.901430
v -12.874687 56.106792 4.952565
v -12.874687 56.355780 4.959744
v -13.202773 56.357255 4.908609
v -11.512742 56.358527 -3.778541
v -11.840828 56.360002 -3.829676
v -11.840828 56.608990 -3.822497
v -11.512742 56.607516 -3.771362
v -13.441071 31.096319 17.143561
v -13.094470 31.039101 17.141911
v -13.094470 31.030613 17.436322
v -13.441071 31.087830 17.437972
v -11.274445 42.054915 17.459520
v -11.621045 42.112131 17.461169
v -11.621045 42.103642 17.755580
v -11.274445 42.046426 17.753930
v -13.352761 18.222710 -6.141475
v -13.046453 18.224031 -6.187277
v -13.046453 17.930168 -6.195750
v -13.352761 17.928847 -6.149948
v -11.362754 17.899657 5.063199
v -11.669063 17.898336 5.109001
v -11.669063 17.604473 5.100528
v -11.362754 17.605793 5.054726
vt 0.001992 0.171994
vt 0.001992 0.001969
vt 0.001992 0.342019
vt 0.001992 0.512044
vt 0.001992 0.682069
vt 0.009983 0.001969
vt 0.009983 0.171994
vt 0.001992 0.682069
vt 0.001992 0.512044
vt 0.009983 0.682069
vt 0.009983 0.512044
vt 0.009983 0.512044
vt 0.009983 0.682069
vt 0.001992 0.342019
vt 0.009983 0.342019
vt 0.009983 0.342019
vt 0.001992 0.171994
vt 0.009983 0.171994
vt 0.001992 0.001969
vt 0.009983 0.001969
vt 0.924103 0.658277
vt 0.857325 0.662630
vt 0.924382 0.337019
vt 0.998008 0.666324
vt 0.930683 0.665159
vt 0.930517 0.337019
vt 0.288683 0.645367
vt 0.375362 0.642681
vt 0.290269 0.939945
vt 0.382233 0.642832
vt 0.466407 0.642773
vt 0.467541 0.940038
vt 0.281475 0.940423
vt 0.199574 0.937845
vt 0.199031 0.642681
vt 0.554813 0.929680
vt 0.473833 0.937479
vt 0.553323 0.642773
vt 0.115226 0.001969
vt 0.206723 0.008420
vt 0.202804 0.334362
vt 0.017779 0.003660
vt 0.108923 0.001969
vt 0.020895 0.336053
vt 0.801298 0.815304
vt 0.818589 0.815304
vt 0.818589 0.832594
vt 0.801298 0.832594
vt 0.672749 0.355195
vt 0.655675 0.355195
vt 0.655675 0.337019
vt 0.672749 0.337019
vt 0.671482 0.638376
vt 0.654191 0.638376
vt 0.574245 0.348296
vt 0.574245 0.343917
vt 0.752091 0.343917
vt 0.752091 0.348296
vt 0.469605 0.620605
vt 0.486680 0.620605
vt 0.486680 0.638782
vt 0.469605 0.638782
vt 0.470872 0.337425
vt 0.488163 0.337425
vt 0.568110 0.627504
vt 0.568110 0.631883
vt 0.390263 0.631883
vt 0.390263 0.627504
vt 0.280695 0.320355
vt 0.297780 0.320355
vt 0.297780 0.333433
vt 0.280695 0.333433
vt 0.281935 0.001969
vt 0.299226 0.001969
vt 0.365654 0.324741
vt 0.365654 0.329048
vt 0.214623 0.329048
vt 0.214623 0.324741
vt 0.438561 0.320355
vt 0.455645 0.320355
vt 0.455645 0.333433
vt 0.438561 0.333433
vt 0.439800 0.001969
vt 0.457091 0.001969
vt 0.523519 0.324741
vt 0.523519 0.329048
vt 0.372488 0.329048
vt 0.372488 0.324741
vt 0.279397 0.624072
vt 0.296456 0.624072
vt 0.296456 0.638689
vt 0.279397 0.638689
vt 0.280701 0.338353
vt 0.297992 0.338353
vt 0.384128 0.628834
vt 0.384128 0.633927
vt 0.193576 0.633927
vt 0.193576 0.628834
vt 0.106723 0.700677
vt 0.089664 0.700677
vt 0.089664 0.686060
vt 0.106723 0.686060
vt 0.105419 0.986396
vt 0.088128 0.986396
vt 0.001992 0.695915
vt 0.001992 0.690822
vt 0.192544 0.690822
vt 0.192544 0.695915
vt 0.637103 0.018517
vt 0.620002 0.018517
vt 0.620002 0.001969
vt 0.637103 0.001969
vt 0.635908 0.333027
vt 0.618617 0.333027
vt 0.530353 0.012785
vt 0.530353 0.007701
vt 0.724964 0.007701
vt 0.724964 0.012785
vt 0.839793 0.018517
vt 0.822693 0.018517
vt 0.822693 0.001969
vt 0.839793 0.001969
vt 0.838599 0.333027
vt 0.821308 0.333027
vt 0.733044 0.012785
vt 0.733044 0.007701
vt 0.927655 0.007701
vt 0.927655 0.012785
vt 0.888867 0.809351
vt 0.871577 0.809351
vt 0.871577 0.761054
vt 0.888867 0.761054
vt 0.842015 0.802126
vt 0.824724 0.802126
vt 0.824724 0.753829
vt 0.842015 0.753829
vt 0.670186 0.732809
vt 0.687428 0.730229
vt 0.689986 0.747330
vt 0.672744 0.749909
vt 0.662882 0.643160
vt 0.668178 0.642367
vt 0.697291 0.836979
vt 0.691994 0.837771
vt 0.792281 0.728155
vt 0.809507 0.725469
vt 0.812171 0.742554
vt 0.794945 0.745239
vt 0.787615 0.660281
vt 0.793288 0.659396
vt 0.816837 0.810428
vt 0.811164 0.811312
vt 0.725238 0.837901
vt 0.729385 0.837901
vt 0.729385 0.842280
vt 0.725238 0.842280
vt 0.719103 0.842280
vt 0.714955 0.842280
vt 0.714955 0.837901
vt 0.719103 0.837901
vt 0.790070 0.821297
vt 0.790070 0.815304
vt 0.795163 0.815304
vt 0.795163 0.821297
vt 0.783935 0.838021
vt 0.783935 0.844014
vt 0.778842 0.844014
vt 0.778842 0.838021
vt 0.613464 0.642367
vt 0.630898 0.642367
vt 0.629424 0.925548
vt 0.612209 0.925548
vt 0.654979 0.925548
vt 0.637545 0.925548
vt 0.639019 0.642367
vt 0.656234 0.642367
vt 0.562828 0.642773
vt 0.580262 0.642773
vt 0.578737 0.928492
vt 0.561536 0.928492
vt 0.604306 0.928087
vt 0.586873 0.928087
vt 0.588398 0.642367
vt 0.605599 0.642367
vt 0.951123 0.762968
vt 0.968348 0.765654
vt 0.952129 0.831727
vt 0.946456 0.830842
vt 0.935655 0.831727
vt 0.918429 0.829041
vt 0.934648 0.762968
vt 0.940321 0.763853
vt 0.831949 0.659396
vt 0.849191 0.661976
vt 0.829941 0.749838
vt 0.824645 0.749045
vt 0.873070 0.757063
vt 0.855828 0.754483
vt 0.875078 0.666622
vt 0.880374 0.667414
vt 0.912294 0.807571
vt 0.895003 0.807571
vt 0.895003 0.759274
vt 0.912294 0.759274
vt 0.865441 0.809351
vt 0.848150 0.809351
vt 0.848150 0.761054
vt 0.865441 0.761054
vt 0.754945 0.737613
vt 0.772160 0.734863
vt 0.774888 0.751937
vt 0.757673 0.754687
vt 0.748636 0.656183
vt 0.752783 0.655520
vt 0.781197 0.833367
vt 0.777050 0.834029
vt 0.712532 0.731029
vt 0.729733 0.728188
vt 0.732550 0.745248
vt 0.715350 0.748089
vt 0.703810 0.643357
vt 0.709803 0.642367
vt 0.741273 0.832920
vt 0.735280 0.833909
vt 0.768400 0.843694
vt 0.768400 0.838021
vt 0.772707 0.838021
vt 0.772707 0.843694
vt 0.762265 0.838021
vt 0.762265 0.843694
vt 0.757958 0.843694
vt 0.757958 0.838021
vt 0.746739 0.843317
vt 0.746739 0.838021
vt 0.751822 0.838021
vt 0.751822 0.843317
vt 0.740604 0.837901
vt 0.740604 0.843197
vt 0.735520 0.843197
vt 0.735520 0.837901
vt 0.833755 0.337019
vt 0.851189 0.337019
vt 0.849753 0.655405
vt 0.832528 0.655405
vt 0.825164 0.655405
vt 0.807731 0.655405
vt 0.809167 0.337019
vt 0.826392 0.337019
vt 0.784162 0.337019
vt 0.801595 0.337019
vt 0.800220 0.651529
vt 0.782978 0.651529
vt 0.775660 0.651529
vt 0.758226 0.651529
vt 0.759601 0.337019
vt 0.776843 0.337019
vt 0.959585 0.670315
vt 0.976800 0.673066
vt 0.957423 0.752408
vt 0.953276 0.751745
vt 0.991699 0.838492
vt 0.974483 0.835741
vt 0.993861 0.756399
vt 0.998008 0.757062
vt 0.895734 0.666622
vt 0.912934 0.669462
vt 0.893004 0.755283
vt 0.887011 0.754293
vt 0.937344 0.758977
vt 0.920143 0.756136
vt 0.940073 0.670315
vt 0.946066 0.671305
vn -0.959153 0.006802 -0.282806
vn -0.959153 0.006802 -0.282806
vn -0.959153 0.006802 -0.282806
vn -0.976100 -0.011676 -0.217008
vn -0.976100 -0.011676 -0.217008
vn -0.976100 -0.011676 -0.217008
vn -0.966342 0.257119 -0.008559
vn -0.966342 0.257119 -0.008559
vn -0.966342 0.257119 -0.008559
vn -0.976013 0.217671 -0.004345
vn -0.976013 0.217671 -0.004345
vn -0.976013 0.217671 -0.004345
vn -0.997621 -0.045820 0.051512
vn -0.997621 -0.045820 0.051512
vn -0.997621 -0.045820 0.051512
vn -0.976929 -0.213038 -0.015013
vn -0.976929 -0.213038 -0.015013
vn -0.976929 -0.213038 -0.015013
vn -0.983503 0.008323 0.180700
vn -0.983503 0.008323 0.180700
vn -0.983503 0.008323 0.180700
vn -0.976860 -0.013876 0.213431
vn -0.976860 -0.013876 0.213431
vn -0.976860 -0.013876 0.213431
vn 0.000000 -0.028820 0.999585
vn 0.000000 -0.028820 0.999585
vn 0.000000 -0.028820 0.999585
vn 0.000000 -0.028820 0.999585
vn 0.000000 0.999585 0.028820
vn 0.000000 0.999585 0.028820
vn 0.000000 0.999585 0.028820
vn 0.000000 0.999585 0.028820
vn 0.000000 0.028820 -0.999585
vn 0.000000 0.028820 -0.999585
vn 0.000000 0.028820 -0.999585
vn 0.000000 0.028820 -0.999585
vn 0.000000 -0.999585 -0.028820
vn 0.000000 -0.999585 -0.028820
vn 0.000000 -0.999585 -0.028820
vn 0.000000 -0.999585 -0.028820
vn -1.000000 0.000000 0.000000
vn -1.000000 0.000000 0.000000
vn -1.000000 0.000000 0.000000
vn -1.000000 0.000000 0.000000
vn 0.000000 -0.999585 -0.028821
vn 0.000000 -0.999585 -0.028821
vn 0.000000 -0.999585 -0.028821
vn 0.000000 -0.999585 -0.028821
vn 0.000000 0.028820 -0.999585
vn 0.000000 0.028820 -0.999585
vn 0.000000 0.028820 -0.999585
vn 0.000000 0.028820 -0.999585
vn 0.000000 0.999585 0.028819
vn 0.000000 0.999585 0.028819
vn 0.000000 0.999585 0.028819
vn 0.000000 0.999585 0.028819
vn 0.000000 -0.028820 0.999585
vn 0.000000 -0.028820 0.999585
vn 0.000000 -0.028820 0.999585
vn 0.000000 -0.028820 0.999585
vn 0.000000 0.000000 0.000000
vn 0.000000 0.000000 0.000000
vn 0.000000 0.000000 0.000000
vn 0.000000 0.000000 0.000000
vn 0.000000 0.000000 0.000000
vn 0.000000 0.000000 0.000000
vn 0.000000 0.000000 0.000000
vn 0.000000 0.000000 0.000000
vn 0.000000 0.000000 0.000000
vn 0.000000 0.000000 0.000000
vn 0.000000 0.000000 0.000000
vn 0.000000 0.000000 0.000000
vn 0.000000 0.000000 0.000000
vn 0.000000 0.000000 0.000000
vn 0.000000 0.000000 0.000000
vn 0.000000 0.000000 0.000000
vn 0.000000 0.000000 0.000000
vn 0.000000 0.000000 0.000000
vn 0.000000 0.000000 0.000000
vn 0.000000 0.000000 0.000000
vn 0.000000 0.000000 0.000000
vn 0.000000 0.000000 0.000000
vn 0.000000 0.000000 0.000000
vn 0.000000 0.000000 0.000000
vn 0.000000 0.000000 0.000000
vn 0.000000 0.000000 0.000000
vn 0.000000 0.000000 0.000000
vn 0.000000 0.000000 0.000000
vn 0.000000 0.000000 0.000000
vn 0.000000 0.000000 0.000000
vn 0.000000 0.000000 0.000000
vn 0.000000 0.000000 0.000000
vn -0.157769 0.987066 0.028459
vn -0.157769 0.987066 0.028459
vn -0.157769 0.987066 0.028459
vn -0.157769 0.987066 0.028459
vn 0.996473 0.083884 0.002419
vn 0.996475 0.083856 0.002418
vn 0.987476 0.157702 0.004547
vn 0.987476 0.157702 0.004547
vn 0.157760 -0.987067 -0.028459
vn 0.157760 -0.987067 -0.028459
vn 0.157760 -0.987067 -0.028459
vn 0.157760 -0.987067 -0.028459
vn -0.996473 -0.083883 -0.002419
vn -0.996475 -0.083855 -0.002418
vn -0.987476 -0.157701 -0.004547
vn -0.987476 -0.157701 -0.004547
vn -0.154060 -0.028476 0.987651
vn -0.154060 -0.028476 0.987651
vn -0.154060 -0.028476 0.987651
vn -0.154060 -0.028476 0.987651
vn 0.996769 -0.002315 0.080285
vn 0.996771 -0.002314 0.080269
vn 0.988061 -0.004440 0.153998
vn 0.988061 -0.004440 0.153998
vn 0.154060 0.028476 -0.987651
vn 0.154060 0.028476 -0.987651
vn 0.154060 0.028476 -0.987651
vn 0.154060 0.028476 -0.987651
vn -0.996769 0.002315 -0.080285
vn -0.996771 0.002314 -0.080269
vn -0.988061 0.004440 -0.153998
vn -0.988061 0.004440 -0.153998
vn -0.162944 -0.986226 -0.028435
vn -0.162944 -0.986226 -0.028435
vn -0.162944 -0.986226 -0.028435
vn -0.162944 -0.986226 -0.028435
vn 0.996318 -0.085702 -0.002471
vn 0.996320 -0.085678 -0.002470
vn 0.986635 -0.162877 -0.004696
vn 0.986635 -0.162877 -0.004696
vn 0.162939 0.986226 0.028435
vn 0.162939 0.986226 0.028435
vn 0.162939 0.986226 0.028435
vn 0.162939 0.986226 0.028435
vn -0.996318 0.085701 0.002471
vn -0.996320 0.085677 0.002470
vn -0.986635 0.162876 0.004696
vn -0.986635 0.162876 0.004696
vn -0.147946 0.028503 -0.988585
vn -0.147946 0.028503 -0.988585
vn -0.147946 0.028503 -0.988585
vn -0.147946 0.028503 -0.988585
vn 0.996962 0.002245 -0.077863
vn 0.996963 0.002244 -0.077844
vn 0.988995 0.004264 -0.147886
vn 0.988995 0.004264 -0.147886
vn 0.147946 -0.028503 0.988585
vn 0.147946 -0.028503 0.988585
vn 0.147946 -0.028503 0.988585
vn 0.147946 -0.028503 0.988585
vn -0.996962 -0.002245 0.077863
vn -0.996963 -0.002244 0.077844
vn -0.988995 -0.004264 0.147886
vn -0.988995 -0.004264 0.147886
vn -0.079131 0.996450 0.028730
vn -0.079131 0.996450 0.028730
vn -0.079131 0.996450 0.028730
vn -0.079131 0.996450 0.028730
vn 0.996864 0.079099 0.002281
vn 0.996864 0.079099 0.002281
vn 0.079131 -0.996450 -0.028730
vn 0.079131 -0.996450 -0.028730
vn 0.079131 -0.996450 -0.028730
vn 0.079131 -0.996450 -0.028730
vn -0.996864 -0.079098 -0.002281
vn -0.996864 -0.079098 -0.002281
vn -0.077262 -0.028734 0.996597
vn -0.077262 -0.028734 0.996597
vn -0.077262 -0.028734 0.996597
vn -0.077262 -0.028734 0.996597
vn 0.997011 -0.002227 0.077230
vn 0.997011 -0.002227 0.077230
vn 0.077262 0.028734 -0.996597
vn 0.077262 0.028734 -0.996597
vn 0.077262 0.028734 -0.996597
vn 0.077262 0.028734 -0.996597
vn -0.997011 0.002227 -0.077230
vn -0.997011 0.002227 -0.077230
vn -0.081746 -0.996239 -0.028724
vn -0.081746 -0.996239 -0.028724
vn -0.081746 -0.996239 -0.028724
vn -0.081746 -0.996239 -0.028724
vn 0.996653 -0.081713 -0.002356
vn 0.996653 -0.081713 -0.002356
vn 0.081746 0.996239 0.028724
vn 0.081746 0.996239 0.028724
vn 0.081746 0.996239 0.028724
vn 0.081746 0.996239 0.028724
vn -0.996653 0.081712 0.002356
vn -0.996653 0.081712 0.002356
vn -0.074178 0.028741 -0.996831
vn -0.074178 0.028741 -0.996831
vn -0.074178 0.028741 -0.996831
vn -0.074178 0.028741 -0.996831
vn 0.997245 0.002138 -0.074147
vn 0.997245 0.002138 -0.074147
vn 0.074178 -0.028741 0.996831
vn 0.074178 -0.028741 0.996831
vn 0.074178 -0.028741 0.996831
vn 0.074178 -0.028741 0.996831
vn -0.997245 -0.002138 0.074147
vn -0.997245 -0.002138 0.074147
vn -0.013321 0.054634 0.998418
vn -0.013321 0.054634 0.998418
vn -0.013321 0.054634 0.998418
vn -0.013321 0.054634 0.998418
vn 0.971449 0.237150 0.006838
vn 0.971449 0.237150 0.006838
vn 0.971449 0.237150 0.006838
vn 0.971449 0.237150 0.006838
vn -0.013321 0.112068 -0.993611
vn -0.013321 0.112068 -0.993611
vn -0.013321 0.112068 -0.993611
vn -0.013321 0.112068 -0.993611
vn -0.997012 -0.077215 -0.002226
vn -0.997012 -0.077215 -0.002226
vn -0.997012 -0.077215 -0.002226
vn -0.997012 -0.077215 -0.002226
vn 0.013321 -0.112068 0.993611
vn 0.013321 -0.112068 0.993611
vn 0.013321 -0.112068 0.993611
vn 0.013321 -0.112068 0.993611
vn -0.971449 -0.237150 -0.006838
vn -0.971449 -0.237150 -0.006838
vn -0.971449 -0.237150 -0.006838
vn -0.971449 -0.237150 -0.006838
vn 0.013324 -0.054633 -0.998418
vn 0.013324 -0.054633 -0.998418
vn 0.013324 -0.054633 -0.998418
vn 0.013324 -0.054633 -0.998418
vn 0.997012 0.077214 0.002226
vn 0.997012 0.077214 0.002226
vn 0.997012 0.077214 0.002226
vn 0.997012 0.077214 0.002226
vn -0.009947 -0.999337 0.035009
vn -0.009947 -0.999337 0.035009
vn -0.009947 -0.999337 0.035009
vn -0.009947 -0.999337 0.035009
vn 0.971168 -0.006871 0.238296
vn 0.971168 -0.006871 0.238296
vn 0.971168 -0.006871 0.238296
vn 0.971168 -0.006871 0.238296
vn -0.009947 0.995660 0.092530
vn -0.009947 0.995660 0.092530
vn -0.009947 0.995660 0.092530
vn -0.009947 0.995660 0.092530
vn -0.997645 0.001977 -0.068559
vn -0.997645 0.001977 -0.068559
vn -0.997645 0.001977 -0.068559
vn -0.997645 0.001977 -0.068559
vn 0.009947 -0.995660 -0.092529
vn 0.009947 -0.995660 -0.092529
vn 0.009947 -0.995660 -0.092529
vn 0.009947 -0.995660 -0.092529
vn -0.971168 0.006871 -0.238296
vn -0.971168 0.006871 -0.238296
vn -0.971168 0.006871 -0.238296
vn -0.971168 0.006871 -0.238296
vn 0.009947 0.999338 -0.035010
vn 0.009947 0.999337 -0.035010
vn 0.009947 0.999337 -0.035010
vn 0.009947 0.999337 -0.035010
vn 0.997645 -0.001977 0.068559
vn 0.997645 -0.001977 0.068559
vn 0.997645 -0.001977 0.068559
vn 0.997645 -0.001977 0.068559
vn -0.008812 -0.024560 -0.999660
vn -0.008812 -0.024560 -0.999660
vn -0.008812 -0.024560 -0.999660
vn -0.008812 -0.024560 -0.999660
vn 0.974079 -0.226115 -0.006519
vn 0.974079 -0.226115 -0.006519
vn 0.974079 -0.226115 -0.006519
vn 0.974079 -0.226115 -0.006519
vn -0.008812 -0.082116 0.996584
vn -0.008812 -0.082116 0.996584
vn -0.008812 -0.082116 0.996584
vn -0.008812 -0.082116 0.996584
vn -0.995087 0.098958 0.002853
vn -0.995087 0.098958 0.002853
vn -0.995088 0.098958 0.002853
vn -0.995088 0.098958 0.002853
vn 0.008812 0.082116 -0.996584
vn 0.008812 0.082116 -0.996584
vn 0.008812 0.082116 -0.996584
vn 0.008812 0.082116 -0.996584
vn -0.974079 0.226116 0.006519
vn -0.974079 0.226116 0.006519
vn -0.974079 0.226116 0.006519
vn -0.974079 0.226116 0.006519
vn 0.008809 0.024560 0.999660
vn 0.008809 0.024560 0.999660
vn 0.008809 0.024560 0.999660
vn 0.008809 0.024560 0.999660
vn 0.995088 -0.098958 -0.002853
vn 0.995088 -0.098958 -0.002853
vn 0.995088 -0.098958 -0.002853
vn 0.995088 -0.098958 -0.002853
vn -0.009431 0.999369 -0.034257
vn -0.009431 0.999369 -0.034257
vn -0.009431 0.999369 -0.034257
vn -0.009431 0.999369 -0.034257
vn 0.976830 0.006168 -0.213929
vn 0.976830 0.006168 -0.213929
vn 0.976830 0.006168 -0.213929
vn 0.976830 0.006168 -0.213929
vn -0.009431 -0.995735 -0.091780
vn -0.009431 -0.995735 -0.091780
vn -0.009431 -0.995735 -0.091780
vn -0.009431 -0.995735 -0.091780
vn -0.996697 -0.002340 0.081176
vn -0.996697 -0.002340 0.081176
vn -0.996697 -0.002340 0.081176
vn -0.996697 -0.002340 0.081176
vn 0.009431 0.995735 0.091780
vn 0.009431 0.995735 0.091780
vn 0.009431 0.995735 0.091780
vn 0.009431 0.995735 0.091780
vn -0.976830 -0.006168 0.213929
vn -0.976830 -0.006168 0.213929
vn -0.976830 -0.006168 0.213929
vn -0.976830 -0.006168 0.213929
vn 0.009431 -0.999369 0.034257
vn 0.009431 -0.999369 0.034257
vn 0.009431 -0.999369 0.034257
vn 0.009431 -0.999369 0.034257
vn 0.996697 0.002340 -0.081176
vn 0.996697 0.002340 -0.081176
vn 0.996697 0.002340 -0.081176
vn 0.996697 0.002340 -0.081176
s off
g pPlane9
usemtl initialShadingGroup
f 1/21/1 3/22/2 2/23/3
f 4/24/4 6/25/5 5/26/6
f 7/27/7 9/28/8 8/29/9
f 10/30/10 12/31/11 11/32/12
f 13/33/13 15/34/14 14/35/15
f 16/36/16 18/37/17 17/38/18
f 19/39/19 21/40/20 20/41/21
f 22/42/22 24/43/23 23/44/24
f 36/201/25 33/202/26 26/203/27 28/204/28
f 35/129/29 36/130/30 28/131/31 30/132/32
f 34/205/33 35/206/34 30/207/35 32/208/36
f 33/133/37 34/134/38 32/135/39 26/136/40
f 31/45/41 25/46/42 27/47/43 29/48/44
f 57/137/45 58/138/46 59/139/47 60/140/48
f 45/209/49 46/210/50 47/211/51 48/212/52
f 49/145/53 50/146/54 51/147/55 52/148/56
f 53/217/57 54/218/58 55/219/59 56/220/60
f 34/4/61 33/5/62 39/8/63 38/9/64
f 25/10/65 31/11/66 37/12/67 40/13/68
f 35/3/69 34/4/70 38/9/71 42/14/72
f 31/11/73 29/15/74 41/16/75 37/12/76
f 36/1/77 35/3/78 42/14/79 44/17/80
f 29/15/81 27/7/82 43/18/83 41/16/84
f 33/2/85 36/1/86 44/17/87 39/19/88
f 27/7/89 25/6/90 40/20/91 43/18/92
f 77/153/93 78/154/94 79/155/95 80/156/96
s 1
f 62/49/97 63/50/98 47/51/99 46/52/100
s off
f 81/157/101 82/158/102 83/159/103 84/160/104
s 2
f 64/59/105 61/60/106 45/61/107 48/62/108
s off
f 85/225/109 86/226/110 87/227/111 88/228/112
s 3
f 66/69/113 67/70/114 51/71/115 50/72/116
s off
f 89/229/117 90/230/118 91/231/119 92/232/120
s 4
f 68/79/121 65/80/122 49/81/123 52/82/124
s off
f 93/161/125 94/162/126 95/163/127 96/164/128
s 5
f 70/89/129 71/90/130 55/91/131 54/92/132
s off
f 97/165/133 98/166/134 99/167/135 100/168/136
s 6
f 72/99/137 69/100/138 53/101/139 56/102/140
s off
f 101/233/141 102/234/142 103/235/143 104/236/144
s 7
f 74/109/145 75/110/146 59/111/147 58/112/148
s off
f 105/237/149 106/238/150 107/239/151 108/240/152
s 8
f 76/119/153 73/120/154 57/121/155 60/122/156
s off
f 41/169/157 42/170/158 62/171/159 61/172/160
s 1
f 42/53/161 38/54/162 63/50/98 62/49/97
s off
f 38/173/163 37/174/164 64/175/165 63/176/166
s 2
f 37/63/167 41/64/168 61/60/106 64/59/105
s off
f 43/241/169 44/242/170 66/243/171 65/244/172
s 3
f 44/73/173 42/74/174 67/70/114 66/69/113
s off
f 42/245/175 41/246/176 68/247/177 67/248/178
s 4
f 41/83/179 43/84/180 65/80/122 68/79/121
s off
f 40/177/181 39/178/182 70/179/183 69/180/184
s 5
f 39/93/185 44/94/186 71/90/130 70/89/129
s off
f 44/181/187 43/182/188 72/183/189 71/184/190
s 6
f 43/103/191 40/104/192 69/100/138 72/99/137
s off
f 37/249/193 38/250/194 74/251/195 73/252/196
s 7
f 38/113/197 39/114/198 75/110/146 74/109/145
s off
f 39/253/199 40/254/200 76/255/201 75/256/202
s 8
f 40/123/203 37/124/204 73/120/154 76/119/153
s off
f 61/257/205 62/258/206 78/259/207 77/260/208
f 62/49/209 46/52/210 79/57/211 78/58/212
f 46/210/213 45/209/214 80/213/215 79/214/216
f 45/61/217 61/60/218 77/65/219 80/66/220
f 63/261/221 64/262/222 82/263/223 81/264/224
f 64/59/225 48/62/226 83/67/227 82/68/228
f 48/212/229 47/211/230 84/215/231 83/216/232
f 47/51/233 63/50/234 81/55/235 84/56/236
f 65/185/237 66/186/238 86/187/239 85/188/240
f 66/69/241 50/72/242 87/77/243 86/78/244
f 50/146/245 49/145/246 88/149/247 87/150/248
f 49/81/249 65/80/250 85/85/251 88/86/252
f 67/189/253 68/190/254 90/191/255 89/192/256
f 68/79/257 52/82/258 91/87/259 90/88/260
f 52/148/261 51/147/262 92/151/263 91/152/264
f 51/71/265 67/70/266 89/75/267 92/76/268
f 69/265/269 70/266/270 94/267/271 93/268/272
f 70/89/273 54/92/274 95/97/275 94/98/276
f 54/218/277 53/217/278 96/221/279 95/222/280
f 53/101/281 69/100/282 93/105/283 96/106/284
f 71/269/285 72/270/286 98/271/287 97/272/288
f 72/99/289 56/102/290 99/107/291 98/108/292
f 56/220/293 55/219/294 100/223/295 99/224/296
f 55/91/297 71/90/298 97/95/299 100/96/300
f 73/193/301 74/194/302 102/195/303 101/196/304
f 74/109/305 58/112/306 103/117/307 102/118/308
f 58/138/309 57/137/310 104/141/311 103/142/312
f 57/121/313 73/120/314 101/125/315 104/126/316
f 75/197/317 76/198/318 106/199/319 105/200/320
f 76/119/321 60/122/322 107/127/323 106/128/324
f 60/140/325 59/139/326 108/143/327 107/144/328
f 59/111/329 75/110/330 105/115/331 108/116/332
