# This file uses centimeters as units for non-parametric coordinates.

mtllib train_track_turn.mtl
g default
v -14.398397 -0.041959 -7.759369
v 16.924917 -0.041959 -7.759369
v -14.235056 0.672558 -8.208146
v 16.761576 0.672558 -8.208146
v -13.893036 0.672558 -9.147839
v 16.419556 0.672558 -9.147839
v -13.729694 -0.041959 -9.596615
v 16.256214 -0.041959 -9.596615
v -13.760183 -0.381646 5.441365
v -11.600180 -0.381646 5.974450
v -13.760183 0.416829 5.441365
v -11.600180 0.416829 5.974450
v -9.955595 0.416829 -8.798711
v -8.342598 0.416829 -8.400626
v -9.955595 -0.381646 -8.798711
v -8.342598 -0.381646 -8.400626
v -10.262575 -0.289199 -6.122057
v -10.262575 0.152179 -6.122057
v -9.316201 0.152179 -5.888494
v -9.316201 -0.289199 -5.888494
v -12.589613 -0.289199 2.896171
v -12.589612 0.152179 2.896170
v -11.452168 0.152179 3.176889
v -11.452168 -0.289199 3.176890
v -5.934430 -0.381646 6.966950
v -3.721838 -0.381646 7.199836
v -5.934430 0.416829 6.966950
v -3.721838 0.416829 7.199836
v -4.111662 0.416829 -7.659471
v -2.459395 0.416829 -7.485561
v -4.111662 -0.381646 -7.659471
v -2.459395 -0.381646 -7.485561
v -4.049956 -0.289199 -4.965977
v -4.049956 0.152179 -4.965977
v -3.080542 0.152179 -4.863941
v -3.080542 -0.289199 -4.863941
v -5.122682 -0.289199 4.285660
v -5.122681 0.152179 4.285659
v -3.957545 0.152179 4.408296
v -3.957545 -0.289199 4.408297
v 10.133542 -0.381646 6.733820
v 12.325484 -0.381646 6.352790
v 10.133542 0.416829 6.733820
v 12.325484 0.416829 6.352790
v 7.887201 0.416829 -7.833562
v 9.524049 0.416829 -8.118098
v 7.887201 -0.381646 -7.833562
v 9.524049 -0.381646 -8.118098
v 8.683098 -0.289199 -5.259604
v 8.683098 0.152179 -5.259604
v 9.643465 0.152179 -5.426546
v 9.643465 -0.289199 -5.426546
v 10.181145 -0.289199 3.932751
v 10.181145 0.152179 3.932750
v 11.335407 0.152179 3.732103
v 11.335408 -0.289199 3.732104
v 17.831812 -0.381646 5.005634
v 19.952082 -0.381646 4.331655
v 17.831812 0.416829 5.005634
v 19.952082 0.416829 4.331655
v 13.635935 0.416829 -9.124096
v 15.219261 0.416829 -9.627395
v 13.635935 -0.381646 -9.124096
v 15.219261 -0.381646 -9.627395
v 14.772636 -0.289199 -6.681428
v 14.772636 0.152179 -6.681428
v 15.701602 0.152179 -6.976722
v 15.701602 -0.289199 -6.976722
v 17.500145 -0.289199 2.223864
v 17.500145 0.152179 2.223863
v 18.616667 0.152179 1.868950
v 18.616667 -0.289199 1.868951
v -18.487095 -0.041959 3.474233
v 21.013615 -0.041959 3.474233
v -18.323753 0.672558 3.025457
v 20.850273 0.672558 3.025457
v -17.981733 0.672558 2.085764
v 20.508253 0.672558 2.085764
v -17.818392 -0.041959 1.636987
v 20.344912 -0.041959 1.636987
v 2.001847 -0.381646 7.409029
v 4.225534 -0.381646 7.338284
v 2.001847 0.416829 7.409029
v 4.225534 0.416829 7.338284
v 1.814804 0.416829 -7.329345
v 3.475358 0.416829 -7.382174
v 1.814804 -0.381646 -7.329345
v 3.475358 -0.381646 -7.382174
v 2.242916 -0.289199 -4.669376
v 2.242916 0.152179 -4.669376
v 3.217193 0.152179 -4.700372
v 3.217193 -0.289199 -4.700372
v 2.440706 -0.289199 4.642144
v 2.440706 0.152179 4.642143
v 3.611687 0.152179 4.604889
v 3.611687 -0.289199 4.604890
v 1.263260 -0.041959 6.956754
v 1.263260 0.672558 6.479176
v 1.263260 0.672558 5.479176
v 1.263260 -0.041959 5.001597
v -8.764257 -0.041959 6.079460
v -8.681327 0.672558 5.609137
v -8.507679 0.672558 4.624329
v -8.424748 -0.041959 4.154006
v 11.290777 -0.041959 6.079460
v 11.207847 0.672558 5.609137
v 11.034199 0.672558 4.624329
v 10.951268 -0.041959 4.154006
v 1.263260 -0.041959 -4.997797
v 1.263260 0.672558 -5.475375
v 1.263260 0.672558 -6.475375
v 1.263260 -0.041959 -6.952953
v 9.214891 -0.041959 -5.693474
v 9.131961 0.672558 -6.163797
v 8.958313 0.672558 -7.148604
v 8.875382 -0.041959 -7.618927
v -6.688372 -0.041959 -5.693474
v -6.605442 0.672558 -6.163797
v -6.431793 0.672558 -7.148604
v -6.348863 -0.041959 -7.618927
vt 0.352525 0.379488
vt 0.338069 0.379488
vt 0.335041 0.292143
vt 0.361193 0.292143
vt 0.352525 0.684527
vt 0.338069 0.684527
vt 0.335041 0.774892
vt 0.361193 0.774892
vt 0.369024 0.774892
vt 0.372052 0.687547
vt 0.386508 0.687547
vt 0.395176 0.774892
vt 0.372052 0.382508
vt 0.386508 0.382508
vt 0.369024 0.292143
vt 0.395176 0.292143
vt 0.492705 0.379488
vt 0.478249 0.379488
vt 0.475221 0.292143
vt 0.501373 0.292143
vt 0.492705 0.684527
vt 0.478249 0.684527
vt 0.475221 0.774892
vt 0.501373 0.774892
vt 0.509204 0.774892
vt 0.512232 0.687547
vt 0.526688 0.687547
vt 0.535356 0.774892
vt 0.512232 0.382508
vt 0.526688 0.382508
vt 0.509204 0.292143
vt 0.535356 0.292143
vt 0.632885 0.379488
vt 0.618429 0.379488
vt 0.615401 0.292143
vt 0.641553 0.292143
vt 0.632885 0.684527
vt 0.618429 0.684527
vt 0.615401 0.774892
vt 0.641553 0.774892
vt 0.649384 0.774892
vt 0.652412 0.687547
vt 0.666868 0.687547
vt 0.675536 0.774892
vt 0.652412 0.382508
vt 0.666868 0.382508
vt 0.649384 0.292143
vt 0.675536 0.292143
vt 0.773065 0.379488
vt 0.758609 0.379488
vt 0.755581 0.292143
vt 0.781733 0.292143
vt 0.773065 0.684527
vt 0.758609 0.684527
vt 0.755581 0.774892
vt 0.781733 0.774892
vt 0.789564 0.774892
vt 0.792592 0.687547
vt 0.807048 0.687547
vt 0.815716 0.774892
vt 0.792592 0.382508
vt 0.807048 0.382508
vt 0.789564 0.292143
vt 0.815716 0.292143
vt 0.913245 0.379488
vt 0.898789 0.379488
vt 0.895761 0.292143
vt 0.921913 0.292143
vt 0.913245 0.684527
vt 0.898789 0.684527
vt 0.895761 0.774892
vt 0.921913 0.774892
vt 0.929745 0.774892
vt 0.932772 0.687547
vt 0.947228 0.687547
vt 0.955896 0.774892
vt 0.932772 0.382508
vt 0.947228 0.382508
vt 0.929745 0.292143
vt 0.955896 0.292143
vt 0.053994 0.968821
vt 0.053994 0.031179
vt 0.092803 0.031179
vt 0.092803 0.968821
vt 0.035460 0.968821
vt 0.035460 0.031179
vt 0.111338 0.031179
vt 0.111338 0.968821
vt 0.277059 0.687547
vt 0.312240 0.687547
vt 0.326472 0.774892
vt 0.262827 0.774892
vt 0.277059 0.382508
vt 0.312240 0.382508
vt 0.262827 0.292143
vt 0.326472 0.292143
vt 0.417239 0.687547
vt 0.452420 0.687547
vt 0.466652 0.774892
vt 0.403007 0.774892
vt 0.417239 0.382508
vt 0.452420 0.382508
vt 0.403007 0.292143
vt 0.466652 0.292143
vt 0.557419 0.687547
vt 0.592600 0.687547
vt 0.606832 0.774892
vt 0.543187 0.774892
vt 0.557419 0.382508
vt 0.592600 0.382508
vt 0.543187 0.292143
vt 0.606832 0.292143
vt 0.697599 0.687547
vt 0.732780 0.687547
vt 0.747011 0.774892
vt 0.683367 0.774892
vt 0.697599 0.382508
vt 0.732780 0.382508
vt 0.683367 0.292143
vt 0.747011 0.292143
vt 0.139815 0.968821
vt 0.139815 0.031179
vt 0.178624 0.031179
vt 0.178624 0.968821
vt 0.121281 0.968821
vt 0.121281 0.031179
vt 0.197158 0.031179
vt 0.197158 0.968821
vt 0.837779 0.687547
vt 0.872960 0.687547
vt 0.887192 0.774892
vt 0.823547 0.774892
vt 0.837779 0.382508
vt 0.872960 0.382508
vt 0.823547 0.292143
vt 0.887192 0.292143
vt 0.718962 0.161027
vt 0.718962 0.106489
vt 0.741372 0.106489
vt 0.741372 0.161027
vt 0.748083 0.161027
vt 0.748083 0.106488
vt 0.770493 0.106488
vt 0.770493 0.161027
vt 0.777204 0.161027
vt 0.777204 0.106489
vt 0.799614 0.106489
vt 0.799614 0.161027
vt 0.806325 0.161027
vt 0.806325 0.106488
vt 0.828735 0.106488
vt 0.828735 0.161027
vt 0.835446 0.161027
vt 0.835446 0.106489
vt 0.857856 0.106489
vt 0.857856 0.161027
vt 0.864567 0.161027
vt 0.864567 0.106488
vt 0.886977 0.106488
vt 0.886977 0.161027
vt 0.893688 0.161027
vt 0.893688 0.106489
vt 0.916098 0.106489
vt 0.916098 0.161027
vt 0.902132 0.219293
vt 0.902132 0.164754
vt 0.924542 0.164754
vt 0.924542 0.219293
vt 0.873992 0.219293
vt 0.873992 0.164754
vt 0.896402 0.164754
vt 0.896402 0.219293
vt 0.845853 0.219293
vt 0.845853 0.164754
vt 0.868263 0.164754
vt 0.868263 0.219293
vt 0.121281 0.500000
vt 0.139815 0.500000
vt 0.178624 0.500000
vt 0.197158 0.500000
vt 0.121281 0.734410
vt 0.139815 0.734410
vt 0.178624 0.734410
vt 0.197158 0.734410
vt 0.121281 0.265590
vt 0.139815 0.265590
vt 0.178624 0.265590
vt 0.197158 0.265590
vt 0.035460 0.500000
vt 0.053994 0.500000
vt 0.092803 0.500000
vt 0.111338 0.500000
vt 0.035460 0.265590
vt 0.053994 0.265590
vt 0.092803 0.265590
vt 0.111338 0.265590
vt 0.035460 0.734410
vt 0.053994 0.734410
vt 0.092803 0.734410
vt 0.111338 0.734410
vn -0.215432 0.554229 0.804002
vn -0.144369 0.555694 0.818757
vn -0.144369 0.555694 0.818757
vn -0.215432 0.554229 0.804002
vn 0.000000 1.000000 0.000000
vn 0.000000 1.000000 0.000000
vn 0.000000 1.000000 0.000000
vn 0.000000 1.000000 0.000000
vn 0.215432 0.554230 -0.804002
vn 0.144369 0.555694 -0.818756
vn 0.144369 0.555694 -0.818756
vn 0.215432 0.554230 -0.804002
vn -0.239609 0.000000 0.970869
vn -0.239609 0.000000 0.970869
vn -0.239609 0.000000 0.970869
vn -0.239609 0.000000 0.970869
vn -0.006512 0.999631 0.026386
vn -0.006512 0.999631 0.026386
vn -0.023615 0.995132 0.095684
vn -0.023615 0.995132 0.095684
vn 0.239609 0.000000 -0.970870
vn 0.239609 0.000000 -0.970870
vn 0.239609 0.000000 -0.970870
vn 0.239609 0.000000 -0.970870
vn 0.962948 -0.000001 0.269688
vn 0.963251 -0.000001 0.268605
vn 0.932423 0.000000 0.361370
vn 0.932422 0.000000 0.361370
vn -0.993488 0.000000 -0.113941
vn -0.977616 -0.000001 -0.210398
vn -0.977852 -0.000001 -0.209298
vn -0.993487 0.000000 -0.113941
vn -0.953470 -0.000002 -0.301488
vn -0.953041 -0.000002 -0.302842
vn 0.007950 0.999449 -0.032214
vn 0.007950 0.999449 -0.032214
vn 0.984508 -0.000001 0.175342
vn 0.984258 -0.000001 0.176740
vn -0.908520 -0.000002 -0.417841
vn -0.908520 -0.000002 -0.417841
vn 0.022940 0.995406 -0.092952
vn 0.022940 0.995406 -0.092952
vn 0.998603 0.000000 0.052834
vn 0.998603 0.000000 0.052834
vn -0.104677 0.000000 0.994506
vn -0.104677 0.000000 0.994506
vn -0.104677 0.000000 0.994506
vn -0.104677 0.000000 0.994506
vn -0.002845 0.999631 0.027028
vn -0.002845 0.999631 0.027028
vn -0.010316 0.995132 0.098013
vn -0.010316 0.995132 0.098013
vn 0.104677 0.000000 -0.994506
vn 0.104677 0.000000 -0.994506
vn 0.104677 0.000000 -0.994506
vn 0.104677 0.000000 -0.994506
vn 0.990770 0.000001 0.135556
vn 0.990922 0.000001 0.134442
vn 0.973061 0.000000 0.230550
vn 0.973061 0.000000 0.230550
vn -0.999738 0.000000 0.022903
vn -0.997197 -0.000001 -0.074818
vn -0.997281 -0.000001 -0.073696
vn -0.999738 0.000000 0.022903
vn -0.985727 -0.000000 -0.168353
vn -0.985487 -0.000000 -0.169753
vn 0.003473 0.999449 -0.032998
vn 0.003473 0.999449 -0.032998
vn 0.999233 0.000001 0.039149
vn 0.999177 0.000001 0.040568
vn -0.957100 0.000001 -0.289758
vn -0.957100 0.000001 -0.289758
vn 0.010022 0.995406 -0.095215
vn 0.010022 0.995406 -0.095215
vn 0.996454 0.000000 -0.084136
vn 0.996454 0.000000 -0.084137
vn 0.171263 0.000000 0.985225
vn 0.171263 0.000000 0.985225
vn 0.171263 0.000000 0.985225
vn 0.171263 0.000000 0.985225
vn 0.004655 0.999631 0.026776
vn 0.004655 0.999631 0.026776
vn 0.016879 0.995132 0.097099
vn 0.016879 0.995132 0.097099
vn -0.171264 0.000000 -0.985225
vn -0.171264 0.000000 -0.985225
vn -0.171264 0.000000 -0.985225
vn -0.171264 0.000000 -0.985225
vn 0.990075 0.000001 -0.140540
vn 0.989917 0.000001 -0.141653
vn 0.999017 0.000000 -0.044323
vn 0.999017 0.000000 -0.044323
vn -0.955370 0.000000 0.295411
vn -0.979649 0.000000 0.200720
vn -0.979422 0.000000 0.201822
vn -0.955370 0.000000 0.295411
vn -0.994193 0.000000 0.107613
vn -0.994345 0.000000 0.106201
vn -0.005683 0.999449 -0.032690
vn -0.005683 0.999449 -0.032690
vn 0.971853 0.000001 -0.235587
vn 0.972187 0.000001 -0.234206
vn -0.999856 0.000000 -0.016992
vn -0.999856 0.000000 -0.016992
vn -0.016397 0.995406 -0.094327
vn -0.016397 0.995406 -0.094327
vn 0.935468 0.000000 -0.353413
vn 0.935467 0.000000 -0.353413
vn 0.302937 0.000000 0.953010
vn 0.302937 0.000000 0.953010
vn 0.302937 0.000000 0.953010
vn 0.302937 0.000000 0.953010
vn 0.008233 0.999631 0.025901
vn 0.008233 0.999631 0.025901
vn 0.029856 0.995132 0.093924
vn 0.029856 0.995132 0.093924
vn -0.302938 0.000000 -0.953010
vn -0.302938 0.000000 -0.953010
vn -0.302938 0.000000 -0.953010
vn -0.302938 0.000000 -0.953010
vn 0.961971 0.000003 -0.273152
vn 0.961663 0.000003 -0.274233
vn 0.983844 0.000000 -0.179029
vn 0.983844 0.000000 -0.179029
vn -0.906639 0.000000 0.421907
vn -0.943501 0.000000 0.331369
vn -0.943128 0.000000 0.332430
vn -0.906639 0.000000 0.421907
vn -0.970504 0.000001 0.241085
vn -0.970845 0.000001 0.239706
vn -0.010052 0.999449 -0.031621
vn -0.010052 0.999449 -0.031621
vn 0.931062 0.000003 -0.364861
vn 0.931579 0.000003 -0.363538
vn -0.992967 0.000002 0.118390
vn -0.992967 0.000002 0.118390
vn -0.029004 0.995406 -0.091242
vn -0.029004 0.995406 -0.091242
vn 0.879075 0.000002 -0.476683
vn 0.879075 0.000002 -0.476683
vn -0.215432 0.554229 0.804002
vn -0.144369 0.555694 0.818757
vn -0.144369 0.555694 0.818757
vn -0.215432 0.554229 0.804002
vn 0.000000 1.000000 0.000000
vn 0.000000 1.000000 0.000000
vn 0.000000 1.000000 0.000000
vn 0.000000 1.000000 0.000000
vn 0.215432 0.554229 -0.804002
vn 0.144369 0.555694 -0.818757
vn 0.144369 0.555694 -0.818757
vn 0.215432 0.554229 -0.804002
vn 0.031798 0.000000 0.999494
vn 0.031798 0.000000 0.999494
vn 0.031798 0.000000 0.999494
vn 0.031798 0.000000 0.999494
vn 0.000864 0.999631 0.027164
vn 0.000864 0.999631 0.027164
vn 0.003134 0.995132 0.098505
vn 0.003134 0.995132 0.098505
vn -0.031799 0.000000 -0.999494
vn -0.031799 0.000000 -0.999494
vn -0.031799 0.000000 -0.999494
vn -0.031799 0.000000 -0.999494
vn 1.000000 -0.000001 -0.000698
vn 0.999998 -0.000001 -0.001823
vn 0.995399 0.000000 0.095823
vn 0.995398 0.000000 0.095823
vn -0.987295 0.000000 0.158901
vn -0.998092 0.000000 0.061746
vn -0.998022 0.000000 0.062868
vn -0.987295 0.000000 0.158901
vn -0.999472 0.000000 -0.032480
vn -0.999425 0.000000 -0.033900
vn -0.001055 0.999449 -0.033164
vn -0.001055 0.999449 -0.033164
vn 0.995249 -0.000001 -0.097359
vn 0.995387 -0.000001 -0.095946
vn -0.987654 -0.000000 -0.156653
vn -0.987654 -0.000000 -0.156653
vn -0.003044 0.995406 -0.095693
vn -0.003044 0.995406 -0.095693
vn 0.975699 0.000000 -0.219116
vn 0.975699 0.000000 -0.219116
vn 0.000000 0.555694 0.831387
vn 0.000000 0.555694 0.831387
vn 0.144369 0.555694 0.818757
vn 0.144369 0.555694 0.818757
vn 0.000000 1.000000 0.000000
vn 0.000000 1.000000 0.000000
vn 0.000000 1.000000 0.000000
vn 0.000000 1.000000 0.000000
vn 0.000000 0.555694 -0.831387
vn 0.000000 0.555694 -0.831387
vn -0.144369 0.555694 -0.818757
vn -0.144369 0.555694 -0.818757
vn 0.215432 0.554229 0.804002
vn 0.215432 0.554229 0.804002
vn 0.000000 1.000000 0.000000
vn 0.000000 1.000000 0.000000
vn -0.215432 0.554229 -0.804002
vn -0.215432 0.554229 -0.804002
vn -0.000000 0.555694 0.831387
vn -0.000000 0.555694 0.831387
vn 0.144369 0.555694 0.818757
vn 0.144369 0.555694 0.818757
vn 0.000000 1.000000 0.000000
vn 0.000000 1.000000 0.000000
vn 0.000000 1.000000 0.000000
vn 0.000000 1.000000 0.000000
vn 0.000000 0.555694 -0.831387
vn 0.000000 0.555694 -0.831387
vn -0.144369 0.555694 -0.818757
vn -0.144369 0.555694 -0.818757
vn 0.215432 0.554229 0.804002
vn 0.215432 0.554229 0.804002
vn 0.000000 1.000000 -0.000000
vn 0.000000 1.000000 -0.000000
vn -0.215432 0.554229 -0.804002
vn -0.215432 0.554229 -0.804002
s 1
g pCube8
usemtl initialShadingGroup
f 1/85/1 117/197/2 118/198/3 3/81/4
s 2
f 3/81/5 118/198/6 119/199/7 5/84/8
s 3
f 5/84/9 119/199/10 120/200/11 7/88/12
s off
f 9/137/13 10/138/14 12/139/15 11/140/16
s 4
f 18/89/17 19/90/18 14/91/19 13/92/20
s off
f 13/141/21 14/142/22 16/143/23 15/144/24
s 5
f 19/1/25 20/2/26 16/3/27 14/4/28
s 6
f 15/9/29 17/10/30 18/11/31 13/12/32
f 18/11/31 17/10/30 21/13/33 22/14/34
s 4
f 22/93/35 23/94/36 19/90/18 18/89/17
s 5
f 23/5/37 24/6/38 20/2/26 19/1/25
s 6
f 22/14/34 21/13/33 9/15/39 11/16/40
s 4
f 11/95/41 12/96/42 23/94/36 22/93/35
s 5
f 10/7/43 24/6/38 23/5/37 12/8/44
s off
f 25/145/45 26/146/46 28/147/47 27/148/48
s 7
f 34/97/49 35/98/50 30/99/51 29/100/52
s off
f 29/149/53 30/150/54 32/151/55 31/152/56
s 8
f 35/17/57 36/18/58 32/19/59 30/20/60
s 9
f 31/25/61 33/26/62 34/27/63 29/28/64
f 34/27/63 33/26/62 37/29/65 38/30/66
s 7
f 38/101/67 39/102/68 35/98/50 34/97/49
s 8
f 39/21/69 40/22/70 36/18/58 35/17/57
s 9
f 38/30/66 37/29/65 25/31/71 27/32/72
s 7
f 27/103/73 28/104/74 39/102/68 38/101/67
s 8
f 26/23/75 40/22/70 39/21/69 28/24/76
s off
f 41/153/77 42/154/78 44/155/79 43/156/80
s 10
f 50/105/81 51/106/82 46/107/83 45/108/84
s off
f 45/157/85 46/158/86 48/159/87 47/160/88
s 11
f 51/33/89 52/34/90 48/35/91 46/36/92
s 12
f 47/41/93 49/42/94 50/43/95 45/44/96
f 50/43/95 49/42/94 53/45/97 54/46/98
s 10
f 54/109/99 55/110/100 51/106/82 50/105/81
s 11
f 55/37/101 56/38/102 52/34/90 51/33/89
s 12
f 54/46/98 53/45/97 41/47/103 43/48/104
s 10
f 43/111/105 44/112/106 55/110/100 54/109/99
s 11
f 42/39/107 56/38/102 55/37/101 44/40/108
s off
f 57/161/109 58/162/110 60/163/111 59/164/112
s 13
f 66/113/113 67/114/114 62/115/115 61/116/116
s off
f 61/165/117 62/166/118 64/167/119 63/168/120
s 14
f 67/49/121 68/50/122 64/51/123 62/52/124
s 15
f 63/57/125 65/58/126 66/59/127 61/60/128
f 66/59/127 65/58/126 69/61/129 70/62/130
s 13
f 70/117/131 71/118/132 67/114/114 66/113/113
s 14
f 71/53/133 72/54/134 68/50/122 67/49/121
s 15
f 70/62/130 69/61/129 57/63/135 59/64/136
s 13
f 59/119/137 60/120/138 71/118/132 70/117/131
s 14
f 58/55/139 72/54/134 71/53/133 60/56/140
s 16
f 73/125/141 101/181/142 102/182/143 75/121/144
s 17
f 75/121/145 102/182/146 103/183/147 77/124/148
s 18
f 77/124/149 103/183/150 104/184/151 79/128/152
s off
f 81/169/153 82/170/154 84/171/155 83/172/156
s 19
f 90/129/157 91/130/158 86/131/159 85/132/160
s off
f 85/173/161 86/174/162 88/175/163 87/176/164
s 20
f 91/65/165 92/66/166 88/67/167 86/68/168
s 21
f 87/73/169 89/74/170 90/75/171 85/76/172
f 90/75/171 89/74/170 93/77/173 94/78/174
s 19
f 94/133/175 95/134/176 91/130/158 90/129/157
s 20
f 95/69/177 96/70/178 92/66/166 91/65/165
s 21
f 94/78/174 93/77/173 81/79/179 83/80/180
s 19
f 83/135/181 84/136/182 95/134/176 94/133/175
s 20
f 82/71/183 96/70/178 95/69/177 84/72/184
s 16
f 98/178/185 97/177/186 105/185/187 106/186/188
s 17
f 99/179/189 98/178/190 106/186/191 107/187/192
s 18
f 100/180/193 99/179/194 107/187/195 108/188/196
s 16
f 102/182/143 101/181/142 97/177/186 98/178/185
s 17
f 103/183/147 102/182/146 98/178/190 99/179/189
s 18
f 104/184/151 103/183/150 99/179/194 100/180/193
s 16
f 106/186/188 105/185/187 74/126/197 76/122/198
s 17
f 107/187/192 106/186/191 76/122/199 78/123/200
s 18
f 108/188/196 107/187/195 78/123/201 80/127/202
s 1
f 110/190/203 109/189/204 113/193/205 114/194/206
s 2
f 111/191/207 110/190/208 114/194/209 115/195/210
s 3
f 112/192/211 111/191/212 115/195/213 116/196/214
s 1
f 114/194/206 113/193/205 2/86/215 4/82/216
s 2
f 115/195/210 114/194/209 4/82/217 6/83/218
s 3
f 116/196/214 115/195/213 6/83/219 8/87/220
s 1
f 118/198/3 117/197/2 109/189/204 110/190/203
s 2
f 119/199/7 118/198/6 110/190/208 111/191/207
s 3
f 120/200/11 119/199/10 111/191/212 112/192/211
