# This file uses centimeters as units for non-parametric coordinates.

mtllib Train_track_downturn.mtl
g default
v -16.286915 -2.041548 -4.997797
v 18.813435 -2.041548 -4.997797
v -16.447645 -1.345345 -5.475375
v 18.974165 -1.345345 -5.475375
v -16.447645 -1.345345 -6.475375
v 18.974165 -1.345345 -6.475375
v -16.286915 -2.041548 -6.952953
v 18.813435 -2.041548 -6.952953
v -11.855515 -1.497452 7.413716
v -9.949261 -1.195148 7.413716
v -11.990366 -0.710446 7.413716
v -10.064518 -0.405034 7.413716
v -11.990366 -0.710446 -7.325845
v -10.064518 -0.405034 -7.325845
v -11.855515 -1.497452 -7.325845
v -9.949261 -1.195148 -7.325845
v -11.445021 -1.334538 -4.658972
v -11.517145 -0.899093 -4.658972
v -10.456155 -0.730835 -4.658972
v -10.390018 -1.167230 -4.658972
v -11.445021 -1.334538 4.654648
v -11.517145 -0.899093 4.654647
v -10.456155 -0.730835 4.654647
v -10.390018 -1.167230 4.654648
v -4.989928 -0.633750 7.413716
v -3.064335 -0.502289 7.413716
v -5.054206 0.162134 7.413716
v -3.108819 0.294946 7.413716
v -5.054206 0.162134 -7.325845
v -3.108819 0.294946 -7.325845
v -4.989928 -0.633750 -7.325845
v -3.064335 -0.502289 -7.325845
v -4.566565 -0.508014 -4.658972
v -4.599651 -0.067878 -4.658972
v -3.527897 0.005291 -4.658972
v -3.500858 -0.435258 -4.658972
v -4.566565 -0.508014 4.654648
v -4.599651 -0.067878 4.654647
v -3.527897 0.005291 4.654647
v -3.500858 -0.435258 4.654648
v 8.975532 -0.765451 7.413716
v 10.893541 -0.980924 7.413716
v 9.054809 0.029079 7.413716
v 10.992535 -0.188608 7.413716
v 9.054809 0.029079 -7.325845
v 10.992535 -0.188608 -7.325845
v 8.975532 -0.765451 -7.325845
v 10.893541 -0.980924 -7.325845
v 9.414568 -0.717557 -4.658972
v 9.460830 -0.278611 -4.658972
v 10.528363 -0.398539 -4.658972
v 10.476077 -0.836809 -4.658972
v 9.414568 -0.717557 4.654648
v 9.460830 -0.278611 4.654647
v 10.528363 -0.398539 4.654647
v 10.476077 -0.836809 4.654648
v 15.752539 -1.744952 7.413716
v 17.644121 -2.128498 7.413716
v 15.901479 -0.960490 7.413716
v 17.812504 -1.347979 7.413716
v 15.901479 -0.960490 -7.325845
v 17.812504 -1.347979 -7.325845
v 15.752539 -1.744952 -7.325845
v 17.644121 -2.128498 -7.325845
v 16.194086 -1.735908 -4.658972
v 16.278824 -1.302740 -4.658972
v 17.331650 -1.516216 -4.658972
v 17.240969 -1.948179 -4.658972
v 16.194086 -1.735908 4.654648
v 16.278824 -1.302740 4.654647
v 17.331650 -1.516216 4.654647
v 17.240969 -1.948179 4.654648
v -16.286915 -2.041548 6.956754
v 18.813435 -2.041548 6.956754
v -16.447645 -1.345345 6.479176
v 18.974165 -1.345345 6.479176
v -16.447645 -1.345345 5.479176
v 18.974165 -1.345345 5.479176
v -16.286915 -2.041548 5.001597
v 18.813435 -2.041548 5.001597
v 1.903988 -0.384289 7.413716
v 3.833650 -0.424186 7.413716
v 1.910574 0.414160 7.413716
v 3.860072 0.373853 7.413716
v 1.910574 0.414160 -7.325845
v 3.860072 0.373853 -7.325845
v 1.903988 -0.384289 -7.325845
v 3.833650 -0.424186 -7.325845
v 2.336836 -0.296609 -4.658972
v 2.342929 0.144726 -4.658972
v 3.416950 0.122521 -4.658972
v 3.404795 -0.318690 -4.658972
v 2.336836 -0.296609 4.654648
v 2.342929 0.144726 4.654647
v 3.416950 0.122521 4.654647
v 3.404795 -0.318690 4.654648
v 1.263260 -0.041959 6.956754
v 1.263260 0.672558 6.479176
v 1.263260 0.672558 5.479176
v 1.263260 -0.041959 5.001597
v -7.568600 -0.543468 6.956754
v -7.649486 0.166456 6.479176
v -7.649486 0.166456 5.479176
v -7.568600 -0.543468 5.001597
v 10.095119 -0.543468 6.956754
v 10.176005 0.166456 6.479176
v 10.176005 0.166456 5.479176
v 10.095119 -0.543468 5.001597
v 1.263260 -0.041959 -4.997797
v 1.263260 0.672558 -5.475375
v 1.263260 0.672558 -6.475375
v 1.263260 -0.041959 -6.952953
v 10.095119 -0.543468 -4.997797
v 10.176005 0.166456 -5.475375
v 10.176005 0.166456 -6.475375
v 10.095119 -0.543468 -6.952953
v -7.568600 -0.543468 -4.997797
v -7.649486 0.166456 -5.475375
v -7.649486 0.166456 -6.475375
v -7.568600 -0.543468 -6.952953
vt 0.711114 0.640112
vt 0.711114 0.570056
vt 0.716653 0.570056
vt 0.716653 0.640112
vt 0.728251 0.570056
vt 0.728251 0.640112
vt 0.733791 0.570056
vt 0.733791 0.640112
vt 0.915385 0.398695
vt 0.915385 0.382396
vt 0.922082 0.382396
vt 0.922082 0.398695
vt 0.783318 0.556050
vt 0.793832 0.556050
vt 0.798085 0.582154
vt 0.779064 0.582154
vt 0.924088 0.398695
vt 0.924088 0.382395
vt 0.930785 0.382395
vt 0.930785 0.398695
vt 0.805871 0.463984
vt 0.801551 0.463984
vt 0.800646 0.437880
vt 0.808462 0.437880
vt 0.810802 0.582154
vt 0.811707 0.556050
vt 0.816028 0.556050
vt 0.818618 0.582154
vt 0.811707 0.464886
vt 0.816028 0.464886
vt 0.783318 0.464886
vt 0.793832 0.464886
vt 0.805871 0.555148
vt 0.801551 0.555148
vt 0.810802 0.437880
vt 0.818618 0.437880
vt 0.779064 0.437880
vt 0.798085 0.437880
vt 0.800646 0.582154
vt 0.808462 0.582154
vt 0.932791 0.398695
vt 0.932791 0.382396
vt 0.939488 0.382396
vt 0.939488 0.398695
vt 0.825212 0.556050
vt 0.835726 0.556050
vt 0.839979 0.582154
vt 0.820958 0.582154
vt 0.941494 0.398695
vt 0.941494 0.382395
vt 0.948191 0.382395
vt 0.948191 0.398695
vt 0.847766 0.463984
vt 0.843445 0.463984
vt 0.842540 0.437880
vt 0.850356 0.437880
vt 0.852696 0.582154
vt 0.853601 0.556050
vt 0.857922 0.556050
vt 0.860512 0.582154
vt 0.853601 0.464886
vt 0.857922 0.464886
vt 0.825212 0.464886
vt 0.835726 0.464886
vt 0.847766 0.555148
vt 0.843445 0.555148
vt 0.852696 0.437880
vt 0.860512 0.437880
vt 0.820958 0.437880
vt 0.839979 0.437880
vt 0.842540 0.582154
vt 0.850356 0.582154
vt 0.950197 0.398695
vt 0.950197 0.382396
vt 0.956894 0.382396
vt 0.956894 0.398695
vt 0.867106 0.556050
vt 0.877620 0.556050
vt 0.881873 0.582154
vt 0.862853 0.582154
vt 0.958900 0.398695
vt 0.958900 0.382395
vt 0.965598 0.382395
vt 0.965598 0.398695
vt 0.889660 0.463984
vt 0.885339 0.463984
vt 0.884434 0.437880
vt 0.892250 0.437880
vt 0.894591 0.582154
vt 0.895496 0.556050
vt 0.899816 0.556050
vt 0.902406 0.582154
vt 0.895496 0.464886
vt 0.899816 0.464886
vt 0.867106 0.464886
vt 0.877620 0.464886
vt 0.889660 0.555148
vt 0.885339 0.555148
vt 0.894591 0.437880
vt 0.902406 0.437880
vt 0.862853 0.437880
vt 0.881873 0.437880
vt 0.884434 0.582154
vt 0.892250 0.582154
vt 0.967603 0.398695
vt 0.967603 0.382396
vt 0.974301 0.382396
vt 0.974301 0.398695
vt 0.909000 0.556050
vt 0.919514 0.556050
vt 0.923767 0.582154
vt 0.904747 0.582154
vt 0.970127 0.416108
vt 0.970127 0.399809
vt 0.976824 0.399809
vt 0.976824 0.416108
vt 0.931554 0.463984
vt 0.927234 0.463984
vt 0.926329 0.437880
vt 0.934144 0.437880
vt 0.936485 0.582154
vt 0.937390 0.556050
vt 0.941710 0.556050
vt 0.944300 0.582154
vt 0.937390 0.464886
vt 0.941710 0.464886
vt 0.909000 0.464886
vt 0.919514 0.464886
vt 0.931554 0.555148
vt 0.927234 0.555148
vt 0.936485 0.437880
vt 0.944300 0.437880
vt 0.904747 0.437880
vt 0.923767 0.437880
vt 0.926329 0.582154
vt 0.934144 0.582154
vt 0.736762 0.640112
vt 0.736762 0.570056
vt 0.742301 0.570056
vt 0.742301 0.640112
vt 0.753900 0.570056
vt 0.753900 0.640112
vt 0.759439 0.570056
vt 0.759439 0.640112
vt 0.961717 0.416108
vt 0.961717 0.399809
vt 0.968414 0.399809
vt 0.968414 0.416108
vt 0.950894 0.556050
vt 0.961408 0.556050
vt 0.965662 0.582154
vt 0.946641 0.582154
vt 0.953307 0.416108
vt 0.953307 0.399809
vt 0.960005 0.399809
vt 0.960005 0.416108
vt 0.973448 0.463984
vt 0.969128 0.463984
vt 0.968223 0.437880
vt 0.976038 0.437880
vt 0.978379 0.582154
vt 0.979284 0.556050
vt 0.983604 0.556050
vt 0.986195 0.582154
vt 0.979284 0.464886
vt 0.983604 0.464886
vt 0.950894 0.464886
vt 0.961408 0.464886
vt 0.973448 0.555148
vt 0.969128 0.555148
vt 0.978379 0.437880
vt 0.986195 0.437880
vt 0.946641 0.437880
vt 0.965662 0.437880
vt 0.968223 0.582154
vt 0.976038 0.582154
vt 0.742301 0.500000
vt 0.736762 0.500000
vt 0.736762 0.429944
vt 0.742301 0.429944
vt 0.753900 0.500000
vt 0.753900 0.429944
vt 0.759439 0.500000
vt 0.759439 0.429944
vt 0.736762 0.359888
vt 0.742301 0.359888
vt 0.753900 0.359888
vt 0.759439 0.359888
vt 0.716653 0.500000
vt 0.711114 0.500000
vt 0.711114 0.429944
vt 0.716653 0.429944
vt 0.728251 0.500000
vt 0.728251 0.429944
vt 0.733791 0.500000
vt 0.733791 0.429944
vt 0.711114 0.359888
vt 0.716653 0.359888
vt 0.728251 0.359888
vt 0.733791 0.359888
vn -0.094211 0.548277 0.830974
vn -0.062906 0.552122 0.831387
vn -0.062906 0.552121 0.831387
vn -0.094211 0.548277 0.830974
vn -0.169349 0.985556 0.000000
vn -0.113203 0.993572 0.000000
vn -0.113203 0.993572 0.000000
vn -0.169349 0.985556 0.000000
vn -0.094211 0.548277 -0.830974
vn -0.062906 0.552121 -0.831387
vn -0.062906 0.552122 -0.831387
vn -0.094211 0.548277 -0.830974
vn 0.000000 0.000000 1.000000
vn 0.000000 0.000000 1.000000
vn 0.000000 0.000000 1.000000
vn 0.000000 0.000000 1.000000
vn -0.156558 0.987212 0.030042
vn -0.156558 0.987212 0.030042
vn -0.155887 0.982982 0.097194
vn -0.155887 0.982982 0.097194
vn 0.000000 0.000000 -1.000000
vn 0.000000 0.000000 -1.000000
vn 0.000000 0.000000 -1.000000
vn 0.000000 0.000000 -1.000000
vn 0.987702 0.148607 0.048588
vn 0.987759 0.148644 0.047300
vn 0.976424 0.144406 0.160447
vn 0.976424 0.144406 0.160447
vn -0.973194 -0.164774 0.160447
vn -0.985284 -0.164251 0.047300
vn -0.985218 -0.164269 0.048588
vn -0.973194 -0.164774 0.160447
vn -0.985218 -0.164269 0.048588
vn -0.985284 -0.164251 0.047300
vn -0.985303 -0.164279 -0.046806
vn -0.985241 -0.164297 -0.048028
vn -0.156559 0.987223 -0.029664
vn -0.156559 0.987223 -0.029664
vn -0.156558 0.987212 0.030042
vn -0.156558 0.987212 0.030042
vn 0.987732 0.148587 -0.048028
vn 0.987786 0.148624 -0.046806
vn 0.987759 0.148644 0.047300
vn 0.987702 0.148607 0.048588
vn -0.985241 -0.164297 -0.048028
vn -0.985303 -0.164279 -0.046806
vn -0.974018 -0.164913 -0.155217
vn -0.974018 -0.164913 -0.155217
vn -0.155935 0.983287 -0.093976
vn -0.155935 0.983287 -0.093976
vn -0.156559 0.987223 -0.029664
vn -0.156559 0.987223 -0.029664
vn 0.977251 0.144530 -0.155217
vn 0.987786 0.148624 -0.046806
vn 0.987732 0.148587 -0.048028
vn 0.977251 0.144530 -0.155217
vn 0.000001 0.000000 1.000000
vn 0.000001 0.000000 1.000000
vn 0.000001 0.000000 1.000000
vn 0.000001 0.000000 1.000000
vn -0.068081 0.997227 0.030042
vn -0.068081 0.997227 0.030042
vn -0.067789 0.992954 0.097195
vn -0.067789 0.992954 0.097195
vn 0.000000 0.000000 -1.000000
vn 0.000000 0.000000 -1.000000
vn 0.000000 0.000000 -1.000000
vn 0.000000 0.000000 -1.000000
vn 0.997008 0.060119 0.048588
vn 0.997068 0.060151 0.047300
vn 0.985401 0.056939 0.160447
vn 0.985401 0.056939 0.160447
vn -0.983996 -0.077512 0.160447
vn -0.995992 -0.075915 0.047300
vn -0.995928 -0.075939 0.048588
vn -0.983996 -0.077512 0.160447
vn -0.995928 -0.075939 0.048588
vn -0.995992 -0.075915 0.047300
vn -0.996013 -0.075942 -0.046806
vn -0.995953 -0.075965 -0.048028
vn -0.068082 0.997239 -0.029664
vn -0.068082 0.997239 -0.029664
vn -0.068081 0.997227 0.030042
vn -0.068081 0.997227 0.030042
vn 0.997037 0.060096 -0.048028
vn 0.997093 0.060127 -0.046806
vn 0.997068 0.060151 0.047300
vn 0.997008 0.060119 0.048588
vn -0.995953 -0.075965 -0.048028
vn -0.996013 -0.075942 -0.046806
vn -0.984830 -0.077577 -0.155217
vn -0.984830 -0.077577 -0.155217
vn -0.067811 0.993262 -0.093976
vn -0.067811 0.993262 -0.093976
vn -0.068082 0.997239 -0.029664
vn -0.068082 0.997239 -0.029664
vn 0.986235 0.056987 -0.155217
vn 0.997093 0.060127 -0.046806
vn 0.997037 0.060096 -0.048028
vn 0.986235 0.056987 -0.155217
vn 0.000001 0.000000 1.000000
vn 0.000001 0.000000 1.000000
vn 0.000001 0.000000 1.000000
vn 0.000001 0.000000 1.000000
vn 0.111589 0.993300 0.030042
vn 0.111589 0.993300 0.030042
vn 0.111111 0.989044 0.097195
vn 0.111111 0.989044 0.097195
vn 0.000000 0.000000 -1.000000
vn 0.000000 0.000000 -1.000000
vn 0.000000 0.000000 -1.000000
vn 0.000000 0.000000 -1.000000
vn 0.991659 -0.119383 0.048588
vn 0.991724 -0.119362 0.047300
vn 0.979670 -0.120433 0.160447
vn 0.979670 -0.120433 0.160447
vn -0.981972 0.099943 0.160448
vn -0.993488 0.103659 0.047300
vn -0.993429 0.103625 0.048588
vn -0.981972 0.099943 0.160448
vn -0.993429 0.103625 0.048588
vn -0.993488 0.103659 0.047300
vn -0.993513 0.103637 -0.046806
vn -0.993459 0.103603 -0.048028
vn 0.111591 0.993311 -0.029664
vn 0.111591 0.993311 -0.029664
vn 0.111589 0.993300 0.030042
vn 0.111589 0.993300 0.030042
vn 0.991683 -0.119410 -0.048028
vn 0.991744 -0.119389 -0.046806
vn 0.991724 -0.119362 0.047300
vn 0.991659 -0.119383 0.048588
vn -0.993459 0.103603 -0.048028
vn -0.993513 0.103637 -0.046806
vn -0.982803 0.100026 -0.155218
vn -0.982803 0.100026 -0.155218
vn 0.111146 0.989351 -0.093976
vn 0.111146 0.989351 -0.093976
vn 0.111591 0.993311 -0.029664
vn 0.111591 0.993311 -0.029664
vn 0.980499 -0.120536 -0.155217
vn 0.991744 -0.119389 -0.046806
vn 0.991683 -0.119410 -0.048028
vn 0.980499 -0.120536 -0.155217
vn 0.000000 0.000000 1.000000
vn 0.000000 0.000000 1.000000
vn 0.000000 0.000000 1.000000
vn 0.000000 0.000000 1.000000
vn 0.198631 0.979614 0.030042
vn 0.198631 0.979614 0.030042
vn 0.197780 0.975416 0.097195
vn 0.197780 0.975416 0.097195
vn -0.000000 0.000000 -1.000000
vn -0.000000 0.000000 -1.000000
vn -0.000000 0.000000 -1.000000
vn -0.000000 0.000000 -1.000000
vn 0.977291 -0.206254 0.048588
vn 0.977358 -0.206239 0.047300
vn 0.965257 -0.206240 0.160447
vn 0.965257 -0.206240 0.160447
vn -0.969355 0.186030 0.160447
vn -0.980499 0.190748 0.047300
vn -0.980444 0.190708 0.048587
vn -0.969355 0.186030 0.160447
vn -0.980444 0.190708 0.048587
vn -0.980499 0.190748 0.047300
vn -0.980526 0.190728 -0.046806
vn -0.980475 0.190690 -0.048028
vn 0.198633 0.979625 -0.029664
vn 0.198633 0.979625 -0.029664
vn 0.198631 0.979614 0.030042
vn 0.198631 0.979614 0.030042
vn 0.977313 -0.206283 -0.048028
vn 0.977375 -0.206268 -0.046806
vn 0.977358 -0.206239 0.047300
vn 0.977291 -0.206254 0.048588
vn -0.980475 0.190690 -0.048028
vn -0.980526 0.190728 -0.046806
vn -0.970176 0.186188 -0.155217
vn -0.970176 0.186188 -0.155217
vn 0.197842 0.975719 -0.093976
vn 0.197842 0.975719 -0.093976
vn 0.198633 0.979625 -0.029664
vn 0.198633 0.979625 -0.029664
vn 0.966075 -0.206416 -0.155217
vn 0.977375 -0.206268 -0.046806
vn 0.977313 -0.206283 -0.048028
vn 0.966075 -0.206416 -0.155217
vn -0.094211 0.548277 0.830974
vn -0.062906 0.552122 0.831387
vn -0.062906 0.552121 0.831387
vn -0.094211 0.548277 0.830974
vn -0.169350 0.985556 0.000000
vn -0.113203 0.993572 0.000000
vn -0.113203 0.993572 0.000000
vn -0.169350 0.985556 0.000000
vn -0.094211 0.548277 -0.830974
vn -0.062906 0.552121 -0.831387
vn -0.062906 0.552122 -0.831387
vn -0.094211 0.548277 -0.830974
vn 0.000000 0.000000 1.000000
vn 0.000000 0.000000 1.000000
vn 0.000000 0.000000 1.000000
vn 0.000000 0.000000 1.000000
vn 0.020662 0.999335 0.030042
vn 0.020662 0.999335 0.030042
vn 0.020573 0.995053 0.097195
vn 0.020573 0.995053 0.097195
vn 0.000000 0.000000 -1.000000
vn 0.000000 0.000000 -1.000000
vn 0.000000 0.000000 -1.000000
vn 0.000000 0.000000 -1.000000
vn 0.998410 -0.028573 0.048588
vn 0.998473 -0.028547 0.047300
vn 0.986567 -0.030710 0.160447
vn 0.986567 -0.030710 0.160447
vn -0.986993 0.010094 0.160447
vn -0.998799 0.012747 0.047300
vn -0.998738 0.012718 0.048588
vn -0.986993 0.010094 0.160447
vn -0.998738 0.012718 0.048588
vn -0.998799 0.012747 0.047300
vn -0.998823 0.012723 -0.046806
vn -0.998765 0.012694 -0.048028
vn 0.020662 0.999346 -0.029664
vn 0.020662 0.999346 -0.029664
vn 0.020662 0.999335 0.030042
vn 0.020662 0.999335 0.030042
vn 0.998437 -0.028599 -0.048028
vn 0.998495 -0.028572 -0.046806
vn 0.998473 -0.028547 0.047300
vn 0.998410 -0.028573 0.048588
vn -0.998765 0.012694 -0.048028
vn -0.998823 0.012723 -0.046806
vn -0.987829 0.010102 -0.155217
vn -0.987829 0.010102 -0.155217
vn 0.020579 0.995362 -0.093976
vn 0.020579 0.995362 -0.093976
vn 0.020662 0.999346 -0.029664
vn 0.020662 0.999346 -0.029664
vn 0.987402 -0.030737 -0.155217
vn 0.998495 -0.028572 -0.046806
vn 0.998437 -0.028599 -0.048028
vn 0.987402 -0.030737 -0.155217
vn 0.000000 0.555694 0.831387
vn 0.000000 0.555694 0.831387
vn 0.062906 0.552122 0.831387
vn 0.062906 0.552122 0.831387
vn 0.000000 1.000000 0.000000
vn 0.000000 1.000000 0.000000
vn 0.113203 0.993572 0.000000
vn 0.113203 0.993572 0.000000
vn -0.000000 0.555694 -0.831387
vn 0.000000 0.555694 -0.831387
vn 0.062906 0.552122 -0.831387
vn 0.062906 0.552122 -0.831387
vn -0.062906 0.552121 0.831387
vn -0.062906 0.552122 0.831387
vn 0.000000 0.555694 0.831387
vn 0.000000 0.555694 0.831387
vn -0.113203 0.993572 0.000000
vn -0.113203 0.993572 0.000000
vn 0.000000 1.000000 0.000000
vn 0.000000 1.000000 0.000000
vn -0.062906 0.552122 -0.831387
vn -0.062906 0.552121 -0.831387
vn 0.000000 0.555694 -0.831387
vn -0.000000 0.555694 -0.831387
vn 0.062906 0.552122 0.831387
vn 0.062906 0.552122 0.831387
vn 0.094211 0.548277 0.830974
vn 0.094211 0.548276 0.830974
vn 0.113203 0.993572 0.000000
vn 0.113203 0.993572 0.000000
vn 0.169350 0.985556 0.000000
vn 0.169350 0.985556 0.000000
vn 0.062906 0.552122 -0.831387
vn 0.062906 0.552122 -0.831387
vn 0.094211 0.548276 -0.830974
vn 0.094211 0.548277 -0.830974
vn 0.000000 0.555694 0.831387
vn 0.000000 0.555694 0.831387
vn 0.062906 0.552122 0.831387
vn 0.062906 0.552122 0.831387
vn 0.000000 1.000000 0.000000
vn 0.000000 1.000000 0.000000
vn 0.113203 0.993572 0.000000
vn 0.113203 0.993572 0.000000
vn 0.000000 0.555694 -0.831387
vn 0.000000 0.555694 -0.831387
vn 0.062906 0.552122 -0.831387
vn 0.062906 0.552122 -0.831387
vn 0.062906 0.552122 0.831387
vn 0.062906 0.552122 0.831387
vn 0.094211 0.548277 0.830974
vn 0.094211 0.548276 0.830974
vn 0.113203 0.993572 0.000000
vn 0.113203 0.993572 0.000000
vn 0.169349 0.985556 0.000000
vn 0.169349 0.985556 0.000000
vn 0.062906 0.552122 -0.831387
vn 0.062906 0.552122 -0.831387
vn 0.094211 0.548276 -0.830974
vn 0.094211 0.548276 -0.830974
vn -0.062906 0.552121 0.831387
vn -0.062906 0.552122 0.831387
vn 0.000000 0.555694 0.831387
vn 0.000000 0.555694 0.831387
vn -0.113203 0.993572 0.000000
vn -0.113203 0.993572 0.000000
vn 0.000000 1.000000 0.000000
vn 0.000000 1.000000 0.000000
vn -0.062906 0.552122 -0.831387
vn -0.062906 0.552121 -0.831387
vn 0.000000 0.555694 -0.831387
vn 0.000000 0.555694 -0.831387
s off
g pCube8
usemtl lambert2SG
f 1/1/1 117/2/2 118/3/3 3/4/4
f 3/4/5 118/3/6 119/5/7 5/6/8
f 5/6/9 119/5/10 120/7/11 7/8/12
f 9/9/13 10/10/14 12/11/15 11/12/16
f 18/13/17 19/14/18 14/15/19 13/16/20
f 13/17/21 14/18/22 16/19/23 15/20/24
f 19/21/25 20/22/26 16/23/27 14/24/28
f 15/25/29 17/26/30 18/27/31 13/28/32
f 18/27/33 17/26/34 21/29/35 22/30/36
f 22/31/37 23/32/38 19/14/39 18/13/40
f 23/33/41 24/34/42 20/22/43 19/21/44
f 22/30/45 21/29/46 9/35/47 11/36/48
f 11/37/49 12/38/50 23/32/51 22/31/52
f 10/39/53 24/34/54 23/33/55 12/40/56
f 25/41/57 26/42/58 28/43/59 27/44/60
f 34/45/61 35/46/62 30/47/63 29/48/64
f 29/49/65 30/50/66 32/51/67 31/52/68
f 35/53/69 36/54/70 32/55/71 30/56/72
f 31/57/73 33/58/74 34/59/75 29/60/76
f 34/59/77 33/58/78 37/61/79 38/62/80
f 38/63/81 39/64/82 35/46/83 34/45/84
f 39/65/85 40/66/86 36/54/87 35/53/88
f 38/62/89 37/61/90 25/67/91 27/68/92
f 27/69/93 28/70/94 39/64/95 38/63/96
f 26/71/97 40/66/98 39/65/99 28/72/100
f 41/73/101 42/74/102 44/75/103 43/76/104
f 50/77/105 51/78/106 46/79/107 45/80/108
f 45/81/109 46/82/110 48/83/111 47/84/112
f 51/85/113 52/86/114 48/87/115 46/88/116
f 47/89/117 49/90/118 50/91/119 45/92/120
f 50/91/121 49/90/122 53/93/123 54/94/124
f 54/95/125 55/96/126 51/78/127 50/77/128
f 55/97/129 56/98/130 52/86/131 51/85/132
f 54/94/133 53/93/134 41/99/135 43/100/136
f 43/101/137 44/102/138 55/96/139 54/95/140
f 42/103/141 56/98/142 55/97/143 44/104/144
f 57/105/145 58/106/146 60/107/147 59/108/148
f 66/109/149 67/110/150 62/111/151 61/112/152
f 61/113/153 62/114/154 64/115/155 63/116/156
f 67/117/157 68/118/158 64/119/159 62/120/160
f 63/121/161 65/122/162 66/123/163 61/124/164
f 66/123/165 65/122/166 69/125/167 70/126/168
f 70/127/169 71/128/170 67/110/171 66/109/172
f 71/129/173 72/130/174 68/118/175 67/117/176
f 70/126/177 69/125/178 57/131/179 59/132/180
f 59/133/181 60/134/182 71/128/183 70/127/184
f 58/135/185 72/130/186 71/129/187 60/136/188
f 73/137/189 101/138/190 102/139/191 75/140/192
f 75/140/193 102/139/194 103/141/195 77/142/196
f 77/142/197 103/141/198 104/143/199 79/144/200
f 81/145/201 82/146/202 84/147/203 83/148/204
f 90/149/205 91/150/206 86/151/207 85/152/208
f 85/153/209 86/154/210 88/155/211 87/156/212
f 91/157/213 92/158/214 88/159/215 86/160/216
f 87/161/217 89/162/218 90/163/219 85/164/220
f 90/163/221 89/162/222 93/165/223 94/166/224
f 94/167/225 95/168/226 91/150/227 90/149/228
f 95/169/229 96/170/230 92/158/231 91/157/232
f 94/166/233 93/165/234 81/171/235 83/172/236
f 83/173/237 84/174/238 95/168/239 94/167/240
f 82/175/241 96/170/242 95/169/243 84/176/244
f 98/177/245 97/178/246 105/179/247 106/180/248
f 99/181/249 98/177/250 106/180/251 107/182/252
f 100/183/253 99/181/254 107/182/255 108/184/256
f 102/139/257 101/138/258 97/178/259 98/177/260
f 103/141/261 102/139/262 98/177/263 99/181/264
f 104/143/265 103/141/266 99/181/267 100/183/268
f 106/180/269 105/179/270 74/185/271 76/186/272
f 107/182/273 106/180/274 76/186/275 78/187/276
f 108/184/277 107/182/278 78/187/279 80/188/280
f 110/189/281 109/190/282 113/191/283 114/192/284
f 111/193/285 110/189/286 114/192/287 115/194/288
f 112/195/289 111/193/290 115/194/291 116/196/292
f 114/192/293 113/191/294 2/197/295 4/198/296
f 115/194/297 114/192/298 4/198/299 6/199/300
f 116/196/301 115/194/302 6/199/303 8/200/304
f 118/3/305 117/2/306 109/190/307 110/189/308
f 119/5/309 118/3/310 110/189/311 111/193/312
f 120/7/313 119/5/314 111/193/315 112/195/316
