# This file uses centimeters as units for non-parametric coordinates.

mtllib train_track.mtl
g default
v -16.480928 -0.041959 -4.997797
v 19.007448 -0.041959 -4.997797
v -16.480928 0.672558 -5.475375
v 19.007448 0.672558 -5.475375
v -16.480928 0.672558 -6.475375
v 19.007448 0.672558 -6.475375
v -16.480928 -0.041959 -6.952953
v 19.007448 -0.041959 -6.952953
v -12.008142 -0.381646 7.413716
v -10.064919 -0.381646 7.413716
v -12.008142 0.416829 7.413716
v -10.064919 0.416829 7.413716
v -12.008142 0.416829 -7.325845
v -10.064919 0.416829 -7.325845
v -12.008142 -0.381646 -7.325845
v -10.064919 -0.381646 -7.325845
v -11.573613 -0.289199 -4.658972
v -11.573613 0.152179 -4.658972
v -10.499448 0.152179 -4.658972
v -10.499448 -0.289199 -4.658972
v -11.573613 -0.289199 4.654648
v -11.573613 0.152179 4.654647
v -10.499448 0.152179 4.654647
v -10.499448 -0.289199 4.654648
v -5.039180 -0.381646 7.413716
v -3.095958 -0.381646 7.413716
v -5.039180 0.416829 7.413716
v -3.095958 0.416829 7.413716
v -5.039180 0.416829 -7.325845
v -3.095958 0.416829 -7.325845
v -5.039180 -0.381646 -7.325845
v -3.095958 -0.381646 -7.325845
v -4.604651 -0.289199 -4.658972
v -4.604651 0.152179 -4.658972
v -3.530486 0.152179 -4.658972
v -3.530486 -0.289199 -4.658972
v -4.604651 -0.289199 4.654648
v -4.604651 0.152179 4.654647
v -3.530486 0.152179 4.654647
v -3.530486 -0.289199 4.654648
v 9.040679 -0.381646 7.413716
v 10.983901 -0.381646 7.413716
v 9.040679 0.416829 7.413716
v 10.983901 0.416829 7.413716
v 9.040679 0.416829 -7.325845
v 10.983901 0.416829 -7.325845
v 9.040679 -0.381646 -7.325845
v 10.983901 -0.381646 -7.325845
v 9.475207 -0.289199 -4.658972
v 9.475207 0.152179 -4.658972
v 10.549373 0.152179 -4.658972
v 10.549373 -0.289199 -4.658972
v 9.475207 -0.289199 4.654648
v 9.475207 0.152179 4.654647
v 10.549373 0.152179 4.654647
v 10.549373 -0.289199 4.654648
v 15.936804 -0.381646 7.413716
v 17.880026 -0.381646 7.413716
v 15.936804 0.416829 7.413716
v 17.880026 0.416829 7.413716
v 15.936804 0.416829 -7.325845
v 17.880026 0.416829 -7.325845
v 15.936804 -0.381646 -7.325845
v 17.880026 -0.381646 -7.325845
v 16.371332 -0.289199 -4.658972
v 16.371332 0.152179 -4.658972
v 17.445498 0.152179 -4.658972
v 17.445498 -0.289199 -4.658972
v 16.371332 -0.289199 4.654648
v 16.371332 0.152179 4.654647
v 17.445498 0.152179 4.654647
v 17.445498 -0.289199 4.654648
v -16.480928 -0.041959 6.956754
v 19.007448 -0.041959 6.956754
v -16.480928 0.672558 6.479176
v 19.007448 0.672558 6.479176
v -16.480928 0.672558 5.479176
v 19.007448 0.672558 5.479176
v -16.480928 -0.041959 5.001597
v 19.007448 -0.041959 5.001597
v 1.908343 -0.381646 7.413716
v 3.851564 -0.381646 7.413716
v 1.908343 0.416829 7.413716
v 3.851564 0.416829 7.413716
v 1.908343 0.416829 -7.325845
v 3.851564 0.416829 -7.325845
v 1.908343 -0.381646 -7.325845
v 3.851564 -0.381646 -7.325845
v 2.342871 -0.289199 -4.658972
v 2.342871 0.152179 -4.658972
v 3.417037 0.152179 -4.658972
v 3.417037 -0.289199 -4.658972
v 2.342871 -0.289199 4.654648
v 2.342871 0.152179 4.654647
v 3.417037 0.152179 4.654647
v 3.417037 -0.289199 4.654648
vt 0.710897 0.640751
vt 0.710897 0.359249
vt 0.716461 0.359249
vt 0.716461 0.640751
vt 0.728113 0.359249
vt 0.728113 0.640751
vt 0.733677 0.359249
vt 0.733677 0.640751
vt 0.916101 0.398232
vt 0.916101 0.381859
vt 0.922828 0.381859
vt 0.922828 0.398232
vt 0.783431 0.556306
vt 0.793993 0.556306
vt 0.798266 0.582529
vt 0.779158 0.582529
vt 0.924843 0.398232
vt 0.924843 0.381858
vt 0.931571 0.381858
vt 0.931571 0.398232
vt 0.806087 0.463819
vt 0.801747 0.463819
vt 0.800838 0.437596
vt 0.808690 0.437596
vt 0.811041 0.582529
vt 0.811950 0.556306
vt 0.816290 0.556306
vt 0.818892 0.582529
vt 0.811950 0.464726
vt 0.816290 0.464726
vt 0.783431 0.464726
vt 0.793993 0.464726
vt 0.806087 0.555399
vt 0.801747 0.555399
vt 0.811041 0.437596
vt 0.818892 0.437596
vt 0.779158 0.437596
vt 0.798266 0.437596
vt 0.800838 0.582529
vt 0.808690 0.582529
vt 0.933586 0.398232
vt 0.933586 0.381859
vt 0.940314 0.381859
vt 0.940314 0.398232
vt 0.825516 0.556306
vt 0.836078 0.556306
vt 0.840351 0.582529
vt 0.821243 0.582529
vt 0.942329 0.398232
vt 0.942329 0.381858
vt 0.949057 0.381858
vt 0.949057 0.398232
vt 0.848173 0.463819
vt 0.843833 0.463819
vt 0.842924 0.437596
vt 0.850775 0.437596
vt 0.853126 0.582529
vt 0.854035 0.556306
vt 0.858375 0.556306
vt 0.860978 0.582529
vt 0.854035 0.464726
vt 0.858375 0.464726
vt 0.825516 0.464726
vt 0.836078 0.464726
vt 0.848173 0.555399
vt 0.843833 0.555399
vt 0.853126 0.437596
vt 0.860978 0.437596
vt 0.821243 0.437596
vt 0.840351 0.437596
vt 0.842924 0.582529
vt 0.850775 0.582529
vt 0.951072 0.398232
vt 0.951072 0.381859
vt 0.957800 0.381859
vt 0.957800 0.398232
vt 0.867602 0.556306
vt 0.878164 0.556306
vt 0.882436 0.582529
vt 0.863329 0.582529
vt 0.959815 0.398232
vt 0.959815 0.381858
vt 0.966543 0.381858
vt 0.966543 0.398232
vt 0.890258 0.463819
vt 0.885918 0.463819
vt 0.885009 0.437596
vt 0.892860 0.437596
vt 0.895212 0.582529
vt 0.896121 0.556306
vt 0.900461 0.556306
vt 0.903063 0.582529
vt 0.896121 0.464726
vt 0.900461 0.464726
vt 0.867602 0.464726
vt 0.878164 0.464726
vt 0.890258 0.555399
vt 0.885918 0.555399
vt 0.895212 0.437596
vt 0.903063 0.437596
vt 0.863329 0.437596
vt 0.882436 0.437596
vt 0.885009 0.582529
vt 0.892860 0.582529
vt 0.968557 0.398232
vt 0.968557 0.381859
vt 0.975285 0.381859
vt 0.975285 0.398232
vt 0.909687 0.556306
vt 0.920249 0.556306
vt 0.924521 0.582529
vt 0.905414 0.582529
vt 0.971092 0.415725
vt 0.971092 0.399351
vt 0.977820 0.399351
vt 0.977820 0.415725
vt 0.932343 0.463819
vt 0.928003 0.463819
vt 0.927094 0.437596
vt 0.934946 0.437596
vt 0.937297 0.582529
vt 0.938206 0.556306
vt 0.942546 0.556306
vt 0.945148 0.582529
vt 0.938206 0.464726
vt 0.942546 0.464726
vt 0.909687 0.464726
vt 0.920249 0.464726
vt 0.932343 0.555399
vt 0.928003 0.555399
vt 0.937297 0.437596
vt 0.945148 0.437596
vt 0.905414 0.437596
vt 0.924521 0.437596
vt 0.927094 0.582529
vt 0.934946 0.582529
vt 0.736663 0.640751
vt 0.736663 0.359249
vt 0.742227 0.359249
vt 0.742227 0.640751
vt 0.753878 0.359249
vt 0.753878 0.640751
vt 0.759443 0.359249
vt 0.759443 0.640751
vt 0.962644 0.415725
vt 0.962644 0.399351
vt 0.969372 0.399351
vt 0.969372 0.415725
vt 0.951772 0.556306
vt 0.962334 0.556306
vt 0.966607 0.582529
vt 0.947499 0.582529
vt 0.954196 0.415725
vt 0.954196 0.399351
vt 0.960924 0.399351
vt 0.960924 0.415725
vt 0.974429 0.463819
vt 0.970089 0.463819
vt 0.969180 0.437596
vt 0.977031 0.437596
vt 0.979383 0.582529
vt 0.980291 0.556306
vt 0.984631 0.556306
vt 0.987234 0.582529
vt 0.980291 0.464726
vt 0.984631 0.464726
vt 0.951772 0.464726
vt 0.962334 0.464726
vt 0.974429 0.555399
vt 0.970089 0.555399
vt 0.979383 0.437596
vt 0.987234 0.437596
vt 0.947499 0.437596
vt 0.966607 0.437596
vt 0.969180 0.582529
vt 0.977031 0.582529
vn 0.000000 0.555694 0.831387
vn 0.000000 0.555694 0.831387
vn 0.000000 0.555694 0.831387
vn 0.000000 0.555694 0.831387
vn 0.000000 1.000000 0.000000
vn 0.000000 1.000000 0.000000
vn 0.000000 1.000000 0.000000
vn 0.000000 1.000000 0.000000
vn 0.000000 0.555694 -0.831387
vn 0.000000 0.555694 -0.831387
vn 0.000000 0.555694 -0.831387
vn 0.000000 0.555694 -0.831387
vn 0.000000 0.000000 1.000000
vn 0.000000 0.000000 1.000000
vn 0.000000 0.000000 1.000000
vn 0.000000 0.000000 1.000000
vn 0.000000 0.999536 0.030467
vn 0.000000 0.999536 0.030467
vn 0.000000 0.995112 0.098751
vn 0.000000 0.995112 0.098751
vn 0.000000 0.000000 -1.000000
vn 0.000000 0.000000 -1.000000
vn 0.000000 0.000000 -1.000000
vn 0.000000 0.000000 -1.000000
vn 0.998813 0.000000 0.048711
vn 0.998876 0.000000 0.047401
vn 0.986985 0.000000 0.160815
vn 0.986985 0.000000 0.160815
vn -0.986985 0.000000 0.160815
vn -0.998876 0.000001 0.047401
vn -0.998813 0.000001 0.048711
vn -0.986985 0.000000 0.160815
vn -0.998813 0.000001 0.048711
vn -0.998876 0.000001 0.047401
vn -0.998899 0.000001 -0.046907
vn -0.998840 0.000001 -0.048150
vn 0.000000 0.999547 -0.030085
vn 0.000000 0.999547 -0.030085
vn 0.000000 0.999536 0.030467
vn 0.000000 0.999536 0.030467
vn 0.998840 0.000000 -0.048150
vn 0.998899 0.000000 -0.046907
vn 0.998876 0.000000 0.047401
vn 0.998813 0.000000 0.048711
vn -0.998840 0.000001 -0.048150
vn -0.998899 0.000001 -0.046907
vn -0.987824 0.000000 -0.155573
vn -0.987824 0.000000 -0.155573
vn 0.000000 0.995431 -0.095482
vn 0.000000 0.995431 -0.095482
vn 0.000000 0.999547 -0.030085
vn 0.000000 0.999547 -0.030085
vn 0.987824 0.000000 -0.155573
vn 0.998899 0.000000 -0.046907
vn 0.998840 0.000000 -0.048150
vn 0.987824 0.000000 -0.155573
vn 0.000000 0.000000 1.000000
vn 0.000000 0.000000 1.000000
vn 0.000000 0.000000 1.000000
vn 0.000000 0.000000 1.000000
vn 0.000000 0.999536 0.030467
vn 0.000000 0.999536 0.030467
vn 0.000000 0.995112 0.098751
vn 0.000000 0.995112 0.098751
vn 0.000000 0.000000 -1.000000
vn 0.000000 0.000000 -1.000000
vn 0.000000 0.000000 -1.000000
vn 0.000000 0.000000 -1.000000
vn 0.998813 0.000000 0.048711
vn 0.998876 0.000000 0.047401
vn 0.986985 0.000000 0.160815
vn 0.986985 0.000000 0.160815
vn -0.986985 0.000000 0.160815
vn -0.998876 0.000000 0.047401
vn -0.998813 0.000000 0.048711
vn -0.986985 0.000000 0.160815
vn -0.998813 0.000000 0.048711
vn -0.998876 0.000000 0.047401
vn -0.998899 0.000000 -0.046907
vn -0.998840 0.000000 -0.048150
vn 0.000000 0.999547 -0.030085
vn 0.000000 0.999547 -0.030085
vn 0.000000 0.999536 0.030467
vn 0.000000 0.999536 0.030467
vn 0.998840 0.000000 -0.048150
vn 0.998899 0.000000 -0.046907
vn 0.998876 0.000000 0.047401
vn 0.998813 0.000000 0.048711
vn -0.998840 0.000000 -0.048150
vn -0.998899 0.000000 -0.046907
vn -0.987824 0.000001 -0.155573
vn -0.987824 0.000001 -0.155573
vn 0.000000 0.995431 -0.095482
vn 0.000000 0.995431 -0.095482
vn 0.000000 0.999547 -0.030085
vn 0.000000 0.999547 -0.030085
vn 0.987824 -0.000001 -0.155573
vn 0.998899 0.000000 -0.046907
vn 0.998840 0.000000 -0.048150
vn 0.987824 -0.000001 -0.155573
vn 0.000000 0.000000 1.000000
vn 0.000000 0.000000 1.000000
vn 0.000000 0.000000 1.000000
vn 0.000000 0.000000 1.000000
vn 0.000000 0.999536 0.030467
vn 0.000000 0.999536 0.030467
vn 0.000000 0.995112 0.098751
vn 0.000000 0.995112 0.098751
vn 0.000000 0.000000 -1.000000
vn 0.000000 0.000000 -1.000000
vn 0.000000 0.000000 -1.000000
vn 0.000000 0.000000 -1.000000
vn 0.998813 0.000000 0.048711
vn 0.998876 0.000000 0.047401
vn 0.986985 0.000000 0.160815
vn 0.986985 0.000000 0.160815
vn -0.986985 0.000000 0.160815
vn -0.998876 -0.000001 0.047401
vn -0.998813 -0.000001 0.048711
vn -0.986985 0.000000 0.160815
vn -0.998813 -0.000001 0.048711
vn -0.998876 -0.000001 0.047401
vn -0.998899 -0.000002 -0.046907
vn -0.998840 -0.000002 -0.048150
vn 0.000000 0.999547 -0.030085
vn 0.000000 0.999547 -0.030085
vn 0.000000 0.999536 0.030467
vn 0.000000 0.999536 0.030467
vn 0.998840 0.000000 -0.048150
vn 0.998899 0.000000 -0.046907
vn 0.998876 0.000000 0.047401
vn 0.998813 0.000000 0.048711
vn -0.998840 -0.000002 -0.048150
vn -0.998899 -0.000002 -0.046907
vn -0.987824 -0.000001 -0.155573
vn -0.987824 -0.000001 -0.155573
vn 0.000000 0.995431 -0.095482
vn 0.000000 0.995431 -0.095482
vn 0.000000 0.999547 -0.030085
vn 0.000000 0.999547 -0.030085
vn 0.987824 -0.000001 -0.155573
vn 0.998899 0.000000 -0.046907
vn 0.998840 0.000000 -0.048150
vn 0.987824 -0.000001 -0.155573
vn 0.000000 0.000000 1.000000
vn 0.000000 0.000000 1.000000
vn 0.000000 0.000000 1.000000
vn 0.000000 0.000000 1.000000
vn 0.000000 0.999536 0.030467
vn 0.000000 0.999536 0.030467
vn 0.000000 0.995112 0.098751
vn 0.000000 0.995112 0.098751
vn 0.000000 0.000000 -1.000000
vn 0.000000 0.000000 -1.000000
vn 0.000000 0.000000 -1.000000
vn 0.000000 0.000000 -1.000000
vn 0.998813 0.000000 0.048711
vn 0.998876 0.000000 0.047401
vn 0.986985 0.000000 0.160815
vn 0.986985 0.000000 0.160815
vn -0.986985 0.000000 0.160815
vn -0.998876 0.000000 0.047401
vn -0.998813 0.000000 0.048711
vn -0.986985 0.000000 0.160815
vn -0.998813 0.000000 0.048711
vn -0.998876 0.000000 0.047401
vn -0.998899 0.000000 -0.046907
vn -0.998840 0.000000 -0.048150
vn 0.000000 0.999547 -0.030085
vn 0.000000 0.999547 -0.030085
vn 0.000000 0.999536 0.030467
vn 0.000000 0.999536 0.030467
vn 0.998840 0.000000 -0.048150
vn 0.998899 0.000000 -0.046907
vn 0.998876 0.000000 0.047401
vn 0.998813 0.000000 0.048711
vn -0.998840 0.000000 -0.048150
vn -0.998899 0.000000 -0.046907
vn -0.987824 0.000000 -0.155573
vn -0.987824 0.000000 -0.155573
vn 0.000000 0.995431 -0.095482
vn 0.000000 0.995431 -0.095482
vn 0.000000 0.999547 -0.030085
vn 0.000000 0.999547 -0.030085
vn 0.987824 0.000000 -0.155573
vn 0.998899 0.000000 -0.046907
vn 0.998840 0.000000 -0.048150
vn 0.987824 0.000000 -0.155573
vn 0.000000 0.555694 0.831387
vn 0.000000 0.555694 0.831387
vn 0.000000 0.555694 0.831387
vn 0.000000 0.555694 0.831387
vn 0.000000 1.000000 0.000000
vn 0.000000 1.000000 0.000000
vn 0.000000 1.000000 0.000000
vn 0.000000 1.000000 0.000000
vn 0.000000 0.555694 -0.831387
vn 0.000000 0.555694 -0.831387
vn 0.000000 0.555694 -0.831387
vn 0.000000 0.555694 -0.831387
vn 0.000000 0.000000 1.000000
vn 0.000000 0.000000 1.000000
vn 0.000000 0.000000 1.000000
vn 0.000000 0.000000 1.000000
vn 0.000000 0.999536 0.030467
vn 0.000000 0.999536 0.030467
vn 0.000000 0.995112 0.098751
vn 0.000000 0.995112 0.098751
vn 0.000000 0.000000 -1.000000
vn 0.000000 0.000000 -1.000000
vn 0.000000 0.000000 -1.000000
vn 0.000000 0.000000 -1.000000
vn 0.998813 0.000000 0.048711
vn 0.998876 0.000000 0.047401
vn 0.986985 0.000000 0.160815
vn 0.986985 0.000000 0.160815
vn -0.986985 0.000000 0.160815
vn -0.998876 0.000000 0.047401
vn -0.998813 0.000000 0.048711
vn -0.986985 0.000000 0.160815
vn -0.998813 0.000000 0.048711
vn -0.998876 0.000000 0.047401
vn -0.998899 0.000000 -0.046907
vn -0.998840 0.000000 -0.048150
vn 0.000000 0.999547 -0.030085
vn 0.000000 0.999547 -0.030085
vn 0.000000 0.999536 0.030467
vn 0.000000 0.999536 0.030467
vn 0.998840 0.000000 -0.048150
vn 0.998899 0.000000 -0.046907
vn 0.998876 0.000000 0.047401
vn 0.998813 0.000000 0.048711
vn -0.998840 0.000000 -0.048150
vn -0.998899 0.000000 -0.046907
vn -0.987824 0.000000 -0.155573
vn -0.987824 0.000000 -0.155573
vn 0.000000 0.995431 -0.095482
vn 0.000000 0.995431 -0.095482
vn 0.000000 0.999547 -0.030085
vn 0.000000 0.999547 -0.030085
vn 0.987824 0.000000 -0.155573
vn 0.998899 0.000000 -0.046907
vn 0.998840 0.000000 -0.048150
vn 0.987824 0.000000 -0.155573
s off
g pCube8
usemtl lambert2SG
f 1/1/1 2/2/2 4/3/3 3/4/4
f 3/4/5 4/3/6 6/5/7 5/6/8
f 5/6/9 6/5/10 8/7/11 7/8/12
f 9/9/13 10/10/14 12/11/15 11/12/16
f 18/13/17 19/14/18 14/15/19 13/16/20
f 13/17/21 14/18/22 16/19/23 15/20/24
f 19/21/25 20/22/26 16/23/27 14/24/28
f 15/25/29 17/26/30 18/27/31 13/28/32
f 18/27/33 17/26/34 21/29/35 22/30/36
f 22/31/37 23/32/38 19/14/39 18/13/40
f 23/33/41 24/34/42 20/22/43 19/21/44
f 22/30/45 21/29/46 9/35/47 11/36/48
f 11/37/49 12/38/50 23/32/51 22/31/52
f 10/39/53 24/34/54 23/33/55 12/40/56
f 25/41/57 26/42/58 28/43/59 27/44/60
f 34/45/61 35/46/62 30/47/63 29/48/64
f 29/49/65 30/50/66 32/51/67 31/52/68
f 35/53/69 36/54/70 32/55/71 30/56/72
f 31/57/73 33/58/74 34/59/75 29/60/76
f 34/59/77 33/58/78 37/61/79 38/62/80
f 38/63/81 39/64/82 35/46/83 34/45/84
f 39/65/85 40/66/86 36/54/87 35/53/88
f 38/62/89 37/61/90 25/67/91 27/68/92
f 27/69/93 28/70/94 39/64/95 38/63/96
f 26/71/97 40/66/98 39/65/99 28/72/100
f 41/73/101 42/74/102 44/75/103 43/76/104
f 50/77/105 51/78/106 46/79/107 45/80/108
f 45/81/109 46/82/110 48/83/111 47/84/112
f 51/85/113 52/86/114 48/87/115 46/88/116
f 47/89/117 49/90/118 50/91/119 45/92/120
f 50/91/121 49/90/122 53/93/123 54/94/124
f 54/95/125 55/96/126 51/78/127 50/77/128
f 55/97/129 56/98/130 52/86/131 51/85/132
f 54/94/133 53/93/134 41/99/135 43/100/136
f 43/101/137 44/102/138 55/96/139 54/95/140
f 42/103/141 56/98/142 55/97/143 44/104/144
f 57/105/145 58/106/146 60/107/147 59/108/148
f 66/109/149 67/110/150 62/111/151 61/112/152
f 61/113/153 62/114/154 64/115/155 63/116/156
f 67/117/157 68/118/158 64/119/159 62/120/160
f 63/121/161 65/122/162 66/123/163 61/124/164
f 66/123/165 65/122/166 69/125/167 70/126/168
f 70/127/169 71/128/170 67/110/171 66/109/172
f 71/129/173 72/130/174 68/118/175 67/117/176
f 70/126/177 69/125/178 57/131/179 59/132/180
f 59/133/181 60/134/182 71/128/183 70/127/184
f 58/135/185 72/130/186 71/129/187 60/136/188
f 73/137/189 74/138/190 76/139/191 75/140/192
f 75/140/193 76/139/194 78/141/195 77/142/196
f 77/142/197 78/141/198 80/143/199 79/144/200
f 81/145/201 82/146/202 84/147/203 83/148/204
f 90/149/205 91/150/206 86/151/207 85/152/208
f 85/153/209 86/154/210 88/155/211 87/156/212
f 91/157/213 92/158/214 88/159/215 86/160/216
f 87/161/217 89/162/218 90/163/219 85/164/220
f 90/163/221 89/162/222 93/165/223 94/166/224
f 94/167/225 95/168/226 91/150/227 90/149/228
f 95/169/229 96/170/230 92/158/231 91/157/232
f 94/166/233 93/165/234 81/171/235 83/172/236
f 83/173/237 84/174/238 95/168/239 94/167/240
f 82/175/241 96/170/242 95/169/243 84/176/244
