# This file uses centimeters as units for non-parametric coordinates.

mtllib train_track_end.mtl
g default
v -16.211443 -0.041959 -6.459958
v 19.155289 -0.041959 -3.524111
v -16.158007 0.672558 -7.074424
v 19.184603 0.672558 -3.861208
v -16.030514 0.672558 -8.359589
v 19.254547 0.672558 -4.566251
v -15.962181 -0.041959 -8.972576
v 19.292034 -0.041959 -4.902538
v -11.465436 -0.381646 8.998507
v -9.536437 -0.381646 8.763824
v -11.465436 0.416829 8.998507
v -9.536437 0.416829 8.763824
v -11.465436 0.416829 -8.910636
v -9.536437 0.416829 -8.675954
v -11.465436 -0.381646 -8.910636
v -9.536437 -0.381646 -8.675954
v -11.353751 -0.289199 -5.645031
v -11.353751 0.152179 -5.645031
v -10.282790 0.152179 -5.562128
v -10.282790 -0.289199 -5.562128
v -11.362283 -0.289199 5.621592
v -11.362283 0.152179 5.621591
v -10.291197 0.152179 5.540310
v -10.291197 -0.289199 5.540311
v -4.547483 -0.381646 8.156869
v -2.618484 -0.381646 7.922187
v -4.547483 0.416829 8.156869
v -2.618484 0.416829 7.922187
v -4.547483 0.416829 -8.068998
v -2.618484 0.416829 -7.834316
v -4.547483 -0.381646 -8.068998
v -2.618484 -0.381646 -7.834316
v -4.405576 -0.289199 -5.107174
v -4.405576 0.152179 -5.107174
v -3.334615 0.152179 -5.024271
v -3.334615 -0.289199 -5.024271
v -4.413301 -0.289199 5.094259
v -4.413301 0.152179 5.094258
v -3.342216 0.152179 5.012977
v -3.342216 -0.289199 5.012978
v 9.429319 -0.381646 6.456451
v 11.358318 -0.381646 6.221769
v 9.429319 0.416829 6.456451
v 11.358318 0.416829 6.221769
v 9.429319 0.416829 -6.368580
v 11.358318 0.416829 -6.133899
v 9.429319 -0.381646 -6.368580
v 11.358318 -0.381646 -6.133899
v 9.632286 -0.289199 -4.020506
v 9.632286 0.152179 -4.020506
v 10.703247 0.152179 -3.937604
v 10.703247 -0.289199 -3.937604
v 9.626191 -0.289199 4.028853
v 9.626191 0.152179 4.028852
v 10.697276 0.152179 3.947571
v 10.697276 -0.289199 3.947572
v 16.274969 -0.381646 5.623610
v 18.203968 -0.381646 5.388927
v 16.274969 0.416829 5.623610
v 18.203968 0.416829 5.388927
v 16.274969 0.416829 -5.535739
v 18.203968 0.416829 -5.301057
v 16.274969 -0.381646 -5.535739
v 18.203968 -0.381646 -5.301057
v 16.507841 -0.289199 -3.488271
v 16.507841 0.152179 -3.488271
v 17.578802 0.152179 -3.405369
v 17.578802 -0.289199 -3.405369
v 16.502544 -0.289199 3.507031
v 16.502544 0.152179 3.507030
v 17.573629 0.152179 3.425750
v 17.573629 -0.289199 3.425750
v -15.974559 -0.041959 8.952579
v 19.285244 -0.041959 4.931232
v -16.042046 0.672558 8.339499
v 19.248220 0.672558 4.594894
v -16.167763 0.672558 7.054159
v 19.179251 0.672558 3.889755
v -16.220350 -0.041959 6.439620
v 19.150402 -0.041959 3.552618
v 2.349188 -0.381646 7.317820
v 4.278186 -0.381646 7.083138
v 2.349188 0.416829 7.317820
v 4.278186 0.416829 7.083138
v 2.349188 0.416829 -7.229949
v 4.278186 0.416829 -6.995267
v 2.349188 -0.381646 -7.229949
v 4.278186 -0.381646 -6.995267
v 2.521223 -0.289199 -4.570972
v 2.521223 0.152179 -4.570972
v 3.592185 0.152179 -4.488070
v 3.592185 -0.289199 -4.488070
v 2.514302 -0.289199 4.568548
v 2.514302 0.152179 4.568547
v 3.585389 0.152179 4.487267
v 3.585389 -0.289199 4.487267
v 1.655343 -0.041959 6.941906
v 1.603088 0.672558 6.467196
v 1.505744 0.672558 5.471957
v 1.465026 -0.041959 4.996119
v -7.159608 -0.041959 7.947243
v -7.219479 0.672558 7.403347
v -7.331010 0.672558 6.263058
v -7.377662 -0.041959 5.717869
v 10.470293 -0.041959 5.936569
v 10.425654 0.672558 5.531045
v 10.342498 0.672558 4.680856
v 10.307714 -0.041959 4.274368
vt 0.352525 0.379488
vt 0.338069 0.379488
vt 0.335041 0.292143
vt 0.361193 0.292143
vt 0.352525 0.684527
vt 0.338069 0.684527
vt 0.335041 0.774892
vt 0.361193 0.774892
vt 0.369024 0.774892
vt 0.372052 0.687547
vt 0.386508 0.687547
vt 0.395176 0.774892
vt 0.372052 0.382508
vt 0.386508 0.382508
vt 0.369024 0.292143
vt 0.395176 0.292143
vt 0.492705 0.379488
vt 0.478249 0.379488
vt 0.475221 0.292143
vt 0.501373 0.292143
vt 0.492705 0.684527
vt 0.478249 0.684527
vt 0.475221 0.774892
vt 0.501373 0.774892
vt 0.509204 0.774892
vt 0.512232 0.687547
vt 0.526688 0.687547
vt 0.535356 0.774892
vt 0.512232 0.382508
vt 0.526688 0.382508
vt 0.509204 0.292143
vt 0.535356 0.292143
vt 0.632885 0.379488
vt 0.618429 0.379488
vt 0.615401 0.292143
vt 0.641553 0.292143
vt 0.632885 0.684527
vt 0.618429 0.684527
vt 0.615401 0.774892
vt 0.641553 0.774892
vt 0.649384 0.774892
vt 0.652412 0.687547
vt 0.666868 0.687547
vt 0.675536 0.774892
vt 0.652412 0.382508
vt 0.666868 0.382508
vt 0.649384 0.292143
vt 0.675536 0.292143
vt 0.773065 0.379488
vt 0.758609 0.379488
vt 0.755581 0.292143
vt 0.781733 0.292143
vt 0.773065 0.684527
vt 0.758609 0.684527
vt 0.755581 0.774892
vt 0.781733 0.774892
vt 0.789564 0.774892
vt 0.792592 0.687547
vt 0.807048 0.687547
vt 0.815716 0.774892
vt 0.792592 0.382508
vt 0.807048 0.382508
vt 0.789564 0.292143
vt 0.815716 0.292143
vt 0.913245 0.379488
vt 0.898789 0.379488
vt 0.895761 0.292143
vt 0.921913 0.292143
vt 0.913245 0.684527
vt 0.898789 0.684527
vt 0.895761 0.774892
vt 0.921913 0.774892
vt 0.929745 0.774892
vt 0.932772 0.687547
vt 0.947228 0.687547
vt 0.955896 0.774892
vt 0.932772 0.382508
vt 0.947228 0.382508
vt 0.929745 0.292143
vt 0.955896 0.292143
vt 0.053994 0.968821
vt 0.053994 0.031179
vt 0.092803 0.031179
vt 0.092803 0.968821
vt 0.035460 0.968821
vt 0.035460 0.031179
vt 0.111338 0.031179
vt 0.111338 0.968821
vt 0.277059 0.687547
vt 0.312240 0.687547
vt 0.326472 0.774892
vt 0.262827 0.774892
vt 0.277059 0.382508
vt 0.312240 0.382508
vt 0.262827 0.292143
vt 0.326472 0.292143
vt 0.417239 0.687547
vt 0.452420 0.687547
vt 0.466652 0.774892
vt 0.403007 0.774892
vt 0.417239 0.382508
vt 0.452420 0.382508
vt 0.403007 0.292143
vt 0.466652 0.292143
vt 0.557419 0.687547
vt 0.592600 0.687547
vt 0.606832 0.774892
vt 0.543187 0.774892
vt 0.557419 0.382508
vt 0.592600 0.382508
vt 0.543187 0.292143
vt 0.606832 0.292143
vt 0.697599 0.687547
vt 0.732780 0.687547
vt 0.747011 0.774892
vt 0.683367 0.774892
vt 0.697599 0.382508
vt 0.732780 0.382508
vt 0.683367 0.292143
vt 0.747011 0.292143
vt 0.139815 0.968821
vt 0.139815 0.031179
vt 0.178624 0.031179
vt 0.178624 0.968821
vt 0.121281 0.968821
vt 0.121281 0.031179
vt 0.197158 0.031179
vt 0.197158 0.968821
vt 0.837779 0.687547
vt 0.872960 0.687547
vt 0.887192 0.774892
vt 0.823547 0.774892
vt 0.837779 0.382508
vt 0.872960 0.382508
vt 0.823547 0.292143
vt 0.887192 0.292143
vt 0.718962 0.161027
vt 0.718962 0.106489
vt 0.741372 0.106489
vt 0.741372 0.161027
vt 0.748083 0.161027
vt 0.748083 0.106488
vt 0.770493 0.106488
vt 0.770493 0.161027
vt 0.777204 0.161027
vt 0.777204 0.106489
vt 0.799614 0.106489
vt 0.799614 0.161027
vt 0.806325 0.161027
vt 0.806325 0.106488
vt 0.828735 0.106488
vt 0.828735 0.161027
vt 0.835446 0.161027
vt 0.835446 0.106489
vt 0.857856 0.106489
vt 0.857856 0.161027
vt 0.864567 0.161027
vt 0.864567 0.106488
vt 0.886977 0.106488
vt 0.886977 0.161027
vt 0.893688 0.161027
vt 0.893688 0.106489
vt 0.916098 0.106489
vt 0.916098 0.161027
vt 0.902132 0.219293
vt 0.902132 0.164754
vt 0.924542 0.164754
vt 0.924542 0.219293
vt 0.873992 0.219293
vt 0.873992 0.164754
vt 0.896402 0.164754
vt 0.896402 0.219293
vt 0.845853 0.219293
vt 0.845853 0.164754
vt 0.868263 0.164754
vt 0.868263 0.219293
vt 0.121281 0.500000
vt 0.139815 0.500000
vt 0.178624 0.500000
vt 0.197158 0.500000
vt 0.121281 0.734410
vt 0.139815 0.734410
vt 0.178624 0.734410
vt 0.197158 0.734410
vt 0.121281 0.265590
vt 0.139815 0.265590
vt 0.178624 0.265590
vt 0.197158 0.265590
vn -0.072028 0.555693 0.828262
vn -0.072028 0.555693 0.828262
vn -0.072028 0.555693 0.828262
vn -0.072028 0.555693 0.828262
vn 0.000000 1.000000 0.000000
vn 0.000000 1.000000 0.000000
vn 0.000000 1.000000 0.000000
vn 0.000000 1.000000 0.000000
vn 0.092109 0.555693 -0.826270
vn 0.092109 0.555693 -0.826270
vn 0.092109 0.555693 -0.826270
vn 0.092109 0.555693 -0.826270
vn 0.120770 0.000000 0.992681
vn 0.120770 0.000000 0.992681
vn 0.120770 0.000000 0.992681
vn 0.120770 0.000000 0.992681
vn -0.002714 0.999668 0.025639
vn -0.002585 0.999699 0.024418
vn -0.008662 0.996609 0.081827
vn -0.008662 0.996609 0.081827
vn 0.120770 0.000000 -0.992681
vn 0.120770 0.000000 -0.992681
vn 0.120770 0.000000 -0.992681
vn 0.120770 0.000000 -0.992681
vn 0.997504 -0.000002 0.070608
vn 0.997617 -0.000002 0.069000
vn 0.972456 0.000000 0.233088
vn 0.972456 0.000000 0.233088
vn -0.999416 0.000000 0.034180
vn -0.999955 -0.000001 0.009485
vn -0.999953 -0.000001 0.009721
vn -0.999416 0.000000 0.034180
vn -0.999953 -0.000001 -0.009690
vn -0.999951 -0.000001 -0.009887
vn -0.002666 0.999676 -0.025314
vn -0.002542 0.999706 -0.024134
vn 0.997580 -0.000002 -0.069536
vn 0.997687 -0.000002 -0.067983
vn -0.999534 0.000002 -0.030532
vn -0.999534 0.000002 -0.030532
vn -0.008332 0.996831 -0.079115
vn -0.008332 0.996831 -0.079115
vn 0.973667 0.000000 -0.227976
vn 0.973667 0.000000 -0.227976
vn 0.120770 0.000000 0.992681
vn 0.120770 0.000000 0.992681
vn 0.120770 0.000000 0.992681
vn 0.120770 0.000000 0.992681
vn -0.003016 0.999589 0.028492
vn -0.002873 0.999628 0.027140
vn -0.009567 0.995862 0.090372
vn -0.009567 0.995862 0.090372
vn 0.120770 0.000000 -0.992681
vn 0.120770 0.000000 -0.992681
vn 0.120770 0.000000 -0.992681
vn 0.120770 0.000000 -0.992681
vn 0.997169 0.000000 0.075191
vn 0.997309 0.000000 0.073311
vn 0.969027 0.000000 0.246954
vn 0.969027 0.000000 0.246953
vn -0.998854 0.000000 0.047857
vn -0.999908 -0.000001 0.013537
vn -0.999904 -0.000001 0.013897
vn -0.998854 0.000000 0.047857
vn -0.999906 -0.000001 -0.013698
vn -0.999902 -0.000001 -0.014011
vn -0.002962 0.999600 -0.028125
vn -0.002825 0.999636 -0.026820
vn 0.997254 0.000000 -0.074061
vn 0.997387 0.000000 -0.072247
vn -0.999042 -0.000001 -0.043771
vn -0.999042 -0.000001 -0.043771
vn -0.009203 0.996132 -0.087382
vn -0.009203 0.996132 -0.087382
vn 0.970422 0.000000 -0.241414
vn 0.970422 0.000000 -0.241414
vn 0.120769 0.000000 0.992681
vn 0.120769 0.000000 0.992681
vn 0.120769 0.000000 0.992681
vn 0.120769 0.000000 0.992681
vn -0.003888 0.999318 0.036729
vn -0.003706 0.999380 0.035008
vn -0.012121 0.993350 0.114494
vn -0.012121 0.993350 0.114494
vn 0.120769 0.000000 -0.992681
vn 0.120769 0.000000 -0.992681
vn 0.120769 0.000000 -0.992681
vn 0.120769 0.000000 -0.992681
vn 0.996087 0.000000 0.088381
vn 0.996327 0.000000 0.085632
vn 0.958284 0.000000 0.285820
vn 0.958284 0.000000 0.285820
vn -0.996285 0.000000 0.086119
vn -0.999687 -0.000002 0.025023
vn -0.999666 -0.000001 0.025831
vn -0.996285 0.000000 0.086119
vn -0.999686 -0.000001 -0.025057
vn -0.999668 -0.000001 -0.025788
vn -0.003816 0.999336 -0.036236
vn -0.003641 0.999395 -0.034575
vn 0.996201 0.000000 -0.087081
vn 0.996429 0.000000 -0.084433
vn -0.996728 0.000000 -0.080832
vn -0.996728 0.000000 -0.080832
vn -0.011661 0.993783 -0.110723
vn -0.011661 0.993783 -0.110723
vn 0.960257 0.000000 -0.279118
vn 0.960257 0.000000 -0.279118
vn 0.120770 0.000000 0.992681
vn 0.120770 0.000000 0.992681
vn 0.120770 0.000000 0.992681
vn 0.120770 0.000000 0.992681
vn -0.004526 0.999075 0.042756
vn -0.004317 0.999159 0.040776
vn -0.013938 0.991196 0.131664
vn -0.013938 0.991196 0.131664
vn 0.120770 0.000000 -0.992681
vn 0.120770 0.000000 -0.992681
vn 0.120770 0.000000 -0.992681
vn 0.120770 0.000000 -0.992681
vn 0.995186 -0.000002 0.098004
vn 0.995520 -0.000002 0.094549
vn 0.949690 0.000000 0.313192
vn 0.949690 0.000000 0.313192
vn -0.993594 0.000000 0.113008
vn -0.999447 0.000002 0.033249
vn -0.999406 0.000002 0.034455
vn -0.993594 0.000000 0.113008
vn -0.999449 0.000003 -0.033191
vn -0.999412 0.000003 -0.034296
vn -0.004441 0.999101 -0.042168
vn -0.004240 0.999180 -0.040256
vn 0.995326 -0.000002 -0.096576
vn 0.995643 -0.000002 -0.093251
vn -0.994269 0.000003 -0.106904
vn -0.994269 0.000003 -0.106904
vn -0.013412 0.991768 -0.127346
vn -0.013412 0.991768 -0.127346
vn 0.952125 0.000000 -0.305709
vn 0.952125 0.000000 -0.305709
vn 0.084836 0.631532 0.770695
vn 0.086866 0.608038 0.789141
vn 0.086866 0.608038 0.789141
vn 0.084836 0.631532 0.770695
vn 0.000000 1.000000 0.000000
vn 0.000000 1.000000 0.000000
vn 0.000000 1.000000 0.000000
vn 0.000000 1.000000 0.000000
vn -0.066106 0.631532 -0.772526
vn -0.067688 0.608038 -0.791017
vn -0.067688 0.608038 -0.791017
vn -0.066106 0.631532 -0.772526
vn 0.120770 0.000000 0.992681
vn 0.120770 0.000000 0.992681
vn 0.120770 0.000000 0.992681
vn 0.120770 0.000000 0.992681
vn -0.003392 0.999481 0.032042
vn -0.003232 0.999529 0.030529
vn -0.010678 0.994843 0.100864
vn -0.010678 0.994843 0.100864
vn 0.120770 0.000000 -0.992681
vn 0.120770 0.000000 -0.992681
vn 0.120770 0.000000 -0.992681
vn 0.120770 0.000000 -0.992681
vn 0.996724 0.000000 0.080882
vn 0.996903 0.000000 0.078642
vn 0.964547 0.000000 0.263912
vn 0.964547 0.000000 0.263912
vn -0.997914 0.000000 0.064565
vn -0.999829 -0.000000 0.018523
vn -0.999818 -0.000000 0.019062
vn -0.997914 0.000000 0.064565
vn -0.999826 -0.000000 -0.018630
vn -0.999817 -0.000000 -0.019108
vn -0.003330 0.999494 -0.031621
vn -0.003176 0.999540 -0.030161
vn 0.996821 0.000000 -0.079679
vn 0.996991 0.000000 -0.077520
vn -0.998201 0.000000 -0.059950
vn -0.998201 0.000000 -0.059950
vn -0.010272 0.995179 -0.097533
vn -0.010272 0.995179 -0.097533
vn 0.966183 0.000000 -0.257859
vn 0.966183 0.000000 -0.257859
vn 0.090964 0.555731 0.826370
vn 0.090964 0.555731 0.826370
vn 0.095016 0.495883 0.863175
vn 0.095016 0.495883 0.863176
vn 0.000000 1.000000 -0.000000
vn 0.000000 1.000000 -0.000000
vn 0.000000 1.000000 -0.000000
vn 0.000000 1.000000 -0.000000
vn -0.070882 0.555731 -0.828335
vn -0.070882 0.555731 -0.828335
vn -0.074039 0.495883 -0.865227
vn -0.074039 0.495883 -0.865227
vn 0.096986 0.462936 0.881070
vn 0.096986 0.462936 0.881070
vn 0.000000 1.000000 0.000000
vn 0.000000 1.000000 0.000000
vn -0.075573 0.462937 -0.883164
vn -0.075573 0.462936 -0.883164
s off
g pCube8
usemtl initialShadingGroup
f 1/85/1 2/86/2 4/82/3 3/81/4
f 3/81/5 4/82/6 6/83/7 5/84/8
f 5/84/9 6/83/10 8/87/11 7/88/12
f 9/137/13 10/138/14 12/139/15 11/140/16
s 1
f 18/89/17 19/90/18 14/91/19 13/92/20
s off
f 13/141/21 14/142/22 16/143/23 15/144/24
s 2
f 19/1/25 20/2/26 16/3/27 14/4/28
s 3
f 15/9/29 17/10/30 18/11/31 13/12/32
f 18/11/31 17/10/30 21/13/33 22/14/34
s 1
f 22/93/35 23/94/36 19/90/18 18/89/17
s 2
f 23/5/37 24/6/38 20/2/26 19/1/25
s 3
f 22/14/34 21/13/33 9/15/39 11/16/40
s 1
f 11/95/41 12/96/42 23/94/36 22/93/35
s 2
f 10/7/43 24/6/38 23/5/37 12/8/44
s off
f 25/145/45 26/146/46 28/147/47 27/148/48
s 4
f 34/97/49 35/98/50 30/99/51 29/100/52
s off
f 29/149/53 30/150/54 32/151/55 31/152/56
s 5
f 35/17/57 36/18/58 32/19/59 30/20/60
s 6
f 31/25/61 33/26/62 34/27/63 29/28/64
f 34/27/63 33/26/62 37/29/65 38/30/66
s 4
f 38/101/67 39/102/68 35/98/50 34/97/49
s 5
f 39/21/69 40/22/70 36/18/58 35/17/57
s 6
f 38/30/66 37/29/65 25/31/71 27/32/72
s 4
f 27/103/73 28/104/74 39/102/68 38/101/67
s 5
f 26/23/75 40/22/70 39/21/69 28/24/76
s off
f 41/153/77 42/154/78 44/155/79 43/156/80
s 7
f 50/105/81 51/106/82 46/107/83 45/108/84
s off
f 45/157/85 46/158/86 48/159/87 47/160/88
s 8
f 51/33/89 52/34/90 48/35/91 46/36/92
s 9
f 47/41/93 49/42/94 50/43/95 45/44/96
f 50/43/95 49/42/94 53/45/97 54/46/98
s 7
f 54/109/99 55/110/100 51/106/82 50/105/81
s 8
f 55/37/101 56/38/102 52/34/90 51/33/89
s 9
f 54/46/98 53/45/97 41/47/103 43/48/104
s 7
f 43/111/105 44/112/106 55/110/100 54/109/99
s 8
f 42/39/107 56/38/102 55/37/101 44/40/108
s off
f 57/161/109 58/162/110 60/163/111 59/164/112
s 10
f 66/113/113 67/114/114 62/115/115 61/116/116
s off
f 61/165/117 62/166/118 64/167/119 63/168/120
s 11
f 67/49/121 68/50/122 64/51/123 62/52/124
s 12
f 63/57/125 65/58/126 66/59/127 61/60/128
f 66/59/127 65/58/126 69/61/129 70/62/130
s 10
f 70/117/131 71/118/132 67/114/114 66/113/113
s 11
f 71/53/133 72/54/134 68/50/122 67/49/121
s 12
f 70/62/130 69/61/129 57/63/135 59/64/136
s 10
f 59/119/137 60/120/138 71/118/132 70/117/131
s 11
f 58/55/139 72/54/134 71/53/133 60/56/140
s 13
f 73/125/141 101/181/142 102/182/143 75/121/144
s 14
f 75/121/145 102/182/146 103/183/147 77/124/148
s 15
f 77/124/149 103/183/150 104/184/151 79/128/152
s off
f 81/169/153 82/170/154 84/171/155 83/172/156
s 16
f 90/129/157 91/130/158 86/131/159 85/132/160
s off
f 85/173/161 86/174/162 88/175/163 87/176/164
s 17
f 91/65/165 92/66/166 88/67/167 86/68/168
s 18
f 87/73/169 89/74/170 90/75/171 85/76/172
f 90/75/171 89/74/170 93/77/173 94/78/174
s 16
f 94/133/175 95/134/176 91/130/158 90/129/157
s 17
f 95/69/177 96/70/178 92/66/166 91/65/165
s 18
f 94/78/174 93/77/173 81/79/179 83/80/180
s 16
f 83/135/181 84/136/182 95/134/176 94/133/175
s 17
f 82/71/183 96/70/178 95/69/177 84/72/184
s 13
f 98/178/185 97/177/186 105/185/187 106/186/188
s 14
f 99/179/189 98/178/190 106/186/191 107/187/192
s 15
f 100/180/193 99/179/194 107/187/195 108/188/196
s 13
f 102/182/143 101/181/142 97/177/186 98/178/185
s 14
f 103/183/147 102/182/146 98/178/190 99/179/189
s 15
f 104/184/151 103/183/150 99/179/194 100/180/193
s 13
f 106/186/188 105/185/187 74/126/197 76/122/198
s 14
f 107/187/192 106/186/191 76/122/199 78/123/200
s 15
f 108/188/196 107/187/195 78/123/201 80/127/202
