# Blender v2.93.5 OBJ File: 'hat.blend'
# www.blender.org
mtllib cowboyhat.mtl
o Sphere
v 0.000000 3.628781 -1.498097
v 0.000000 2.594370 -1.964898
v 0.000000 1.622681 -2.202076
v 0.000000 0.561163 -1.800715
v 0.909345 4.228529 -1.423275
v 1.214996 3.161871 -1.655599
v 1.261560 2.035013 -1.534342
v 2.050286 1.012116 -1.077965
v 1.361308 4.502261 -0.755541
v 2.050114 3.667663 -0.421787
v 2.352695 2.695861 0.077711
v 2.899542 2.100812 0.666909
v 1.205811 5.007257 -0.087806
v 1.762793 4.600772 0.812025
v 1.977292 3.915028 1.689764
v 2.050286 3.189509 2.411784
v 0.000000 4.807178 0.390542
v 0.000000 4.771762 1.524850
v 0.000000 4.467582 2.357499
v 0.000000 3.640461 3.134534
v 0.000000 4.405817 -0.670976
v -1.205811 5.007257 -0.087806
v -1.762793 4.600772 0.812025
v -1.977292 3.915028 1.689764
v -2.050286 3.189508 2.411783
v -1.361308 4.502261 -0.755541
v -2.050114 3.667663 -0.421787
v -2.352695 2.695861 0.077711
v -2.899541 2.100812 0.666909
v -0.909345 4.228529 -1.423275
v -1.214996 3.161871 -1.655599
v -1.261560 2.035013 -1.534342
v -2.050285 1.012116 -1.077964
v -2.195008 0.901013 -1.398898
v -3.044264 1.989709 0.345976
v -2.195008 3.078405 2.090850
v 0.000000 3.529358 3.203868
v 2.195008 3.078405 2.090850
v 3.044264 1.989709 0.345976
v 2.195008 0.901013 -1.398898
v -0.000000 0.450060 -1.731381
v -0.000000 0.206344 -1.579329
v 2.195008 0.657296 -1.246846
v 3.044264 1.745993 0.498028
v 2.195008 2.834689 2.242902
v 0.000000 3.285642 3.355920
v -2.195008 2.834689 2.242902
v -3.044264 1.745993 0.498028
v -2.195008 0.657296 -1.246846
v -0.000000 -0.841126 -3.258129
v 3.589879 0.074419 -2.433936
v 5.016909 2.140222 -0.131305
v 3.589879 3.733157 3.429991
v -0.000000 4.333111 5.034719
v -3.589879 3.733157 3.429991
v -5.016909 2.140222 -0.131305
v -3.589879 0.074419 -2.433936
v -0.000000 -0.597409 -3.410181
v 3.589879 0.318136 -2.585988
v 5.016909 2.383939 -0.283357
v 3.589879 3.976874 3.277940
v -0.000000 4.576827 4.882667
v -3.589879 3.976874 3.277940
v -5.016909 2.383939 -0.283357
v -3.589879 0.318136 -2.585988
vt 0.715347 0.318882
vt 0.684981 0.256985
vt 0.709632 0.188079
vt 0.764751 0.244278
vt 0.819398 0.439227
vt 0.804849 0.514852
vt 0.752322 0.452726
vt 0.779496 0.362224
vt 0.852147 0.266295
vt 0.831641 0.375592
vt 0.741249 0.397627
vt 0.843013 0.125074
vt 0.911527 0.124064
vt 0.666336 0.127823
vt 0.698753 0.078447
vt 0.769531 0.096844
vt 0.712065 0.495398
vt 0.855943 0.007274
vt 0.922851 0.018849
vt 0.704109 0.029653
vt 0.779427 0.006684
vt 0.711779 0.554194
vt 0.737190 0.836564
vt 0.666336 0.842903
vt 0.666548 0.710219
vt 0.711045 0.688666
vt 0.790208 0.590951
vt 0.804805 0.826128
vt 0.786178 0.672864
vt 0.666336 0.585114
vt 0.777705 0.655941
vt 0.006684 0.765875
vt 0.030328 0.710943
vt 0.116225 0.675376
vt 0.113637 0.750352
vt 0.876678 0.585918
vt 0.009552 0.844379
vt 0.116225 0.820718
vt 0.907404 0.631493
vt 0.125000 0.500000
vt 0.125000 0.625000
vt 0.000000 0.625000
vt 0.000000 0.500000
vt 0.272398 0.782273
vt 0.213799 0.767165
vt 0.213799 0.709313
vt 0.272398 0.675376
vt 0.125000 0.750000
vt 0.000000 0.750000
vt 0.898228 0.531213
vt 1.000000 0.750000
vt 1.000000 0.875000
vt 0.875000 0.875000
vt 0.875000 0.750000
vt 1.000000 0.625000
vt 0.875000 0.625000
vt 0.876678 0.476651
vt 1.000000 0.500000
vt 0.875000 0.500000
vt 0.200431 0.775839
vt 0.129593 0.783282
vt 0.151881 0.690767
vt 0.200431 0.675376
vt 0.750000 0.625000
vt 0.750000 0.500000
vt 0.907404 0.429593
vt 0.393929 0.535277
vt 0.524148 0.420464
vt 0.652968 0.468081
vt 0.456645 0.662008
vt 0.922851 0.146537
vt 0.863471 0.288768
vt 0.500000 0.500000
vt 0.375000 0.500000
vt 0.375000 0.500000
vt 0.500000 0.500000
vt 0.000000 0.500000
vt 0.125000 0.500000
vt 0.499913 0.248558
vt 0.629978 0.193087
vt 0.814956 0.669308
vt 0.822466 0.842903
vt 0.232132 0.149575
vt 0.145447 0.280480
vt 0.016627 0.232862
vt 0.180017 0.026762
vt 0.386525 0.143600
vt 0.412291 0.006684
vt 0.361173 0.803287
vt 0.361173 0.678404
vt 0.380859 0.675376
vt 0.380859 0.800259
vt 0.875000 0.500000
vt 0.750000 0.500000
vt 0.750000 0.500000
vt 0.875000 0.500000
vt 0.920772 0.542507
vt 0.934696 0.378420
vt 0.954434 0.375592
vt 0.940510 0.539679
vt 1.000000 0.500000
vt 1.000000 0.500000
vt 0.000000 0.000000
vt 0.000000 0.000000
vt 0.000000 0.000000
vt 0.000000 0.000000
vt 0.000000 0.500000
vt 0.125000 0.500000
vt 0.285765 0.880081
vt 0.285765 0.675376
vt 0.305572 0.677677
vt 0.305572 0.882383
vt 0.250000 0.500000
vt 0.250000 0.500000
vt 0.318940 0.806954
vt 0.331414 0.690467
vt 0.347806 0.675376
vt 0.347806 0.810046
vt 0.239536 0.541251
vt 0.170054 0.662008
vt 0.250000 0.500000
vt 0.126148 0.436293
vt 0.006684 0.495683
vt 0.934696 0.806327
vt 0.954434 0.803499
vt 0.000000 0.000000
vt 0.000000 0.000000
vt 0.000000 0.000000
vt 0.000000 0.000000
vt 0.835835 0.933100
vt 0.835834 0.778575
vt 0.855774 0.778574
vt 0.855775 0.933100
vt 0.869143 0.905887
vt 0.869143 0.669308
vt 0.888075 0.672342
vt 0.888075 0.908921
vt 0.835835 0.669309
vt 0.855775 0.669308
vt 0.967802 0.582486
vt 0.973511 0.377697
vt 0.993316 0.375592
vt 0.987607 0.580380
vt 0.375000 0.500000
vt 0.973511 0.859235
vt 0.993316 0.857129
vn 0.3459 0.0594 -0.9364
vn -0.3906 0.6709 -0.6303
vn 0.4236 -0.2030 -0.8828
vn -0.0018 0.3155 -0.9489
vn 0.7708 0.2606 -0.5814
vn 0.7093 0.3380 -0.6186
vn 0.8326 -0.0251 -0.5533
vn -0.0870 0.9410 -0.3269
vn 0.8963 0.4430 0.0224
vn 0.7937 0.5597 -0.2384
vn 0.9550 0.2964 -0.0018
vn -0.0937 0.7835 -0.6143
vn 0.3251 0.8356 0.4428
vn -0.2834 0.8970 -0.3392
vn 0.3876 0.6496 0.6540
vn 0.0682 0.9786 0.1939
vn -0.3251 0.8356 0.4428
vn 0.2834 0.8970 -0.3392
vn -0.3876 0.6496 0.6540
vn -0.0682 0.9786 0.1939
vn -0.8963 0.4430 0.0224
vn -0.7937 0.5597 -0.2384
vn -0.9550 0.2964 -0.0018
vn 0.0937 0.7835 -0.6143
vn -0.7093 0.3380 -0.6186
vn -0.8326 -0.0251 -0.5533
vn 0.0870 0.9410 -0.3269
vn -0.7708 0.2606 -0.5814
vn -0.3459 0.0594 -0.9364
vn 0.3906 0.6709 -0.6303
vn -0.4236 -0.2030 -0.8828
vn 0.0018 0.3155 -0.9489
vn -0.0944 0.8444 -0.5274
vn 0.5833 0.5306 -0.6150
vn 0.9237 0.2315 0.3051
vn -0.9237 0.2315 0.3051
vn 0.0944 0.8444 -0.5274
vn 0.4193 0.1517 0.8951
vn 0.0943 0.8449 -0.5265
vn 0.2310 0.8261 -0.5140
vn -0.2309 0.5150 0.8255
vn 0.2309 0.5150 0.8255
vn -0.9056 -0.2245 -0.3598
vn 0.9243 0.2020 0.3238
vn -0.9381 0.1834 0.2939
vn 0.9243 -0.2020 -0.3238
vn -0.4237 0.4795 0.7685
vn 0.4744 -0.4660 -0.7469
vn 0.2455 -0.0216 -0.9692
vn -0.5833 0.5306 -0.6150
vn -0.2312 0.8248 -0.5160
vn 0.2312 0.8248 -0.5160
vn -0.2455 -0.0216 -0.9692
vn -0.4193 0.1517 0.8951
vn -0.2310 0.8261 -0.5140
vn -0.0943 0.8449 -0.5265
vn -0.3132 -0.5027 -0.8057
vn 0.3132 -0.5027 -0.8057
vn -0.9243 0.2020 0.3238
vn 0.9056 -0.2245 -0.3598
vn -0.9243 -0.2020 -0.3238
vn 0.9381 0.1834 0.2939
vn -0.4744 -0.4660 -0.7469
vn 0.4237 0.4795 0.7685
usemtl tophattexture
s off
f 3/1/1 2/2/1 6/3/1 7/4/1
f 1/5/2 21/6/2 5/7/2
f 4/8/3 3/1/3 7/4/3 8/9/3
f 2/10/4 1/5/4 5/7/4 6/11/4
f 8/9/5 7/4/5 11/12/5 12/13/5
f 6/3/6 5/14/6 9/15/6 10/16/6
f 7/4/7 6/3/7 10/16/7 11/12/7
f 5/7/8 21/6/8 9/17/8
f 12/13/9 11/12/9 15/18/9 16/19/9
f 10/16/10 9/15/10 13/20/10 14/21/10
f 11/12/11 10/16/11 14/21/11 15/18/11
f 9/17/12 21/6/12 13/22/12
f 15/23/13 14/24/13 18/25/13 19/26/13
f 13/22/14 21/6/14 17/27/14
f 16/28/15 15/23/15 19/26/15 20/29/15
f 14/30/16 13/22/16 17/27/16 18/31/16
f 19/32/17 18/33/17 23/34/17 24/35/17
f 17/27/18 21/6/18 22/36/18
f 20/37/19 19/32/19 24/35/19 25/38/19
f 18/31/20 17/27/20 22/36/20 23/39/20
f 25/40/21 24/41/21 28/42/21 29/43/21
f 23/44/22 22/45/22 26/46/22 27/47/22
f 24/41/23 23/48/23 27/49/23 28/42/23
f 22/36/24 21/6/24 26/50/24
f 27/51/25 26/52/25 30/53/25 31/54/25
f 28/55/26 27/51/26 31/54/26 32/56/26
f 26/50/27 21/6/27 30/57/27
f 29/58/28 28/55/28 32/56/28 33/59/28
f 32/60/29 31/61/29 2/62/29 3/63/29
f 30/57/30 21/6/30 1/5/30
f 33/59/31 32/56/31 3/64/31 4/65/31
f 31/66/32 30/57/32 1/5/32 2/10/32
f 38/67/33 37/68/33 62/69/33 61/70/33
f 8/9/34 12/13/34 44/71/34 43/72/34
f 12/73/35 16/74/35 45/75/35 44/76/35
f 25/40/36 29/43/36 48/77/36 47/78/36
f 37/68/37 36/79/37 63/80/37 62/69/37
f 16/28/38 20/29/38 46/81/38 45/82/38
f 34/83/39 41/84/39 58/85/39 65/86/39
f 35/87/40 34/83/40 65/86/40 64/88/40
f 42/89/41 43/90/41 40/91/41 41/92/41
f 49/93/42 42/94/42 41/95/42 34/96/42
f 57/97/43 56/98/43 64/99/43 65/100/43
f 48/101/44 49/93/44 34/96/44 35/102/44
f 56/103/45 55/104/45 63/105/45 64/106/45
f 47/78/46 48/77/46 35/107/46 36/108/46
f 55/109/47 54/110/47 62/111/47 63/112/47
f 46/113/48 47/78/48 36/108/48 37/114/48
f 4/115/49 8/116/49 43/117/49 42/118/49
f 29/58/50 33/59/50 49/93/50 48/101/50
f 39/119/51 38/67/51 61/70/51 60/120/51
f 36/79/52 35/87/52 64/88/52 63/80/52
f 33/59/53 4/65/53 42/94/53 49/93/53
f 20/121/54 25/40/54 47/78/54 46/113/54
f 40/122/55 39/119/55 60/120/55 59/123/55
f 41/84/56 40/122/56 59/123/56 58/85/56
f 50/124/57 57/97/57 65/100/57 58/125/57
f 51/126/58 50/127/58 58/128/58 59/129/58
f 43/130/59 44/131/59 39/132/59 40/133/59
f 52/134/60 51/135/60 59/136/60 60/137/60
f 44/131/61 45/138/61 38/139/61 39/132/61
f 53/140/62 52/141/62 60/142/62 61/143/62
f 45/75/63 46/113/63 37/114/63 38/144/63
f 54/145/64 53/140/64 61/143/64 62/146/64
