# Blender v2.93.5 OBJ File: 'hat.blend'
# www.blender.org
mtllib strawhat.mtl
o Torus
v 3.187500 1.895109 0.000000
v 3.000781 2.288832 -0.219511
v 2.550000 2.451918 -0.310436
v 2.212455 1.338300 0.310436
v 3.000781 1.501386 0.219511
v 2.253903 0.797552 -1.968616
v 2.121872 1.255569 -2.072808
v 1.803122 1.573872 -1.885329
v 1.564442 0.576482 -1.055987
v 2.121872 0.468122 -1.633786
v 0.000000 0.342929 -2.784043
v 0.000000 0.827577 -2.840469
v 0.000000 1.210174 -2.537670
v 0.000000 0.260927 -1.621978
v 0.000000 0.040131 -2.401446
v -2.253903 0.797553 -1.968615
v -2.121873 1.255569 -2.072808
v -1.803123 1.573873 -1.885328
v -1.564442 0.576483 -1.055987
v -2.121873 0.468123 -1.633785
v -3.187500 1.895109 -0.000000
v -3.000781 2.288832 -0.219512
v -2.550000 2.451918 -0.310436
v -2.212455 1.338300 0.310436
v -3.000781 1.501386 0.219511
v -2.253903 2.992665 1.968615
v -2.121873 3.322095 1.633785
v -1.803123 3.329963 1.264456
v -1.564442 2.100118 1.676859
v -2.121873 2.534649 2.072808
v 0.000000 3.447289 2.784043
v 0.000000 3.750087 2.401446
v 0.000000 3.693661 1.916799
v 0.000000 2.415674 2.242850
v 0.000000 2.962641 2.840469
v 2.253902 2.992666 1.968617
v 2.121871 3.322096 1.633787
v 1.803121 3.329964 1.264458
v 1.564441 2.100119 1.676860
v 2.121871 2.534650 2.072809
v 2.557246 3.124103 -0.755349
v 1.834855 2.274844 -2.278608
v 0.090849 1.923070 -2.909563
v -1.653157 2.274844 -2.278607
v -2.375548 3.124103 -0.755349
v -1.653157 3.973361 0.767910
v 0.090849 4.325135 1.398864
v 1.834854 3.973361 0.767911
v 1.487283 4.071455 -1.222027
v 1.051667 3.559337 -2.140580
v 0.000000 3.347211 -2.521057
v -1.051668 3.559337 -2.140579
v -1.487283 4.071455 -1.222027
v -1.051668 4.583573 -0.303474
v 0.000000 4.795700 0.077004
v 1.051667 4.583574 -0.303473
v 0.516744 4.208406 -1.298380
v 0.365393 4.030475 -1.617524
v -0.000000 3.956774 -1.749717
v -0.365393 4.030475 -1.617524
v -0.516744 4.208406 -1.298380
v -0.365393 4.386337 -0.979237
v -0.000000 4.460039 -0.847044
v 0.365393 4.386338 -0.979237
v -0.000000 4.208406 -1.298380
v 4.809557 1.975281 -0.044698
v 3.400871 0.319199 -3.015105
v 0.000001 -0.366773 -4.245488
v -3.400871 0.319199 -3.015104
v -4.809557 1.975281 -0.044699
v 4.527820 1.381200 0.286518
v -3.400871 3.631363 2.925707
v 0.000001 4.317335 4.156091
v 3.400869 3.631364 2.925710
v 3.201652 -0.177872 -2.509886
v 0.000001 3.586059 4.241230
v -3.201653 2.940270 3.082921
v 0.000001 -0.823660 -3.668194
v 3.201650 2.940272 3.082924
v -3.201653 -0.177871 -2.509885
v -4.527820 1.381199 0.286518
vt 0.952397 0.842952
vt 0.952807 0.746815
vt 0.977985 0.756352
vt 0.977600 0.846858
vt 0.100019 0.832803
vt 0.009515 0.742299
vt 0.032724 0.732685
vt 0.109633 0.809594
vt 0.709741 0.128726
vt 0.643013 0.195454
vt 0.602424 0.178642
vt 0.692929 0.088138
vt 0.325122 0.421257
vt 0.421257 0.325122
vt 0.504772 0.359715
vt 0.359715 0.504772
vt 0.251139 0.851833
vt 0.251139 0.987789
vt 0.226077 0.983807
vt 0.226077 0.855815
vt 0.009515 0.614306
vt 0.032724 0.623920
vt 0.643013 0.289822
vt 0.602424 0.306634
vt 0.820921 0.397138
vt 0.911425 0.306634
vt 0.990047 0.339200
vt 0.853487 0.475760
vt 0.964345 0.727784
vt 0.952397 0.630221
vt 0.979237 0.628591
vt 0.990485 0.720439
vt 0.100019 0.523802
vt 0.109633 0.547011
vt 0.709741 0.356550
vt 0.692929 0.397138
vt 0.189165 0.093029
vt 0.093029 0.189165
vt 0.009515 0.154572
vt 0.154572 0.009515
vt 0.964345 0.494791
vt 0.990485 0.501094
vt 0.228012 0.523802
vt 0.218398 0.547011
vt 0.804109 0.356550
vt 0.820921 0.088138
vt 0.660362 0.009515
vt 0.853487 0.009515
vt 0.850556 0.823019
vt 0.829426 0.726883
vt 0.856046 0.722901
vt 0.875938 0.813405
vt 0.318516 0.614306
vt 0.295307 0.623920
vt 0.870837 0.289822
vt 0.523802 0.339200
vt 0.523802 0.146075
vt 0.829426 0.590926
vt 0.856046 0.594908
vt 0.318516 0.742299
vt 0.295307 0.732685
vt 0.870837 0.195454
vt 0.911425 0.178642
vt 0.189165 0.421257
vt 0.154572 0.504772
vt 0.850556 0.494791
vt 0.875938 0.504404
vt 0.228012 0.832803
vt 0.218398 0.809594
vt 0.804109 0.128726
vt 0.660362 0.475760
vt 0.952807 0.978908
vt 0.977985 0.974850
vt 0.325122 0.093029
vt 0.359715 0.009515
vt 0.476820 0.695983
vt 0.476348 0.772892
vt 0.431552 0.771304
vt 0.432008 0.696917
vt 0.162248 0.963908
vt 0.162248 0.855142
vt 0.207046 0.851833
vt 0.207046 0.957032
vt 0.476348 0.881657
vt 0.431552 0.876503
vt 0.810396 0.680464
vt 0.793492 0.757373
vt 0.748284 0.756439
vt 0.764633 0.682052
vt 0.793492 0.494791
vt 0.810396 0.571699
vt 0.764633 0.576853
vt 0.748284 0.502466
vt 0.476820 0.958565
vt 0.432008 0.950890
vt 0.874826 0.845358
vt 0.874826 0.954123
vt 0.829426 0.947248
vt 0.829426 0.842049
vt 0.346791 0.876267
vt 0.337546 0.800775
vt 0.406946 0.781214
vt 0.412521 0.826737
vt 0.598013 0.748764
vt 0.581663 0.674377
vt 0.649049 0.657028
vt 0.658908 0.701885
vt 0.748284 0.881603
vt 0.748284 0.776403
vt 0.807451 0.801987
vt 0.807451 0.865424
vt 0.009515 0.957032
vt 0.009515 0.851833
vt 0.067953 0.869182
vt 0.067953 0.932619
vt 0.346791 0.695983
vt 0.412521 0.718023
vt 0.581663 0.569178
vt 0.649049 0.593591
vt 0.598013 0.494791
vt 0.658908 0.548734
vt 0.143218 0.851833
vt 0.143218 0.957032
vt 0.086984 0.935323
vt 0.086984 0.871886
vt 0.382403 0.523802
vt 0.445840 0.523802
vt 0.425142 0.573772
vt 0.403101 0.573772
vt 0.490697 0.568659
vt 0.490697 0.632096
vt 0.440727 0.611398
vt 0.440727 0.589357
vt 0.445840 0.676953
vt 0.382403 0.676953
vt 0.403101 0.626983
vt 0.425142 0.626983
vt 0.337546 0.632096
vt 0.337546 0.568659
vt 0.387516 0.589357
vt 0.387516 0.611398
vt 0.691627 0.918591
vt 0.676042 0.903006
vt 0.702648 0.891986
vt 0.713668 0.918591
vt 0.729253 0.880965
vt 0.729253 0.903006
vt 0.691627 0.865380
vt 0.713668 0.865380
vt 0.676042 0.880965
vt 0.562633 0.509297
vt 0.561796 0.645857
vt 0.523802 0.639848
vt 0.524692 0.494791
vt 0.561796 0.838982
vt 0.523802 0.844990
vt 0.562633 0.975542
vt 0.524692 0.990047
vt 0.694910 0.843348
vt 0.677939 0.650970
vt 0.711226 0.642002
vt 0.729253 0.846350
vt 0.694910 0.512383
vt 0.729253 0.494791
vt 0.581663 0.966928
vt 0.581663 0.773803
vt 0.615454 0.767795
vt 0.615454 0.972937
vt 0.895550 0.830372
vt 0.894969 0.693810
vt 0.932749 0.699932
vt 0.933367 0.844992
vt 0.895550 0.500685
vt 0.933367 0.494791
vt 0.093029 0.325121
vt 0.009515 0.359715
vt 0.421257 0.189165
vt 0.504772 0.154572
vt 0.990047 0.146075
vn 0.8629 0.1381 -0.4862
vn 0.3780 0.7208 -0.5811
vn 0.2294 -0.8923 0.3887
vn -0.0565 0.8832 -0.4656
vn 0.3574 -0.1080 -0.9277
vn 0.1566 0.6129 -0.7745
vn 0.0950 -0.9578 0.2713
vn 0.0897 -0.8874 0.4522
vn -0.3574 -0.1080 -0.9277
vn -0.1566 0.6129 -0.7745
vn -0.0950 -0.9578 0.2713
vn 0.0565 0.8604 -0.5065
vn -0.8629 0.1381 -0.4862
vn -0.3780 0.7208 -0.5811
vn -0.2294 -0.8923 0.3887
vn -0.0897 -0.8874 0.4522
vn -0.8629 0.4862 0.1381
vn -0.3780 0.8732 -0.3076
vn -0.2294 -0.7998 0.5547
vn -0.0371 -0.8256 0.5630
vn -0.3574 0.7323 0.5796
vn -0.1566 0.9810 -0.1142
vn -0.0950 -0.7343 0.6721
vn -0.0234 0.8993 -0.4367
vn 0.3574 0.7323 0.5796
vn 0.1566 0.9810 -0.1142
vn 0.0950 -0.7343 0.6721
vn 0.0897 -0.8512 0.5171
vn 0.8629 0.4862 0.1381
vn 0.3780 0.8732 -0.3076
vn 0.2294 -0.7998 0.5547
vn 0.0234 0.8443 -0.5354
vn 0.9232 -0.2190 -0.3158
vn 0.9237 0.2045 0.3240
vn 0.3826 -0.4652 -0.7983
vn 0.3798 0.5534 0.7413
vn -0.9004 0.3772 0.2167
vn -0.3818 -0.3888 -0.8385
vn -0.3745 0.6196 0.6898
vn -0.9106 -0.0362 -0.4117
vn -0.2885 0.2348 -0.9282
vn -0.7361 0.6763 -0.0280
vn 0.6807 0.7279 -0.0830
vn 0.2792 0.2693 -0.9217
vn -0.7223 0.3989 -0.5649
vn -0.3021 0.8913 0.3381
vn 0.2925 0.9071 0.3028
vn 0.6676 0.4692 -0.5782
vn 0.1591 0.8925 -0.4221
vn 0.0659 0.7829 -0.6187
vn -0.1591 0.8283 -0.5373
vn -0.0659 0.9379 -0.3407
vn 0.0659 0.9379 -0.3407
vn 0.1591 0.8283 -0.5373
vn -0.0659 0.7829 -0.6187
vn -0.1591 0.8925 -0.4221
vn -0.0000 0.8734 -0.4870
vn 0.8629 -0.4862 -0.1381
vn 0.3574 -0.7323 -0.5796
vn -0.3574 -0.7323 -0.5796
vn -0.8629 -0.4862 -0.1381
vn -0.8629 -0.1381 0.4862
vn -0.3574 0.1080 0.9277
vn 0.3574 0.1080 0.9277
vn 0.8629 -0.1381 0.4862
vn 0.0565 0.8832 -0.4656
vn -0.0565 0.8604 -0.5065
vn 0.0371 -0.8256 0.5630
vn -0.0234 0.8443 -0.5354
vn -0.0371 -0.9130 0.4063
vn 0.0234 0.8993 -0.4367
vn -0.0897 -0.8512 0.5171
vn 0.0371 -0.9130 0.4063
usemtl tophattexture
s off
f 1/1/1 6/2/1 7/3/1 2/4/1
f 2/5/2 7/6/2 8/7/2 3/8/2
f 4/9/3 9/10/3 10/11/3 5/12/3
f 6/13/4 1/14/4 66/15/4 67/16/4
f 6/17/5 11/18/5 12/19/5 7/20/5
f 7/6/6 12/21/6 13/22/6 8/7/6
f 9/10/7 14/23/7 15/24/7 10/11/7
f 25/25/8 30/26/8 77/27/8 81/28/8
f 11/29/9 16/30/9 17/31/9 12/32/9
f 12/21/10 17/33/10 18/34/10 13/22/10
f 14/23/11 19/35/11 20/36/11 15/24/11
f 26/37/12 21/38/12 70/39/12 72/40/12
f 16/30/13 21/41/13 22/42/13 17/31/13
f 17/33/14 22/43/14 23/44/14 18/34/14
f 19/35/15 24/45/15 25/25/15 20/36/15
f 40/46/16 5/12/16 71/47/16 79/48/16
f 21/49/17 26/50/17 27/51/17 22/52/17
f 22/43/18 27/53/18 28/54/18 23/44/18
f 24/45/19 29/55/19 30/26/19 25/25/19
f 10/11/20 15/24/20 78/56/20 75/57/20
f 26/50/21 31/58/21 32/59/21 27/51/21
f 27/53/22 32/60/22 33/61/22 28/54/22
f 29/55/23 34/62/23 35/63/23 30/26/23
f 11/64/24 6/13/24 67/16/24 68/65/24
f 31/58/25 36/66/25 37/67/25 32/59/25
f 32/60/26 37/68/26 38/69/26 33/61/26
f 34/62/27 39/70/27 40/46/27 35/63/27
f 20/36/28 25/25/28 81/28/28 80/71/28
f 36/72/29 1/1/29 2/4/29 37/73/29
f 37/68/30 2/5/30 3/8/30 38/69/30
f 39/70/31 4/9/31 5/12/31 40/46/31
f 31/74/32 26/37/32 72/40/32 73/75/32
f 3/76/33 8/77/33 42/78/33 41/79/33
f 38/80/34 3/81/34 41/82/34 48/83/34
f 8/77/35 13/84/35 43/85/35 42/78/35
f 33/86/36 38/87/36 48/88/36 47/89/36
f 23/90/37 28/91/37 46/92/37 45/93/37
f 13/84/38 18/94/38 44/95/38 43/85/38
f 28/91/39 33/86/39 47/89/39 46/92/39
f 18/96/40 23/97/40 45/98/40 44/99/40
f 43/100/41 44/101/41 52/102/41 51/103/41
f 45/104/42 46/105/42 54/106/42 53/107/42
f 48/108/43 41/109/43 49/110/43 56/111/43
f 42/112/44 43/113/44 51/114/44 50/115/44
f 44/101/45 45/116/45 53/117/45 52/102/45
f 46/105/46 47/118/46 55/119/46 54/106/46
f 47/118/47 48/120/47 56/121/47 55/119/47
f 41/122/48 42/123/48 50/124/48 49/125/48
f 56/126/49 49/127/49 57/128/49 64/129/49
f 50/130/50 51/131/50 59/132/50 58/133/50
f 52/134/51 53/135/51 61/136/51 60/137/51
f 54/138/52 55/139/52 63/140/52 62/141/52
f 55/139/53 56/126/53 64/129/53 63/140/53
f 49/127/54 50/130/54 58/133/54 57/128/54
f 51/131/55 52/134/55 60/137/55 59/132/55
f 53/135/56 54/138/56 62/141/56 61/136/56
f 63/142/57 64/143/57 65/144/57
f 62/145/57 63/142/57 65/144/57
f 60/146/57 61/147/57 65/144/57
f 58/148/57 59/149/57 65/144/57
f 64/143/57 57/150/57 65/144/57
f 61/147/57 62/145/57 65/144/57
f 59/149/57 60/146/57 65/144/57
f 57/150/57 58/148/57 65/144/57
f 71/151/58 75/152/58 67/153/58 66/154/58
f 75/152/59 78/155/59 68/156/59 67/153/59
f 78/155/60 80/157/60 69/158/60 68/156/60
f 80/159/61 81/160/61 70/161/61 69/162/61
f 81/160/62 77/163/62 72/164/62 70/161/62
f 77/165/63 76/166/63 73/167/63 72/168/63
f 76/169/64 79/170/64 74/171/64 73/172/64
f 79/170/65 71/173/65 66/174/65 74/171/65
f 21/38/66 16/175/66 69/176/66 70/39/66
f 1/14/67 36/177/67 74/178/67 66/15/67
f 15/24/68 20/36/68 80/71/68 78/56/68
f 36/177/69 31/74/69 73/75/69 74/178/69
f 35/63/70 40/46/70 79/48/70 76/179/70
f 16/175/71 11/64/71 68/65/71 69/176/71
f 5/12/72 10/11/72 75/57/72 71/47/72
f 30/26/73 35/63/73 76/179/73 77/27/73
