# Blender v2.93.5 OBJ File: 'hat.blend'
# www.blender.org
mtllib tophat.mtl
o Torus
v 3.187500 1.895109 0.000000
v 3.000781 2.288832 -0.219511
v 2.550000 2.451918 -0.310436
v 2.212455 1.338300 0.310436
v 3.000781 1.501386 0.219511
v 2.253903 0.797552 -1.968616
v 2.121872 1.255569 -2.072808
v 1.803122 1.573872 -1.885329
v 1.564442 0.576482 -1.055987
v 2.121872 0.468122 -1.633786
v 0.000000 0.342929 -2.784043
v 0.000000 0.827577 -2.840469
v 0.000000 1.210174 -2.537670
v 0.000000 0.260927 -1.621978
v 0.000000 0.040131 -2.401446
v -2.253903 0.797553 -1.968615
v -2.121873 1.255569 -2.072808
v -1.803123 1.573873 -1.885328
v -1.564442 0.576483 -1.055987
v -2.121873 0.468123 -1.633785
v -3.187500 1.895109 -0.000000
v -3.000781 2.288832 -0.219512
v -2.550000 2.451918 -0.310436
v -2.212455 1.338300 0.310436
v -3.000781 1.501386 0.219511
v -2.253903 2.992665 1.968615
v -2.121873 3.322095 1.633785
v -1.803123 3.329963 1.264456
v -1.564442 2.100118 1.676859
v -2.121873 2.534649 2.072808
v 0.000000 3.447289 2.784043
v 0.000000 3.750087 2.401446
v 0.000000 3.693661 1.916799
v 0.000000 2.415674 2.242850
v 0.000000 2.962641 2.840469
v 2.253902 2.992666 1.968617
v 2.121871 3.322096 1.633787
v 1.803121 3.329964 1.264458
v 1.564441 2.100119 1.676860
v 2.121871 2.534650 2.072809
v 2.550000 5.136403 -1.807109
v 1.803122 4.258357 -3.382002
v 0.000000 3.894659 -4.034344
v -1.803123 4.258358 -3.382001
v -2.550000 5.136403 -1.807109
v -1.803123 6.014448 -0.232217
v 0.000000 6.378147 0.420125
v 1.803121 6.014449 -0.232216
v -0.000000 5.136403 -1.807109
vt 0.833908 0.738470
vt 0.812740 0.621989
vt 0.844788 0.617164
vt 0.864716 0.726822
vt 0.506217 0.381937
vt 0.397021 0.272279
vt 0.423869 0.260631
vt 0.516662 0.353816
vt 0.251909 0.332759
vt 0.332759 0.251909
vt 0.381937 0.272279
vt 0.272279 0.381937
vt 0.486139 0.518327
vt 0.486139 0.408669
vt 0.516577 0.397021
vt 0.516577 0.513502
vt 0.812740 0.457260
vt 0.844788 0.462085
vt 0.397021 0.117200
vt 0.423869 0.128848
vt 0.332759 0.137570
vt 0.381937 0.117200
vt 0.784926 0.617164
vt 0.784926 0.462085
vt 0.833908 0.340779
vt 0.864716 0.352427
vt 0.506218 0.007542
vt 0.516662 0.035663
vt 0.251909 0.056720
vt 0.272279 0.007542
vt 0.562099 0.783064
vt 0.562099 0.673406
vt 0.592537 0.678231
vt 0.592537 0.794712
vt 0.592537 0.513502
vt 0.622975 0.518327
vt 0.622975 0.673406
vt 0.660645 0.007542
vt 0.647891 0.035663
vt 0.137570 0.056720
vt 0.117200 0.007542
vt 0.562099 0.518327
vt 0.592537 0.397021
vt 0.622975 0.408669
vt 0.769842 0.117200
vt 0.740684 0.128848
vt 0.056720 0.137570
vt 0.007542 0.117200
vt 0.562099 0.408669
vt 0.440617 0.678231
vt 0.440617 0.513502
vt 0.471055 0.518327
vt 0.471055 0.673406
vt 0.769842 0.272279
vt 0.740684 0.260631
vt 0.056720 0.251909
vt 0.007542 0.272279
vt 0.410179 0.673406
vt 0.410179 0.518327
vt 0.440617 0.397021
vt 0.471055 0.408669
vt 0.660645 0.381937
vt 0.647891 0.353816
vt 0.137570 0.332759
vt 0.117200 0.381937
vt 0.410179 0.408669
vt 0.516577 0.678231
vt 0.547015 0.518327
vt 0.547015 0.673406
vt 0.486139 0.673406
vt 0.215074 0.862041
vt 0.215074 0.955226
vt 0.007542 0.955226
vt 0.007542 0.862041
vt 0.215074 0.730258
vt 0.007542 0.730258
vt 0.638059 0.397021
vt 0.769842 0.397021
vt 0.769842 0.601097
vt 0.638059 0.601097
vt 0.437690 0.862041
vt 0.437690 0.955226
vt 0.230158 0.955226
vt 0.230158 0.862041
vt 0.992458 0.232510
vt 0.992458 0.325695
vt 0.784926 0.325695
vt 0.784926 0.232510
vt 0.992458 0.007542
vt 0.992458 0.100727
vt 0.784926 0.100727
vt 0.784926 0.007542
vt 0.437690 0.730258
vt 0.230158 0.730258
vt 0.324357 0.621989
vt 0.231564 0.715174
vt 0.165950 0.556097
vt 0.324357 0.490206
vt 0.100335 0.397021
vt 0.231564 0.397021
vt 0.007542 0.621989
vt 0.007542 0.490206
vt 0.100335 0.715174
vn 0.8629 0.1381 -0.4862
vn 0.3780 0.7208 -0.5811
vn 0.2294 -0.8923 0.3887
vn 0.8629 -0.4862 -0.1381
vn 0.3574 -0.1080 -0.9277
vn 0.1566 0.6129 -0.7745
vn 0.0950 -0.9578 0.2713
vn 0.3574 -0.7323 -0.5796
vn -0.3574 -0.1080 -0.9277
vn -0.1566 0.6129 -0.7745
vn -0.0950 -0.9578 0.2713
vn -0.3574 -0.7323 -0.5796
vn -0.8629 0.1381 -0.4862
vn -0.3780 0.7208 -0.5811
vn -0.2294 -0.8923 0.3887
vn -0.8629 -0.4862 -0.1381
vn -0.8629 0.4862 0.1381
vn -0.3780 0.8732 -0.3076
vn -0.2294 -0.7998 0.5547
vn -0.8629 -0.1381 0.4862
vn -0.3574 0.7323 0.5796
vn -0.1566 0.9810 -0.1142
vn -0.0950 -0.7343 0.6721
vn -0.3574 0.1080 0.9277
vn 0.3574 0.7323 0.5796
vn 0.1566 0.9810 -0.1142
vn 0.0950 -0.7343 0.6721
vn 0.3574 0.1080 0.9277
vn 0.8629 0.4862 0.1381
vn 0.3780 0.8732 -0.3076
vn 0.2294 -0.7998 0.5547
vn 0.8629 -0.1381 0.4862
vn 0.9239 -0.1864 -0.3342
vn 0.9239 0.1864 0.3342
vn 0.3827 -0.4499 -0.8069
vn 0.3827 0.4499 0.8069
vn -0.9239 0.1864 0.3342
vn -0.3827 -0.4499 -0.8069
vn -0.3827 0.4499 0.8069
vn -0.9239 -0.1864 -0.3342
vn 0.0000 0.8734 -0.4870
usemtl tophattexture
s off
f 1/1/1 6/2/1 7/3/1 2/4/1
f 2/5/2 7/6/2 8/7/2 3/8/2
f 4/9/3 9/10/3 10/11/3 5/12/3
f 5/13/4 10/14/4 6/15/4 1/16/4
f 6/2/5 11/17/5 12/18/5 7/3/5
f 7/6/6 12/19/6 13/20/6 8/7/6
f 9/10/7 14/21/7 15/22/7 10/11/7
f 10/23/8 15/24/8 11/17/8 6/2/8
f 11/17/9 16/25/9 17/26/9 12/18/9
f 12/19/10 17/27/10 18/28/10 13/20/10
f 14/21/11 19/29/11 20/30/11 15/22/11
f 15/31/12 20/32/12 16/33/12 11/34/12
f 16/33/13 21/35/13 22/36/13 17/37/13
f 17/27/14 22/38/14 23/39/14 18/28/14
f 19/29/15 24/40/15 25/41/15 20/30/15
f 20/32/16 25/42/16 21/35/16 16/33/16
f 21/35/17 26/43/17 27/44/17 22/36/17
f 22/38/18 27/45/18 28/46/18 23/39/18
f 24/40/19 29/47/19 30/48/19 25/41/19
f 25/42/20 30/49/20 26/43/20 21/35/20
f 26/50/21 31/51/21 32/52/21 27/53/21
f 27/45/22 32/54/22 33/55/22 28/46/22
f 29/47/23 34/56/23 35/57/23 30/48/23
f 30/58/24 35/59/24 31/51/24 26/50/24
f 31/51/25 36/60/25 37/61/25 32/52/25
f 32/54/26 37/62/26 38/63/26 33/55/26
f 34/56/27 39/64/27 40/65/27 35/57/27
f 35/59/28 40/66/28 36/60/28 31/51/28
f 36/67/29 1/16/29 2/68/29 37/69/29
f 37/62/30 2/5/30 3/8/30 38/63/30
f 39/64/31 4/9/31 5/12/31 40/65/31
f 40/70/32 5/13/32 1/16/32 36/67/32
f 3/71/33 8/72/33 42/73/33 41/74/33
f 38/75/34 3/71/34 41/74/34 48/76/34
f 8/77/35 13/78/35 43/79/35 42/80/35
f 33/81/36 38/82/36 48/83/36 47/84/36
f 23/85/37 28/86/37 46/87/37 45/88/37
f 13/89/38 18/90/38 44/91/38 43/92/38
f 28/93/39 33/81/39 47/84/39 46/94/39
f 18/90/40 23/85/40 45/88/40 44/91/40
f 47/95/41 48/96/41 49/97/41
f 46/98/41 47/95/41 49/97/41
f 44/99/41 45/100/41 49/97/41
f 42/101/41 43/102/41 49/97/41
f 48/96/41 41/103/41 49/97/41
f 45/100/41 46/98/41 49/97/41
f 43/102/41 44/99/41 49/97/41
f 41/103/41 42/101/41 49/97/41
