# This file uses centimeters as units for non-parametric coordinates.

mtllib roundbread.mtl
g default
v 0.002745 -0.064855 0.239685
v 0.002864 1.272024 0.194630
v 0.004880 1.273146 -0.192436
v 0.004997 -0.063691 -0.239642
v 0.003872 1.337869 0.001284
v 0.003871 -0.068791 -0.001286
v 0.531820 1.229426 0.011085
v 0.531820 -0.038496 0.008511
v 0.532976 -0.020196 -0.239642
v 0.532720 1.179632 -0.184580
v 0.530664 -0.021392 0.239685
v 0.530921 1.178711 0.206555
v -0.530668 -0.018162 -0.239642
v -0.531820 -0.038446 -0.011282
v -0.531819 1.229476 -0.008708
v -0.530920 1.179682 -0.204374
v -0.532973 -0.019348 0.239685
v -0.532719 1.178761 0.186761
v -0.001347 0.529355 1.001633
v 0.527791 0.534663 0.885685
v 0.535849 0.538832 -0.866332
v 0.009091 0.534754 -1.002050
v -0.527790 0.538836 -0.886155
v -0.535849 0.534714 0.865892
v 0.007699 1.013317 -0.733949
v 0.534748 0.953466 -0.626111
v 0.528892 0.950438 0.647159
v 0.000045 1.009358 0.735249
v -0.534748 0.950488 0.627365
v -0.528891 0.953515 -0.645905
v 0.005958 1.196466 -0.399454
v 0.533559 1.129292 -0.367312
v 0.530080 1.127508 0.389090
v 0.001786 1.194308 0.401415
v -0.533559 1.127558 0.369296
v -0.530080 1.129342 -0.387105
v -0.000774 0.081262 0.768624
v 0.528707 0.105427 0.685408
v 0.534932 0.108646 -0.667795
v 0.008517 0.086067 -0.770648
v -0.528708 0.108696 -0.687480
v -0.534932 0.105477 0.665617
v 0.000519 -0.053314 0.554197
v 0.529831 -0.015053 0.440959
v 0.533808 -0.012995 -0.423837
v 0.007224 -0.049846 -0.556640
v -0.529830 -0.012832 -0.443797
v -0.533809 -0.014883 0.421306
v 0.870357 0.132371 -0.177371
v 0.869626 0.119859 0.012155
v 0.870196 0.954830 -0.133315
v 0.870727 0.920301 -0.271135
v 0.869627 0.988988 0.014259
v 0.868895 0.131615 0.201739
v 0.869058 0.954248 0.161672
v 0.868172 0.135881 0.389232
v -0.868897 0.133788 -0.203547
v -0.869626 0.119915 -0.014604
v -0.869626 0.989044 -0.012501
v -0.869057 0.954887 -0.160074
v -0.868525 0.920358 -0.297894
v -0.870355 0.133038 0.174401
v -0.871081 0.136020 0.362595
v -0.870195 0.954305 0.134913
v 0.867270 0.512955 0.623881
v 0.867774 0.797829 0.493939
v 0.871983 0.515393 -0.597665
v 0.871595 0.220636 -0.497885
v -0.867270 0.515418 -0.624446
v -0.867658 0.220693 -0.524563
v -0.871983 0.513012 0.597122
v -0.871478 0.797885 0.467179
v 0.871479 0.799744 -0.466340
v 0.868526 0.919173 0.299331
v -0.870726 0.919229 0.272571
v -0.867774 0.799800 -0.493099
v 0.867658 0.218600 0.522678
v 0.871081 0.137386 -0.364840
v -0.868171 0.137520 -0.391744
v -0.871595 0.218656 0.495921
v 1.034410 0.314062 0.013395
v 1.034813 0.744095 -0.090147
v 1.025510 0.766465 0.014449
v 1.033948 0.322838 0.132990
v -1.034410 0.314122 -0.014906
v -1.025509 0.766524 -0.013770
v -1.034006 0.744155 -0.118449
v -1.034871 0.322942 0.104727
v 1.033426 0.525445 0.268905
v 1.035394 0.526463 -0.241090
v -1.033426 0.526505 -0.269400
v -1.035394 0.525505 0.240603
v 1.034006 0.743683 0.119023
v -1.034813 0.743743 0.090722
v 1.034871 0.323315 -0.106155
v -1.033948 0.323417 -0.134503
v 1.092862 0.525953 0.014182
v -1.092862 0.526006 -0.014671
vt 0.402669 0.448630
vt 0.587157 0.448567
vt 0.586530 0.419100
vt 0.597331 0.419165
vt 0.552136 0.418940
vt 0.551802 0.448339
vt 0.533962 0.448416
vt 0.509120 0.448573
vt 0.499995 0.448630
vt 0.499473 0.419165
vt 0.510166 0.419115
vt 0.412967 0.448693
vt 0.413593 0.419230
vt 0.490871 0.448686
vt 0.488811 0.419215
vt 0.465461 0.419328
vt 0.465998 0.448843
vt 0.448155 0.448921
vt 0.447918 0.419390
vt 0.402669 0.478527
vt 0.586499 0.478462
vt 0.511163 0.478476
vt 0.500504 0.478527
vt 0.552060 0.478302
vt 0.534511 0.478363
vt 0.413624 0.478591
vt 0.465845 0.478690
vt 0.447841 0.478752
vt 0.489809 0.478577
vt 0.432070 0.448889
vt 0.431033 0.419339
vt 0.569398 0.418991
vt 0.567894 0.448371
vt 0.568961 0.478353
vt 0.430594 0.478700
vt 0.519199 0.448513
vt 0.519838 0.419068
vt 0.479352 0.419262
vt 0.480779 0.448746
vt 0.480135 0.478624
vt 0.520621 0.478430
vt 0.423748 0.448817
vt 0.421214 0.419276
vt 0.579443 0.419054
vt 0.576243 0.448443
vt 0.578780 0.478416
vt 0.420567 0.478638
vt 0.586884 0.400271
vt 0.597331 0.400312
vt 0.512264 0.400280
vt 0.523568 0.400251
vt 0.498797 0.400312
vt 0.414560 0.400353
vt 0.485540 0.400344
vt 0.423272 0.400393
vt 0.402669 0.497380
vt 0.585441 0.497339
vt 0.514402 0.497348
vt 0.501135 0.497380
vt 0.525024 0.497318
vt 0.413111 0.497420
vt 0.422221 0.497461
vt 0.487675 0.497411
vt 0.445435 0.400443
vt 0.461283 0.400415
vt 0.554825 0.400181
vt 0.570220 0.400202
vt 0.569427 0.497270
vt 0.554568 0.497248
vt 0.461812 0.497483
vt 0.445177 0.497511
vt 0.474938 0.400373
vt 0.476390 0.497441
vt 0.538704 0.497276
vt 0.430577 0.400422
vt 0.577786 0.400231
vt 0.576720 0.497299
vt 0.429782 0.497490
vt 0.534126 0.419002
vt 0.538174 0.400209
vt 0.554568 0.497248
vt 0.597331 0.478527
vt 0.597331 0.497380
vt 0.402669 0.419165
vt 0.402669 0.400312
vt 0.597331 0.448630
vt 0.427366 0.527540
vt 0.419372 0.502357
vt 0.436181 0.514392
vt 0.404166 0.526823
vt 0.410693 0.507742
vt 0.444016 0.501218
vt 0.431669 0.502116
vt 0.444011 0.527508
vt 0.437230 0.541631
vt 0.412749 0.545233
vt 0.443996 0.513791
vt 0.425504 0.553038
vt 0.451813 0.514362
vt 0.444070 0.543079
vt 0.444153 0.557485
vt 0.434510 0.555274
vt 0.456366 0.502067
vt 0.468664 0.502260
vt 0.460692 0.527476
vt 0.450898 0.541604
vt 0.477376 0.507610
vt 0.483989 0.526667
vt 0.475498 0.545110
vt 0.462781 0.552965
vt 0.453786 0.555236
vt 0.533138 0.541971
vt 0.557720 0.545573
vt 0.544965 0.553378
vt 0.543002 0.527881
vt 0.566302 0.527165
vt 0.535959 0.555614
vt 0.526316 0.557825
vt 0.551088 0.502692
vt 0.559782 0.508082
vt 0.526321 0.527848
vt 0.526304 0.543419
vt 0.534184 0.514729
vt 0.519470 0.541944
vt 0.526453 0.501558
vt 0.538838 0.502368
vt 0.526372 0.514130
vt 0.516683 0.555576
vt 0.507688 0.553305
vt 0.509676 0.527815
vt 0.518558 0.514698
vt 0.494971 0.545449
vt 0.486480 0.527007
vt 0.501813 0.502595
vt 0.514065 0.502319
vt 0.493093 0.507950
vn -0.000964 -0.999997 -0.002437
vn -0.000635 -0.998986 -0.045010
vn 0.203760 -0.977971 -0.045334
vn 0.207211 -0.978296 -0.001263
vn 0.364699 0.049377 -0.929816
vn 0.017658 0.040641 -0.999018
vn 0.014030 0.656819 -0.753918
vn 0.338578 0.620422 -0.707418
vn 0.005440 0.955329 -0.295494
vn -0.000060 0.999997 0.002531
vn 0.338718 0.940875 0.005009
vn 0.330548 0.906700 -0.261980
vn -0.001105 -0.999222 0.039432
vn 0.203207 -0.978222 0.042293
vn -0.005433 0.953845 0.300249
vn 0.321840 0.907495 0.269948
vn 0.316198 0.619898 0.718154
vn -0.014106 0.653465 0.756825
vn -0.017873 0.036344 0.999180
vn 0.336817 0.045682 0.940461
vn -0.206055 -0.978535 -0.003394
vn -0.201878 -0.978263 -0.047397
vn -0.319633 0.909447 -0.265972
vn -0.335848 0.941916 -0.000312
vn -0.333789 0.049224 -0.941362
vn -0.314170 0.623512 -0.715912
vn -0.203118 -0.978331 0.040133
vn -0.334804 0.618213 0.711139
vn -0.361521 0.045761 0.931240
vn -0.327261 0.906488 0.266794
vn -0.014999 -0.609534 0.792618
vn 0.297897 -0.585361 0.754062
vn 0.319972 -0.580338 -0.748883
vn 0.014968 -0.606132 -0.795223
vn -0.294097 -0.583073 -0.757320
vn -0.318237 -0.583728 0.746985
vn 0.008501 0.897102 -0.441742
vn 0.310881 0.853171 -0.418869
vn 0.296756 0.853812 0.427716
vn -0.008519 0.894996 0.445992
vn -0.307292 0.852242 0.423386
vn -0.294923 0.856305 -0.423984
vn -0.005247 -0.955082 0.296297
vn 0.224986 -0.942180 0.248351
vn 0.231612 -0.939269 -0.253239
vn 0.004541 -0.953847 -0.300260
vn -0.221803 -0.942514 -0.249942
vn -0.231237 -0.940998 0.247086
vn 0.563941 -0.824811 -0.040723
vn 0.541560 -0.840662 0.000519
vn 0.654485 0.734046 -0.181181
vn 0.634748 0.697299 -0.332970
vn 0.645278 0.763933 0.004734
vn 0.563030 -0.825394 0.041492
vn 0.651610 0.734379 0.189977
vn 0.671597 -0.686295 0.279209
vn -0.539883 -0.841729 -0.004255
vn -0.560548 -0.826873 -0.045451
vn -0.651797 0.735028 -0.186801
vn -0.645289 0.763937 -0.001360
vn -0.629308 0.699043 -0.339574
vn -0.562032 -0.826247 0.037899
vn -0.678156 -0.681747 0.274454
vn -0.654315 0.733408 0.184350
vn 0.713815 0.025286 0.699877
vn 0.683640 0.445320 0.578210
vn 0.723716 0.028061 -0.689527
vn 0.703459 -0.409732 -0.580746
vn -0.695009 -0.411265 -0.589766
vn -0.713772 0.028115 -0.699813
vn -0.692028 0.443585 0.569500
vn -0.723700 0.025236 0.689653
vn 0.692331 0.445925 -0.567299
vn 0.628884 0.697841 0.342814
vn -0.634349 0.696112 0.336200
vn -0.683962 0.447687 -0.575997
vn 0.695342 -0.413688 0.587675
vn 0.677928 -0.680080 -0.279115
vn -0.670347 -0.687286 -0.279773
vn -0.703738 -0.412051 0.578763
vn 0.892289 -0.404192 -0.201119
vn 0.905808 0.319696 -0.278041
vn 0.888931 0.458020 0.004330
vn 0.903619 0.318482 0.286431
vn 0.890586 -0.405270 0.206429
vn -0.888932 0.458033 -0.002527
vn -0.903546 0.319841 -0.285143
vn -0.871427 -0.490507 -0.004336
vn -0.891888 -0.405738 0.199779
vn -0.929531 0.042697 -0.366264
vn -0.890306 -0.404916 -0.208321
vn -0.905880 0.318365 0.279328
vn 0.929555 0.040853 0.366412
vn 0.932421 0.042590 -0.358856
vn -0.932427 0.040899 0.359036
vn 0.999962 0.007859 0.003874
vn -0.999962 0.007893 -0.003844
vn 0.871451 -0.490478 0.002384
s 1
g pCube2
usemtl initialShadingGroup
f 6/86/1 4/2/2 9/3/3 8/4/4
f 21/5/5 22/6/6 25/7/7 26/79/8
f 3/8/9 5/9/10 7/10/11 10/11/12
f 1/12/13 6/1/1 8/84/4 11/13/14
f 5/9/10 2/14/15 12/15/16 7/10/11
f 27/16/17 28/17/18 19/18/19 20/19/20
f 6/86/1 14/82/21 13/21/22 4/2/2
f 3/8/9 16/22/23 15/23/24 5/9/10
f 22/6/6 23/24/25 30/25/26 25/7/7
f 1/12/13 17/26/27 14/20/21 6/1/1
f 28/17/18 29/27/28 24/28/29 19/18/19
f 5/9/10 15/23/24 18/29/30 2/14/15
f 20/19/20 19/18/19 37/30/31 38/31/32
f 39/32/33 40/33/34 22/6/6 21/5/5
f 40/33/34 41/34/35 23/24/25 22/6/6
f 19/18/19 24/28/29 42/35/36 37/30/31
f 26/79/8 25/7/7 31/36/37 32/37/38
f 33/38/39 34/39/40 28/17/18 27/16/17
f 34/39/40 35/40/41 29/27/28 28/17/18
f 25/7/7 30/25/26 36/41/42 31/36/37
f 31/36/37 3/8/9 10/11/12 32/37/38
f 12/15/16 2/14/15 34/39/40 33/38/39
f 2/14/15 18/29/30 35/40/41 34/39/40
f 36/41/42 16/22/23 3/8/9 31/36/37
f 38/31/32 37/30/31 43/42/43 44/43/44
f 45/44/45 46/45/46 40/33/34 39/32/33
f 46/45/46 47/46/47 41/34/35 40/33/34
f 37/30/31 42/35/36 48/47/48 43/42/43
f 43/42/43 1/12/13 11/13/14 44/43/44
f 9/3/3 4/2/2 46/45/46 45/44/45
f 4/2/2 13/21/22 47/46/47 46/45/46
f 48/47/48 17/26/27 1/12/13 43/42/43
f 8/4/4 9/3/3 49/48/49 50/49/50
f 32/37/38 10/11/12 51/50/51 52/51/52
f 10/11/12 7/10/11 53/52/53 51/50/51
f 11/13/14 8/84/4 50/85/50 54/53/54
f 7/10/11 12/15/16 55/54/55 53/52/53
f 44/43/44 11/13/14 54/53/54 56/55/56
f 13/21/22 14/82/21 58/83/57 57/57/58
f 15/23/24 16/22/23 60/58/59 59/59/60
f 16/22/23 36/41/42 61/60/61 60/58/59
f 14/20/21 17/26/27 62/61/62 58/56/57
f 17/26/27 48/47/48 63/62/63 62/61/62
f 18/29/30 15/23/24 59/59/60 64/63/64
f 27/16/17 20/19/20 65/64/65 66/65/66
f 39/32/33 21/5/5 67/66/67 68/67/68
f 23/24/25 41/34/35 70/68/69 69/69/70
f 24/28/29 29/27/28 72/70/71 71/71/72
f 21/5/5 26/79/8 73/80/73 67/66/67
f 33/38/39 27/16/17 66/65/66 74/72/74
f 29/27/28 35/40/41 75/73/75 72/70/71
f 30/25/26 23/24/25 69/81/70 76/74/76
f 26/79/8 32/37/38 52/51/52 73/80/73
f 12/15/16 33/38/39 74/72/74 55/54/55
f 35/40/41 18/29/30 64/63/64 75/73/75
f 36/41/42 30/25/26 76/74/76 61/60/61
f 20/19/20 38/31/32 77/75/77 65/64/65
f 45/44/45 39/32/33 68/67/68 78/76/78
f 41/34/35 47/46/47 79/77/79 70/68/69
f 42/35/36 24/28/29 71/71/72 80/78/80
f 38/31/32 44/43/44 56/55/56 77/75/77
f 9/3/3 45/44/45 78/76/78 49/48/49
f 47/46/47 13/21/22 57/57/58 79/77/79
f 48/47/48 42/35/36 80/78/80 63/62/63
f 95/123/81 50/125/50 49/126/49 78/119/78
f 82/112/82 52/114/52 51/117/51 53/118/53
f 83/122/83 53/118/53 93/124/84
f 50/125/50 84/131/85 56/134/56 54/135/54
f 86/100/86 59/101/60 87/95/87
f 85/97/88 58/92/57 88/99/89
f 91/87/90 79/88/79 96/89/91
f 94/106/92 72/109/71 75/110/75
f 82/112/82 73/113/73 52/114/52
f 89/130/93 93/124/84 66/132/66 65/133/65
f 59/101/60 94/106/92 75/110/75 64/111/64
f 91/87/90 87/95/87 76/96/76 69/90/70
f 89/130/93 56/134/56 84/131/85
f 90/115/94 78/119/78 68/120/68 67/116/67
f 85/97/88 96/89/91 58/92/57
f 92/105/95 63/104/63 80/107/80 71/108/72
f 97/121/96 95/123/81 90/115/94
f 86/100/86 98/94/97 94/106/92
f 83/122/83 97/121/96 82/112/82
f 98/94/97 88/99/89 92/105/95
f 89/130/93 97/121/96 93/124/84
f 81/127/98 97/121/96 84/131/85
f 91/87/90 98/94/97 87/95/87
f 85/97/88 98/94/97 96/89/91
f 93/124/84 97/121/96 83/122/83
f 94/106/92 98/94/97 92/105/95
f 82/112/82 97/121/96 90/115/94
f 87/95/87 98/94/97 86/100/86
f 81/127/98 95/123/81 97/121/96
f 96/89/91 98/94/97 91/87/90
f 84/131/85 97/121/96 89/130/93
f 85/97/88 88/99/89 98/94/97
f 93/124/84 53/118/53 55/128/55 74/129/74
f 86/100/86 94/106/92 59/101/60
f 82/112/82 53/118/53 83/122/83
f 87/95/87 59/101/60 60/102/59 61/98/61
f 66/132/66 93/124/84 74/129/74
f 92/105/95 71/108/72 72/109/71 94/106/92
f 90/115/94 67/116/67 73/113/73 82/112/82
f 76/96/76 87/95/87 61/98/61
f 89/130/93 65/133/65 77/136/77 56/134/56
f 92/105/95 88/99/89 63/104/63
f 81/127/98 84/131/85 50/125/50
f 88/99/89 58/92/57 62/103/62 63/104/63
f 81/127/98 50/125/50 95/123/81
f 58/92/57 96/89/91 79/88/79 57/93/58
f 90/115/94 95/123/81 78/119/78
f 91/87/90 69/90/70 70/91/69 79/88/79
