# This file uses centimeters as units for non-parametric coordinates.

mtllib crate_lowpoly.mtl
g default
v -20.062307 -0.433561 8.550617
v 20.062307 -0.433561 8.550617
v -20.062307 26.482578 8.550617
v 20.062307 26.482578 8.550617
v -20.062307 26.482578 -31.574001
v 20.062307 26.482578 -31.574001
v -20.062307 -0.433561 -31.574001
v 20.062307 -0.433561 -31.574001
v -19.010107 26.482578 7.498417
v 19.010107 26.482578 7.498417
v 19.010107 26.482578 -30.521801
v -19.010107 26.482578 -30.521801
v -19.010107 3.558527 7.498417
v 19.010107 3.558527 7.498417
v 19.010107 3.558527 -30.521801
v -19.010107 3.558527 -30.521801
v -20.154615 -0.981146 25.850847
v 20.154615 -0.981146 25.850847
v -20.154615 -0.456545 26.702196
v 20.154615 -0.456545 26.702196
v -20.154615 33.860657 5.555954
v 20.154615 33.860657 5.555954
v -20.154615 33.336060 4.704605
v 20.154615 33.336060 4.704605
vt 0.732770 0.740984
vt 0.730920 0.490991
vt 0.754686 0.012455
vt 0.963756 0.012455
vt 0.762532 0.019794
vt 0.725526 0.232009
vt 0.725235 0.600953
vt 0.257795 0.620480
vt 0.958273 0.017937
vt 0.760168 0.017937
vt 0.250920 0.240503
vt 0.249502 0.008172
vt 0.018589 0.241921
vt 0.017171 0.009590
vt 0.729071 0.240998
vt 0.979064 0.239148
vt 0.734620 0.990977
vt 0.984613 0.989128
vt 0.503294 0.599773
vt 0.255823 0.986951
vt 0.503446 0.231794
vt 0.034862 0.985763
vt 0.036833 0.619292
vt 0.762532 0.214393
vt 0.957131 0.214393
vt 0.957131 0.019794
vt 0.963756 0.221525
vt 0.958273 0.216043
vt 0.754686 0.221525
vt 0.760168 0.216043
vt 0.720701 0.970577
vt 0.498062 0.966998
vt 0.259766 0.254009
vt 0.038804 0.252820
vt 0.481832 0.006754
vt 0.483250 0.239085
vt 0.980913 0.489141
vt 0.982763 0.739134
vt 0.649231 1.000000
vt 0.649231 0.000000
vt 0.670352 0.000000
vt 0.670352 1.000000
vt 0.145751 0.000000
vt 0.145751 1.000000
vt 0.078210 0.787972
vt 0.078210 0.000000
vt 0.094852 0.000000
vt 0.094852 0.787972
vt 0.124631 1.000000
vt 0.124631 0.000000
vt 0.041038 0.000000
vt 0.049970 0.726998
vt 0.031934 0.727220
vt 0.023003 0.000222
vt 0.056337 0.727173
vt 0.050606 0.000142
vt 0.068642 0.000000
vt 0.074373 0.727031
vn 0.000000 0.000000 1.000000
vn 0.000000 0.000000 1.000000
vn 0.000000 0.000000 1.000000
vn 0.000000 0.000000 1.000000
vn 0.000000 1.000000 0.000000
vn 0.000000 1.000000 0.000000
vn 0.000000 1.000000 0.000000
vn 0.000000 1.000000 0.000000
vn 0.000000 0.000000 -1.000000
vn 0.000000 0.000000 -1.000000
vn 0.000000 0.000000 -1.000000
vn 0.000000 0.000000 -1.000000
vn 0.000000 -1.000000 0.000000
vn 0.000000 -1.000000 0.000000
vn 0.000000 -1.000000 0.000000
vn 0.000000 -1.000000 0.000000
vn 1.000000 0.000000 0.000000
vn 1.000000 0.000000 0.000000
vn 1.000000 0.000000 0.000000
vn 1.000000 0.000000 0.000000
vn -1.000000 0.000000 0.000000
vn -1.000000 0.000000 0.000000
vn -1.000000 0.000000 0.000000
vn -1.000000 0.000000 0.000000
vn 0.000000 1.000000 -0.000000
vn 0.000000 1.000000 -0.000000
vn 0.000000 1.000000 -0.000000
vn 0.000000 1.000000 -0.000000
vn 0.000000 1.000000 0.000000
vn 0.000000 1.000000 0.000000
vn 0.000000 1.000000 0.000000
vn 0.000000 1.000000 0.000000
vn 0.000000 1.000000 0.000000
vn 0.000000 1.000000 0.000000
vn 0.000000 1.000000 0.000000
vn 0.000000 1.000000 0.000000
vn 0.000000 1.000000 0.000000
vn 0.000000 1.000000 0.000000
vn 0.000000 1.000000 0.000000
vn 0.000000 1.000000 0.000000
vn 0.000000 0.000000 -1.000000
vn 0.000000 0.000000 -1.000000
vn 0.000000 0.000000 -1.000000
vn 0.000000 0.000000 -1.000000
vn -1.000000 0.000000 0.000000
vn -1.000000 0.000000 0.000000
vn -1.000000 0.000000 0.000000
vn -1.000000 0.000000 0.000000
vn 0.000000 0.000000 1.000000
vn 0.000000 0.000000 1.000000
vn 0.000000 0.000000 1.000000
vn 0.000000 0.000000 1.000000
vn 1.000000 0.000000 0.000000
vn 1.000000 0.000000 0.000000
vn 1.000000 0.000000 0.000000
vn 1.000000 0.000000 0.000000
vn 0.000000 -0.851348 0.524601
vn 0.000000 -0.851348 0.524601
vn 0.000000 -0.851348 0.524601
vn 0.000000 -0.851348 0.524601
vn 0.000000 0.524601 0.851349
vn 0.000000 0.524601 0.851349
vn 0.000000 0.524601 0.851349
vn 0.000000 0.524601 0.851349
vn 0.000000 0.851351 -0.524596
vn 0.000000 0.851351 -0.524596
vn 0.000000 0.851351 -0.524596
vn 0.000000 0.851351 -0.524596
vn 0.000000 -0.524600 -0.851349
vn 0.000000 -0.524600 -0.851349
vn 0.000000 -0.524600 -0.851349
vn 0.000000 -0.524600 -0.851349
vn 1.000000 0.000000 0.000000
vn 1.000000 0.000000 0.000000
vn 1.000000 0.000000 0.000000
vn 1.000000 0.000000 0.000000
vn -1.000000 -0.000000 0.000000
vn -1.000000 -0.000000 0.000000
vn -1.000000 -0.000000 0.000000
vn -1.000000 -0.000000 0.000000
s off
g polySurface2
usemtl initialShadingGroup
f 1/1/1 2/2/2 4/37/3 3/38/4
f 13/5/5 14/26/6 15/25/7 16/24/8
f 5/35/9 6/36/10 8/11/11 7/12/12
f 7/12/13 8/11/14 2/13/15 1/14/16
f 2/2/17 8/15/18 6/16/19 4/37/20
f 7/17/21 1/1/22 3/38/23 5/18/24
f 3/3/25 4/4/26 10/9/27 9/10/28
f 4/4/29 6/27/30 11/28/31 10/9/32
f 6/27/33 5/29/34 12/30/35 11/28/36
f 5/29/37 3/3/38 9/10/39 12/30/40
f 9/8/41 10/20/42 14/22/43 13/23/44
f 10/6/45 11/7/46 15/19/47 14/21/48
f 11/7/49 12/31/50 16/32/51 15/19/52
f 12/33/53 9/8/54 13/23/55 16/34/56
f 17/39/57 18/40/58 20/41/59 19/42/60
f 19/42/61 20/41/62 22/43/63 21/44/64
f 21/45/65 22/46/66 24/47/67 23/48/68
f 23/49/69 24/50/70 18/40/71 17/39/72
f 18/51/73 24/52/74 22/53/75 20/54/76
f 23/55/77 17/56/78 19/57/79 21/58/80
