# This file uses centimeters as units for non-parametric coordinates.

mtllib plaza_low.mtl
g default
v 21.867228 -0.500000 22.845455
v 21.867228 0.500000 22.845455
v 21.867228 0.500000 -22.845455
v 21.867228 -0.500000 -22.845455
v 0.000001 -0.500000 30.897991
v 0.000001 -0.500000 -30.897991
v 0.000001 0.500000 -30.897991
v 0.000001 0.500000 30.897991
v 0.000001 0.500000 0.000000
v 30.897991 0.500000 0.000000
v 30.897991 -0.500000 0.000000
v 0.000001 -0.500000 0.000000
v -48.840611 -0.500000 -22.845455
v -57.871368 -0.500000 0.000000
v -57.871368 0.500000 0.000000
v -48.840611 0.500000 -22.845455
v -26.973383 -0.500000 -30.897991
v -26.973383 -0.500000 0.000000
v -26.973383 0.500000 -30.897991
v -26.973383 0.500000 0.000000
v -48.840611 -0.500000 22.845455
v -26.973383 -0.500000 30.897991
v -26.973383 0.500000 30.897991
v -48.840611 0.500000 22.845455
v 0.633922 0.110834 32.350300
v 0.633922 -0.110834 32.350300
v 23.528984 -0.110834 23.919270
v 23.528984 0.110834 23.919270
v 0.633922 -0.110834 -32.350300
v 0.633922 0.110834 -32.350300
v 23.528984 0.110834 -23.919270
v 23.528984 -0.110834 -23.919270
v 32.984222 0.110834 0.000000
v 32.984222 -0.110834 0.000000
v -50.502365 -0.110834 -23.919270
v -59.957600 -0.110834 0.000000
v -59.957600 0.110834 0.000000
v -50.502365 0.110834 -23.919270
v -27.607304 0.110834 -32.350300
v -27.607304 -0.110834 -32.350300
v -50.502365 -0.110834 23.919270
v -27.607304 -0.110834 32.350300
v -27.607304 0.110834 32.350300
v -50.502365 0.110834 23.919270
v -39.289425 -0.500000 -28.360594
v -40.502247 -0.110834 -29.693638
v -40.502247 0.110834 -29.693638
v -39.289425 0.500000 -28.360594
v -42.422379 0.500000 0.000000
v -39.289425 0.500000 28.360594
v -40.502247 0.110834 29.693638
v -40.502247 -0.110834 29.693638
v -39.289425 -0.500000 28.360594
v -42.422379 -0.500000 0.000000
v -13.486691 -0.500000 -31.560743
v -13.486691 -0.500000 0.000000
v -13.486691 -0.500000 31.560743
v -13.486691 -0.110834 33.044209
v -13.486691 0.110834 33.044209
v -13.486691 0.500000 31.560743
v -13.486691 0.500000 0.000000
v -13.486691 0.500000 -31.560743
v -13.486691 0.110834 -33.044209
v -13.486691 -0.110834 -33.044209
v 12.316045 -0.500000 28.360594
v 15.448997 -0.500000 0.000000
v 12.316045 -0.500000 -28.360594
v 13.528863 -0.110834 -29.693638
v 13.528863 0.110834 -29.693638
v 12.316045 0.500000 -28.360594
v 15.448997 0.500000 0.000000
v 12.316045 0.500000 28.360594
v 13.528863 0.110834 29.693638
v 13.528863 -0.110834 29.693638
v 29.553173 0.500000 12.316045
v 31.576191 0.110834 12.894940
v 31.576191 -0.110834 12.894940
v 29.553173 -0.500000 12.316045
v 13.882521 -0.500000 14.180297
v 0.000001 -0.500000 15.448996
v -13.486691 -0.500000 15.780372
v -26.973383 -0.500000 15.448996
v -40.855904 -0.500000 14.180297
v -56.526550 -0.500000 12.316045
v -58.549564 -0.110834 12.894940
v -58.549564 0.110834 12.894940
v -56.526550 0.500000 12.316045
v -40.855904 0.500000 14.180297
v -26.973383 0.500000 15.448996
v -13.486691 0.500000 15.780372
v 0.000001 0.500000 15.448996
v 13.882521 0.500000 14.180297
v 29.553173 -0.500000 -12.316045
v 31.576191 -0.110834 -12.894940
v 31.576191 0.110834 -12.894940
v 29.553173 0.500000 -12.316045
v 13.882521 0.500000 -14.180297
v 0.000001 0.500000 -15.448996
v -13.486691 0.500000 -15.780372
v -26.973383 0.500000 -15.448996
v -40.855904 0.500000 -14.180297
v -56.526550 0.500000 -12.316045
v -58.549564 0.110834 -12.894940
v -58.549564 -0.110834 -12.894940
v -56.526550 -0.500000 -12.316045
v -40.855904 -0.500000 -14.180297
v -26.973383 -0.500000 -15.448996
v -13.486691 -0.500000 -15.780372
v 0.000001 -0.500000 -15.448996
v 13.882521 -0.500000 -14.180297
vt 0.674086 0.059664
vt 0.674086 0.059664
vt 0.749236 0.103553
vt 0.779052 0.610715
vt 0.829030 0.845586
vt 0.699022 0.857670
vt 0.712018 0.765756
vt 0.840188 0.765756
vt 0.674086 0.511045
vt 0.696088 0.958225
vt 0.779052 0.920797
vt 0.749236 0.467156
vt 0.804613 0.285354
vt 0.688516 0.285354
vt 0.676744 0.393133
vt 0.794507 0.378964
vt 0.857496 0.765756
vt 0.820291 0.285354
vt 0.809710 0.383364
vt 0.845814 0.849339
vt 0.132428 0.383364
vt 0.132428 0.383364
vt 0.121846 0.285354
vt 0.121846 0.285354
vt 0.253621 0.285354
vt 0.265393 0.393133
vt 0.369718 0.402776
vt 0.369718 0.285354
vt 0.268051 0.511045
vt 0.247829 0.958225
vt 0.354809 0.975445
vt 0.364954 0.531237
vt 0.360069 0.865894
vt 0.244895 0.857670
vt 0.231899 0.765756
vt 0.360069 0.765756
vt 0.268051 0.059664
vt 0.268051 0.059664
vt 0.364954 0.039472
vt 0.364954 0.039472
vt 0.244895 0.673841
vt 0.360069 0.665618
vt 0.699022 0.673841
vt 0.829030 0.685925
vt 0.809710 0.187345
vt 0.809710 0.187345
vt 0.794507 0.191745
vt 0.676744 0.177575
vt 0.369718 0.167932
vt 0.265393 0.177575
vt 0.132428 0.187345
vt 0.098103 0.682173
vt 0.471069 0.405295
vt 0.471069 0.285354
vt 0.471069 0.536511
vt 0.471069 0.536511
vt 0.471958 0.765756
vt 0.471958 0.868042
vt 0.471069 0.034198
vt 0.471958 0.551569
vt 0.471958 0.663470
vt 0.471069 0.165414
vt 0.664972 0.069796
vt 0.736748 0.111715
vt 0.765266 0.617675
vt 0.686026 0.581927
vt 0.686026 0.949585
vt 0.765266 0.913836
vt 0.736748 0.458994
vt 0.664972 0.500913
vt 0.147630 0.378964
vt 0.137524 0.285354
vt 0.103729 0.765756
vt 0.114886 0.845586
vt 0.257891 0.949585
vt 0.360069 0.966032
vt 0.369718 0.520198
vt 0.277165 0.500913
vt 0.277165 0.069796
vt 0.369718 0.050510
vt 0.360069 0.565480
vt 0.257891 0.581927
vt 0.147630 0.191745
vt 0.114886 0.685925
vt 0.471069 0.525236
vt 0.471958 0.970328
vt 0.471958 0.561184
vt 0.471069 0.045473
vt 0.205389 0.458994
vt 0.192901 0.467156
vt 0.192901 0.467156
vt 0.178651 0.913836
vt 0.178651 0.617675
vt 0.164865 0.610715
vt 0.192901 0.103553
vt 0.205389 0.111715
vt 0.572419 0.402776
vt 0.572419 0.285354
vt 0.572419 0.167932
vt 0.572419 0.050510
vt 0.577183 0.039472
vt 0.589107 0.556066
vt 0.583848 0.565480
vt 0.583848 0.665618
vt 0.583848 0.765756
vt 0.583848 0.865894
vt 0.583848 0.966032
vt 0.577183 0.531237
vt 0.577183 0.531237
vt 0.572419 0.520198
vt 0.098103 0.849339
vt 0.164865 0.920797
vt 0.809710 0.383364
vt 0.749236 0.467156
vt 0.132428 0.187345
vt 0.086421 0.765756
vt 0.845814 0.682173
vt 0.820291 0.285354
vt 0.696088 0.573286
vt 0.749236 0.103553
vt 0.674086 0.511045
vt 0.471958 0.979943
vt 0.364954 0.531237
vt 0.471069 0.034198
vt 0.354809 0.556066
vt 0.247829 0.573286
vt 0.268051 0.511045
vt 0.577183 0.039472
vt 0.589107 0.975445
vt 0.192901 0.103553
vn 0.345561 0.000000 0.938396
vn 0.345561 0.000000 0.938396
vn 0.500052 0.000000 0.865996
vn 0.500052 0.000000 0.865996
vn 0.000000 1.000000 -0.000000
vn 0.000000 1.000000 -0.000000
vn 0.000000 1.000000 0.000000
vn 0.000000 1.000000 0.000000
vn 0.345561 0.000000 -0.938396
vn 0.345561 0.000000 -0.938396
vn 0.500052 0.000000 -0.865996
vn 0.500052 0.000000 -0.865996
vn 0.000000 -1.000000 0.000000
vn 0.000000 -1.000000 0.000000
vn 0.000000 -1.000000 -0.000000
vn 0.000000 -1.000000 -0.000000
vn 1.000000 0.000000 0.000000
vn 1.000000 0.000000 0.000000
vn 0.929977 0.000000 -0.367618
vn 0.929977 0.000000 -0.367618
vn -0.929977 0.000000 -0.367618
vn -0.929977 0.000000 -0.367618
vn -1.000000 0.000000 0.000000
vn -1.000000 0.000000 0.000000
vn 0.000000 -1.000000 0.000000
vn 0.000000 -1.000000 0.000000
vn 0.000000 -1.000000 0.000000
vn 0.000000 -1.000000 0.000000
vn -0.345561 0.000000 -0.938396
vn -0.345561 0.000000 -0.938396
vn -0.201786 0.000000 -0.979430
vn -0.201786 0.000000 -0.979430
vn 0.000000 1.000000 0.000000
vn 0.000000 1.000000 0.000000
vn 0.000000 1.000000 0.000000
vn 0.000000 1.000000 0.000000
vn -0.345561 0.000000 0.938396
vn -0.345561 0.000000 0.938396
vn -0.201786 0.000000 0.979430
vn -0.201786 0.000000 0.979430
vn 0.000000 1.000000 0.000000
vn 0.000000 1.000000 0.000000
vn 0.000000 1.000000 0.000000
vn 0.000000 1.000000 0.000000
vn 0.929977 0.000000 0.367618
vn 0.929977 0.000000 0.367618
vn 0.000000 -1.000000 0.000000
vn 0.000000 -1.000000 0.000000
vn 0.000000 -1.000000 0.000000
vn 0.000000 -1.000000 0.000000
vn -0.929977 0.000000 0.367618
vn -0.929977 0.000000 0.367618
vn 0.000000 -1.000000 0.000000
vn 0.000000 -1.000000 0.000000
vn 0.000000 -1.000000 0.000000
vn 0.000000 -1.000000 0.000000
vn 0.000000 0.000000 -1.000000
vn 0.000000 0.000000 -1.000000
vn -0.049082 0.000000 -0.998795
vn -0.049082 0.000000 -0.998795
vn 0.000000 1.000000 0.000000
vn 0.000000 1.000000 0.000000
vn 0.000000 1.000000 0.000000
vn 0.000000 1.000000 0.000000
vn 0.000000 0.000000 1.000000
vn 0.000000 0.000000 1.000000
vn -0.049082 0.000000 0.998795
vn -0.049082 0.000000 0.998795
vn 0.000000 1.000000 0.000000
vn 0.000000 1.000000 0.000000
vn 0.000000 1.000000 0.000000
vn 0.000000 1.000000 0.000000
vn 0.000000 -1.000000 0.000000
vn 0.000000 -1.000000 0.000000
vn 0.000000 -1.000000 0.000000
vn 0.000000 -1.000000 0.000000
vn 0.086034 -0.974704 0.206279
vn 0.072201 -0.973180 0.218420
vn 0.107911 -0.976438 0.186881
vn 0.107911 -0.976438 0.186881
vn 0.107911 0.976438 0.186881
vn 0.072201 0.973180 0.218420
vn 0.086034 0.974704 0.206279
vn 0.107911 0.976438 0.186881
vn 0.086034 0.974704 -0.206279
vn 0.072201 0.973180 -0.218420
vn 0.107911 0.976438 -0.186881
vn 0.107911 0.976438 -0.186881
vn 0.107911 -0.976438 -0.186881
vn 0.072201 -0.973180 -0.218420
vn 0.086034 -0.974704 -0.206279
vn 0.107911 -0.976438 -0.186881
vn 0.183341 -0.982846 -0.020019
vn 0.169245 -0.983123 -0.069464
vn 0.170836 -0.983221 -0.063969
vn 0.183341 -0.982846 -0.020019
vn 0.170836 0.983221 -0.063969
vn 0.169245 0.983123 -0.069464
vn 0.183341 0.982846 -0.020019
vn 0.183341 0.982846 -0.020019
vn -0.170836 -0.983221 -0.063969
vn -0.169245 -0.983123 -0.069464
vn -0.183341 -0.982846 -0.020019
vn -0.183341 -0.982846 -0.020019
vn -0.183341 0.982846 -0.020019
vn -0.169245 0.983123 -0.069464
vn -0.170836 0.983221 -0.063969
vn -0.183341 0.982846 -0.020019
vn -0.086034 0.974704 -0.206279
vn -0.072200 0.973180 -0.218420
vn -0.049128 0.969910 -0.238457
vn -0.049128 0.969910 -0.238457
vn -0.049128 -0.969910 -0.238457
vn -0.072200 -0.973180 -0.218420
vn -0.086034 -0.974704 -0.206279
vn -0.049128 -0.969910 -0.238457
vn -0.086034 -0.974704 0.206279
vn -0.072200 -0.973180 0.218420
vn -0.049128 -0.969910 0.238457
vn -0.049128 -0.969910 0.238457
vn -0.049128 0.969910 0.238457
vn -0.072200 0.973180 0.218420
vn -0.086034 0.974704 0.206279
vn -0.049128 0.969910 0.238457
vn 0.170836 -0.983221 0.063969
vn 0.169245 -0.983123 0.069464
vn 0.183341 -0.982846 0.020019
vn 0.183341 -0.982846 0.020019
vn 0.183341 0.982846 0.020019
vn 0.169245 0.983123 0.069464
vn 0.170836 0.983221 0.063969
vn 0.183341 0.982846 0.020019
vn -0.183341 -0.982846 0.020019
vn -0.169245 -0.983123 0.069464
vn -0.170836 -0.983221 0.063969
vn -0.183341 -0.982846 0.020019
vn -0.170836 0.983221 0.063969
vn -0.169245 0.983123 0.069464
vn -0.183341 0.982846 0.020019
vn -0.183341 0.982846 0.020019
vn 0.000000 -0.967270 -0.253750
vn 0.000000 -0.967270 -0.253750
vn -0.012469 -0.967195 -0.253730
vn -0.012469 -0.967195 -0.253730
vn -0.012469 0.967195 -0.253730
vn 0.000000 0.967270 -0.253750
vn 0.000000 0.967270 -0.253750
vn -0.012469 0.967195 -0.253730
vn 0.000000 0.967270 0.253750
vn 0.000000 0.967270 0.253750
vn -0.012469 0.967195 0.253730
vn -0.012469 0.967195 0.253730
vn -0.012469 -0.967195 0.253730
vn 0.000000 -0.967270 0.253750
vn 0.000000 -0.967270 0.253750
vn -0.012469 -0.967195 0.253730
vn -0.107911 -0.976438 -0.186881
vn -0.107911 -0.976438 -0.186881
vn -0.500052 0.000000 -0.865996
vn -0.500052 0.000000 -0.865996
vn -0.107911 0.976438 -0.186881
vn -0.107911 0.976438 -0.186881
vn 0.000000 1.000000 0.000000
vn 0.000000 1.000000 0.000000
vn 0.000000 1.000000 0.000000
vn -0.107911 0.976438 0.186881
vn -0.107911 0.976438 0.186881
vn -0.500052 0.000000 0.865996
vn -0.500052 0.000000 0.865996
vn -0.107911 -0.976438 0.186881
vn -0.107911 -0.976438 0.186881
vn 0.000000 -1.000000 0.000000
vn 0.000000 -1.000000 0.000000
vn 0.000000 -1.000000 0.000000
vn 0.000000 -1.000000 0.000000
vn 0.000000 -1.000000 0.000000
vn 0.000000 -1.000000 0.000000
vn 0.000000 -1.000000 0.000000
vn 0.012469 -0.967195 0.253730
vn 0.012469 -0.967195 0.253730
vn 0.049082 0.000000 0.998795
vn 0.049082 0.000000 0.998795
vn 0.012469 0.967195 0.253730
vn 0.012469 0.967195 0.253730
vn 0.000000 1.000000 0.000000
vn 0.000000 1.000000 0.000000
vn 0.000000 1.000000 0.000000
vn 0.000000 1.000000 0.000000
vn 0.012469 0.967195 -0.253730
vn 0.012469 0.967195 -0.253730
vn 0.049082 0.000000 -0.998795
vn 0.049082 0.000000 -0.998795
vn 0.012469 -0.967195 -0.253730
vn 0.012469 -0.967195 -0.253730
vn 0.000000 -1.000000 0.000000
vn 0.000000 -1.000000 0.000000
vn 0.000000 -1.000000 0.000000
vn 0.049128 -0.969910 -0.238457
vn 0.049128 -0.969910 -0.238457
vn 0.201786 0.000000 -0.979430
vn 0.201786 0.000000 -0.979430
vn 0.049128 0.969910 -0.238457
vn 0.049128 0.969910 -0.238457
vn 0.000000 1.000000 0.000000
vn 0.000000 1.000000 0.000000
vn 0.000000 1.000000 0.000000
vn 0.049128 0.969910 0.238457
vn 0.049128 0.969910 0.238457
vn 0.201786 0.000000 0.979430
vn 0.201786 0.000000 0.979430
vn 0.049128 -0.969910 0.238457
vn 0.049128 -0.969910 0.238457
vn 0.156129 0.981140 0.113966
vn 0.156129 0.981140 0.113966
vn 0.807706 0.000000 0.589585
vn 0.807706 0.000000 0.589585
vn 0.156129 -0.981140 0.113966
vn 0.156129 -0.981140 0.113966
vn 0.000000 -1.000000 0.000000
vn 0.000000 -1.000000 0.000000
vn 0.000000 -1.000000 0.000000
vn 0.000000 -1.000000 0.000000
vn 0.000000 -1.000000 0.000000
vn 0.000000 -1.000000 0.000000
vn 0.000000 -1.000000 0.000000
vn 0.000000 -1.000000 0.000000
vn 0.000000 -1.000000 0.000000
vn -0.156129 -0.981140 0.113966
vn -0.156129 -0.981140 0.113966
vn -0.807707 0.000000 0.589585
vn -0.807707 0.000000 0.589585
vn -0.156129 0.981140 0.113966
vn -0.156129 0.981140 0.113966
vn 0.000000 1.000000 0.000000
vn 0.000000 1.000000 0.000000
vn 0.000000 1.000000 0.000000
vn 0.000000 1.000000 0.000000
vn 0.000000 1.000000 0.000000
vn 0.000000 1.000000 0.000000
vn 0.000000 1.000000 0.000000
vn 0.000000 1.000000 0.000000
vn 0.000000 1.000000 0.000000
vn 0.156129 -0.981140 -0.113966
vn 0.156129 -0.981140 -0.113966
vn 0.807706 0.000000 -0.589585
vn 0.807706 0.000000 -0.589585
vn 0.156129 0.981140 -0.113966
vn 0.156129 0.981140 -0.113966
vn 0.000000 1.000000 -0.000000
vn 0.000000 1.000000 -0.000000
vn 0.000000 1.000000 0.000000
vn 0.000000 1.000000 0.000000
vn 0.000000 1.000000 0.000000
vn 0.000000 1.000000 0.000000
vn 0.000000 1.000000 0.000000
vn 0.000000 1.000000 0.000000
vn 0.000000 1.000000 0.000000
vn -0.156129 0.981140 -0.113966
vn -0.156129 0.981140 -0.113966
vn -0.807707 0.000000 -0.589585
vn -0.807707 0.000000 -0.589585
vn -0.156129 -0.981140 -0.113966
vn -0.156129 -0.981140 -0.113966
vn 0.000000 -1.000000 0.000000
vn 0.000000 -1.000000 0.000000
vn 0.000000 -1.000000 0.000000
vn 0.000000 -1.000000 0.000000
vn 0.000000 -1.000000 0.000000
vn 0.000000 -1.000000 0.000000
vn 0.000000 -1.000000 -0.000000
vn 0.000000 -1.000000 0.000000
vn 0.000000 -1.000000 -0.000000
s 1
g pCube1
usemtl initialShadingGroup
f 73/1/1 74/2/2 27/3/3 28/120/4
s 2
f 96/5/5 97/6/6 71/7/7 10/8/8
s 3
f 68/9/9 69/121/10 31/114/11 32/12/12
s 4
f 11/13/13 66/14/14 110/15/15 93/16/16
s 5
f 33/118/17 34/18/18 94/19/19 95/113/20
s 6
f 103/21/21 104/22/22 36/23/23 37/24/24
s 7
f 54/25/25 106/26/26 107/27/27 18/28/28
s 8
f 46/29/29 47/127/30 39/123/31 40/32/32
s 9
f 100/33/33 101/34/34 49/35/35 20/36/36
s 10
f 51/37/37 52/38/38 42/39/39 43/40/40
s 9
f 49/35/35 88/41/41 89/42/42 20/36/36
s 2
f 10/8/8 71/7/7 92/43/43 75/44/44
s 5
f 76/45/45 77/46/46 34/18/18 33/118/17
s 4
f 78/47/47 79/48/48 66/14/14 11/13/13
s 7
f 82/49/49 83/50/50 54/25/25 18/28/28
s 6
f 37/24/24 36/23/23 85/51/51 86/115/52
s 11
f 107/27/53 108/53/54 56/54/55 18/28/56
s 12
f 63/55/57 64/56/58 40/32/59 39/123/60
s 13
f 61/57/61 99/58/62 100/33/63 20/36/64
s 14
f 58/59/65 59/124/66 43/40/67 42/39/68
s 15
f 89/42/69 90/61/70 61/57/71 20/36/72
s 16
f 56/54/73 81/62/74 82/49/75 18/28/76
s 17
f 74/2/77 65/63/78 1/64/79 27/3/80
s 18
f 2/65/81 72/66/82 73/119/83 28/4/84
s 19
f 69/10/85 70/67/86 3/68/87 31/11/88
s 20
f 4/69/89 67/70/90 68/9/91 32/12/92
s 21
f 11/13/93 93/16/94 94/19/95 34/18/96
s 22
f 95/20/97 96/5/98 10/8/99 33/17/100
s 23
f 104/22/101 105/71/102 14/72/103 36/23/104
s 24
f 15/73/105 102/74/106 103/111/107 37/116/108
s 25
f 47/30/109 48/75/110 19/76/111 39/31/112
s 26
f 17/77/113 45/78/114 46/29/115 40/32/116
s 27
f 52/38/117 53/79/118 22/80/119 42/39/120
s 28
f 23/81/121 50/82/122 51/126/123 43/125/124
s 29
f 77/46/125 78/47/126 11/13/127 34/18/128
s 30
f 10/8/129 75/44/130 76/117/131 33/17/132
s 31
f 14/72/133 84/83/134 85/51/135 36/23/136
s 32
f 86/52/137 87/84/138 15/73/139 37/116/140
s 33
f 64/56/141 55/85/142 17/77/143 40/32/144
s 34
f 19/76/145 62/86/146 63/122/147 39/31/148
s 35
f 59/60/149 60/87/150 23/81/151 43/125/152
s 36
f 22/80/153 57/88/154 58/59/155 42/39/156
s 26
f 46/29/115 45/78/114 13/89/157 35/90/158
s 8
f 38/91/159 47/127/30 46/29/29 35/90/160
s 25
f 16/92/161 48/75/110 47/30/109 38/112/162
s 9
f 15/73/163 49/35/35 101/34/34 102/74/164
f 87/84/165 88/41/41 49/35/35 15/73/163
s 28
f 51/126/123 50/82/122 24/93/166 44/94/167
s 10
f 41/95/168 52/38/38 51/37/37 44/130/169
s 27
f 21/96/170 53/79/118 52/38/117 41/95/171
s 7
f 14/72/172 54/25/25 83/50/50 84/83/173
f 105/71/174 106/26/26 54/25/25 14/72/172
s 11
f 108/53/54 109/97/175 12/98/176 56/54/55
s 16
f 12/98/177 80/99/178 81/62/74 56/54/73
s 36
f 58/59/155 57/88/154 5/100/179 26/101/180
s 14
f 26/101/181 25/128/182 59/124/66 58/59/65
s 35
f 8/103/183 60/87/150 59/60/149 25/102/184
s 15
f 90/61/70 91/104/185 9/105/186 61/57/71
s 13
f 9/105/187 98/106/188 99/58/62 61/57/61
s 34
f 63/122/147 62/86/146 7/107/189 30/129/190
s 12
f 30/108/191 29/109/192 64/56/58 63/55/57
s 33
f 6/110/193 55/85/142 64/56/141 29/109/194
s 4
f 79/48/48 80/99/195 12/98/196 66/14/14
f 109/97/197 110/15/15 66/14/14 12/98/196
s 20
f 68/9/91 67/70/90 6/110/198 29/109/199
s 3
f 29/109/200 30/108/201 69/121/10 68/9/9
s 19
f 7/107/202 70/67/86 69/10/85 30/129/203
s 2
f 97/6/6 98/106/204 9/105/205 71/7/7
f 91/104/206 92/43/43 71/7/7 9/105/205
s 18
f 73/119/83 72/66/82 8/103/207 25/102/208
s 1
f 25/128/209 26/101/210 74/2/2 73/1/1
s 17
f 5/100/211 65/63/78 74/2/77 26/101/212
s 30
f 76/117/131 75/44/130 2/65/213 28/4/214
s 5
f 27/3/215 77/46/46 76/45/45 28/120/216
s 29
f 1/64/217 78/47/126 77/46/125 27/3/218
s 4
f 65/63/219 79/48/48 78/47/47 1/64/220
f 5/100/221 80/99/195 79/48/48 65/63/219
s 16
f 81/62/74 80/99/178 5/100/222 57/88/223
f 82/49/75 81/62/74 57/88/223 22/80/224
s 7
f 53/79/225 83/50/50 82/49/49 22/80/226
f 84/83/173 83/50/50 53/79/225 21/96/227
s 31
f 85/51/135 84/83/134 21/96/228 41/95/229
s 6
f 86/115/52 85/51/51 41/95/230 44/130/231
s 32
f 24/93/232 87/84/138 86/52/137 44/94/233
s 9
f 24/93/234 50/82/235 88/41/41 87/84/165
f 89/42/42 88/41/41 50/82/235 23/81/236
s 15
f 60/87/237 90/61/70 89/42/69 23/81/238
f 8/103/239 91/104/185 90/61/70 60/87/237
s 2
f 72/66/240 92/43/43 91/104/206 8/103/241
f 75/44/44 92/43/43 72/66/240 2/65/242
s 21
f 94/19/95 93/16/94 4/69/243 32/12/244
s 5
f 95/113/20 94/19/19 32/12/245 31/114/246
s 22
f 3/68/247 96/5/98 95/20/97 31/11/248
s 2
f 70/67/249 97/6/6 96/5/5 3/68/250
f 7/107/251 98/106/204 97/6/6 70/67/249
s 13
f 99/58/62 98/106/188 7/107/252 62/86/253
f 100/33/63 99/58/62 62/86/253 19/76/254
s 9
f 48/75/255 101/34/34 100/33/33 19/76/256
f 102/74/164 101/34/34 48/75/255 16/92/257
s 24
f 103/111/107 102/74/106 16/92/258 38/112/259
s 6
f 35/90/260 104/22/22 103/21/21 38/91/261
s 23
f 13/89/262 105/71/102 104/22/101 35/90/263
s 7
f 13/89/264 45/78/265 106/26/26 105/71/174
f 107/27/27 106/26/26 45/78/265 17/77/266
s 11
f 55/85/267 108/53/54 107/27/53 17/77/268
f 6/110/269 109/97/175 108/53/54 55/85/267
s 4
f 67/70/270 110/15/15 109/97/197 6/110/271
f 93/16/16 110/15/15 67/70/270 4/69/272
