# This file uses centimeters as units for non-parametric coordinates.

mtllib ramp.mtl
g default
v -14.262068 -15.827327 20.641787
v 14.262068 -15.827327 20.641787
v -14.262068 -15.022207 21.234903
v 14.262068 -15.022207 21.234903
v -14.262068 10.297464 -28.369457
v 14.262068 10.297464 -28.369457
v -14.262068 9.492345 -28.962574
v 14.262068 9.492345 -28.962574
v -13.091105 -16.224173 21.645519
v 13.091105 -16.224173 21.645519
v 13.091105 -15.863186 21.911453
v -13.091105 -15.863186 21.911453
v -13.470883 10.397300 -29.557793
v 13.470883 10.397300 -29.557793
v 13.470883 9.842339 -29.587326
v -13.470883 9.842339 -29.587326
v -12.885993 10.286533 -30.916416
v 12.885993 10.286533 -30.916416
v 12.885993 9.842943 -30.914785
v -12.885993 9.842943 -30.914785
v -15.094720 -18.212351 21.895512
v -13.502711 -18.212351 21.895512
v -15.094720 -11.991168 21.878487
v -13.502711 -11.991168 21.878487
v -15.094720 -11.974136 20.286415
v -13.502711 -11.974136 20.286415
v -15.094720 -18.195318 20.303440
v -13.502711 -18.195318 20.303440
v 13.336902 -18.212351 21.895512
v 14.928910 -18.212351 21.895512
v 13.336902 -11.991168 21.878487
v 14.928910 -11.991168 21.878487
v 13.336902 -11.974136 20.286415
v 14.928910 -11.974136 20.286415
v 13.336902 -18.195318 20.303440
v 14.928910 -18.195318 20.303440
v 13.336902 7.590726 -28.366283
v 14.928910 7.590726 -28.366283
v 13.336902 13.811909 -28.383308
v 14.928910 13.811909 -28.383308
v 13.336902 13.828939 -29.975380
v 14.928910 13.828939 -29.975380
v 13.336902 7.607758 -29.958355
v 14.928910 7.607758 -29.958355
v -15.094720 7.590726 -28.366283
v -13.502711 7.590726 -28.366283
v -15.094720 13.811909 -28.383308
v -13.502711 13.811909 -28.383308
v -15.094720 13.828939 -29.975380
v -13.502711 13.828939 -29.975380
v -15.094720 7.607758 -29.958355
v -13.502711 7.607758 -29.958355
vt 0.047419 0.954636
vt 0.333499 0.949605
vt 0.332755 0.954688
vt 0.046675 0.959719
vt 0.337178 0.949682
vt 0.338384 0.952270
vt 0.041576 0.957541
vt 0.041909 0.955262
vt 0.343198 0.946478
vt 0.344277 0.948485
vt 0.373156 0.923232
vt 0.024562 0.926093
vt 0.023496 0.919925
vt 0.372090 0.917064
vt 0.017832 0.925504
vt 0.017353 0.922739
vt 0.379022 0.919833
vt 0.377634 0.923022
vt 0.386318 0.924257
vt 0.385067 0.926736
vt 0.000000 0.008251
vt 0.347859 0.008251
vt 0.347859 0.613189
vt 0.000000 0.613189
vt 0.014280 0.000000
vt 0.333579 0.000000
vt 0.338210 0.627681
vt 0.009649 0.627681
vt 0.331078 0.644249
vt 0.016782 0.644249
vt 0.350486 0.023795
vt 0.698158 0.023795
vt 0.698158 0.628409
vt 0.350486 0.628409
vt 0.360129 0.016180
vt 0.688515 0.016180
vt 0.683886 0.640643
vt 0.364758 0.640643
vt 0.367258 0.000000
vt 0.681386 0.000000
vt 0.683886 0.643884
vt 0.364758 0.643884
vt 0.853356 0.296574
vt 0.853356 0.000000
vt 0.858461 0.000000
vt 0.858461 0.296574
vt 0.944787 0.000000
vt 0.963107 0.000000
vt 0.963107 0.071591
vt 0.944787 0.071591
vt 0.923453 0.071786
vt 0.941774 0.071786
vt 0.941774 0.090108
vt 0.923453 0.090108
vt 0.798498 0.071786
vt 0.816818 0.071786
vt 0.816818 0.143377
vt 0.798498 0.143377
vt 0.880786 0.071786
vt 0.899106 0.071786
vt 0.899106 0.090108
vt 0.880786 0.090108
vt 0.923453 0.000000
vt 0.941774 0.000196
vt 0.941970 0.071786
vt 0.923649 0.071590
vt 0.783455 0.000196
vt 0.801776 0.000000
vt 0.801580 0.071590
vt 0.783259 0.071786
vt 0.966121 0.000000
vt 0.984441 0.000000
vt 0.984441 0.071591
vt 0.966121 0.071591
vt 0.944787 0.071591
vt 0.963108 0.071591
vt 0.963108 0.089912
vt 0.944787 0.089912
vt 0.859452 0.071786
vt 0.877772 0.071786
vt 0.877772 0.143377
vt 0.859452 0.143377
vt 0.902120 0.071786
vt 0.920440 0.071786
vt 0.920440 0.090108
vt 0.902120 0.090108
vt 0.902120 0.000000
vt 0.920440 0.000196
vt 0.920636 0.071786
vt 0.902315 0.071590
vt 0.804789 0.000196
vt 0.823110 0.000000
vt 0.822914 0.071590
vt 0.804593 0.071786
vt 0.700971 0.065383
vt 0.719291 0.065383
vt 0.719291 0.136973
vt 0.700971 0.136973
vt 0.923453 0.090108
vt 0.941774 0.090108
vt 0.941774 0.108429
vt 0.923453 0.108429
vt 0.825927 0.000000
vt 0.844247 0.000000
vt 0.844247 0.071591
vt 0.825927 0.071591
vt 0.966121 0.071591
vt 0.984442 0.071591
vt 0.984442 0.089912
vt 0.966121 0.089912
vt 0.761925 0.000000
vt 0.780246 0.000196
vt 0.780442 0.071787
vt 0.762121 0.071591
vt 0.859648 0.000196
vt 0.877968 0.000000
vt 0.877772 0.071590
vt 0.859452 0.071786
vt 0.777164 0.071787
vt 0.795484 0.071787
vt 0.795484 0.143377
vt 0.777164 0.143377
vt 0.902120 0.090108
vt 0.920440 0.090108
vt 0.920440 0.108429
vt 0.902120 0.108429
vt 0.819832 0.071623
vt 0.838152 0.071623
vt 0.838152 0.143214
vt 0.819832 0.143214
vt 0.880786 0.090108
vt 0.899106 0.090108
vt 0.899106 0.108429
vt 0.880786 0.108429
vt 0.740591 0.000000
vt 0.758912 0.000196
vt 0.759108 0.071787
vt 0.740787 0.071591
vt 0.880982 0.000196
vt 0.899302 0.000000
vt 0.899106 0.071590
vt 0.880786 0.071786
vn 0.000000 -0.593118 0.805115
vn 0.000000 -0.593118 0.805115
vn 0.000000 -0.593118 0.805115
vn 0.000000 -0.593118 0.805115
vn 0.000000 0.889049 0.457813
vn 0.000000 0.889049 0.457813
vn 0.000000 0.892888 0.450278
vn 0.000000 0.892888 0.450278
vn 0.000000 -0.003676 -0.999993
vn 0.000000 -0.003676 -0.999993
vn 0.000000 -0.003676 -0.999993
vn 0.000000 -0.003676 -0.999993
vn 0.000000 -0.890577 -0.454832
vn 0.000000 -0.890577 -0.454832
vn 0.000000 -0.891058 -0.453890
vn 0.000000 -0.891058 -0.453890
vn 0.999924 -0.007291 0.009898
vn 0.999922 0.005190 -0.011336
vn 0.999976 0.002871 -0.006270
vn 0.999886 -0.008956 0.012158
vn -0.999922 0.005189 -0.011336
vn -0.999924 -0.007292 0.009898
vn -0.999886 -0.008957 0.012158
vn -0.999976 0.002870 -0.006270
vn 0.000000 -0.929954 -0.367676
vn 0.000000 -0.929954 -0.367676
vn 0.665304 -0.442804 0.601079
vn 0.665304 -0.442804 0.601079
vn 0.000000 0.626821 0.779163
vn 0.000000 0.626821 0.779163
vn -0.665303 -0.442805 0.601079
vn -0.665303 -0.442805 0.601079
vn 0.000000 0.996490 0.083718
vn 0.000000 0.996490 0.083718
vn 0.757452 0.271770 -0.593639
vn 0.757452 0.271770 -0.593639
vn 0.000000 -0.872427 -0.488744
vn 0.000000 -0.872427 -0.488744
vn -0.757452 0.271769 -0.593640
vn -0.757452 0.271769 -0.593640
vn 0.000000 0.996693 -0.081258
vn 0.000000 0.996693 -0.081258
vn 0.000000 0.996693 -0.081258
vn 0.000000 0.996693 -0.081258
vn 0.916605 0.011169 -0.399637
vn 0.916605 0.011169 -0.399637
vn 0.916606 0.011169 -0.399637
vn 0.916605 0.011169 -0.399637
vn 0.000000 -1.000000 -0.000456
vn 0.000000 -1.000000 -0.000456
vn 0.000000 -1.000000 -0.000456
vn 0.000000 -1.000000 -0.000456
vn -0.916605 0.011169 -0.399637
vn -0.916605 0.011169 -0.399637
vn -0.916605 0.011169 -0.399637
vn -0.916605 0.011169 -0.399637
vn 0.000000 0.002737 0.999996
vn 0.000000 0.002737 0.999996
vn 0.000000 0.002737 0.999996
vn 0.000000 0.002737 0.999996
vn 0.000000 0.999943 0.010697
vn 0.000000 0.999943 0.010697
vn 0.000000 0.999943 0.010697
vn 0.000000 0.999943 0.010697
vn 0.000000 -0.002737 -0.999996
vn 0.000000 -0.002737 -0.999996
vn 0.000000 -0.002737 -0.999996
vn 0.000000 -0.002737 -0.999996
vn 0.000000 -0.999943 -0.010698
vn 0.000000 -0.999943 -0.010698
vn 0.000000 -0.999943 -0.010698
vn 0.000000 -0.999943 -0.010698
vn 1.000000 0.000000 0.000000
vn 1.000000 0.000000 0.000000
vn 1.000000 0.000000 0.000000
vn 1.000000 0.000000 0.000000
vn -1.000000 0.000000 0.000000
vn -1.000000 0.000000 0.000000
vn -1.000000 0.000000 0.000000
vn -1.000000 0.000000 0.000000
vn 0.000000 0.002737 0.999996
vn 0.000000 0.002737 0.999996
vn 0.000000 0.002737 0.999996
vn 0.000000 0.002737 0.999996
vn 0.000000 0.999943 0.010697
vn 0.000000 0.999943 0.010697
vn 0.000000 0.999943 0.010697
vn 0.000000 0.999943 0.010697
vn 0.000000 -0.002737 -0.999996
vn 0.000000 -0.002737 -0.999996
vn 0.000000 -0.002737 -0.999996
vn 0.000000 -0.002737 -0.999996
vn 0.000000 -0.999943 -0.010698
vn 0.000000 -0.999943 -0.010698
vn 0.000000 -0.999943 -0.010698
vn 0.000000 -0.999943 -0.010698
vn 1.000000 -0.000000 0.000000
vn 1.000000 -0.000000 0.000000
vn 1.000000 -0.000000 0.000000
vn 1.000000 -0.000000 0.000000
vn -1.000000 -0.000000 0.000000
vn -1.000000 -0.000000 0.000000
vn -1.000000 -0.000000 0.000000
vn -1.000000 -0.000000 0.000000
vn 0.000000 0.002737 0.999996
vn 0.000000 0.002737 0.999996
vn 0.000000 0.002737 0.999996
vn 0.000000 0.002737 0.999996
vn 0.000000 0.999943 0.010697
vn 0.000000 0.999943 0.010697
vn 0.000000 0.999943 0.010697
vn 0.000000 0.999943 0.010697
vn 0.000000 -0.002737 -0.999996
vn 0.000000 -0.002737 -0.999996
vn 0.000000 -0.002737 -0.999996
vn 0.000000 -0.002737 -0.999996
vn 0.000000 -0.999943 -0.010697
vn 0.000000 -0.999943 -0.010697
vn 0.000000 -0.999943 -0.010697
vn 0.000000 -0.999943 -0.010697
vn 1.000000 -0.000000 0.000000
vn 1.000000 -0.000000 0.000000
vn 1.000000 -0.000000 0.000000
vn 1.000000 -0.000000 0.000000
vn -1.000000 -0.000000 0.000000
vn -1.000000 -0.000000 0.000000
vn -1.000000 -0.000000 0.000000
vn -1.000000 -0.000000 0.000000
vn 0.000000 0.002737 0.999996
vn 0.000000 0.002737 0.999996
vn 0.000000 0.002737 0.999996
vn 0.000000 0.002737 0.999996
vn 0.000000 0.999943 0.010697
vn 0.000000 0.999943 0.010697
vn 0.000000 0.999943 0.010697
vn 0.000000 0.999943 0.010697
vn 0.000000 -0.002737 -0.999996
vn 0.000000 -0.002737 -0.999996
vn 0.000000 -0.002737 -0.999996
vn 0.000000 -0.002737 -0.999996
vn 0.000000 -0.999943 -0.010697
vn 0.000000 -0.999943 -0.010697
vn 0.000000 -0.999943 -0.010697
vn 0.000000 -0.999943 -0.010697
vn 1.000000 0.000000 0.000000
vn 1.000000 0.000000 0.000000
vn 1.000000 0.000000 0.000000
vn 1.000000 0.000000 0.000000
vn -1.000000 0.000000 0.000000
vn -1.000000 0.000000 0.000000
vn -1.000000 0.000000 0.000000
vn -1.000000 0.000000 0.000000
s off
g polySurface5
usemtl initialShadingGroup
f 9/38/1 10/37/2 11/41/3 12/42/4
s 1
f 3/21/5 4/22/6 6/23/7 5/24/8
s off
f 17/43/9 18/44/10 19/45/11 20/46/12
s 2
f 7/31/13 8/32/14 2/33/15 1/34/16
s 3
f 2/1/17 8/2/18 6/3/19 4/4/20
s 4
f 7/11/21 1/12/22 3/13/23 5/14/24
s 2
f 1/34/16 2/33/15 10/37/25 9/38/26
s 3
f 2/1/17 4/4/20 11/7/27 10/8/28
s 1
f 4/22/6 3/21/5 12/25/29 11/26/30
s 4
f 3/13/23 1/12/22 9/15/31 12/16/32
s 1
f 5/24/8 6/23/7 14/27/33 13/28/34
s 3
f 6/3/19 8/2/18 15/5/35 14/6/36
s 2
f 8/32/14 7/31/13 16/35/37 15/36/38
s 4
f 7/11/21 5/14/24 13/17/39 16/18/40
s off
f 13/28/41 14/27/42 18/29/43 17/30/44
f 14/6/45 15/5/46 19/9/47 18/10/48
f 15/36/49 16/35/50 20/39/51 19/40/52
f 16/18/53 13/17/54 17/19/55 20/20/56
f 21/47/57 22/48/58 24/49/59 23/50/60
f 23/51/61 24/52/62 26/53/63 25/54/64
f 25/55/65 26/56/66 28/57/67 27/58/68
f 27/59/69 28/60/70 22/61/71 21/62/72
f 22/63/73 28/64/74 26/65/75 24/66/76
f 27/67/77 21/68/78 23/69/79 25/70/80
f 29/71/81 30/72/82 32/73/83 31/74/84
f 31/75/85 32/76/86 34/77/87 33/78/88
f 33/79/89 34/80/90 36/81/91 35/82/92
f 35/83/93 36/84/94 30/85/95 29/86/96
f 30/87/97 36/88/98 34/89/99 32/90/100
f 35/91/101 29/92/102 31/93/103 33/94/104
f 37/95/105 38/96/106 40/97/107 39/98/108
f 39/99/109 40/100/110 42/101/111 41/102/112
f 41/103/113 42/104/114 44/105/115 43/106/116
f 43/107/117 44/108/118 38/109/119 37/110/120
f 38/111/121 44/112/122 42/113/123 40/114/124
f 43/115/125 37/116/126 39/117/127 41/118/128
f 45/119/129 46/120/130 48/121/131 47/122/132
f 47/123/133 48/124/134 50/125/135 49/126/136
f 49/127/137 50/128/138 52/129/139 51/130/140
f 51/131/141 52/132/142 46/133/143 45/134/144
f 46/135/145 52/136/146 50/137/147 48/138/148
f 51/139/149 45/140/150 47/141/151 49/142/152
