# This file uses centimeters as units for non-parametric coordinates.

mtllib train_track.mtl
g default
v -16.480928 -0.041959 -4.997797
v 19.007448 -0.041959 -4.997797
v -16.480928 0.672558 -5.475375
v 19.007448 0.672558 -5.475375
v -16.480928 0.672558 -6.475375
v 19.007448 0.672558 -6.475375
v -16.480928 -0.041959 -6.952953
v 19.007448 -0.041959 -6.952953
v -12.008142 -0.381646 7.413716
v -10.064919 -0.381646 7.413716
v -12.008142 0.416829 7.413716
v -10.064919 0.416829 7.413716
v -12.008142 0.416829 -7.325845
v -10.064919 0.416829 -7.325845
v -12.008142 -0.381646 -7.325845
v -10.064919 -0.381646 -7.325845
v -11.573613 -0.289199 -4.658972
v -11.573613 0.152179 -4.658972
v -10.499448 0.152179 -4.658972
v -10.499448 -0.289199 -4.658972
v -11.573613 -0.289199 4.654648
v -11.573613 0.152179 4.654647
v -10.499448 0.152179 4.654647
v -10.499448 -0.289199 4.654648
v -5.039180 -0.381646 7.413716
v -3.095958 -0.381646 7.413716
v -5.039180 0.416829 7.413716
v -3.095958 0.416829 7.413716
v -5.039180 0.416829 -7.325845
v -3.095958 0.416829 -7.325845
v -5.039180 -0.381646 -7.325845
v -3.095958 -0.381646 -7.325845
v -4.604651 -0.289199 -4.658972
v -4.604651 0.152179 -4.658972
v -3.530486 0.152179 -4.658972
v -3.530486 -0.289199 -4.658972
v -4.604651 -0.289199 4.654648
v -4.604651 0.152179 4.654647
v -3.530486 0.152179 4.654647
v -3.530486 -0.289199 4.654648
v 9.040679 -0.381646 7.413716
v 10.983901 -0.381646 7.413716
v 9.040679 0.416829 7.413716
v 10.983901 0.416829 7.413716
v 9.040679 0.416829 -7.325845
v 10.983901 0.416829 -7.325845
v 9.040679 -0.381646 -7.325845
v 10.983901 -0.381646 -7.325845
v 9.475207 -0.289199 -4.658972
v 9.475207 0.152179 -4.658972
v 10.549373 0.152179 -4.658972
v 10.549373 -0.289199 -4.658972
v 9.475207 -0.289199 4.654648
v 9.475207 0.152179 4.654647
v 10.549373 0.152179 4.654647
v 10.549373 -0.289199 4.654648
v 15.936804 -0.381646 7.413716
v 17.880026 -0.381646 7.413716
v 15.936804 0.416829 7.413716
v 17.880026 0.416829 7.413716
v 15.936804 0.416829 -7.325845
v 17.880026 0.416829 -7.325845
v 15.936804 -0.381646 -7.325845
v 17.880026 -0.381646 -7.325845
v 16.371332 -0.289199 -4.658972
v 16.371332 0.152179 -4.658972
v 17.445498 0.152179 -4.658972
v 17.445498 -0.289199 -4.658972
v 16.371332 -0.289199 4.654648
v 16.371332 0.152179 4.654647
v 17.445498 0.152179 4.654647
v 17.445498 -0.289199 4.654648
v -16.480928 -0.041959 6.956754
v 19.007448 -0.041959 6.956754
v -16.480928 0.672558 6.479176
v 19.007448 0.672558 6.479176
v -16.480928 0.672558 5.479176
v 19.007448 0.672558 5.479176
v -16.480928 -0.041959 5.001597
v 19.007448 -0.041959 5.001597
v 1.908343 -0.381646 7.413716
v 3.851564 -0.381646 7.413716
v 1.908343 0.416829 7.413716
v 3.851564 0.416829 7.413716
v 1.908343 0.416829 -7.325845
v 3.851564 0.416829 -7.325845
v 1.908343 -0.381646 -7.325845
v 3.851564 -0.381646 -7.325845
v 2.342871 -0.289199 -4.658972
v 2.342871 0.152179 -4.658972
v 3.417037 0.152179 -4.658972
v 3.417037 -0.289199 -4.658972
v 2.342871 -0.289199 4.654648
v 2.342871 0.152179 4.654647
v 3.417037 0.152179 4.654647
v 3.417037 -0.289199 4.654648
vt 0.352525 0.379488
vt 0.338069 0.379488
vt 0.335041 0.292143
vt 0.361193 0.292143
vt 0.352525 0.684527
vt 0.338069 0.684527
vt 0.335041 0.774892
vt 0.361193 0.774892
vt 0.369024 0.774892
vt 0.372052 0.687547
vt 0.386508 0.687547
vt 0.395176 0.774892
vt 0.372052 0.382508
vt 0.386508 0.382508
vt 0.369024 0.292143
vt 0.395176 0.292143
vt 0.492705 0.379488
vt 0.478249 0.379488
vt 0.475221 0.292143
vt 0.501373 0.292143
vt 0.492705 0.684527
vt 0.478249 0.684527
vt 0.475221 0.774892
vt 0.501373 0.774892
vt 0.509204 0.774892
vt 0.512232 0.687547
vt 0.526688 0.687547
vt 0.535356 0.774892
vt 0.512232 0.382508
vt 0.526688 0.382508
vt 0.509204 0.292143
vt 0.535356 0.292143
vt 0.632885 0.379488
vt 0.618429 0.379488
vt 0.615401 0.292143
vt 0.641553 0.292143
vt 0.632885 0.684527
vt 0.618429 0.684527
vt 0.615401 0.774892
vt 0.641553 0.774892
vt 0.649384 0.774892
vt 0.652412 0.687547
vt 0.666868 0.687547
vt 0.675536 0.774892
vt 0.652412 0.382508
vt 0.666868 0.382508
vt 0.649384 0.292143
vt 0.675536 0.292143
vt 0.773065 0.379488
vt 0.758609 0.379488
vt 0.755581 0.292143
vt 0.781733 0.292143
vt 0.773065 0.684527
vt 0.758609 0.684527
vt 0.755581 0.774892
vt 0.781733 0.774892
vt 0.789564 0.774892
vt 0.792592 0.687547
vt 0.807048 0.687547
vt 0.815716 0.774892
vt 0.792592 0.382508
vt 0.807048 0.382508
vt 0.789564 0.292143
vt 0.815716 0.292143
vt 0.913245 0.379488
vt 0.898789 0.379488
vt 0.895761 0.292143
vt 0.921913 0.292143
vt 0.913245 0.684527
vt 0.898789 0.684527
vt 0.895761 0.774892
vt 0.921913 0.774892
vt 0.929745 0.774892
vt 0.932772 0.687547
vt 0.947228 0.687547
vt 0.955896 0.774892
vt 0.932772 0.382508
vt 0.947228 0.382508
vt 0.929745 0.292143
vt 0.955896 0.292143
vt 0.053994 0.968821
vt 0.053994 0.031179
vt 0.092803 0.031179
vt 0.092803 0.968821
vt 0.035460 0.968821
vt 0.035460 0.031179
vt 0.111338 0.031179
vt 0.111338 0.968821
vt 0.277059 0.687547
vt 0.312240 0.687547
vt 0.326472 0.774892
vt 0.262827 0.774892
vt 0.277059 0.382508
vt 0.312240 0.382508
vt 0.262827 0.292143
vt 0.326472 0.292143
vt 0.417239 0.687547
vt 0.452420 0.687547
vt 0.466652 0.774892
vt 0.403007 0.774892
vt 0.417239 0.382508
vt 0.452420 0.382508
vt 0.403007 0.292143
vt 0.466652 0.292143
vt 0.557419 0.687547
vt 0.592600 0.687547
vt 0.606832 0.774892
vt 0.543187 0.774892
vt 0.557419 0.382508
vt 0.592600 0.382508
vt 0.543187 0.292143
vt 0.606832 0.292143
vt 0.697599 0.687547
vt 0.732780 0.687547
vt 0.747011 0.774892
vt 0.683367 0.774892
vt 0.697599 0.382508
vt 0.732780 0.382508
vt 0.683367 0.292143
vt 0.747011 0.292143
vt 0.139815 0.968821
vt 0.139815 0.031179
vt 0.178624 0.031179
vt 0.178624 0.968821
vt 0.121281 0.968821
vt 0.121281 0.031179
vt 0.197158 0.031179
vt 0.197158 0.968821
vt 0.837779 0.687547
vt 0.872960 0.687547
vt 0.887192 0.774892
vt 0.823547 0.774892
vt 0.837779 0.382508
vt 0.872960 0.382508
vt 0.823547 0.292143
vt 0.887192 0.292143
vt 0.718962 0.161027
vt 0.718962 0.106489
vt 0.741372 0.106489
vt 0.741372 0.161027
vt 0.748083 0.161027
vt 0.748083 0.106488
vt 0.770493 0.106488
vt 0.770493 0.161027
vt 0.777204 0.161027
vt 0.777204 0.106489
vt 0.799614 0.106489
vt 0.799614 0.161027
vt 0.806325 0.161027
vt 0.806325 0.106488
vt 0.828735 0.106488
vt 0.828735 0.161027
vt 0.835446 0.161027
vt 0.835446 0.106489
vt 0.857856 0.106489
vt 0.857856 0.161027
vt 0.864567 0.161027
vt 0.864567 0.106488
vt 0.886977 0.106488
vt 0.886977 0.161027
vt 0.893688 0.161027
vt 0.893688 0.106489
vt 0.916098 0.106489
vt 0.916098 0.161027
vt 0.902132 0.219293
vt 0.902132 0.164754
vt 0.924542 0.164754
vt 0.924542 0.219293
vt 0.873992 0.219293
vt 0.873992 0.164754
vt 0.896402 0.164754
vt 0.896402 0.219293
vt 0.845853 0.219293
vt 0.845853 0.164754
vt 0.868263 0.164754
vt 0.868263 0.219293
vn 0.000000 0.555694 0.831387
vn 0.000000 0.555694 0.831387
vn 0.000000 0.555694 0.831387
vn 0.000000 0.555694 0.831387
vn 0.000000 1.000000 0.000000
vn 0.000000 1.000000 0.000000
vn 0.000000 1.000000 0.000000
vn 0.000000 1.000000 0.000000
vn 0.000000 0.555694 -0.831387
vn 0.000000 0.555694 -0.831387
vn 0.000000 0.555694 -0.831387
vn 0.000000 0.555694 -0.831387
vn 0.000000 0.000000 1.000000
vn 0.000000 0.000000 1.000000
vn 0.000000 0.000000 1.000000
vn 0.000000 0.000000 1.000000
vn 0.000000 0.999536 0.030467
vn 0.000000 0.999536 0.030467
vn 0.000000 0.995112 0.098751
vn 0.000000 0.995112 0.098751
vn 0.000000 0.000000 -1.000000
vn 0.000000 0.000000 -1.000000
vn 0.000000 0.000000 -1.000000
vn 0.000000 0.000000 -1.000000
vn 0.998813 0.000000 0.048711
vn 0.998876 0.000000 0.047401
vn 0.986985 0.000000 0.160815
vn 0.986985 0.000000 0.160815
vn -0.986985 0.000000 0.160815
vn -0.998876 0.000001 0.047401
vn -0.998813 0.000001 0.048711
vn -0.986985 0.000000 0.160815
vn -0.998899 0.000001 -0.046907
vn -0.998840 0.000001 -0.048150
vn 0.000000 0.999547 -0.030085
vn 0.000000 0.999547 -0.030085
vn 0.998840 0.000000 -0.048150
vn 0.998899 0.000000 -0.046907
vn -0.987824 0.000000 -0.155573
vn -0.987824 0.000000 -0.155573
vn 0.000000 0.995431 -0.095482
vn 0.000000 0.995431 -0.095482
vn 0.987824 0.000000 -0.155573
vn 0.987824 0.000000 -0.155573
vn 0.000000 0.000000 1.000000
vn 0.000000 0.000000 1.000000
vn 0.000000 0.000000 1.000000
vn 0.000000 0.000000 1.000000
vn 0.000000 0.999536 0.030467
vn 0.000000 0.999536 0.030467
vn 0.000000 0.995112 0.098751
vn 0.000000 0.995112 0.098751
vn 0.000000 0.000000 -1.000000
vn 0.000000 0.000000 -1.000000
vn 0.000000 0.000000 -1.000000
vn 0.000000 0.000000 -1.000000
vn 0.998813 0.000000 0.048711
vn 0.998876 0.000000 0.047401
vn 0.986985 0.000000 0.160815
vn 0.986985 0.000000 0.160815
vn -0.986985 0.000000 0.160815
vn -0.998876 0.000000 0.047401
vn -0.998813 0.000000 0.048711
vn -0.986985 0.000000 0.160815
vn -0.998899 0.000000 -0.046907
vn -0.998840 0.000000 -0.048150
vn 0.000000 0.999547 -0.030085
vn 0.000000 0.999547 -0.030085
vn 0.998840 -0.000000 -0.048150
vn 0.998899 -0.000000 -0.046907
vn -0.987824 0.000001 -0.155573
vn -0.987824 0.000001 -0.155573
vn 0.000000 0.995431 -0.095482
vn 0.000000 0.995431 -0.095482
vn 0.987824 -0.000001 -0.155573
vn 0.987824 -0.000001 -0.155573
vn 0.000000 0.000000 1.000000
vn 0.000000 0.000000 1.000000
vn 0.000000 0.000000 1.000000
vn 0.000000 0.000000 1.000000
vn 0.000000 0.999536 0.030467
vn 0.000000 0.999536 0.030467
vn 0.000000 0.995112 0.098751
vn 0.000000 0.995112 0.098751
vn 0.000000 0.000000 -1.000000
vn 0.000000 0.000000 -1.000000
vn 0.000000 0.000000 -1.000000
vn 0.000000 0.000000 -1.000000
vn 0.998813 0.000000 0.048711
vn 0.998876 0.000000 0.047401
vn 0.986985 0.000000 0.160815
vn 0.986985 0.000000 0.160815
vn -0.986985 0.000000 0.160815
vn -0.998876 -0.000001 0.047401
vn -0.998813 -0.000001 0.048711
vn -0.986985 0.000000 0.160815
vn -0.998899 -0.000002 -0.046907
vn -0.998840 -0.000002 -0.048150
vn 0.000000 0.999547 -0.030085
vn 0.000000 0.999547 -0.030085
vn 0.998840 -0.000000 -0.048150
vn 0.998899 -0.000000 -0.046907
vn -0.987824 -0.000001 -0.155573
vn -0.987824 -0.000001 -0.155573
vn 0.000000 0.995431 -0.095482
vn 0.000000 0.995431 -0.095482
vn 0.987824 -0.000001 -0.155573
vn 0.987824 -0.000001 -0.155573
vn 0.000000 0.000000 1.000000
vn 0.000000 0.000000 1.000000
vn 0.000000 0.000000 1.000000
vn 0.000000 0.000000 1.000000
vn 0.000000 0.999536 0.030467
vn 0.000000 0.999536 0.030467
vn 0.000000 0.995112 0.098751
vn 0.000000 0.995112 0.098751
vn 0.000000 0.000000 -1.000000
vn 0.000000 0.000000 -1.000000
vn 0.000000 0.000000 -1.000000
vn 0.000000 0.000000 -1.000000
vn 0.998813 0.000000 0.048711
vn 0.998876 0.000000 0.047401
vn 0.986985 0.000000 0.160815
vn 0.986985 0.000000 0.160815
vn -0.986985 0.000000 0.160815
vn -0.998876 0.000000 0.047401
vn -0.998813 0.000000 0.048711
vn -0.986985 0.000000 0.160815
vn -0.998899 0.000000 -0.046907
vn -0.998840 0.000000 -0.048150
vn 0.000000 0.999547 -0.030085
vn 0.000000 0.999547 -0.030085
vn 0.998840 0.000000 -0.048150
vn 0.998899 0.000000 -0.046907
vn -0.987824 0.000000 -0.155573
vn -0.987824 0.000000 -0.155573
vn 0.000000 0.995431 -0.095482
vn 0.000000 0.995431 -0.095482
vn 0.987824 0.000000 -0.155573
vn 0.987824 0.000000 -0.155573
vn 0.000000 0.555694 0.831387
vn 0.000000 0.555694 0.831387
vn 0.000000 0.555694 0.831387
vn 0.000000 0.555694 0.831387
vn 0.000000 1.000000 0.000000
vn 0.000000 1.000000 0.000000
vn 0.000000 1.000000 0.000000
vn 0.000000 1.000000 0.000000
vn 0.000000 0.555694 -0.831387
vn 0.000000 0.555694 -0.831387
vn 0.000000 0.555694 -0.831387
vn 0.000000 0.555694 -0.831387
vn 0.000000 0.000000 1.000000
vn 0.000000 0.000000 1.000000
vn 0.000000 0.000000 1.000000
vn 0.000000 0.000000 1.000000
vn 0.000000 0.999536 0.030467
vn 0.000000 0.999536 0.030467
vn 0.000000 0.995112 0.098751
vn 0.000000 0.995112 0.098751
vn 0.000000 0.000000 -1.000000
vn 0.000000 0.000000 -1.000000
vn 0.000000 0.000000 -1.000000
vn 0.000000 0.000000 -1.000000
vn 0.998813 0.000000 0.048711
vn 0.998876 0.000000 0.047401
vn 0.986985 0.000000 0.160815
vn 0.986985 0.000000 0.160815
vn -0.986985 0.000000 0.160815
vn -0.998876 0.000000 0.047401
vn -0.998813 0.000000 0.048711
vn -0.986985 0.000000 0.160815
vn -0.998899 -0.000000 -0.046907
vn -0.998840 -0.000000 -0.048150
vn 0.000000 0.999547 -0.030085
vn 0.000000 0.999547 -0.030085
vn 0.998840 0.000000 -0.048150
vn 0.998899 0.000000 -0.046907
vn -0.987824 -0.000000 -0.155573
vn -0.987824 -0.000000 -0.155573
vn 0.000000 0.995431 -0.095482
vn 0.000000 0.995431 -0.095482
vn 0.987824 0.000000 -0.155573
vn 0.987824 0.000000 -0.155573
s off
g pCube8
usemtl initialShadingGroup
f 1/85/1 2/86/2 4/82/3 3/81/4
f 3/81/5 4/82/6 6/83/7 5/84/8
f 5/84/9 6/83/10 8/87/11 7/88/12
f 9/137/13 10/138/14 12/139/15 11/140/16
s 1
f 18/89/17 19/90/18 14/91/19 13/92/20
s off
f 13/141/21 14/142/22 16/143/23 15/144/24
s 2
f 19/1/25 20/2/26 16/3/27 14/4/28
s 3
f 15/9/29 17/10/30 18/11/31 13/12/32
f 18/11/31 17/10/30 21/13/33 22/14/34
s 1
f 22/93/35 23/94/36 19/90/18 18/89/17
s 2
f 23/5/37 24/6/38 20/2/26 19/1/25
s 3
f 22/14/34 21/13/33 9/15/39 11/16/40
s 1
f 11/95/41 12/96/42 23/94/36 22/93/35
s 2
f 10/7/43 24/6/38 23/5/37 12/8/44
s off
f 25/145/45 26/146/46 28/147/47 27/148/48
s 4
f 34/97/49 35/98/50 30/99/51 29/100/52
s off
f 29/149/53 30/150/54 32/151/55 31/152/56
s 5
f 35/17/57 36/18/58 32/19/59 30/20/60
s 6
f 31/25/61 33/26/62 34/27/63 29/28/64
f 34/27/63 33/26/62 37/29/65 38/30/66
s 4
f 38/101/67 39/102/68 35/98/50 34/97/49
s 5
f 39/21/69 40/22/70 36/18/58 35/17/57
s 6
f 38/30/66 37/29/65 25/31/71 27/32/72
s 4
f 27/103/73 28/104/74 39/102/68 38/101/67
s 5
f 26/23/75 40/22/70 39/21/69 28/24/76
s off
f 41/153/77 42/154/78 44/155/79 43/156/80
s 7
f 50/105/81 51/106/82 46/107/83 45/108/84
s off
f 45/157/85 46/158/86 48/159/87 47/160/88
s 8
f 51/33/89 52/34/90 48/35/91 46/36/92
s 9
f 47/41/93 49/42/94 50/43/95 45/44/96
f 50/43/95 49/42/94 53/45/97 54/46/98
s 7
f 54/109/99 55/110/100 51/106/82 50/105/81
s 8
f 55/37/101 56/38/102 52/34/90 51/33/89
s 9
f 54/46/98 53/45/97 41/47/103 43/48/104
s 7
f 43/111/105 44/112/106 55/110/100 54/109/99
s 8
f 42/39/107 56/38/102 55/37/101 44/40/108
s off
f 57/161/109 58/162/110 60/163/111 59/164/112
s 10
f 66/113/113 67/114/114 62/115/115 61/116/116
s off
f 61/165/117 62/166/118 64/167/119 63/168/120
s 11
f 67/49/121 68/50/122 64/51/123 62/52/124
s 12
f 63/57/125 65/58/126 66/59/127 61/60/128
f 66/59/127 65/58/126 69/61/129 70/62/130
s 10
f 70/117/131 71/118/132 67/114/114 66/113/113
s 11
f 71/53/133 72/54/134 68/50/122 67/49/121
s 12
f 70/62/130 69/61/129 57/63/135 59/64/136
s 10
f 59/119/137 60/120/138 71/118/132 70/117/131
s 11
f 58/55/139 72/54/134 71/53/133 60/56/140
s off
f 73/125/141 74/126/142 76/122/143 75/121/144
f 75/121/145 76/122/146 78/123/147 77/124/148
f 77/124/149 78/123/150 80/127/151 79/128/152
f 81/169/153 82/170/154 84/171/155 83/172/156
s 13
f 90/129/157 91/130/158 86/131/159 85/132/160
s off
f 85/173/161 86/174/162 88/175/163 87/176/164
s 14
f 91/65/165 92/66/166 88/67/167 86/68/168
s 15
f 87/73/169 89/74/170 90/75/171 85/76/172
f 90/75/171 89/74/170 93/77/173 94/78/174
s 13
f 94/133/175 95/134/176 91/130/158 90/129/157
s 14
f 95/69/177 96/70/178 92/66/166 91/65/165
s 15
f 94/78/174 93/77/173 81/79/179 83/80/180
s 13
f 83/135/181 84/136/182 95/134/176 94/133/175
s 14
f 82/71/183 96/70/178 95/69/177 84/72/184
