<?xml version="1.0" encoding="utf-8"?>
<!-- Generator: Adobe Illustrator 25.4.1, SVG Export Plug-In . SVG Version: 6.00 Build 0)  -->
<svg version="1.1" id="Layer_1" xmlns="http://www.w3.org/2000/svg" xmlns:xlink="http://www.w3.org/1999/xlink" x="0px" y="0px"
	 viewBox="0 0 1920 1080" style="enable-background:new 0 0 1920 1080;" xml:space="preserve">
<style type="text/css">
	.st0{fill:#F6C396;}
	.st1{fill:#906350;}
	.st2{fill:#95A278;}
</style>
<g>
	<path class="st0" d="M2652,532.7c0,111,0,221.9,0.1,332.9c0,5.1-1.2,6.3-6.3,6.3c-637.6-0.1-1275.2-0.1-1912.8-0.1
		c-1.3-2.4-0.7-4.9-0.7-7.4c0-109,0-218,0-327c0-9.5,0.6-10.5,10-10.3c9.5,0.2,19.2-1.6,28.6,1.3c5.5,6.2,1.7,12-0.7,17.9
		c-1.2,1.5-2.9,2.5-4.6,2.5c-7.1,0-9.7,3.7-9.2,10.3c0.1,1.6-0.8,3.1-0.8,4.7c-0.1,1.6-0.6,3.1-1.5,4.5c-5,7.7-4.1,14.9,1.6,21.7
		c1.5,8.8,1,17.6-0.1,26.3c0,3.1-1.8,5.5-3.1,8.1c-5,9.8-2.5,18.8,3.4,27.3c1.7,8.4-0.2,16.7-0.3,25.1c0,3.6-2.4,5.8-4.6,8
		c-4.3,4.3-6.1,9.6-5.4,15.5c0.7,6.1,1.7,12.2,2.5,18.2c0.1,1.1,0.1,2.7,1.1,3c5.2,1.5,5.2,6.4,7,10.2c0.8,10.5,0,21,0.1,31.4
		c-0.5,6.4,0.6,12.7,1,19c1.4-10.8,4.6-21.6,0.7-32.5c-1.5-13.1,0.6-26.1,1.7-39.1c0.9-14.5-3.4-29.3,3-43.7
		c2.9-6.4,1.1-13.4-3-19.5c-1.3-9-1.1-17.9,0.2-26.8c0.1-1.6,0.4-3.2,1.2-4.6c5.2-8,3.5-15.5-1.6-22.8c-0.8-9-1.4-17.9,0.5-26.9
		c0.4-1.6,1.3-3,2.8-3.7c5-2.2,10.1-3.9,13.3-8.9c1-1.5,3.3-1.3,5.1-1.4c3.6-0.7,7.3-0.9,10.9-0.8c27,0.3,54-0.6,80.9,0.5
		c11.1,6.6,22.4,9.3,34.3,1.8c1.9-1.2,4.2-1.5,6.5-1.4c6.9-1.4,13.8-2.5,20.9-2.2c3.2,0.2,6.4,0.4,9.3,1.9c4.2,2.8,7.8,6.3,6,11.8
		c-1.8,5.5-6.5,7.4-11.9,7.7c-3.4,0.2-6.4-1-8-4.3c-1-2-0.9-4.1,0.7-5.7c2.8-2.9,5.8-1.9,8.8-0.3c-2.6-3.1-5.8-2.4-8.8-1
		c-2.3,1.1-3,3.5-2.4,5.9c0.9,3.4,3.4,5.4,6.8,6c9.6,1.9,16.5-4,16.1-13.8c-0.1-2.6-0.1-5.1,2.3-6.8c6.4-2.7,13-1.1,19.6-1.4
		c5.2-0.2,10.5-0.1,16.7,0c-7.6-1.8-14.4-0.9-21.1-1.1c-11.6-0.4-23.2,1-34.8-0.9c-5.4-3.5-11.1-3.7-16.9-1.1
		c-2.8,1.3-5.6,2-8.6,1.2c-7.2,0.5-14.3,1.3-21.5,0.4c-2.8-1.3-5.7-1.8-8.7-0.7c-1.7,0.1-3.2-0.4-4.4-1.5c-1.6-6-6.5-11.7-2.2-18.4
		c3.7-1.9,7.6-1.3,11.5-1.3c131.4-0.1,262.9-1.1,394.3,0.2c249.7,2.4,499.5,0.5,749.2,1.1c192.7,0.4,385.3,0.1,578,0
		c13.5,0,27,2.1,40.5,1.6C2648,529.7,2650.2,530.6,2652,532.7z"/>
	<path class="st0" d="M2652,373.4c0,43.9,0,87.9,0,131.8c-1.9,2.3-4.5,2.9-7.4,2.9c-3.4,0.1-6.9,0.1-10.3,0.1
		c-252.6,0-505.2,1.2-757.8-0.3c-376.2-2.1-752.4-0.2-1128.6-1.1c-19.2,0-15.4-1.6-15.5-15.2c-0.1-36.8-0.1-73.7,0-110.5
		c0-9.3-1-8.4,8.5-8.4c348.7,0,697.4,0,1046.1,0c285.4,0,570.8,0,856.2,0C2646.2,372.8,2649.2,372.1,2652,373.4z"/>
	<path class="st1" d="M875.2,546.2c1.3,0.1,2.6,0.2,3.9,0.4c2.2-0.2,4.4-0.2,6.6,0c7.8,0,15.7,0.1,23.5,0.1c0,5.6-2.9,8.7-9.8,9.2
		c-8.2,0.5-16.5,1.1-24.6-1.4c-28.4,0-56.8-0.1-85.2-0.1c-3.2,0-6.4-0.1-9.6-0.2c-1.9-6.1,1.9-8.3,6.8-9.8c3.6-1,7.2-0.9,10.9-0.9
		c23.8,0.1,47.5-0.4,71.3,0.9C871.3,544,873.4,544.6,875.2,546.2z"/>
	<path class="st1" d="M2510.7,835.5c28.2-0.1,56.5-0.3,84.7-0.4c3.2,0,6.4,0.1,9.6,0.1c2,5.2-1.1,7.4-5.3,9
		c-27.9-0.3-55.7-0.5-83.6-0.8c-2.1,1.2-4.2,1.3-6.2-0.1c-12.3-0.1-24.6-0.3-36.8-0.4c0.8-6.8,6.3-8.6,11.6-9.3
		C2493.3,832.6,2502.2,832.2,2510.7,835.5z"/>
	<path class="st1" d="M2633.5,665.9c-2.6,4.1-5.2,8.1-7.8,12.2c0.4-23.9,0.7-47.8,1.1-71.7c0-2,0.1-5,2.4-5.1
		c3.2-0.1,2.6,3.1,2.8,5.2C2634.4,626.2,2632.7,646.1,2633.5,665.9z"/>
	<path class="st1" d="M2449.5,843.2c-17.3-0.3-34.7-0.5-52-0.8c-1.8,0-3.6-0.2-5.4-0.5c-1.6-0.2-3.5-0.7-3.5-2.6
		c0-2,1.9-2.5,3.5-2.5c7.7-0.3,15.5-0.6,23.2-0.8c5.5-0.1,10.9-0.1,16.4-0.2c2.6-2.5,5.4-2.1,8.3-0.5c11,0.4,22.1-0.6,33.1,0.6
		c0.3,4.8-3.2,6.3-6.8,7C2460.8,844.2,2455.1,845.2,2449.5,843.2z"/>
	<path class="st1" d="M945.1,554.3c-10.5-1.5-21,0-31.4-0.4c0.1-5.1,2.6-7.5,8.9-8.2c3.9-0.4,7.7,0.3,11.6,0.6
		c19.4,1,38.9-0.4,58.3,1.8c2.1,0.2,4.6-0.3,6.9,3.2c-15.6,3.2-30.8,1.5-45.8,2.3C950.9,556.1,948,555.5,945.1,554.3z"/>
	<path class="st1" d="M761.7,648.1c-2,3.9-0.9,8-0.9,12c-0.1,6.8-2.7,12.6-6.7,17.9c0-9.1-0.1-18.2-0.1-27.3
		c-2.8-6.6-3.6-13.5-2.8-20.6c0.8-7.2,4.8-11.2,10.7-11C761.7,628.8,761.7,638.5,761.7,648.1z"/>
	<path class="st1" d="M753.5,589.2c0.1-4.2,0.1-8.5,0.4-12.7c0.3-5.4,2.5-9.4,8.1-10.9c0,9.6-0.1,19.2-0.1,28.8
		c1.2,4.8,2.3,9.7,1,14.6c-1.2,4.6-2.7,9.3-9.1,8.8C753.8,608.3,753.6,598.8,753.5,589.2z"/>
	<path class="st1" d="M2625.5,741.6c1.6-9-1.6-18.5,3.1-27.2c1.1-2,1.6-4.3,4.3-4.7c0.1,10.9,0.1,21.8,0.2,32.7
		c2.8,7.5,3.8,15.1-0.5,22.4c-1.6,2.7-3.3,5-7,4C2625.6,759.8,2625.5,750.7,2625.5,741.6z"/>
	<path class="st1" d="M2633.3,803c-2.4,1.7-1.7,3.9-1,6.1c1.1,3.8-0.3,7.1-2.1,10.3c-2.6,4.4-3.9,2-5.2-0.9c0-7,0-14,0-21.1
		c-2.8-6-2.4-12.4-1.7-18.7c0.6-5.8,3.9-8.4,9.8-8.8C2633.2,781,2633.3,792,2633.3,803z"/>
	<path class="st1" d="M754,730.2c2-5.2-0.2-11.4,3.7-16.3c1.1-1.4,1.4-3.4,3.5-3.9c-0.2,13.7-0.4,27.4-0.5,41.1c-0.3,4,0.3,8-0.3,12
		c-0.7,4.8-2.9,5.1-5.9,1.4C754.4,753,754.2,741.6,754,730.2z"/>
	<path class="st1" d="M2624.6,828.7c3-1.6,5.4-4.1,8.9-4.8c0.1,0.7,0.2,1.3,0.2,2c0.5,16.4-1.5,18.4-17.7,18.2c-1-3-5-5.2-2.6-9.1
		C2616.5,831.7,2622.6,833.8,2624.6,828.7z"/>
	<path class="st1" d="M762.1,560c-2.3,2.4-5.2,3.7-8.4,4.3c0-0.9-0.1-1.8-0.1-2.7c-0.1-14.1,1-15.2,15-15.7c2.1,2.6,4.6,5,4.2,8.8
		C769.5,556.9,764.5,555.8,762.1,560z"/>
	<g>
		<path class="st2" d="M761.7,648.1c6.6,6.4,6.2,14.1,3,21.5c-3.3,7.5-3.3,15.2-2.4,22.8c0.7,6,0.3,11.7-1,17.5
			c-1.4,4.8-3,9.5-3.6,14.6c-0.2,2.3-0.1,5.3-3.6,5.6c-1.7-1.5-0.9-4-2-5.7c-6.3,2.9-6.1,2.9-6.5-4c-0.3-5-0.7-10.1-1.8-14.9
			c-2.3-10.1-0.9-18.6,8.2-24.8c0.9-0.6,1.4-1.8,2-2.7c1.9-7.4,4.1-14.6,3.9-22.4C757.8,652.7,757.3,649,761.7,648.1z"/>
		<path class="st2" d="M2625.5,741.6c-6.1-2-7.5-6.8-7.3-12.3c0-1.8,0.3-3.8,1.1-5.3c5.6-10.9,6.1-21.9,2.9-33.7
			c-1.1-4.1,2.1-8.3,3.5-12.3c0.6-5.3,1.5-10.5,7.8-12.1c1.7-1,2.7-3.8,5-2.7c1.7,0.9,0.8,3.3,1,5.1c0.6,5.4,0.5,10.9,1.8,16.2
			c2.6,10.4,0,18.7-8.4,25.4c-3.7,7-4.1,14.6-4.2,22.2C2628.6,735.5,2629.5,739.4,2625.5,741.6z"/>
		<path class="st2" d="M2599.7,844.2c1.1-3.4,4.8-5.3,5.3-9c5.6-3.5,10.1-8.6,16.7-10.5c2.7-0.8,1-4.7,3.3-6.2c4.1-2,5-5.3,4.6-9.6
			c-0.4-4.4-0.1-4.4,3.7-5.9c6.4,6.9,1.6,13.9,0.2,20.9c-1.6,3.8-5,5.5-8.6,7c-2.8,1.9-7.6,0.3-8.7,5c-0.5,2.7,1.2,5.5-0.1,8.3
			c-0.3,7.6-3.9,14.4-4.3,22.1c-0.2,4.6-3.6,2-5.5,0.8C2600.2,863.1,2597.4,853.1,2599.7,844.2z"/>
		<path class="st2" d="M785.7,545.9c-2.1,2.6-5,4.7-5.7,8.3c-5.8,4.2-10.9,9.3-18,11.4c-3.6,4.6-5.7,9.7-5.5,15.8
			c0.1,2.9,0.2,6-3,7.9c-5.3-4.5-6-10.2-3.8-16.4c1.1-2.9,2.7-5.7,4-8.5c1.9-2.7,4.4-4.8,7.6-5.8c2.9-1.3,6.8-1.1,8.3-4.9
			c0.1-2.6-1.8-5-1-7.7c1.1-5.2,2.2-10.5,3.3-15.7c0.2-0.4,0.5-0.7,0.7-1.1c1.4-2.5-1-7.2,2.1-7.8c3.7-0.7,5.8,3.6,7.9,6.4
			c0.6,0.7,1,1.5,1.6,2.2C790.7,535.1,791.1,540,785.7,545.9z"/>
		<path class="st2" d="M2509.9,843.4c2.1,0,4.2,0,6.2,0.1c0.1,1.7,1.2,2.3,2.8,2.3c4.5-0.2,7.7,2.3,10.9,5c3.9,3.4,8,5.8,13.6,2.8
			c3.5-1.9,5.1,0.2,4.5,3.9c-1.1,6.5-7.2,11.6-13.9,11.6C2519.8,869,2512.1,860.8,2509.9,843.4z"/>
		<path class="st2" d="M875.2,546.2c-2,0.1-3.9,0.1-5.9,0.2c-7.1-1.3-14-3-19.9-7.7c-1.9-1.5-4.4-0.5-6.6-0.4
			c-6.4,0.3-7.9-2.2-5.1-8.3c7-10.8,16-12.5,26.7-5c2.2,1.5,4.2,3.4,6.3,5.1C874.4,534.8,874.5,540.6,875.2,546.2z"/>
		<path class="st2" d="M2440,835.3c-2.7,1.2-5.5,0.8-8.3,0.5c-1.5-14,1.5-19,12.5-21.1c4.4-0.8,8.3,0.3,11.6,3
			c3.4,2.8,4.2,6.5,2.4,10.5c-1.8,4-5.4,4.7-9.2,4.2c-3.6-0.4-7.6-0.7-7.5-6c0-1.4,0.6-3.6-2-3.4c-1.7,0.1-2.7,1.7-3.2,3.2
			C2434.8,830.3,2438.5,832.3,2440,835.3z"/>
		<path class="st2" d="M945.1,554.3c2.7-1.6,5.6-1.1,8.4-0.7c0,0.9-0.2,1.8,0,2.7c2.5,12.8-5.4,20.9-18.3,18.5
			c-4.3-0.8-7.8-3-8.9-7.5c-0.7-3-0.3-6.2,2.4-8.1c3.9-2.8,8.3-2.3,12.5-0.7c2.1,0.8,3.3,2.6,2.9,4.9c-0.3,1.7-1.5,2.9-3.2,3.2
			c-2.7,0.6-3.7-0.6-3.5-3.4c0.2-2-1.6-1.8-3-1.7c-1.5,0.2-2.6,1-3,2.5c-0.5,2.1,0.5,3.8,2.2,4.6c5,2.5,9.4,0.8,13.3-2.4
			c3.8-3.1,2.3-6.5-0.2-9.6C946.1,555.8,945.6,555.1,945.1,554.3z"/>
		<path class="st2" d="M934.1,546.3c-2.8,2.1-6.2,0.9-9.3,1.4c-4.5,0.7-9.1,1.1-11.2,6.2c-3.9,1.8-7.7,3.8-11.7,5.5
			c-10.1,4.2-19,1.7-27.1-4.9c7.3-2.3,14.9-0.7,22.3-1.2c5.1-0.4,10-0.9,12.1-6.6c4.6-0.9,9.3-2.2,13.9-2.8
			C927,543.4,930.9,543.5,934.1,546.3z"/>
		<path class="st2" d="M753.9,617.8c5.1-3.1,7.2-7.6,6.9-13.6c-0.1-3.3-1-6.7,1.1-9.8c7.4,8.6,7.3,14.6-0.2,24.7
			c-5.4,2.6-7.6,6.9-8,12.9c-0.4,6.3,2,12.4,0.1,18.7C744.9,640.4,744.9,631.6,753.9,617.8z"/>
		<path class="st2" d="M2449.5,843.2c8.5-0.5,17.1-0.5,23.6-7.3c15.2-10.1,25.9-10.2,37.6-0.4c-6.4,0.2-12.8,0.8-19.1,0.4
			c-7.4-0.4-13.4,1.9-18.5,7C2465.2,846.4,2457.4,847.2,2449.5,843.2z"/>
		<path class="st2" d="M2633.1,770c-5.5,2.8-7.7,7-7.4,13.3c0.2,4.7,1,9.5-0.7,14.2c-10-9.1-9.8-17.9,0.6-28.6
			c5.1-3.1,7-7.9,7.2-13.6c0.1-4.3,0.3-8.5,0.4-12.8c5.5,5.2,5.6,11.5,3.7,18.1C2635.9,763.8,2634.4,766.9,2633.1,770z"/>
		<path class="st2" d="M754.5,764.5c2.8,1.5,4.5,1.4,4.8-2.4c0.3-3.7-1.2-7.6,1.4-11c1.9,11.8,1.3,23.6-0.7,35.3
			c-0.2,1.3-0.6,2.9-2.2,3.1c-2.2,0.2-2.5-1.8-2.8-3.3C753.5,779,753.4,771.8,754.5,764.5z"/>
		<path class="st2" d="M885.7,546.6c-2.2,1.4-4.4,1.4-6.6,0C881.3,545,883.5,545,885.7,546.6z"/>
	</g>
	<path class="st0" d="M837.7,530c-0.5,5.1,0.1,8.4,6.5,5c3.3-1.8,6.4,0.1,8.8,2.1c4.5,3.6,8.8,7.2,15,7.2c0.4,0,0.9,1.4,1.3,2.1
		c-27.9-0.1-55.7-0.3-83.6-0.4c1.2-5.5,1.2-10.9-1.5-16C802.1,529.9,819.9,530,837.7,530z"/>
	<path class="st0" d="M2624.6,828.7c0.8,10.2-7.1,4.9-11.2,6.3C2615.7,830.2,2620.5,830,2624.6,828.7z"/>
	<path class="st0" d="M762.1,560c-0.3-9.5,6.7-4.3,10.7-5.3C770,558,766.5,559.8,762.1,560z"/>
	<path class="st0" d="M2444.1,821.6c3.7-1,7.4-2.1,9.5,1.8c1.6,3-2.7,6.6-4.9,4.2C2447.1,825.8,2448.2,822,2444.1,821.6z"/>
</g>
</svg>
