# This file uses centimeters as units for non-parametric coordinates.

mtllib Bone Textured.mtl
g default
v -0.928049 1.171588 4.912229
v 0.003400 1.404314 5.432002
v 0.000000 1.042241 3.547729
v -0.519667 0.956331 3.547726
v -0.519667 0.112757 3.547726
v 0.000000 0.026847 3.547729
v 0.003400 -0.335226 5.432002
v -0.928049 -0.102500 4.912229
v 0.898412 -0.236244 5.114511
v 0.519667 0.112757 3.547726
v 0.625513 0.534544 3.547729
v 1.013351 0.534544 5.073751
v -1.028841 0.534544 4.912237
v -0.625513 0.534544 3.547729
v 0.898412 1.305332 5.114511
v 0.519667 0.956331 3.547726
v -0.608211 1.028200 -5.753010
v 0.000000 1.091594 -5.753017
v 0.001246 1.341285 -6.793787
v -0.894649 1.195353 -6.793775
v 0.000000 -0.022502 -5.753017
v -0.608211 0.040892 -5.753010
v -0.894649 -0.258951 -6.793775
v 0.001246 -0.404883 -6.793787
v -0.686316 0.534546 -5.753017
v -1.074446 0.468201 -6.793787
v 0.608211 1.028200 -5.753010
v 0.686316 0.534546 -5.753017
v 1.076938 0.468201 -6.793787
v 0.897141 1.195353 -6.793775
v 0.608211 0.040892 -5.753010
v 0.897141 -0.258951 -6.793775
v 0.001246 1.790478 -8.440780
v -1.261145 1.492819 -8.440763
v -1.261145 -0.556418 -8.440763
v 0.001246 -0.854076 -8.440780
v -1.627879 0.468201 -8.440780
v 1.630370 0.468201 -8.440780
v 1.263637 1.492819 -8.440763
v 1.263637 -0.556418 -8.440763
v 1.733219 1.359724 -9.372735
v 1.406354 2.124442 -9.372725
v 0.328556 2.135656 -9.372735
v 0.328556 -0.307731 -9.372735
v 1.406354 -0.296516 -9.372725
v 0.001246 0.468201 -8.440780
v 0.073316 1.359724 -9.372735
v 1.337476 1.704048 -9.887238
v 1.149869 2.186190 -9.887230
v 0.451673 2.193261 -9.887238
v 0.621963 -0.021011 -9.887238
v 0.979579 -0.013941 -9.887230
v 0.290749 1.704048 -9.887238
v 0.740149 1.721058 -10.095523
v -0.114713 1.359724 -9.320244
v -0.444163 2.189118 -9.320244
v -1.379090 2.174261 -9.320231
v -1.738799 1.359724 -9.320244
v -0.444163 -0.361192 -9.320244
v -1.379090 -0.346336 -9.320231
v -0.265296 1.704048 -9.848861
v -0.518135 2.220282 -9.848861
v -1.158595 2.211034 -9.848852
v -1.409905 1.704048 -9.848861
v -0.656595 -0.048032 -9.848861
v -1.020134 -0.038785 -9.848852
v -0.760466 1.721058 -10.092405
v 1.118769 0.534544 5.814392
v 0.778470 0.022167 5.935093
v 0.411050 1.185469 6.065434
v 0.778470 1.046921 5.935093
v 0.411050 -0.116381 6.065434
v -0.077246 0.534544 5.460608
v 0.198165 0.534544 6.140948
v 1.031802 0.534544 6.410819
v 0.803863 0.171612 6.491668
v 0.557758 0.995614 6.578973
v 0.803863 0.897476 6.491668
v 0.557758 0.073474 6.578973
v 0.388536 0.534544 6.638999
v 0.563643 0.534544 6.973312
v -0.366445 -0.282435 6.021087
v -0.981348 -0.290714 5.628573
v -0.942000 1.359802 5.630904
v -0.441510 1.351523 5.944486
v -1.256551 0.534544 5.340418
v 0.097535 0.534544 6.018660
v -0.485024 0.928214 -2.275407
v 0.000000 0.999866 -2.275410
v -0.573303 0.534545 -2.275410
v -0.485024 0.140876 -2.275407
v 0.000000 0.069224 -2.275410
v 0.485024 0.140876 -2.275407
v 0.573303 0.534545 -2.275410
v 0.485024 0.928214 -2.275407
v -0.446955 0.897315 0.636160
v 0.000000 1.001118 0.636160
v -0.574846 0.534545 0.636160
v -0.446955 0.171774 0.636160
v 0.000000 0.067972 0.636160
v 0.446955 0.171774 0.636160
v 0.574846 0.534545 0.636160
v 0.446955 0.897315 0.636160
v -0.802912 -0.195170 6.478478
v -1.352135 -0.202564 6.127891
v -1.316989 1.271652 6.129973
v -0.869959 1.264258 6.410060
v -1.597942 0.534544 5.870515
v -0.388491 0.534544 6.476311
v -1.333133 -0.157200 7.151655
v -1.961208 -0.164209 6.750733
v -1.921017 1.233297 6.753115
v -1.409806 1.226288 7.073414
v -2.242307 0.534544 6.456405
v -0.859213 0.534544 7.149177
v -1.440713 -0.384296 7.404171
v -2.274982 -0.393607 6.871627
v -2.221596 1.462695 6.874792
v -1.542557 1.453384 7.300244
v -2.648365 0.534544 6.480674
v -0.811206 0.534544 7.400880
v -1.555213 -0.628567 7.853563
v -2.611271 -0.640353 7.179444
v -2.543692 1.709441 7.183448
v -1.684132 1.697655 7.722006
v -3.083915 0.534544 6.805395
v -1.079715 0.534544 8.109179
v -2.119780 -0.265626 8.200366
v -2.846301 -0.273734 7.736602
v -2.799810 1.342822 7.739356
v -2.208470 1.334714 8.109860
v -3.171460 0.534544 7.479272
v -1.792657 0.534544 8.376218
v -2.480966 0.175917 8.330368
v -2.806585 0.172283 8.122515
v -2.785748 0.896805 8.123750
v -2.520716 0.893171 8.289805
v -2.952317 0.534544 8.007182
v -2.334354 0.534544 8.409184
v -2.716205 0.534544 8.329775
vt 0.409973 0.229320
vt 0.375343 0.225323
vt 0.381595 0.170548
vt 0.432605 0.176436
vt 0.146939 0.803395
vt 0.178625 0.797325
vt 0.201649 0.851796
vt 0.155360 0.862221
vt 0.751800 0.509775
vt 0.785793 0.509226
vt 0.790998 0.574485
vt 0.740639 0.578399
vt 0.599778 0.238645
vt 0.565064 0.237431
vt 0.554741 0.168223
vt 0.606122 0.173295
vt 0.340715 0.221325
vt 0.330586 0.164659
vt 0.114554 0.806447
vt 0.107392 0.865205
vt 0.718495 0.502839
vt 0.691869 0.565080
vt 0.530953 0.244143
vt 0.504745 0.181393
vt 0.391600 0.083879
vt 0.463477 0.092177
vt 0.231992 0.933496
vt 0.167866 0.951167
vt 0.801865 0.673813
vt 0.730405 0.684761
vt 0.545972 0.061400
vt 0.618810 0.074298
vt 0.319724 0.075583
vt 0.100120 0.952234
vt 0.662183 0.660559
vt 0.475962 0.085710
vt 0.603967 0.006658
vt 0.658534 0.018980
vt 0.317259 0.025604
vt 0.378626 0.032686
vt 0.153116 0.980558
vt 0.097679 0.988104
vt 0.489774 0.032462
vt 0.783391 0.825176
vt 0.796918 0.758283
vt 0.849979 0.750996
vt 0.808086 0.783385
vt 0.769863 0.892069
vt 0.824982 0.874606
vt 0.627423 0.000214
vt 0.661755 0.007046
vt 0.334988 0.000214
vt 0.374741 0.004803
vt 0.139638 0.997411
vt 0.121462 0.999786
vt 0.509045 0.027937
vt 0.870252 0.752151
vt 0.843840 0.772573
vt 0.870252 0.868750
vt 0.551401 0.880378
vt 0.540147 0.852298
vt 0.575077 0.852933
vt 0.592228 0.880378
vt 0.560056 0.751638
vt 0.580961 0.751013
vt 0.601348 0.851678
vt 0.684161 0.884756
vt 0.673172 0.817876
vt 0.703232 0.858899
vt 0.754980 0.893486
vt 0.843632 0.726506
vt 0.786523 0.738476
vt 0.422303 0.040527
vt 0.475535 0.046673
vt 0.662183 0.750996
vt 0.733785 0.764493
vt 0.240949 0.966808
vt 0.192906 0.974064
vt 0.671821 0.710203
vt 0.730721 0.872059
vt 0.769435 0.892520
vt 0.844611 0.741805
vt 0.808944 0.750568
vt 0.429726 0.013197
vt 0.466191 0.017406
vt 0.769435 0.774697
vt 0.222898 0.984383
vt 0.204497 0.987265
vt 0.691868 0.720619
vt 0.483615 0.875639
vt 0.475962 0.843734
vt 0.503340 0.850841
vt 0.539719 0.857993
vt 0.519405 0.883102
vt 0.519584 0.751013
vt 0.539719 0.756057
vt 0.020307 0.233649
vt 0.012423 0.230930
vt 0.000214 0.188241
vt 0.020124 0.181415
vt 0.258174 0.791290
vt 0.307205 0.813879
vt 0.280146 0.844532
vt 0.260018 0.835259
vt 0.071367 0.207646
vt 0.041281 0.171221
vt 0.251878 0.788389
vt 0.241376 0.826671
vt 0.311622 0.815915
vt 0.291809 0.849905
vt 0.072636 0.199162
vt 0.051366 0.161076
vt 0.000327 0.151922
vt 0.013708 0.147007
vt 0.268673 0.870592
vt 0.255191 0.864380
vt 0.027853 0.140072
vt 0.242705 0.858628
vt 0.277944 0.874863
vt 0.036261 0.132748
vt 0.023236 0.113963
vt 0.265943 0.891304
vt 0.129408 0.229152
vt 0.088794 0.168240
vt 0.128578 0.186960
vt 0.363396 0.792650
vt 0.359825 0.830560
vt 0.329423 0.843771
vt 0.131715 0.223414
vt 0.141988 0.196414
vt 0.369134 0.793313
vt 0.379498 0.817342
vt 0.298281 0.844132
vt 0.058201 0.167534
vt 0.111202 0.135864
vt 0.146749 0.152741
vt 0.378144 0.859287
vt 0.350990 0.871087
vt 0.158313 0.162144
vt 0.395717 0.847480
vt 0.323173 0.871409
vt 0.083205 0.136001
vt 0.138134 0.089231
vt 0.178898 0.108828
vt 0.408750 0.896048
vt 0.377698 0.909543
vt 0.192263 0.121557
vt 0.428845 0.882546
vt 0.345888 0.909910
vt 0.105991 0.091142
vt 0.144302 0.073068
vt 0.198908 0.099424
vt 0.425124 0.904426
vt 0.383877 0.922352
vt 0.215977 0.116661
vt 0.451817 0.886493
vt 0.341626 0.922840
vt 0.101303 0.076104
vt 0.149740 0.043830
vt 0.219651 0.077798
vt 0.441588 0.922786
vt 0.389377 0.945476
vt 0.239697 0.093252
vt 0.474643 0.906443
vt 0.352611 0.961878
vt 0.112107 0.029868
vt 0.179628 0.015912
vt 0.227281 0.039271
vt 0.452794 0.953722
vt 0.416875 0.969332
vt 0.240949 0.051115
vt 0.475535 0.942479
vt 0.391582 0.980616
vt 0.152919 0.006969
vt 0.197376 0.004094
vt 0.218467 0.014475
vt 0.449659 0.973858
vt 0.433560 0.980854
vt 0.224745 0.020143
vt 0.459850 0.968819
vt 0.422223 0.985910
vt 0.185204 0.000214
vt 0.208622 0.001923
vt 0.444448 0.984242
vt 0.318844 0.714748
vt 0.348433 0.718163
vt 0.114010 0.310353
vt 0.084362 0.315550
vt 0.554295 0.750586
vt 0.573772 0.692941
vt 0.602766 0.685222
vt 0.607418 0.738514
vt 0.767786 0.048185
vt 0.757766 0.000214
vt 0.800744 0.009163
vt 0.796068 0.055985
vt 0.289256 0.711331
vt 0.054018 0.318950
vt 0.844611 0.008454
vt 0.825286 0.053641
vt 0.632576 0.688242
vt 0.661755 0.742001
vt 0.381834 0.411510
vt 0.354218 0.408322
vt 0.768750 0.335774
vt 0.795973 0.334090
vt 0.742307 0.328997
vt 0.124510 0.630009
vt 0.150502 0.624864
vt 0.097797 0.632385
vt 0.579509 0.409443
vt 0.552407 0.416114
vt 0.607292 0.411729
vt 0.326602 0.405134
vt 0.361979 0.564473
vt 0.336531 0.561535
vt 0.782517 0.194703
vt 0.807809 0.190921
vt 0.758354 0.186228
vt 0.104958 0.477285
vt 0.129467 0.472139
vt 0.079500 0.479286
vt 0.591232 0.548579
vt 0.566437 0.557086
vt 0.617013 0.553045
vt 0.311084 0.558597
vn -0.134697 0.967878 0.212295
vn -0.134697 0.967878 0.212295
vn -0.134697 0.967878 0.212295
vn -0.134697 0.967878 0.212295
vn -0.130402 -0.936714 0.324905
vn -0.130402 -0.936714 0.324905
vn -0.130402 -0.936714 0.324905
vn -0.130402 -0.936714 0.324905
vn -0.929925 0.196405 0.310908
vn -0.929925 0.196405 0.310908
vn 0.929282 0.196296 0.312894
vn 0.929282 0.196296 0.312894
vn 0.929282 0.196296 0.312894
vn 0.929282 0.196296 0.312894
vn 0.130303 -0.936622 0.325208
vn 0.130303 -0.936622 0.325208
vn -0.195603 0.951514 0.237403
vn -0.195603 0.951514 0.237403
vn -0.195603 -0.951514 0.237403
vn -0.195603 -0.951514 0.237403
vn -0.915983 0.285795 0.281595
vn 0.915983 0.285795 0.281595
vn 0.915983 0.285795 0.281595
vn 0.195603 -0.951514 0.237403
vn 0.860225 0.333410 0.385811
vn 0.860225 0.333410 0.385811
vn 0.114507 0.867751 0.483628
vn 0.121699 -0.921789 -0.368096
vn 0.121699 -0.921789 -0.368096
vn -0.984077 0.119697 -0.131397
vn -0.984077 0.119697 -0.131397
vn 0.847539 0.349716 -0.399219
vn 0.847539 0.349716 -0.399219
vn 0.010200 0.993439 0.113905
vn 0.011100 -0.874325 -0.485214
vn 0.011100 -0.874325 -0.485214
vn -0.932806 0.306902 -0.188901
vn 0.329798 0.128299 -0.935293
vn 0.968443 0.148307 -0.200309
vn 0.968443 0.148307 -0.200309
vn -0.848298 0.335099 0.409999
vn -0.848298 0.335099 0.409999
vn 0.922432 -0.099903 -0.373013
vn -0.132900 -0.934297 -0.330799
vn 0.916411 0.396605 -0.053801
vn 0.916411 0.396605 -0.053801
vn -0.864386 0.399693 -0.305095
vn -0.864386 0.399693 -0.305095
vn 0.888690 -0.184398 -0.419795
vn -0.016000 -0.861276 -0.507886
vn 0.437013 0.214006 -0.873625
vn 0.943035 -0.326712 0.062802
vn 0.943035 -0.326712 0.062802
vn 0.943035 -0.326712 0.062802
vn 0.943035 -0.326712 0.062802
vn 0.264806 0.930519 0.253005
vn 0.264806 0.930519 0.253005
vn 0.264806 0.930519 0.253005
vn 0.264806 0.930519 0.253005
vn 0.264806 -0.930519 0.253005
vn 0.264806 -0.930519 0.253005
vn -0.855823 0.197905 0.477913
vn -0.855823 0.197905 0.477913
vn 0.845078 -0.522587 0.112897
vn 0.845078 -0.522587 0.112897
vn 0.416613 0.883729 0.213207
vn 0.416613 0.883729 0.213207
vn 0.416613 -0.883729 0.213207
vn -0.870308 0.342203 0.354203
vn 0.727683 -0.322092 0.605586
vn -0.069698 -0.989668 -0.125296
vn -0.069698 -0.989668 -0.125296
vn -0.069698 -0.989668 -0.125296
vn -0.075303 0.987745 -0.136706
vn -0.075303 0.987745 -0.136706
vn -0.075303 0.987745 -0.136706
vn -0.917389 -0.289697 -0.272897
vn -0.917389 -0.289697 -0.272897
vn 0.930897 0.268099 0.248099
vn -0.066599 -0.989881 0.125298
vn -0.066599 -0.989881 0.125298
vn -0.063303 0.989854 0.127207
vn -0.063303 0.989854 0.127207
vn -0.761096 -0.424898 -0.490097
vn 0.608636 0.460227 0.646338
vn -0.016200 -0.998874 0.044599
vn -0.016200 -0.998874 0.044599
vn -0.014200 0.998813 0.046601
vn -0.014200 0.998813 0.046601
vn -0.620411 -0.469109 -0.628512
vn 0.666219 0.535515 0.519015
vn 0.352216 -0.765535 -0.538424
vn 0.352216 -0.765535 -0.538424
vn 0.354698 0.756395 -0.549596
vn 0.354698 0.756395 -0.549596
vn -0.054498 -0.406184 -0.912165
vn 0.781552 0.605763 -0.149091
vn 0.268998 -0.873295 -0.406198
vn 0.268998 -0.873295 -0.406198
vn 0.270588 0.869661 -0.412882
vn 0.270588 0.869661 -0.412882
vn -0.468915 -0.462415 -0.752524
vn 0.810108 0.560205 0.172902
vn -0.274598 -0.852393 0.444997
vn -0.274598 -0.852393 0.444997
vn -0.265515 0.856548 0.442525
vn -0.265515 0.856548 0.442525
vn -0.907706 -0.402703 -0.117901
vn 0.314500 0.442900 0.839601
vn -0.439393 -0.565091 0.698288
vn -0.439393 -0.565091 0.698288
vn -0.425594 0.582992 0.692091
vn -0.425594 0.582992 0.692091
vn -0.896104 -0.242101 0.372002
vn 0.057100 0.341900 0.938000
vn -0.505305 -0.330103 0.797307
vn -0.016700 0.993511 -0.112501
vn -0.164798 0.978791 -0.121699
vn -0.164798 -0.978791 -0.121699
vn -0.016700 -0.993511 -0.112501
vn 0.960630 -0.230707 -0.154805
vn 0.990109 0.000000 -0.140301
vn -0.989607 0.000000 -0.143801
vn 0.129402 0.983217 -0.128602
vn -0.145701 0.989108 0.020900
vn 0.000000 0.999796 0.020200
vn -0.999692 0.000000 0.024800
vn -0.975596 -0.218099 0.025400
vn 0.000000 -0.999796 0.020200
vn 0.145701 -0.989108 0.020900
vn 0.999692 -0.000000 0.024800
vn 0.975596 0.218099 0.025400
vn -0.188895 0.981972 -0.007000
vn 0.000000 0.999974 -0.007200
vn -0.999962 0.000000 -0.008700
vn -0.959877 -0.280293 -0.008500
vn 0.000000 -0.999973 -0.007300
vn 0.188895 -0.981973 -0.006900
vn 0.999962 0.000000 -0.008700
vn 0.959877 0.280293 -0.008500
s 1
g Bone_Textured:Mesh
usemtl initialShadingGroup
f 17/1/1 18/2/2 19/3/3 20/4/4
f 21/5/5 22/6/6 23/7/7 24/8/8
f 25/9/9 17/10/1 20/11/4 26/12/10
f 27/13/11 28/14/12 29/15/13 30/16/14
f 18/2/2 27/17/11 30/18/14 19/3/3
f 31/19/15 21/5/5 24/8/8 32/20/16
f 22/21/6 25/9/9 26/12/10 23/22/7
f 28/14/12 31/23/15 32/24/16 29/15/13
f 20/4/4 19/3/3 33/25/17 34/26/18
f 24/8/8 23/7/7 35/27/19 36/28/20
f 26/12/10 20/11/4 34/29/18 37/30/21
f 30/16/14 29/15/13 38/31/22 39/32/23
f 19/3/3 30/18/14 39/33/23 33/25/17
f 32/20/16 24/8/8 36/28/20 40/34/24
f 23/22/7 26/12/10 37/30/21 35/35/19
f 29/15/13 32/24/16 40/36/24 38/31/22
f 39/32/23 38/31/22 41/37/25 42/38/26
f 33/25/17 39/33/23 42/39/26 43/40/27
f 40/34/24 36/28/20 44/41/28 45/42/29
f 38/31/22 40/36/24 45/43/29 41/37/25
f 46/44/30 33/45/17 43/46/27 47/47/31
f 36/48/20 46/44/30 47/47/31 44/49/28
f 42/38/26 41/37/25 48/50/32 49/51/33
f 43/40/27 42/39/26 49/52/33 50/53/34
f 45/42/29 44/41/28 51/54/35 52/55/36
f 41/37/25 45/43/29 52/56/36 48/50/32
f 47/47/31 43/46/27 50/57/34 53/58/37
f 44/49/28 47/47/31 53/58/37 51/59/35
f 49/60/33 48/61/32 54/62/38
f 50/63/34 49/60/33 54/62/38
f 52/64/36 51/65/35 54/62/38
f 48/61/32 52/64/36 54/62/38
f 53/66/37 50/63/34 54/62/38
f 51/65/35 53/66/37 54/62/38
f 33/67/17 46/68/30 55/69/39 56/70/40
f 37/30/21 34/29/18 57/71/41 58/72/42
f 34/26/18 33/25/17 56/73/40 57/74/41
f 46/68/30 36/75/20 59/76/43 55/69/39
f 36/28/20 35/27/19 60/77/44 59/78/43
f 35/35/19 37/30/21 58/72/42 60/79/44
f 56/70/40 55/69/39 61/80/45 62/81/46
f 58/72/42 57/71/41 63/82/47 64/83/48
f 57/74/41 56/73/40 62/84/46 63/85/47
f 55/69/39 59/76/43 65/86/49 61/80/45
f 59/78/43 60/77/44 66/87/50 65/88/49
f 60/79/44 58/72/42 64/83/48 66/89/50
f 62/90/46 61/91/45 67/92/51
f 64/93/48 63/94/47 67/92/51
f 63/94/47 62/90/46 67/92/51
f 61/91/45 65/95/49 67/92/51
f 65/95/49 66/96/50 67/92/51
f 66/96/50 64/93/48 67/92/51
f 9/97/52 12/98/53 68/99/54 69/100/55
f 15/101/56 2/102/57 70/103/58 71/104/59
f 7/105/60 9/97/52 69/100/55 72/106/61
f 12/107/53 15/101/56 71/104/59 68/108/54
f 2/102/57 73/109/62 74/110/63 70/103/58
f 73/111/62 7/105/60 72/106/61 74/112/63
f 69/100/55 68/99/54 75/113/64 76/114/65
f 71/104/59 70/103/58 77/115/66 78/116/67
f 72/106/61 69/100/55 76/114/65 79/117/68
f 68/108/54 71/104/59 78/116/67 75/118/64
f 70/103/58 74/110/63 80/119/69 77/115/66
f 74/112/63 72/106/61 79/117/68 80/120/69
f 76/114/65 75/113/64 81/121/70
f 78/116/67 77/115/66 81/122/70
f 79/117/68 76/114/65 81/121/70
f 75/118/64 78/116/67 81/122/70
f 77/115/66 80/119/69 81/122/70
f 80/120/69 79/117/68 81/121/70
f 8/123/71 7/105/60 82/124/72 83/125/73
f 2/102/57 1/126/74 84/127/75 85/128/76
f 13/129/77 8/123/71 83/125/73 86/130/78
f 1/126/74 13/131/77 86/132/78 84/127/75
f 73/109/62 2/102/57 85/128/76 87/133/79
f 7/105/60 73/111/62 87/134/79 82/124/72
f 83/125/73 82/124/72 104/135/80 105/136/81
f 85/128/76 84/127/75 106/137/82 107/138/83
f 86/130/78 83/125/73 105/136/81 108/139/84
f 84/127/75 86/132/78 108/140/84 106/137/82
f 87/133/79 85/128/76 107/138/83 109/141/85
f 82/124/72 87/134/79 109/142/85 104/135/80
f 105/136/81 104/135/80 110/143/86 111/144/87
f 107/138/83 106/137/82 112/145/88 113/146/89
f 108/139/84 105/136/81 111/144/87 114/147/90
f 106/137/82 108/140/84 114/148/90 112/145/88
f 109/141/85 107/138/83 113/146/89 115/149/91
f 104/135/80 109/142/85 115/150/91 110/143/86
f 111/144/87 110/143/86 116/151/92 117/152/93
f 113/146/89 112/145/88 118/153/94 119/154/95
f 114/147/90 111/144/87 117/152/93 120/155/96
f 112/145/88 114/148/90 120/156/96 118/153/94
f 115/149/91 113/146/89 119/154/95 121/157/97
f 110/143/86 115/150/91 121/158/97 116/151/92
f 117/152/93 116/151/92 122/159/98 123/160/99
f 119/154/95 118/153/94 124/161/100 125/162/101
f 120/155/96 117/152/93 123/160/99 126/163/102
f 118/153/94 120/156/96 126/164/102 124/161/100
f 121/157/97 119/154/95 125/162/101 127/165/103
f 116/151/92 121/158/97 127/166/103 122/159/98
f 123/160/99 122/159/98 128/167/104 129/168/105
f 125/162/101 124/161/100 130/169/106 131/170/107
f 126/163/102 123/160/99 129/168/105 132/171/108
f 124/161/100 126/164/102 132/172/108 130/169/106
f 127/165/103 125/162/101 131/170/107 133/173/109
f 122/159/98 127/166/103 133/174/109 128/167/104
f 129/168/105 128/167/104 134/175/110 135/176/111
f 131/170/107 130/169/106 136/177/112 137/178/113
f 132/171/108 129/168/105 135/176/111 138/179/114
f 130/169/106 132/172/108 138/180/114 136/177/112
f 133/173/109 131/170/107 137/178/113 139/181/115
f 128/167/104 133/174/109 139/182/115 134/175/110
f 135/176/111 134/175/110 140/183/116
f 137/178/113 136/177/112 140/184/116
f 138/179/114 135/176/111 140/183/116
f 136/177/112 138/180/114 140/184/116
f 139/181/115 137/178/113 140/184/116
f 134/175/110 139/182/115 140/183/116
f 1/126/74 2/102/57 3/185/117 4/186/118
f 5/187/119 6/188/120 7/105/60 8/123/71
f 9/189/52 10/190/121 11/191/122 12/192/53
f 5/193/119 8/194/71 13/195/77 14/196/123
f 2/102/57 15/101/56 16/197/124 3/185/117
f 7/105/60 6/188/120 10/198/121 9/97/52
f 14/196/123 13/195/77 1/199/74 4/200/118
f 12/192/53 11/191/122 16/201/124 15/202/56
f 88/203/125 89/204/126 18/2/2 17/1/1
f 25/9/9 90/205/127 88/206/125 17/10/1
f 22/21/6 91/207/128 90/205/127 25/9/9
f 22/6/6 21/5/5 92/208/129 91/209/128
f 93/210/130 92/208/129 21/5/5 31/19/15
f 94/211/131 93/212/130 31/23/15 28/14/12
f 95/213/132 94/211/131 28/14/12 27/13/11
f 89/204/126 95/214/132 27/17/11 18/2/2
f 96/215/133 97/216/134 89/204/126 88/203/125
f 90/205/127 98/217/135 96/218/133 88/206/125
f 91/207/128 99/219/136 98/217/135 90/205/127
f 91/209/128 92/208/129 100/220/137 99/221/136
f 101/222/138 100/220/137 92/208/129 93/210/130
f 102/223/139 101/224/138 93/212/130 94/211/131
f 103/225/140 102/223/139 94/211/131 95/213/132
f 97/216/134 103/226/140 95/214/132 89/204/126
f 4/186/118 3/185/117 97/216/134 96/215/133
f 98/217/135 14/196/123 4/200/118 96/218/133
f 99/219/136 5/193/119 14/196/123 98/217/135
f 99/221/136 100/220/137 6/188/120 5/187/119
f 10/198/121 6/188/120 100/220/137 101/222/138
f 11/191/122 10/190/121 101/224/138 102/223/139
f 16/201/124 11/191/122 102/223/139 103/225/140
f 3/185/117 16/197/124 103/226/140 97/216/134
