<?xml version="1.0" encoding="utf-8"?>
<!-- Generator: Adobe Illustrator 25.4.1, SVG Export Plug-In . SVG Version: 6.00 Build 0)  -->
<svg version="1.1" id="Layer_1" xmlns="http://www.w3.org/2000/svg" xmlns:xlink="http://www.w3.org/1999/xlink" x="0px" y="0px"
	 viewBox="0 0 1920 1080" style="enable-background:new 0 0 1920 1080;" xml:space="preserve">
<style type="text/css">
	.st0{fill:#F6C396;}
	.st1{fill:#976854;}
</style>
<g>
	<path class="st0" d="M2245.3,766.7c-584.1,0-1168.3,0-1752.4,0c-7.9-1.5-15.9-0.7-23.8-0.6c-15,0.1-30-0.9-45,0.6
		c-30.9,0-61.8-0.1-92.7,0.1c-4.6,0-5.1-1.4-5.1-5.4c0.1-65.9,0.1-131.7,0.1-197.6c1.9-2.3,4.5-2.9,7.4-2.9
		c3.9-0.1,7.8-0.1,11.7-0.1c217,0,434,1.2,651-0.4c204.1-1.5,408.3,0.7,612.4-1.3c206.4-2,412.8-0.2,619.3-1.1
		c22-0.1,17.8,0.2,17.9,17.5c0.2,61.2,0.1,122.4,0,183.6C2246,761.8,2246.6,764.4,2245.3,766.7z"/>
	<path class="st0" d="M326.3,548.9c0-25.1,0-50.2,0-75.4c1.5-1.3,3.4-1.4,5.2-1.3c9.9,0.4,19.7-0.7,29.5-0.7
		c624.9,0,1249.8,0,1874.7,0c11.8,0,10.1-1.5,10.2,10.1c0.1,19,0,37.9,0,56.9c0,8-0.9,9.1-9.1,9.2c-25.5,0.2-50.9,0.1-76.4,0.1
		c-34.2,0-68.4-0.8-102.5,0.2c-76.8,2.2-153.7-0.3-230.5,1.5c-90.4,2.1-180.7,1.8-271.1,0.7c-96.8-1.2-193.6-1.6-290.3-0.6
		c-209.9,2.1-419.8-0.6-629.6,1.4c-98.9,1-197.7,0.2-296.5,0.9C335.3,551.8,330.2,553.1,326.3,548.9z"/>
	<path class="st0" d="M424.1,766.7c0.8-0.3,1.7-1,2.5-1c21.3-0.1,42.6-0.1,64-0.1c0.8,0,1.6,0.7,2.4,1.1
		C470,766.7,447,766.7,424.1,766.7z"/>
	<path class="st1" d="M463.3,574.3c37.4,0,74.8,0,112.2,0.1c2.7,0,6.5-1.2,7.6,2.1c0.3,0.9-4.8,1.5-7.4,1.6
		c-8.2,0.4-16.5,0.6-24.8,0.6c-64.5,0.3-128.9,0.6-193.4,0.9c-10,0-9.9,0-10.1,9.7c-0.5,37.9-0.9,75.7-1.4,113.6
		c-0.1,3.9-0.8,7.7-1.2,11.5c-0.2,1.7-0.8,3.2-2.9,3.2c-1.6,0-2.4-1.4-2.6-2.8c-0.5-2.9-1.1-5.8-1.2-8.8
		c-0.2-40.9-0.3-81.8-0.7-122.6c-0.1-6.6,2.7-9.2,8.8-9.5c2.7-0.1,5.5-0.3,8.2-0.3c36.2,0,72.5,0,108.7,0
		C463.3,573.9,463.3,574.1,463.3,574.3z"/>
	<path class="st1" d="M2112,744.7c-37.8,0-75.7,0-113.5-0.1c-2.7,0-7.1,1.3-7.4-2.2c-0.1-2,4.8-1.3,7.4-1.4
		c69.9-2,139.9-0.8,209.9-1.4c20.1-0.2,20.3-0.1,20.6-20.2c0.4-32.2,0.5-64.4,0.8-96.6c0.1-5.7,0.7-11.4,1.1-17.1
		c0.1-1.9,0.5-4,2.7-4.1c2.3-0.1,2.8,2.1,2.9,3.9c0.4,5,1.1,10,1.1,15c0.2,37.4,0.3,74.9,0.5,112.3c0,10.3-1.4,11.9-11.8,11.9
		c-38.1,0.1-76.2,0-114.2,0C2112,744.8,2112,744.8,2112,744.7z"/>
</g>
</svg>
