<?xml version="1.0" encoding="utf-8"?>
<!-- Generator: Adobe Illustrator 25.4.1, SVG Export Plug-In . SVG Version: 6.00 Build 0)  -->
<svg version="1.1" id="Layer_1" xmlns="http://www.w3.org/2000/svg" xmlns:xlink="http://www.w3.org/1999/xlink" x="0px" y="0px"
	 viewBox="0 0 1920 1080" style="enable-background:new 0 0 1920 1080;" xml:space="preserve">
<style type="text/css">
	.st0{fill:#F6C396;}
	.st1{fill:#90624F;}
</style>
<g>
	<path class="st0" d="M598.4,827.7c0-113.9,0-227.9,0-341.8c1.9-2.3,4.5-2.9,7.4-2.9c3.2,0,6.4-0.1,9.6-0.1
		c179.9,0,359.7-0.9,539.6,0.2c448.9,2.6,897.9,0.3,1346.8,1.2c19.9,0,16.1,1.3,16.1,16c0.1,106.6,0.1,213.2,0,319.9
		c0,9.3,1,8.3-8.6,8.3c-634.3,0-1268.7,0-1903,0C603.7,828.4,600.9,829,598.4,827.7z"/>
	<path class="st0" d="M598.4,459.8c0-41.4,0.1-82.8-0.1-124.2c0-5.2,1.2-6.3,6.3-6.3c549,0.1,1098,0.1,1647.1,0.1
		c88.6,0,177.1,0,265.7,0c1.2,1.9,0.7,4,0.7,6c0,39.8,0,79.6,0,119.4c0,8.1-0.8,9-9,9.3c-3,0.1-6,0.1-8.9,0.1
		c-252.8,0-505.5,1.2-758.3-0.3c-376.1-2.1-752.3-0.2-1128.4-1.2C608.3,462.7,602.6,464.4,598.4,459.8z"/>
	<path class="st1" d="M2374.4,798.4c-36.7,0-73.4,0.1-110.1-0.1c-3.6,0-9.9,1.4-10-3c-0.1-4.4,6.4-3.1,9.9-3.3
		c13.3-0.6,26.6-0.6,39.9-0.7c58.7-0.2,117.5-0.3,176.2-0.4c9.2,0,9.1,0,9.3-8.9c1.4-53.5,0.8-107.1,1.2-160.6
		c0.2-17.8,0.7-35.6,1.1-53.5c0-2.1,0-4.1,0.3-6.2c0.3-1.9,0.1-4.7,2.8-4.7c2.3,0,2.2,2.6,2.4,4.3c0.4,4.5,1.1,9.1,1.1,13.6
		c0.3,70.5,0.5,140.9,0.6,211.4c0,11.2-2.5,13.6-13.9,13.6c-36.9,0-73.9,0-110.8,0C2374.4,799.6,2374.4,799,2374.4,798.4z"/>
	<path class="st1" d="M618.4,624.7c0-36.1,0-72.3,0-108.4c0-12,2.6-14.8,14.4-14.7c70.9,0.5,141.7,1,212.6,1.7
		c5.3,0,10.5,0.8,15.8,1.3c1.1,0.1,2.5,0.4,2.5,1.8c0.1,1.5-1.4,1.7-2.4,2c-4.2,1.2-8.6,1.5-12.9,1.5c-70.2,0.2-140.4,0.4-210.6,0.6
		c-9.9,0-9.9,0-10,10.2c-0.5,69.1-0.9,138.1-1.5,207.2c0,4.8-0.8,9.6-1.3,14.3c-0.1,1.3-0.2,3-2.1,2.9c-1.3-0.1-1.8-1.4-2-2.5
		c-0.5-3.2-1.1-6.3-1.1-9.5C619.4,696.9,617.6,660.8,618.4,624.7z"/>
</g>
</svg>
