# This file uses centimeters as units for non-parametric coordinates.

mtllib LampPost Low.mtl
g default
v 0.543379 0.000692 -0.543379
v 0.000000 0.000692 -0.768453
v -0.543379 0.000692 -0.543379
v -0.768453 0.000692 0.000000
v -0.543379 0.000692 0.543379
v 0.000000 0.000692 0.768453
v 0.543379 0.000692 0.543379
v 0.768454 0.000692 0.000000
v 0.079097 13.972648 -0.079097
v 0.000000 13.972648 -0.111863
v -0.079097 13.972648 -0.079097
v -0.111863 13.972648 0.000000
v -0.079097 13.972648 0.079097
v 0.000000 13.972648 0.111863
v 0.079097 13.972648 0.079097
v 0.111863 13.972648 0.000000
v 0.450665 0.545360 -0.450665
v 0.000000 0.545360 -0.637337
v -0.450665 0.545360 -0.450665
v -0.637337 0.545360 0.000000
v -0.450665 0.545360 0.450665
v 0.000000 0.545360 0.637337
v 0.450665 0.545360 0.450665
v 0.637337 0.545360 0.000000
v 0.518850 0.737600 -0.518850
v 0.733766 0.737600 0.000000
v 0.518851 0.737600 0.518851
v 0.000000 0.737600 0.733765
v -0.518850 0.737600 0.518850
v -0.733765 0.737600 0.000000
v -0.518850 0.737600 -0.518850
v 0.000000 0.737600 -0.733765
v 0.355114 0.838941 -0.355114
v 0.502207 0.838941 0.000000
v 0.355114 0.838941 0.355114
v 0.000000 0.838941 0.502207
v -0.355114 0.838941 0.355114
v -0.502207 0.838941 0.000000
v -0.355114 0.838941 -0.355114
v 0.000000 0.838941 -0.502207
v 0.428973 1.075605 -0.428973
v 0.606659 1.075605 0.000000
v 0.428973 1.075605 0.428973
v 0.000000 1.075605 0.606659
v -0.428973 1.075605 0.428973
v -0.606659 1.075605 0.000000
v -0.428973 1.075605 -0.428973
v 0.000000 1.075605 -0.606659
v 0.353030 0.962255 -0.353030
v 0.000000 0.962255 -0.499260
v -0.353030 0.962255 -0.353030
v -0.499260 0.962255 0.000000
v -0.353030 0.962255 0.353030
v 0.000000 0.962255 0.499260
v 0.353030 0.962255 0.353030
v 0.499260 0.962255 0.000000
v 0.311764 1.624100 -0.311764
v 0.440901 1.624100 0.000000
v 0.311764 1.624100 0.311764
v 0.000000 1.624100 0.440901
v -0.311764 1.624100 0.311764
v -0.440901 1.624100 0.000000
v -0.311764 1.624100 -0.311764
v 0.000000 1.624100 -0.440901
v 0.129810 6.863021 -0.129810
v 0.183578 6.863021 0.000000
v 0.129810 6.863021 0.129810
v 0.000000 6.863021 0.183578
v -0.129809 6.863021 0.129810
v -0.183578 6.863021 0.000000
v -0.129809 6.863021 -0.129810
v 0.000000 6.863021 -0.183578
v 0.166451 4.336737 -0.166451
v 0.000000 4.336737 -0.235397
v -0.166451 4.336737 -0.166451
v -0.235397 4.336737 0.000000
v -0.166451 4.336737 0.166451
v 0.000000 4.336737 0.235397
v 0.166451 4.336737 0.166451
v 0.235397 4.336737 0.000000
v 0.164721 6.934942 -0.164721
v 0.232951 6.934942 0.000000
v 0.164721 6.934942 0.164721
v 0.000000 6.934942 0.232951
v -0.164721 6.934942 0.164721
v -0.232950 6.934942 0.000000
v -0.164721 6.934942 -0.164721
v 0.000000 6.934942 -0.232950
v 0.114893 7.048606 -0.114893
v 0.162483 7.048606 0.000000
v 0.114893 7.048606 0.114893
v 0.000000 7.048606 0.162483
v -0.114893 7.048606 0.114893
v -0.162483 7.048606 0.000000
v -0.114893 7.048606 -0.114893
v 0.000000 7.048606 -0.162483
v 0.504363 0.617560 -0.504363
v 0.000000 0.617560 -0.713277
v -0.504363 0.617560 -0.504363
v -0.713277 0.617560 0.000000
v -0.504363 0.617560 0.504363
v 0.000000 0.617560 0.713277
v 0.504363 0.617560 0.504363
v 0.713277 0.617560 0.000000
vt 0.872897 0.876257
vt 0.872898 0.010058
vt 0.847420 0.010058
vt 0.872897 0.133801
vt 0.847420 0.133801
vt 0.872897 0.257544
vt 0.847420 0.257544
vt 0.872897 0.381286
vt 0.847420 0.381287
vt 0.872897 0.505029
vt 0.847419 0.505029
vt 0.872897 0.628772
vt 0.847419 0.628772
vt 0.872897 0.752514
vt 0.847419 0.752514
vt 1.000000 0.010058
vt 0.889750 0.010058
vt 0.889749 0.876258
vt 1.000000 0.133801
vt 0.889750 0.133801
vt 1.000000 0.257544
vt 0.889750 0.257544
vt 1.000000 0.381286
vt 0.889750 0.381287
vt 1.000000 0.505029
vt 0.889749 0.505029
vt 1.000000 0.628772
vt 0.889749 0.628772
vt 1.000000 0.752514
vt 0.889749 0.752515
vt 0.820702 0.752515
vt 0.820702 0.628772
vt 0.820702 0.505029
vt 0.820703 0.381287
vt 0.820703 0.257544
vt 0.820703 0.133801
vt 0.820703 0.010058
vt 0.813420 0.752515
vt 0.813421 0.876258
vt 0.805245 0.752515
vt 0.813421 0.628772
vt 0.805245 0.628772
vt 0.813421 0.505029
vt 0.805245 0.505029
vt 0.813421 0.381287
vt 0.805245 0.381287
vt 0.813421 0.257544
vt 0.805245 0.257544
vt 0.813421 0.133801
vt 0.805245 0.133801
vt 0.813421 0.010058
vt 0.805245 0.010058
vt 0.765684 0.689661
vt 0.765684 0.597345
vt 0.765684 0.505029
vt 0.765684 0.412713
vt 0.765684 0.320397
vt 0.765684 0.228081
vt 0.765684 0.135765
vt 0.570030 0.634401
vt 0.570030 0.699087
vt 0.387818 0.591612
vt 0.570030 0.569715
vt 0.387818 0.548321
vt 0.570030 0.505029
vt 0.387818 0.505029
vt 0.570030 0.440343
vt 0.387818 0.461737
vt 0.570030 0.375658
vt 0.387818 0.418446
vt 0.570030 0.310972
vt 0.387818 0.375154
vt 0.570031 0.246286
vt 0.387818 0.331862
vt 0.382630 0.591612
vt 0.382630 0.548321
vt 0.382630 0.505029
vt 0.382630 0.461737
vt 0.382630 0.418446
vt 0.382630 0.375154
vt 0.382631 0.331862
vt 0.374432 0.634904
vt 0.374432 0.591613
vt 0.374432 0.548321
vt 0.374432 0.505029
vt 0.374432 0.461737
vt 0.374432 0.418446
vt 0.374432 0.375154
vt 0.374432 0.331862
vt 0.872897 1.000000
vt 0.847419 0.876258
vt 1.000000 0.876257
vt 1.000000 1.000000
vt 0.847419 1.000000
vt 0.820702 1.000001
vt 0.813421 1.000001
vt 0.805245 0.876258
vt 0.805245 1.000001
vt 0.765684 0.874294
vt 0.820702 0.876258
vt 0.570030 0.763773
vt 0.387818 0.634905
vt 0.387818 0.678196
vt 0.382630 0.678196
vt 0.765684 0.781977
vt 0.382630 0.634905
vt 0.374432 0.678196
vt 0.889750 1.000001
vt 0.243728 0.000000
vt 0.284349 1.000000
vt 0.243728 1.000000
vt 0.203106 0.000000
vt 0.203106 1.000000
vt 0.162485 0.000000
vt 0.162485 1.000000
vt 0.121864 0.000000
vt 0.121864 1.000000
vt 0.081243 0.000000
vt 0.081243 1.000000
vt 0.040621 0.000000
vt 0.040621 1.000000
vt 0.000000 0.000000
vt 0.000000 1.000000
vt 0.284349 0.000000
vt 0.324970 0.000000
vt 0.324970 1.000000
vn 0.646964 -0.403576 -0.646965
vn -0.000000 -0.403576 -0.914946
vn -0.000000 0.590248 -0.807222
vn 0.570792 0.590248 -0.570792
vn -0.646965 -0.403576 -0.646965
vn -0.570792 0.590248 -0.570792
vn -0.914946 -0.403576 0.000000
vn -0.807222 0.590248 -0.000000
vn -0.646965 -0.403576 0.646964
vn -0.570792 0.590248 0.570792
vn -0.000000 -0.403576 0.914946
vn -0.000000 0.590248 0.807222
vn 0.646964 -0.403576 0.646964
vn 0.570792 0.590248 0.570792
vn 0.914946 -0.403576 -0.000000
vn 0.807222 0.590248 -0.000000
vn 0.687468 0.234042 -0.687468
vn 0.000000 0.234042 -0.972226
vn 0.000000 0.079725 -0.996817
vn 0.704856 0.079725 -0.704856
vn -0.687468 0.234042 -0.687468
vn -0.704856 0.079725 -0.704856
vn -0.972226 0.234042 0.000000
vn -0.996817 0.079725 0.000000
vn -0.687468 0.234042 0.687468
vn -0.704856 0.079725 0.704856
vn -0.000000 0.234042 0.972226
vn -0.000000 0.079725 0.996817
vn 0.687468 0.234042 0.687468
vn 0.704856 0.079725 0.704856
vn 0.972226 0.234042 -0.000000
vn 0.996817 0.079725 -0.000000
vn 0.435053 0.788326 -0.435053
vn 0.615258 0.788326 -0.000000
vn 0.435053 0.788326 0.435053
vn -0.000000 0.788326 0.615258
vn -0.435053 0.788326 0.435053
vn -0.615258 0.788326 0.000000
vn -0.435053 0.788326 -0.435053
vn 0.000000 0.788326 -0.615258
vn 0.893722 -0.448621 -0.000000
vn 0.631957 -0.448621 -0.631957
vn 0.703713 0.097857 -0.703713
vn 0.995200 0.097857 0.000000
vn 0.631957 -0.448620 0.631957
vn 0.703713 0.097857 0.703713
vn -0.000000 -0.448621 0.893722
vn -0.000000 0.097857 0.995200
vn -0.631957 -0.448620 0.631957
vn -0.703713 0.097857 0.703713
vn -0.893722 -0.448621 0.000000
vn -0.995200 0.097857 0.000000
vn -0.631957 -0.448620 -0.631957
vn -0.703713 0.097857 -0.703713
vn 0.000000 -0.448621 -0.893722
vn 0.000000 0.097857 -0.995200
vn 0.700896 0.132245 -0.700896
vn 0.991217 0.132245 0.000000
vn 0.700896 0.132245 0.700896
vn -0.000000 0.132245 0.991217
vn -0.700896 0.132245 0.700896
vn -0.991217 0.132245 0.000000
vn -0.700896 0.132245 -0.700896
vn 0.000000 0.132245 -0.991217
vn 0.998444 0.055755 0.000000
vn 0.706007 0.055755 -0.706007
vn 0.707106 -0.001461 -0.707106
vn 0.999999 -0.001461 0.000000
vn 0.706007 0.055755 0.706007
vn 0.707106 -0.001461 0.707106
vn -0.000000 0.055755 0.998444
vn -0.000000 -0.001461 0.999999
vn -0.706007 0.055755 0.706007
vn -0.707106 -0.001461 0.707106
vn -0.998444 0.055755 0.000000
vn -0.999999 -0.001461 -0.000000
vn -0.706007 0.055755 -0.706007
vn -0.707106 -0.001461 -0.707106
vn -0.000000 0.055755 -0.998444
vn -0.000000 -0.001461 -0.999999
vn 0.703530 0.100471 -0.703528
vn 0.994940 0.100470 0.000001
vn 0.703530 0.100470 0.703528
vn 0.000000 0.100470 0.994940
vn -0.703529 0.100470 0.703529
vn -0.994940 0.100470 0.000000
vn -0.703529 0.100470 -0.703529
vn 0.000000 0.100470 -0.994940
vn 0.706915 0.023276 -0.706915
vn 0.999729 0.023276 -0.000000
vn 0.706915 0.023276 0.706915
vn -0.000000 0.023276 0.999729
vn -0.706915 0.023276 0.706915
vn -0.999729 0.023276 0.000000
vn -0.706915 0.023276 -0.706915
vn 0.000000 0.023276 -0.999729
vn 0.707088 0.007311 -0.707088
vn 0.999973 0.007311 -0.000000
vn 0.707088 0.007311 0.707088
vn -0.000000 0.007311 0.999973
vn -0.707088 0.007311 0.707088
vn -0.999973 0.007311 0.000000
vn -0.707088 0.007311 -0.707088
vn 0.000000 0.007311 -0.999973
s 1
g Lamp_Post_Low
usemtl initialShadingGroup
f 97/1/1 98/90/2 32/94/3 25/91/4
f 98/2/2 99/4/5 31/5/6 32/3/3
f 99/4/5 100/6/7 30/7/8 31/5/6
f 100/6/7 101/8/9 29/9/10 30/7/8
f 101/8/9 102/10/11 28/11/12 29/9/10
f 102/10/11 103/12/13 27/13/14 28/11/12
f 103/12/13 104/14/15 26/15/16 27/13/14
f 104/14/15 97/1/1 25/91/4 26/15/16
f 1/92/17 2/93/18 18/108/19 17/18/20
f 2/16/18 3/19/21 19/20/22 18/17/19
f 3/19/21 4/21/23 20/22/24 19/20/22
f 4/21/23 5/23/25 21/24/26 20/22/24
f 5/23/25 6/25/27 22/26/28 21/24/26
f 6/25/27 7/27/29 23/28/30 22/26/28
f 7/27/29 8/29/31 24/30/32 23/28/30
f 8/29/31 1/92/17 17/18/20 24/30/32
f 26/15/16 25/91/4 33/100/33 34/31/34
f 27/13/14 26/15/16 34/31/34 35/32/35
f 28/11/12 27/13/14 35/32/35 36/33/36
f 29/9/10 28/11/12 36/33/36 37/34/37
f 30/7/8 29/9/10 37/34/37 38/35/38
f 31/5/6 30/7/8 38/35/38 39/36/39
f 32/3/3 31/5/6 39/36/39 40/37/40
f 25/91/4 32/94/3 40/95/40 33/100/33
f 56/38/41 49/39/42 41/97/43 42/40/44
f 55/41/45 56/38/41 42/40/44 43/42/46
f 54/43/47 55/41/45 43/42/46 44/44/48
f 53/45/49 54/43/47 44/44/48 45/46/50
f 52/47/51 53/45/49 45/46/50 46/48/52
f 51/49/53 52/47/51 46/48/52 47/50/54
f 50/51/55 51/49/53 47/50/54 48/52/56
f 49/39/42 50/96/55 48/98/56 41/97/43
f 42/40/44 41/97/43 57/105/57 58/53/58
f 43/42/46 42/40/44 58/53/58 59/54/59
f 44/44/48 43/42/46 59/54/59 60/55/60
f 45/46/50 44/44/48 60/55/60 61/56/61
f 46/48/52 45/46/50 61/56/61 62/57/62
f 47/50/54 46/48/52 62/57/62 63/58/63
f 48/52/56 47/50/54 63/58/63 64/59/64
f 41/97/43 48/98/56 64/99/64 57/105/57
f 33/100/33 40/95/40 50/96/55 49/39/42
f 40/37/40 39/36/39 51/49/53 50/51/55
f 39/36/39 38/35/38 52/47/51 51/49/53
f 38/35/38 37/34/37 53/45/49 52/47/51
f 37/34/37 36/33/36 54/43/47 53/45/49
f 36/33/36 35/32/35 55/41/45 54/43/47
f 35/32/35 34/31/34 56/38/41 55/41/45
f 34/31/34 33/100/33 49/39/42 56/38/41
f 80/60/65 73/61/66 65/102/67 66/62/68
f 79/63/69 80/60/65 66/62/68 67/64/70
f 78/65/71 79/63/69 67/64/70 68/66/72
f 77/67/73 78/65/71 68/66/72 69/68/74
f 76/69/75 77/67/73 69/68/74 70/70/76
f 75/71/77 76/69/75 70/70/76 71/72/78
f 74/73/79 75/71/77 71/72/78 72/74/80
f 73/61/66 74/101/79 72/103/80 65/102/67
f 66/62/68 65/102/67 81/106/81 82/75/82
f 67/64/70 66/62/68 82/75/82 83/76/83
f 68/66/72 67/64/70 83/76/83 84/77/84
f 69/68/74 68/66/72 84/77/84 85/78/85
f 70/70/76 69/68/74 85/78/85 86/79/86
f 71/72/78 70/70/76 86/79/86 87/80/87
f 72/74/80 71/72/78 87/80/87 88/81/88
f 65/102/67 72/103/80 88/104/88 81/106/81
f 57/105/57 64/99/64 74/101/79 73/61/66
f 64/59/64 63/58/63 75/71/77 74/73/79
f 63/58/63 62/57/62 76/69/75 75/71/77
f 62/57/62 61/56/61 77/67/73 76/69/75
f 61/56/61 60/55/60 78/65/71 77/67/73
f 60/55/60 59/54/59 79/63/69 78/65/71
f 59/54/59 58/53/58 80/60/65 79/63/69
f 58/53/58 57/105/57 73/61/66 80/60/65
f 82/75/82 81/106/81 89/82/89 90/83/90
f 83/76/83 82/75/82 90/83/90 91/84/91
f 84/77/84 83/76/83 91/84/91 92/85/92
f 85/78/85 84/77/84 92/85/92 93/86/93
f 86/79/86 85/78/85 93/86/93 94/87/94
f 87/80/87 86/79/86 94/87/94 95/88/95
f 88/81/88 87/80/87 95/88/95 96/89/96
f 81/106/81 88/104/88 96/107/96 89/82/89
f 90/109/90 89/124/89 9/110/97 16/111/98
f 91/112/91 90/109/90 16/111/98 15/113/99
f 92/114/92 91/112/91 15/113/99 14/115/100
f 93/116/93 92/114/92 14/115/100 13/117/101
f 94/118/94 93/116/93 13/117/101 12/119/102
f 95/120/95 94/118/94 12/119/102 11/121/103
f 96/122/96 95/120/95 11/121/103 10/123/104
f 89/124/89 96/125/96 10/126/104 9/110/97
f 17/18/20 18/108/19 98/90/2 97/1/1
f 18/17/19 19/20/22 99/4/5 98/2/2
f 19/20/22 20/22/24 100/6/7 99/4/5
f 20/22/24 21/24/26 101/8/9 100/6/7
f 21/24/26 22/26/28 102/10/11 101/8/9
f 22/26/28 23/28/30 103/12/13 102/10/11
f 23/28/30 24/30/32 104/14/15 103/12/13
f 24/30/32 17/18/20 97/1/1 104/14/15
