# This file uses centimeters as units for non-parametric coordinates.

mtllib plaza.mtl
g default
v 21.867228 -0.500000 22.845455
v 21.867228 0.500000 22.845455
v 21.867228 0.500000 -22.845455
v 21.867228 -0.500000 -22.845455
v 0.000001 -0.500000 30.897991
v 0.000001 -0.500000 -30.897991
v 0.000001 0.500000 -30.897991
v 0.000001 0.500000 30.897991
v 0.000001 0.500000 0.000000
v 30.897991 0.500000 0.000000
v 30.897991 -0.500000 0.000000
v 0.000001 -0.500000 0.000000
v -48.840611 -0.500000 -22.845455
v -57.871368 -0.500000 0.000000
v -57.871368 0.500000 0.000000
v -48.840611 0.500000 -22.845455
v -26.973383 -0.500000 -30.897991
v -26.973383 -0.500000 0.000000
v -26.973383 0.500000 -30.897991
v -26.973383 0.500000 0.000000
v -48.840611 -0.500000 22.845455
v -26.973383 -0.500000 30.897991
v -26.973383 0.500000 30.897991
v -48.840611 0.500000 22.845455
v 0.633922 0.110834 32.350300
v 0.633922 -0.110834 32.350300
v 23.528984 -0.110834 23.919270
v 23.528984 0.110834 23.919270
v 0.633922 -0.110834 -32.350300
v 0.633922 0.110834 -32.350300
v 23.528984 0.110834 -23.919270
v 23.528984 -0.110834 -23.919270
v 32.984222 0.110834 0.000000
v 32.984222 -0.110834 0.000000
v -50.502365 -0.110834 -23.919270
v -59.957600 -0.110834 0.000000
v -59.957600 0.110834 0.000000
v -50.502365 0.110834 -23.919270
v -27.607304 0.110834 -32.350300
v -27.607304 -0.110834 -32.350300
v -50.502365 -0.110834 23.919270
v -27.607304 -0.110834 32.350300
v -27.607304 0.110834 32.350300
v -50.502365 0.110834 23.919270
v -39.289425 -0.500000 -28.360594
v -40.502247 -0.110834 -29.693638
v -40.502247 0.110834 -29.693638
v -39.289425 0.500000 -28.360594
v -42.422379 0.500000 0.000000
v -39.289425 0.500000 28.360594
v -40.502247 0.110834 29.693638
v -40.502247 -0.110834 29.693638
v -39.289425 -0.500000 28.360594
v -42.422379 -0.500000 0.000000
v -13.486691 -0.500000 -31.560743
v -13.486691 -0.500000 0.000000
v -13.486691 -0.500000 31.560743
v -13.486691 -0.110834 33.044209
v -13.486691 0.110834 33.044209
v -13.486691 0.500000 31.560743
v -13.486691 0.500000 0.000000
v -13.486691 0.500000 -31.560743
v -13.486691 0.110834 -33.044209
v -13.486691 -0.110834 -33.044209
v 12.316045 -0.500000 28.360594
v 15.448997 -0.500000 0.000000
v 12.316045 -0.500000 -28.360594
v 13.528863 -0.110834 -29.693638
v 13.528863 0.110834 -29.693638
v 12.316045 0.500000 -28.360594
v 15.448997 0.500000 0.000000
v 12.316045 0.500000 28.360594
v 13.528863 0.110834 29.693638
v 13.528863 -0.110834 29.693638
v 29.553173 0.500000 12.316045
v 31.576191 0.110834 12.894940
v 31.576191 -0.110834 12.894940
v 29.553173 -0.500000 12.316045
v 13.882521 -0.500000 14.180297
v 0.000001 -0.500000 15.448996
v -13.486691 -0.500000 15.780372
v -26.973383 -0.500000 15.448996
v -40.855904 -0.500000 14.180297
v -56.526550 -0.500000 12.316045
v -58.549564 -0.110834 12.894940
v -58.549564 0.110834 12.894940
v -56.526550 0.500000 12.316045
v -40.855904 0.500000 14.180297
v -26.973383 0.500000 15.448996
v -13.486691 0.500000 15.780372
v 0.000001 0.500000 15.448996
v 13.882521 0.500000 14.180297
v 29.553173 -0.500000 -12.316045
v 31.576191 -0.110834 -12.894940
v 31.576191 0.110834 -12.894940
v 29.553173 0.500000 -12.316045
v 13.882521 0.500000 -14.180297
v 0.000001 0.500000 -15.448996
v -13.486691 0.500000 -15.780372
v -26.973383 0.500000 -15.448996
v -40.855904 0.500000 -14.180297
v -56.526550 0.500000 -12.316045
v -58.549564 0.110834 -12.894940
v -58.549564 -0.110834 -12.894940
v -56.526550 -0.500000 -12.316045
v -40.855904 -0.500000 -14.180297
v -26.973383 -0.500000 -15.448996
v -13.486691 -0.500000 -15.780372
v 0.000001 -0.500000 -15.448996
v 13.882521 -0.500000 -14.180297
vt 0.551500 0.369705
vt 0.551500 0.369705
vt 0.573789 0.382722
vt 0.573789 0.382722
vt 0.597456 0.602811
vt 0.558896 0.606395
vt 0.562750 0.579133
vt 0.600766 0.579133
vt 0.551500 0.503585
vt 0.551500 0.503585
vt 0.573789 0.490568
vt 0.573789 0.490568
vt 0.590214 0.436645
vt 0.555780 0.436645
vt 0.552288 0.468612
vt 0.587217 0.464410
vt 0.594864 0.436645
vt 0.594864 0.436645
vt 0.591726 0.465715
vt 0.591726 0.465715
vt 0.390843 0.465715
vt 0.390843 0.465715
vt 0.387704 0.436645
vt 0.387704 0.436645
vt 0.426789 0.436645
vt 0.430281 0.468612
vt 0.461224 0.471472
vt 0.461224 0.436645
vt 0.431069 0.503585
vt 0.431069 0.503585
vt 0.459811 0.509574
vt 0.459811 0.509574
vt 0.458362 0.608834
vt 0.424201 0.606395
vt 0.420346 0.579133
vt 0.458362 0.579133
vt 0.431069 0.369705
vt 0.431069 0.369705
vt 0.459811 0.363716
vt 0.459811 0.363716
vt 0.424201 0.551871
vt 0.458362 0.549432
vt 0.558896 0.551871
vt 0.597456 0.555455
vt 0.591726 0.407575
vt 0.591726 0.407575
vt 0.587217 0.408880
vt 0.552288 0.404677
vt 0.461224 0.401817
vt 0.430281 0.404677
vt 0.390843 0.407575
vt 0.390843 0.407575
vt 0.491285 0.472219
vt 0.491285 0.436645
vt 0.491285 0.511138
vt 0.491285 0.511138
vt 0.491548 0.579133
vt 0.491548 0.609471
vt 0.491285 0.362151
vt 0.491285 0.362151
vt 0.491548 0.548795
vt 0.491285 0.401070
vt 0.548797 0.372710
vt 0.570085 0.385143
vt 0.578544 0.535212
vt 0.555041 0.524609
vt 0.558026 0.522046
vt 0.582633 0.533147
vt 0.558026 0.636219
vt 0.555041 0.633657
vt 0.578544 0.623054
vt 0.582633 0.625118
vt 0.570085 0.488147
vt 0.548797 0.500580
vt 0.602435 0.603924
vt 0.605900 0.579133
vt 0.395352 0.464410
vt 0.392355 0.436645
vt 0.382331 0.579133
vt 0.385640 0.602811
vt 0.380662 0.603924
vt 0.377197 0.579133
vt 0.425071 0.636219
vt 0.428056 0.633657
vt 0.458362 0.638535
vt 0.456802 0.641327
vt 0.461224 0.506300
vt 0.433772 0.500580
vt 0.433772 0.372710
vt 0.461224 0.366990
vt 0.458362 0.519731
vt 0.428056 0.524609
vt 0.425071 0.522046
vt 0.456802 0.516938
vt 0.602435 0.554342
vt 0.395352 0.408880
vt 0.380662 0.554342
vt 0.385640 0.555455
vt 0.491285 0.507794
vt 0.491548 0.639809
vt 0.491548 0.642661
vt 0.491548 0.515605
vt 0.491548 0.518456
vt 0.491285 0.365496
vt 0.412483 0.488147
vt 0.408779 0.490568
vt 0.408779 0.490568
vt 0.404553 0.623054
vt 0.400464 0.625118
vt 0.404553 0.535212
vt 0.400464 0.533147
vt 0.408779 0.382722
vt 0.408779 0.382722
vt 0.412483 0.385143
vt 0.521345 0.471472
vt 0.521345 0.436645
vt 0.521345 0.401817
vt 0.521345 0.366990
vt 0.522758 0.363716
vt 0.522758 0.363716
vt 0.524735 0.519731
vt 0.526295 0.516938
vt 0.524735 0.549432
vt 0.524735 0.579133
vt 0.524735 0.608834
vt 0.524735 0.638535
vt 0.526295 0.641327
vt 0.522758 0.509574
vt 0.522758 0.509574
vt 0.521345 0.506300
vn 0.345561 0.000000 0.938396
vn 0.345561 0.000000 0.938396
vn 0.500052 0.000000 0.865996
vn 0.500052 0.000000 0.865996
vn 0.000000 1.000000 0.000000
vn 0.000000 1.000000 0.000000
vn 0.000000 1.000000 0.000000
vn 0.000000 1.000000 0.000000
vn 0.345561 0.000000 -0.938396
vn 0.345561 0.000000 -0.938396
vn 0.500052 0.000000 -0.865996
vn 0.500052 0.000000 -0.865996
vn 0.000000 -1.000000 0.000000
vn 0.000000 -1.000000 0.000000
vn 0.000000 -1.000000 0.000000
vn 0.000000 -1.000000 0.000000
vn 1.000000 0.000000 0.000000
vn 1.000000 0.000000 0.000000
vn 0.929977 0.000000 -0.367618
vn 0.929977 0.000000 -0.367618
vn -0.929977 0.000000 -0.367618
vn -0.929977 0.000000 -0.367618
vn -1.000000 0.000000 0.000000
vn -1.000000 0.000000 0.000000
vn 0.000000 -1.000000 0.000000
vn 0.000000 -1.000000 0.000000
vn 0.000000 -1.000000 0.000000
vn 0.000000 -1.000000 0.000000
vn -0.345561 0.000000 -0.938396
vn -0.345561 0.000000 -0.938396
vn -0.201786 0.000000 -0.979430
vn -0.201786 0.000000 -0.979430
vn 0.000000 1.000000 0.000000
vn 0.000000 1.000000 0.000000
vn 0.000000 1.000000 0.000000
vn 0.000000 1.000000 0.000000
vn -0.345561 0.000000 0.938396
vn -0.345561 0.000000 0.938396
vn -0.201786 0.000000 0.979430
vn -0.201786 0.000000 0.979430
vn 0.000000 1.000000 0.000000
vn 0.000000 1.000000 0.000000
vn 0.000000 1.000000 0.000000
vn 0.000000 1.000000 0.000000
vn 0.000000 1.000000 0.000000
vn 0.000000 1.000000 0.000000
vn 0.000000 1.000000 0.000000
vn 0.000000 1.000000 0.000000
vn 0.929977 0.000000 0.367618
vn 0.929977 0.000000 0.367618
vn 1.000000 0.000000 0.000000
vn 1.000000 0.000000 0.000000
vn 0.000000 -1.000000 0.000000
vn 0.000000 -1.000000 0.000000
vn 0.000000 -1.000000 0.000000
vn 0.000000 -1.000000 0.000000
vn 0.000000 -1.000000 0.000000
vn 0.000000 -1.000000 0.000000
vn 0.000000 -1.000000 0.000000
vn 0.000000 -1.000000 0.000000
vn -1.000000 0.000000 0.000000
vn -1.000000 0.000000 0.000000
vn -0.929977 0.000000 0.367618
vn -0.929977 0.000000 0.367618
vn 0.000000 -1.000000 0.000000
vn 0.000000 -1.000000 0.000000
vn 0.000000 -1.000000 0.000000
vn 0.000000 -1.000000 0.000000
vn 0.000000 0.000000 -1.000000
vn 0.000000 0.000000 -1.000000
vn -0.049082 0.000000 -0.998795
vn -0.049082 0.000000 -0.998795
vn 0.000000 1.000000 0.000000
vn 0.000000 1.000000 0.000000
vn 0.000000 1.000000 0.000000
vn 0.000000 1.000000 0.000000
vn 0.000000 0.000000 1.000000
vn 0.000000 0.000000 1.000000
vn -0.049082 0.000000 0.998795
vn -0.049082 0.000000 0.998795
vn 0.000000 1.000000 0.000000
vn 0.000000 1.000000 0.000000
vn 0.000000 1.000000 0.000000
vn 0.000000 1.000000 0.000000
vn 0.000000 -1.000000 0.000000
vn 0.000000 -1.000000 0.000000
vn 0.000000 -1.000000 0.000000
vn 0.000000 -1.000000 0.000000
vn 0.086034 -0.974704 0.206279
vn 0.072201 -0.973180 0.218420
vn 0.107911 -0.976438 0.186881
vn 0.107911 -0.976438 0.186881
vn 0.107911 0.976438 0.186881
vn 0.072201 0.973180 0.218420
vn 0.086034 0.974704 0.206279
vn 0.107911 0.976438 0.186881
vn 0.086034 0.974704 -0.206279
vn 0.072201 0.973180 -0.218420
vn 0.107911 0.976438 -0.186881
vn 0.107911 0.976438 -0.186881
vn 0.107911 -0.976438 -0.186881
vn 0.072201 -0.973180 -0.218420
vn 0.086034 -0.974704 -0.206279
vn 0.107911 -0.976438 -0.186881
vn 0.183341 -0.982846 -0.020019
vn 0.169245 -0.983123 -0.069464
vn 0.170836 -0.983221 -0.063969
vn 0.183341 -0.982846 -0.020019
vn 0.170836 0.983221 -0.063969
vn 0.169245 0.983123 -0.069464
vn 0.183341 0.982846 -0.020019
vn 0.183341 0.982846 -0.020019
vn -0.170836 -0.983221 -0.063969
vn -0.169245 -0.983123 -0.069464
vn -0.183341 -0.982846 -0.020019
vn -0.183341 -0.982846 -0.020019
vn -0.183341 0.982846 -0.020019
vn -0.169245 0.983123 -0.069464
vn -0.170836 0.983221 -0.063969
vn -0.183341 0.982846 -0.020019
vn -0.086034 0.974704 -0.206279
vn -0.072200 0.973180 -0.218420
vn -0.049128 0.969910 -0.238457
vn -0.049128 0.969910 -0.238457
vn -0.049128 -0.969910 -0.238457
vn -0.072200 -0.973180 -0.218420
vn -0.086034 -0.974704 -0.206279
vn -0.049128 -0.969910 -0.238457
vn -0.086034 -0.974704 0.206279
vn -0.072200 -0.973180 0.218420
vn -0.049128 -0.969910 0.238457
vn -0.049128 -0.969910 0.238457
vn -0.049128 0.969910 0.238457
vn -0.072200 0.973180 0.218420
vn -0.086034 0.974704 0.206279
vn -0.049128 0.969910 0.238457
vn 0.170836 -0.983221 0.063969
vn 0.169245 -0.983123 0.069464
vn 0.183341 -0.982846 0.020019
vn 0.183341 -0.982846 0.020019
vn 0.183341 0.982846 0.020019
vn 0.169245 0.983123 0.069464
vn 0.170836 0.983221 0.063969
vn 0.183341 0.982846 0.020019
vn -0.183341 -0.982846 0.020019
vn -0.169245 -0.983123 0.069464
vn -0.170836 -0.983221 0.063969
vn -0.183341 -0.982846 0.020019
vn -0.170836 0.983221 0.063969
vn -0.169245 0.983123 0.069464
vn -0.183341 0.982846 0.020019
vn -0.183341 0.982846 0.020019
vn 0.000000 -0.967270 -0.253750
vn 0.000000 -0.967270 -0.253750
vn -0.012469 -0.967195 -0.253730
vn -0.012469 -0.967195 -0.253730
vn -0.012469 0.967195 -0.253730
vn 0.000000 0.967270 -0.253750
vn 0.000000 0.967270 -0.253750
vn -0.012469 0.967195 -0.253730
vn 0.000000 0.967270 0.253750
vn 0.000000 0.967270 0.253750
vn -0.012469 0.967195 0.253730
vn -0.012469 0.967195 0.253730
vn -0.012469 -0.967195 0.253730
vn 0.000000 -0.967270 0.253750
vn 0.000000 -0.967270 0.253750
vn -0.012469 -0.967195 0.253730
vn -0.086034 -0.974704 -0.206279
vn -0.072200 -0.973180 -0.218420
vn -0.107911 -0.976438 -0.186881
vn -0.107911 -0.976438 -0.186881
vn -0.500052 0.000000 -0.865996
vn -0.345561 0.000000 -0.938396
vn -0.345561 0.000000 -0.938396
vn -0.500052 0.000000 -0.865996
vn -0.107911 0.976438 -0.186881
vn -0.072200 0.973180 -0.218420
vn -0.086034 0.974704 -0.206279
vn -0.107911 0.976438 -0.186881
vn 0.000000 1.000000 0.000000
vn 0.000000 1.000000 0.000000
vn 0.000000 1.000000 0.000000
vn 0.000000 1.000000 0.000000
vn 0.000000 1.000000 0.000000
vn 0.000000 1.000000 0.000000
vn 0.000000 1.000000 0.000000
vn 0.000000 1.000000 0.000000
vn -0.086034 0.974704 0.206279
vn -0.072200 0.973180 0.218420
vn -0.107911 0.976438 0.186881
vn -0.107911 0.976438 0.186881
vn -0.500052 0.000000 0.865996
vn -0.345561 0.000000 0.938396
vn -0.345561 0.000000 0.938396
vn -0.500052 0.000000 0.865996
vn -0.107911 -0.976438 0.186881
vn -0.072200 -0.973180 0.218420
vn -0.086034 -0.974704 0.206279
vn -0.107911 -0.976438 0.186881
vn 0.000000 -1.000000 0.000000
vn 0.000000 -1.000000 0.000000
vn 0.000000 -1.000000 0.000000
vn 0.000000 -1.000000 0.000000
vn 0.000000 -1.000000 0.000000
vn 0.000000 -1.000000 0.000000
vn 0.000000 -1.000000 0.000000
vn 0.000000 -1.000000 0.000000
vn 0.000000 -1.000000 0.000000
vn 0.000000 -1.000000 0.000000
vn 0.000000 -1.000000 0.000000
vn 0.000000 -1.000000 0.000000
vn 0.000000 -1.000000 0.000000
vn 0.000000 -1.000000 0.000000
vn 0.000000 -1.000000 0.000000
vn 0.000000 -1.000000 0.000000
vn 0.000000 -0.967270 0.253750
vn 0.000000 -0.967270 0.253750
vn 0.012469 -0.967195 0.253730
vn 0.012469 -0.967195 0.253730
vn 0.049082 0.000000 0.998795
vn 0.049082 0.000000 0.998795
vn 0.000000 0.000000 1.000000
vn 0.000000 0.000000 1.000000
vn 0.012469 0.967195 0.253730
vn 0.000000 0.967270 0.253750
vn 0.000000 0.967270 0.253750
vn 0.012469 0.967195 0.253730
vn 0.000000 1.000000 0.000000
vn 0.000000 1.000000 0.000000
vn 0.000000 1.000000 0.000000
vn 0.000000 1.000000 0.000000
vn 0.000000 1.000000 0.000000
vn 0.000000 1.000000 0.000000
vn 0.000000 1.000000 0.000000
vn 0.000000 1.000000 0.000000
vn 0.000000 0.967270 -0.253750
vn 0.000000 0.967270 -0.253750
vn 0.012469 0.967195 -0.253730
vn 0.012469 0.967195 -0.253730
vn 0.049082 0.000000 -0.998795
vn 0.049082 0.000000 -0.998795
vn 0.000000 0.000000 -1.000000
vn 0.000000 0.000000 -1.000000
vn 0.012469 -0.967195 -0.253730
vn 0.000000 -0.967270 -0.253750
vn 0.000000 -0.967270 -0.253750
vn 0.012469 -0.967195 -0.253730
vn 0.000000 -1.000000 0.000000
vn 0.000000 -1.000000 0.000000
vn 0.000000 -1.000000 0.000000
vn 0.000000 -1.000000 0.000000
vn 0.000000 -1.000000 0.000000
vn 0.000000 -1.000000 0.000000
vn 0.000000 -1.000000 0.000000
vn 0.000000 -1.000000 0.000000
vn 0.086034 -0.974704 -0.206279
vn 0.072201 -0.973180 -0.218420
vn 0.049128 -0.969910 -0.238457
vn 0.049128 -0.969910 -0.238457
vn 0.201786 0.000000 -0.979430
vn 0.201786 0.000000 -0.979430
vn 0.345561 0.000000 -0.938396
vn 0.345561 0.000000 -0.938396
vn 0.049128 0.969910 -0.238457
vn 0.072201 0.973180 -0.218420
vn 0.086034 0.974704 -0.206279
vn 0.049128 0.969910 -0.238457
vn 0.000000 1.000000 0.000000
vn 0.000000 1.000000 0.000000
vn 0.000000 1.000000 0.000000
vn 0.000000 1.000000 0.000000
vn 0.000000 1.000000 0.000000
vn 0.000000 1.000000 0.000000
vn 0.000000 1.000000 0.000000
vn 0.000000 1.000000 0.000000
vn 0.086034 0.974704 0.206279
vn 0.072201 0.973180 0.218420
vn 0.049128 0.969910 0.238457
vn 0.049128 0.969910 0.238457
vn 0.201786 0.000000 0.979430
vn 0.201786 0.000000 0.979430
vn 0.345561 0.000000 0.938396
vn 0.345561 0.000000 0.938396
vn 0.049128 -0.969910 0.238457
vn 0.072201 -0.973180 0.218420
vn 0.086034 -0.974704 0.206279
vn 0.049128 -0.969910 0.238457
vn 0.170836 0.983221 0.063969
vn 0.169245 0.983123 0.069464
vn 0.156129 0.981140 0.113966
vn 0.156129 0.981140 0.113966
vn 0.807706 0.000000 0.589585
vn 0.929977 0.000000 0.367618
vn 0.929977 0.000000 0.367618
vn 0.807706 0.000000 0.589585
vn 0.156129 -0.981140 0.113966
vn 0.169245 -0.983123 0.069464
vn 0.170836 -0.983221 0.063969
vn 0.156129 -0.981140 0.113966
vn 0.000000 -1.000000 0.000000
vn 0.000000 -1.000000 0.000000
vn 0.000000 -1.000000 0.000000
vn 0.000000 -1.000000 0.000000
vn 0.000000 -1.000000 0.000000
vn 0.000000 -1.000000 0.000000
vn 0.000000 -1.000000 0.000000
vn 0.000000 -1.000000 0.000000
vn 0.000000 -1.000000 0.000000
vn 0.000000 -1.000000 0.000000
vn 0.000000 -1.000000 0.000000
vn 0.000000 -1.000000 0.000000
vn 0.000000 -1.000000 0.000000
vn 0.000000 -1.000000 0.000000
vn 0.000000 -1.000000 0.000000
vn 0.000000 -1.000000 0.000000
vn 0.000000 -1.000000 0.000000
vn 0.000000 -1.000000 0.000000
vn 0.000000 -1.000000 0.000000
vn 0.000000 -1.000000 0.000000
vn 0.000000 -1.000000 0.000000
vn 0.000000 -1.000000 0.000000
vn 0.000000 -1.000000 0.000000
vn 0.000000 -1.000000 0.000000
vn -0.170836 -0.983221 0.063969
vn -0.169245 -0.983123 0.069464
vn -0.156129 -0.981140 0.113966
vn -0.156129 -0.981140 0.113966
vn -0.929977 0.000000 0.367618
vn -0.929977 0.000000 0.367618
vn -0.807707 0.000000 0.589585
vn -0.807707 0.000000 0.589585
vn -0.156129 0.981140 0.113966
vn -0.169245 0.983123 0.069464
vn -0.170836 0.983221 0.063969
vn -0.156129 0.981140 0.113966
vn 0.000000 1.000000 0.000000
vn 0.000000 1.000000 0.000000
vn 0.000000 1.000000 0.000000
vn 0.000000 1.000000 0.000000
vn 0.000000 1.000000 0.000000
vn 0.000000 1.000000 0.000000
vn 0.000000 1.000000 0.000000
vn 0.000000 1.000000 0.000000
vn 0.000000 1.000000 0.000000
vn 0.000000 1.000000 0.000000
vn 0.000000 1.000000 0.000000
vn 0.000000 1.000000 0.000000
vn 0.000000 1.000000 0.000000
vn 0.000000 1.000000 0.000000
vn 0.000000 1.000000 0.000000
vn 0.000000 1.000000 0.000000
vn 0.000000 1.000000 0.000000
vn 0.000000 1.000000 0.000000
vn 0.000000 1.000000 0.000000
vn 0.000000 1.000000 0.000000
vn 0.000000 1.000000 0.000000
vn 0.000000 1.000000 0.000000
vn 0.000000 1.000000 0.000000
vn 0.000000 1.000000 0.000000
vn 0.170836 -0.983221 -0.063969
vn 0.169245 -0.983123 -0.069464
vn 0.156129 -0.981140 -0.113966
vn 0.156129 -0.981140 -0.113966
vn 0.929977 0.000000 -0.367618
vn 0.929977 0.000000 -0.367618
vn 0.807706 0.000000 -0.589585
vn 0.807706 0.000000 -0.589585
vn 0.156129 0.981140 -0.113966
vn 0.169245 0.983123 -0.069464
vn 0.170836 0.983221 -0.063969
vn 0.156129 0.981140 -0.113966
vn 0.000000 1.000000 0.000000
vn 0.000000 1.000000 0.000000
vn 0.000000 1.000000 0.000000
vn 0.000000 1.000000 0.000000
vn 0.000000 1.000000 0.000000
vn 0.000000 1.000000 0.000000
vn 0.000000 1.000000 0.000000
vn 0.000000 1.000000 0.000000
vn 0.000000 1.000000 0.000000
vn 0.000000 1.000000 0.000000
vn 0.000000 1.000000 0.000000
vn 0.000000 1.000000 0.000000
vn 0.000000 1.000000 0.000000
vn 0.000000 1.000000 0.000000
vn 0.000000 1.000000 0.000000
vn 0.000000 1.000000 0.000000
vn 0.000000 1.000000 0.000000
vn 0.000000 1.000000 0.000000
vn 0.000000 1.000000 0.000000
vn 0.000000 1.000000 0.000000
vn 0.000000 1.000000 0.000000
vn 0.000000 1.000000 0.000000
vn 0.000000 1.000000 0.000000
vn 0.000000 1.000000 0.000000
vn -0.170836 0.983221 -0.063969
vn -0.169245 0.983123 -0.069464
vn -0.156129 0.981140 -0.113966
vn -0.156129 0.981140 -0.113966
vn -0.807707 0.000000 -0.589585
vn -0.929977 0.000000 -0.367618
vn -0.929977 0.000000 -0.367618
vn -0.807707 0.000000 -0.589585
vn -0.156129 -0.981140 -0.113966
vn -0.169245 -0.983123 -0.069464
vn -0.170836 -0.983221 -0.063969
vn -0.156129 -0.981140 -0.113966
vn 0.000000 -1.000000 0.000000
vn 0.000000 -1.000000 0.000000
vn 0.000000 -1.000000 0.000000
vn 0.000000 -1.000000 0.000000
vn 0.000000 -1.000000 0.000000
vn 0.000000 -1.000000 0.000000
vn 0.000000 -1.000000 0.000000
vn 0.000000 -1.000000 0.000000
vn 0.000000 -1.000000 0.000000
vn 0.000000 -1.000000 0.000000
vn 0.000000 -1.000000 0.000000
vn 0.000000 -1.000000 0.000000
vn 0.000000 -1.000000 0.000000
vn 0.000000 -1.000000 0.000000
vn 0.000000 -1.000000 0.000000
vn 0.000000 -1.000000 0.000000
vn 0.000000 -1.000000 0.000000
vn 0.000000 -1.000000 0.000000
vn 0.000000 -1.000000 0.000000
vn 0.000000 -1.000000 0.000000
vn 0.000000 -1.000000 0.000000
vn 0.000000 -1.000000 0.000000
vn 0.000000 -1.000000 0.000000
vn 0.000000 -1.000000 0.000000
s off
g pCube1
usemtl lambert3SG
f 73/1/1 74/2/2 27/3/3 28/4/4
f 96/5/5 97/6/6 71/7/7 10/8/8
f 68/9/9 69/10/10 31/11/11 32/12/12
f 11/13/13 66/14/14 110/15/15 93/16/16
f 33/17/17 34/18/18 94/19/19 95/20/20
f 103/21/21 104/22/22 36/23/23 37/24/24
f 54/25/25 106/26/26 107/27/27 18/28/28
f 46/29/29 47/30/30 39/31/31 40/32/32
f 100/33/33 101/34/34 49/35/35 20/36/36
f 51/37/37 52/38/38 42/39/39 43/40/40
f 49/35/41 88/41/42 89/42/43 20/36/44
f 10/8/45 71/7/46 92/43/47 75/44/48
f 76/45/49 77/46/50 34/18/51 33/17/52
f 78/47/53 79/48/54 66/14/55 11/13/56
f 82/49/57 83/50/58 54/25/59 18/28/60
f 37/24/61 36/23/62 85/51/63 86/52/64
f 107/27/65 108/53/66 56/54/67 18/28/68
f 63/55/69 64/56/70 40/32/71 39/31/72
f 61/57/73 99/58/74 100/33/75 20/36/76
f 58/59/77 59/60/78 43/40/79 42/39/80
f 89/42/81 90/61/82 61/57/83 20/36/84
f 56/54/85 81/62/86 82/49/87 18/28/88
f 74/2/89 65/63/90 1/64/91 27/3/92
f 2/65/93 72/66/94 73/67/95 28/68/96
f 69/69/97 70/70/98 3/71/99 31/72/100
f 4/73/101 67/74/102 68/9/103 32/12/104
f 11/13/105 93/16/106 94/19/107 34/18/108
f 95/75/109 96/5/110 10/8/111 33/76/112
f 104/22/113 105/77/114 14/78/115 36/23/116
f 15/79/117 102/80/118 103/81/119 37/82/120
f 47/83/121 48/84/122 19/85/123 39/86/124
f 17/87/125 45/88/126 46/29/127 40/32/128
f 52/38/129 53/89/130 22/90/131 42/39/132
f 23/91/133 50/92/134 51/93/135 43/94/136
f 77/46/137 78/47/138 11/13/139 34/18/140
f 10/8/141 75/44/142 76/95/143 33/76/144
f 14/78/145 84/96/146 85/51/147 36/23/148
f 86/97/149 87/98/150 15/79/151 37/82/152
f 64/56/153 55/99/154 17/87/155 40/32/156
f 19/85/157 62/100/158 63/101/159 39/86/160
f 59/102/161 60/103/162 23/91/163 43/94/164
f 22/90/165 57/104/166 58/59/167 42/39/168
f 46/29/169 45/88/170 13/105/171 35/106/172
f 38/107/173 47/30/174 46/29/175 35/106/176
f 16/108/177 48/84/178 47/83/179 38/109/180
f 15/79/181 49/35/182 101/34/183 102/80/184
f 87/98/185 88/41/186 49/35/187 15/79/188
f 51/93/189 50/92/190 24/110/191 44/111/192
f 41/112/193 52/38/194 51/37/195 44/113/196
f 21/114/197 53/89/198 52/38/199 41/112/200
f 14/78/201 54/25/202 83/50/203 84/96/204
f 105/77/205 106/26/206 54/25/207 14/78/208
f 108/53/209 109/115/210 12/116/211 56/54/212
f 12/116/213 80/117/214 81/62/215 56/54/216
f 58/59/217 57/104/218 5/118/219 26/119/220
f 26/119/221 25/120/222 59/60/223 58/59/224
f 8/121/225 60/103/226 59/102/227 25/122/228
f 90/61/229 91/123/230 9/124/231 61/57/232
f 9/124/233 98/125/234 99/58/235 61/57/236
f 63/101/237 62/100/238 7/126/239 30/127/240
f 30/128/241 29/129/242 64/56/243 63/55/244
f 6/130/245 55/99/246 64/56/247 29/129/248
f 79/48/249 80/117/250 12/116/251 66/14/252
f 109/115/253 110/15/254 66/14/255 12/116/256
f 68/9/257 67/74/258 6/130/259 29/129/260
f 29/129/261 30/128/262 69/10/263 68/9/264
f 7/126/265 70/70/266 69/69/267 30/127/268
f 97/6/269 98/125/270 9/124/271 71/7/272
f 91/123/273 92/43/274 71/7/275 9/124/276
f 73/67/277 72/66/278 8/121/279 25/122/280
f 25/120/281 26/119/282 74/2/283 73/1/284
f 5/118/285 65/63/286 74/2/287 26/119/288
f 76/95/289 75/44/290 2/65/291 28/68/292
f 27/3/293 77/46/294 76/45/295 28/4/296
f 1/64/297 78/47/298 77/46/299 27/3/300
f 65/63/301 79/48/302 78/47/303 1/64/304
f 5/118/305 80/117/306 79/48/307 65/63/308
f 81/62/309 80/117/310 5/118/311 57/104/312
f 82/49/313 81/62/314 57/104/315 22/90/316
f 53/89/317 83/50/318 82/49/319 22/90/320
f 84/96/321 83/50/322 53/89/323 21/114/324
f 85/51/325 84/96/326 21/114/327 41/112/328
f 86/52/329 85/51/330 41/112/331 44/113/332
f 24/110/333 87/98/334 86/97/335 44/111/336
f 24/110/337 50/92/338 88/41/339 87/98/340
f 89/42/341 88/41/342 50/92/343 23/91/344
f 60/103/345 90/61/346 89/42/347 23/91/348
f 8/121/349 91/123/350 90/61/351 60/103/352
f 72/66/353 92/43/354 91/123/355 8/121/356
f 75/44/357 92/43/358 72/66/359 2/65/360
f 94/19/361 93/16/362 4/73/363 32/12/364
f 95/20/365 94/19/366 32/12/367 31/11/368
f 3/71/369 96/5/370 95/75/371 31/72/372
f 70/70/373 97/6/374 96/5/375 3/71/376
f 7/126/377 98/125/378 97/6/379 70/70/380
f 99/58/381 98/125/382 7/126/383 62/100/384
f 100/33/385 99/58/386 62/100/387 19/85/388
f 48/84/389 101/34/390 100/33/391 19/85/392
f 102/80/393 101/34/394 48/84/395 16/108/396
f 103/81/397 102/80/398 16/108/399 38/109/400
f 35/106/401 104/22/402 103/21/403 38/107/404
f 13/105/405 105/77/406 104/22/407 35/106/408
f 13/105/409 45/88/410 106/26/411 105/77/412
f 107/27/413 106/26/414 45/88/415 17/87/416
f 55/99/417 108/53/418 107/27/419 17/87/420
f 6/130/421 109/115/422 108/53/423 55/99/424
f 67/74/425 110/15/426 109/115/427 6/130/428
f 93/16/429 110/15/430 67/74/431 4/73/432
