# This file uses centimeters as units for non-parametric coordinates.

mtllib ramp.mtl
g default
v -14.262068 -15.827327 20.641787
v 14.262068 -15.827327 20.641787
v -14.262068 -15.022207 21.234903
v 14.262068 -15.022207 21.234903
v -14.262068 10.297464 -28.369457
v 14.262068 10.297464 -28.369457
v -14.262068 9.492345 -28.962574
v 14.262068 9.492345 -28.962574
v -13.091105 -16.224173 21.645519
v 13.091105 -16.224173 21.645519
v 13.091105 -15.863186 21.911453
v -13.091105 -15.863186 21.911453
v -13.470883 10.397300 -29.557793
v 13.470883 10.397300 -29.557793
v 13.470883 9.842339 -29.587326
v -13.470883 9.842339 -29.587326
v -12.885993 10.286533 -30.916416
v 12.885993 10.286533 -30.916416
v 12.885993 9.842943 -30.914785
v -12.885993 9.842943 -30.914785
v -15.094720 -18.212351 21.895512
v -13.502711 -18.212351 21.895512
v -15.094720 -11.991168 21.878487
v -13.502711 -11.991168 21.878487
v -15.094720 -11.974136 20.286415
v -13.502711 -11.974136 20.286415
v -15.094720 -18.195318 20.303440
v -13.502711 -18.195318 20.303440
v 13.336902 -18.212351 21.895512
v 14.928910 -18.212351 21.895512
v 13.336902 -11.991168 21.878487
v 14.928910 -11.991168 21.878487
v 13.336902 -11.974136 20.286415
v 14.928910 -11.974136 20.286415
v 13.336902 -18.195318 20.303440
v 14.928910 -18.195318 20.303440
v 13.336902 7.590726 -28.366283
v 14.928910 7.590726 -28.366283
v 13.336902 13.811909 -28.383308
v 14.928910 13.811909 -28.383308
v 13.336902 13.828939 -29.975380
v 14.928910 13.828939 -29.975380
v 13.336902 7.607758 -29.958355
v 14.928910 7.607758 -29.958355
v -15.094720 7.590726 -28.366283
v -13.502711 7.590726 -28.366283
v -15.094720 13.811909 -28.383308
v -13.502711 13.811909 -28.383308
v -15.094720 13.828939 -29.975380
v -13.502711 13.828939 -29.975380
v -15.094720 7.607758 -29.958355
v -13.502711 7.607758 -29.958355
vt 0.111270 0.542225
vt 0.207151 0.542225
vt 0.207151 0.543199
vt 0.111270 0.543199
vt 0.001679 0.352224
vt 0.106192 0.352224
vt 0.106192 0.533977
vt 0.001679 0.533977
vt 0.258068 0.438850
vt 0.258068 0.349745
vt 0.259602 0.349745
vt 0.259602 0.438850
vt 0.106982 0.356894
vt 0.211439 0.356894
vt 0.211439 0.538549
vt 0.106982 0.538549
vt 0.015926 0.636564
vt 0.101878 0.635052
vt 0.101654 0.636580
vt 0.015702 0.638091
vt 0.113793 0.627129
vt 0.009058 0.627988
vt 0.008738 0.626135
vt 0.113473 0.625275
vt 0.014170 0.637437
vt 0.014270 0.636752
vt 0.005969 0.349745
vt 0.101902 0.349745
vt 0.007036 0.627811
vt 0.006892 0.626981
vt 0.103293 0.538331
vt 0.004578 0.538331
vt 0.102983 0.635076
vt 0.103346 0.635853
vt 0.109879 0.354606
vt 0.208542 0.354606
vt 0.115555 0.626107
vt 0.115138 0.627066
vt 0.101151 0.543309
vt 0.006721 0.543309
vt 0.104792 0.634113
vt 0.105116 0.634716
vt 0.112021 0.349745
vt 0.206400 0.349745
vt 0.117747 0.627437
vt 0.117372 0.628182
vt 0.285539 0.349745
vt 0.291043 0.349745
vt 0.291043 0.371254
vt 0.285539 0.371254
vt 0.279129 0.371313
vt 0.284633 0.371313
vt 0.284633 0.376818
vt 0.279129 0.376818
vt 0.241586 0.371313
vt 0.247091 0.371313
vt 0.247091 0.392822
vt 0.241586 0.392822
vt 0.266310 0.371313
vt 0.271814 0.371313
vt 0.271814 0.376818
vt 0.266310 0.376818
vt 0.279129 0.349745
vt 0.284633 0.349804
vt 0.284692 0.371313
vt 0.279188 0.371254
vt 0.237067 0.349804
vt 0.242571 0.349745
vt 0.242512 0.371254
vt 0.237008 0.371313
vt 0.291948 0.349745
vt 0.297453 0.349745
vt 0.297453 0.371254
vt 0.291948 0.371254
vt 0.285539 0.371254
vt 0.291043 0.371254
vt 0.291043 0.376759
vt 0.285539 0.376759
vt 0.259900 0.371313
vt 0.265404 0.371313
vt 0.265404 0.392822
vt 0.259900 0.392822
vt 0.272719 0.371313
vt 0.278224 0.371313
vt 0.278224 0.376818
vt 0.272719 0.376818
vt 0.272719 0.349745
vt 0.278224 0.349804
vt 0.278283 0.371313
vt 0.272778 0.371254
vt 0.243476 0.349804
vt 0.248981 0.349745
vt 0.248922 0.371254
vt 0.243418 0.371313
vt 0.212284 0.369389
vt 0.217789 0.369389
vt 0.217789 0.390898
vt 0.212284 0.390898
vt 0.279129 0.376818
vt 0.284633 0.376818
vt 0.284633 0.382322
vt 0.279129 0.382322
vt 0.249827 0.349745
vt 0.255332 0.349745
vt 0.255332 0.371254
vt 0.249827 0.371254
vt 0.291948 0.371254
vt 0.297453 0.371254
vt 0.297453 0.376759
vt 0.291948 0.376759
vt 0.230598 0.349745
vt 0.236103 0.349804
vt 0.236161 0.371313
vt 0.230657 0.371254
vt 0.259959 0.349804
vt 0.265463 0.349745
vt 0.265404 0.371254
vt 0.259900 0.371313
vt 0.235177 0.371313
vt 0.240681 0.371313
vt 0.240681 0.392822
vt 0.235177 0.392822
vt 0.272719 0.376818
vt 0.278224 0.376818
vt 0.278224 0.382322
vt 0.272719 0.382322
vt 0.247996 0.371264
vt 0.253500 0.371264
vt 0.253500 0.392773
vt 0.247996 0.392773
vt 0.266310 0.376818
vt 0.271814 0.376818
vt 0.271814 0.382322
vt 0.266310 0.382322
vt 0.224188 0.349745
vt 0.229693 0.349804
vt 0.229752 0.371313
vt 0.224247 0.371254
vt 0.266369 0.349804
vt 0.271873 0.349745
vt 0.271814 0.371254
vt 0.266310 0.371313
vn 0.000000 -0.593118 0.805115
vn 0.000000 -0.593118 0.805115
vn 0.000000 -0.593118 0.805115
vn 0.000000 -0.593118 0.805115
vn 0.000000 0.889049 0.457813
vn 0.000000 0.889049 0.457813
vn 0.000000 0.892888 0.450278
vn 0.000000 0.892888 0.450278
vn 0.000000 -0.003676 -0.999993
vn 0.000000 -0.003676 -0.999993
vn 0.000000 -0.003676 -0.999993
vn 0.000000 -0.003676 -0.999993
vn 0.000000 -0.890577 -0.454832
vn 0.000000 -0.890577 -0.454832
vn 0.000000 -0.891058 -0.453890
vn 0.000000 -0.891058 -0.453890
vn 0.999924 -0.007291 0.009898
vn 0.999922 0.005190 -0.011336
vn 0.999976 0.002871 -0.006270
vn 0.999886 -0.008956 0.012158
vn -0.999922 0.005189 -0.011336
vn -0.999924 -0.007292 0.009898
vn -0.999886 -0.008957 0.012158
vn -0.999976 0.002870 -0.006270
vn 0.000000 -0.891058 -0.453890
vn 0.000000 -0.891058 -0.453890
vn 0.000000 -0.929954 -0.367676
vn 0.000000 -0.929954 -0.367676
vn 0.999924 -0.007291 0.009898
vn 0.999886 -0.008956 0.012158
vn 0.665304 -0.442804 0.601079
vn 0.665304 -0.442804 0.601079
vn 0.000000 0.889049 0.457813
vn 0.000000 0.889049 0.457813
vn 0.000000 0.626821 0.779163
vn 0.000000 0.626821 0.779163
vn -0.999886 -0.008957 0.012158
vn -0.999924 -0.007292 0.009898
vn -0.665303 -0.442805 0.601079
vn -0.665303 -0.442805 0.601079
vn 0.000000 0.892888 0.450278
vn 0.000000 0.892888 0.450278
vn 0.000000 0.996490 0.083718
vn 0.000000 0.996490 0.083718
vn 0.999976 0.002871 -0.006270
vn 0.999922 0.005190 -0.011336
vn 0.757452 0.271770 -0.593639
vn 0.757452 0.271770 -0.593639
vn 0.000000 -0.890577 -0.454832
vn 0.000000 -0.890577 -0.454832
vn 0.000000 -0.872427 -0.488744
vn 0.000000 -0.872427 -0.488744
vn -0.999922 0.005189 -0.011336
vn -0.999976 0.002870 -0.006270
vn -0.757452 0.271769 -0.593640
vn -0.757452 0.271769 -0.593640
vn 0.000000 0.996693 -0.081258
vn 0.000000 0.996693 -0.081258
vn 0.000000 0.996693 -0.081258
vn 0.000000 0.996693 -0.081258
vn 0.916605 0.011169 -0.399637
vn 0.916605 0.011169 -0.399637
vn 0.916606 0.011169 -0.399637
vn 0.916605 0.011169 -0.399637
vn 0.000000 -1.000000 -0.000456
vn 0.000000 -1.000000 -0.000456
vn 0.000000 -1.000000 -0.000456
vn 0.000000 -1.000000 -0.000456
vn -0.916605 0.011169 -0.399637
vn -0.916605 0.011169 -0.399637
vn -0.916605 0.011169 -0.399637
vn -0.916605 0.011169 -0.399637
vn 0.000000 0.002737 0.999996
vn 0.000000 0.002737 0.999996
vn 0.000000 0.002737 0.999996
vn 0.000000 0.002737 0.999996
vn 0.000000 0.999943 0.010697
vn 0.000000 0.999943 0.010697
vn 0.000000 0.999943 0.010697
vn 0.000000 0.999943 0.010697
vn 0.000000 -0.002737 -0.999996
vn 0.000000 -0.002737 -0.999996
vn 0.000000 -0.002737 -0.999996
vn 0.000000 -0.002737 -0.999996
vn 0.000000 -0.999943 -0.010698
vn 0.000000 -0.999943 -0.010698
vn 0.000000 -0.999943 -0.010698
vn 0.000000 -0.999943 -0.010698
vn 1.000000 0.000000 0.000000
vn 1.000000 0.000000 0.000000
vn 1.000000 0.000000 0.000000
vn 1.000000 0.000000 0.000000
vn -1.000000 0.000000 0.000000
vn -1.000000 0.000000 0.000000
vn -1.000000 0.000000 0.000000
vn -1.000000 0.000000 0.000000
vn 0.000000 0.002737 0.999996
vn 0.000000 0.002737 0.999996
vn 0.000000 0.002737 0.999996
vn 0.000000 0.002737 0.999996
vn 0.000000 0.999943 0.010697
vn 0.000000 0.999943 0.010697
vn 0.000000 0.999943 0.010697
vn 0.000000 0.999943 0.010697
vn 0.000000 -0.002737 -0.999996
vn 0.000000 -0.002737 -0.999996
vn 0.000000 -0.002737 -0.999996
vn 0.000000 -0.002737 -0.999996
vn 0.000000 -0.999943 -0.010698
vn 0.000000 -0.999943 -0.010698
vn 0.000000 -0.999943 -0.010698
vn 0.000000 -0.999943 -0.010698
vn 1.000000 -0.000000 0.000000
vn 1.000000 -0.000000 0.000000
vn 1.000000 -0.000000 0.000000
vn 1.000000 -0.000000 0.000000
vn -1.000000 0.000000 0.000000
vn -1.000000 0.000000 0.000000
vn -1.000000 0.000000 0.000000
vn -1.000000 0.000000 0.000000
vn 0.000000 0.002737 0.999996
vn 0.000000 0.002737 0.999996
vn 0.000000 0.002737 0.999996
vn 0.000000 0.002737 0.999996
vn 0.000000 0.999943 0.010697
vn 0.000000 0.999943 0.010697
vn 0.000000 0.999943 0.010697
vn 0.000000 0.999943 0.010697
vn 0.000000 -0.002737 -0.999996
vn 0.000000 -0.002737 -0.999996
vn 0.000000 -0.002737 -0.999996
vn 0.000000 -0.002737 -0.999996
vn 0.000000 -0.999943 -0.010697
vn 0.000000 -0.999943 -0.010697
vn 0.000000 -0.999943 -0.010697
vn 0.000000 -0.999943 -0.010697
vn 1.000000 -0.000000 0.000000
vn 1.000000 -0.000000 0.000000
vn 1.000000 -0.000000 0.000000
vn 1.000000 -0.000000 0.000000
vn -1.000000 0.000000 0.000000
vn -1.000000 0.000000 0.000000
vn -1.000000 0.000000 0.000000
vn -1.000000 0.000000 0.000000
vn 0.000000 0.002737 0.999996
vn 0.000000 0.002737 0.999996
vn 0.000000 0.002737 0.999996
vn 0.000000 0.002737 0.999996
vn 0.000000 0.999943 0.010697
vn 0.000000 0.999943 0.010697
vn 0.000000 0.999943 0.010697
vn 0.000000 0.999943 0.010697
vn 0.000000 -0.002737 -0.999996
vn 0.000000 -0.002737 -0.999996
vn 0.000000 -0.002737 -0.999996
vn 0.000000 -0.002737 -0.999996
vn 0.000000 -0.999943 -0.010697
vn 0.000000 -0.999943 -0.010697
vn 0.000000 -0.999943 -0.010697
vn 0.000000 -0.999943 -0.010697
vn 1.000000 0.000000 0.000000
vn 1.000000 0.000000 0.000000
vn 1.000000 0.000000 0.000000
vn 1.000000 0.000000 0.000000
vn -1.000000 0.000000 0.000000
vn -1.000000 0.000000 0.000000
vn -1.000000 0.000000 0.000000
vn -1.000000 0.000000 0.000000
s off
g polySurface5
usemtl lambert3SG
f 9/1/1 10/2/2 11/3/3 12/4/4
f 3/5/5 4/6/6 6/7/7 5/8/8
f 17/9/9 18/10/10 19/11/11 20/12/12
f 7/13/13 8/14/14 2/15/15 1/16/16
f 2/17/17 8/18/18 6/19/19 4/20/20
f 7/21/21 1/22/22 3/23/23 5/24/24
f 1/16/25 2/15/26 10/2/27 9/1/28
f 2/17/29 4/20/30 11/25/31 10/26/32
f 4/6/33 3/5/34 12/27/35 11/28/36
f 3/23/37 1/22/38 9/29/39 12/30/40
f 5/8/41 6/7/42 14/31/43 13/32/44
f 6/19/45 8/18/46 15/33/47 14/34/48
f 8/14/49 7/13/50 16/35/51 15/36/52
f 7/21/53 5/24/54 13/37/55 16/38/56
f 13/32/57 14/31/58 18/39/59 17/40/60
f 14/34/61 15/33/62 19/41/63 18/42/64
f 15/36/65 16/35/66 20/43/67 19/44/68
f 16/38/69 13/37/70 17/45/71 20/46/72
f 21/47/73 22/48/74 24/49/75 23/50/76
f 23/51/77 24/52/78 26/53/79 25/54/80
f 25/55/81 26/56/82 28/57/83 27/58/84
f 27/59/85 28/60/86 22/61/87 21/62/88
f 22/63/89 28/64/90 26/65/91 24/66/92
f 27/67/93 21/68/94 23/69/95 25/70/96
f 29/71/97 30/72/98 32/73/99 31/74/100
f 31/75/101 32/76/102 34/77/103 33/78/104
f 33/79/105 34/80/106 36/81/107 35/82/108
f 35/83/109 36/84/110 30/85/111 29/86/112
f 30/87/113 36/88/114 34/89/115 32/90/116
f 35/91/117 29/92/118 31/93/119 33/94/120
f 37/95/121 38/96/122 40/97/123 39/98/124
f 39/99/125 40/100/126 42/101/127 41/102/128
f 41/103/129 42/104/130 44/105/131 43/106/132
f 43/107/133 44/108/134 38/109/135 37/110/136
f 38/111/137 44/112/138 42/113/139 40/114/140
f 43/115/141 37/116/142 39/117/143 41/118/144
f 45/119/145 46/120/146 48/121/147 47/122/148
f 47/123/149 48/124/150 50/125/151 49/126/152
f 49/127/153 50/128/154 52/129/155 51/130/156
f 51/131/157 52/132/158 46/133/159 45/134/160
f 46/135/161 52/136/162 50/137/163 48/138/164
f 51/139/165 45/140/166 47/141/167 49/142/168
