# This file uses centimeters as units for non-parametric coordinates.

mtllib Wall_Sign_pole.mtl
g default
v -0.799457 4.876647 0.020431
v 0.841341 4.876647 0.020431
v -0.799457 4.917509 0.020431
v 0.841341 4.917509 0.020431
v -0.799457 4.917509 -0.020431
v 0.841341 4.917509 -0.020431
v -0.799457 4.876647 -0.020431
v 0.841341 4.876647 -0.020431
v -0.799457 4.897078 0.027352
v 0.841341 4.897078 0.027352
v 0.841341 4.897078 -0.027352
v -0.799457 4.924430 0.000000
v 0.841341 4.924430 0.000000
v 0.841341 4.897078 0.000000
v 0.841341 4.869726 0.000000
v -0.867736 4.897078 -0.027352
v -0.867736 4.897078 0.000000
v -0.867736 4.924430 0.000000
v -0.867736 4.917509 -0.020431
v -0.867736 4.876647 -0.020431
v -0.867736 4.869726 0.000000
v -0.867736 4.876647 0.020431
v -0.867736 4.897078 0.027352
v -0.867736 4.917509 0.020431
v -0.799457 4.941063 0.000000
v -0.799457 4.929932 -0.032855
v -0.799457 4.897078 -0.043985
v -0.799457 4.864224 -0.032855
v -0.799457 4.853093 0.000000
v -0.799457 4.864224 0.032855
v -0.799457 4.897078 0.043985
v -0.799457 4.929932 0.032855
v -0.799457 4.869726 0.000000
v -0.799457 4.897078 -0.027352
v -0.846269 4.929932 -0.032855
v -0.846269 4.897078 -0.043985
v -0.846269 4.864224 -0.032855
v -0.846269 4.853093 0.000000
v -0.846269 4.864224 0.032855
v -0.846269 4.897078 0.043985
v -0.846269 4.929932 0.032855
v -0.846269 4.941063 0.000000
v 0.824824 4.897078 -0.027352
v 0.824824 4.869726 0.000000
v 0.841341 4.897077 -0.114121
v 0.841341 4.838274 -0.113359
v 0.841341 4.836670 0.000000
v 0.841341 4.838274 0.113359
v 0.841341 4.897077 0.114121
v 0.841341 4.955882 0.113359
v 0.841341 4.957485 0.000000
v 0.841341 4.955882 -0.113359
v 0.824823 4.876647 0.020431
v 0.824823 4.876647 -0.020431
v 0.824823 4.917509 -0.020431
v 0.824823 4.924430 0.000000
v 0.824823 4.917509 0.020431
v 0.824823 4.897078 0.027352
v 0.824824 4.897077 -0.114121
v 0.824823 4.838274 -0.113359
v 0.824824 4.836670 0.000000
v 0.824823 4.838274 0.113359
v 0.824823 4.897077 0.114121
v 0.824823 4.955882 0.113359
v 0.824823 4.957485 0.000000
v 0.824823 4.955882 -0.113359
v 0.840655 4.838274 -0.113359
v 0.840655 4.838274 0.113359
v 0.840655 4.897077 0.114121
v 0.840655 4.955882 0.113359
v 0.840655 4.957485 0.000000
v 0.840655 4.955882 -0.113359
v 0.840655 4.897077 -0.114121
v 0.840655 4.836670 0.000000
vt 0.216862 0.057627
vt 0.296939 0.057055
vt 0.239741 0.057463
vt 0.228301 0.057545
vt 0.642580 0.573066
vt 0.262620 0.057300
vt 0.630622 0.607512
vt 0.683471 0.878529
vt 0.683517 0.832303
vt 0.729776 0.832634
vt 0.718216 0.866951
vt 0.856425 0.238348
vt 0.836060 0.238346
vt 0.836062 0.217980
vt 0.851575 0.222813
vt 0.285500 0.057138
vt 0.683561 0.786623
vt 0.717977 0.798454
vt 0.851593 0.253861
vt 0.836058 0.258712
vt 0.636980 0.831970
vt 0.648594 0.866607
vt 0.648969 0.797809
vt 0.820544 0.253878
vt 0.815694 0.238344
vt 0.820527 0.222831
vt 0.836119 0.196918
vt 0.865595 0.208988
vt 0.877488 0.238405
vt 0.865419 0.267881
vt 0.836001 0.279774
vt 0.806524 0.267704
vt 0.794632 0.238287
vt 0.806701 0.208811
vt 0.280197 0.918603
vt 0.542829 0.193864
vt 0.613853 0.198167
vt 0.257318 0.918767
vt 0.609549 0.269190
vt 0.573308 0.279070
vt 0.538525 0.264887
vt 0.528647 0.228646
vt 0.571557 0.307981
vt 0.515622 0.285172
vt 0.499736 0.226894
vt 0.522542 0.170961
vt 0.580822 0.155073
vt 0.636756 0.177882
vt 0.652642 0.236159
vt 0.629836 0.292093
vt 0.080611 0.726225
vt 0.100705 0.812601
vt 0.082161 0.952381
vt 0.096420 0.187265
vt 0.097013 0.273775
vt 0.097606 0.360287
vt 0.098562 0.499933
vt 0.099519 0.639579
vt 0.483403 0.607546
vt 0.487826 0.509591
vt 0.871192 0.737276
vt 0.874717 0.833671
vt 0.677105 0.561464
vt 0.683614 0.732129
vt 0.677105 0.506758
vt 0.491391 0.732173
vt 0.711651 0.573029
vt 0.487492 0.830899
vt 0.866989 0.509187
vt 0.486176 0.932226
vt 0.723625 0.607490
vt 0.683416 0.935131
vt 0.871440 0.607453
vt 0.875777 0.932506
vt 0.100112 0.726091
vt 0.870851 0.737607
vt 0.874366 0.833850
vt 0.683575 0.732472
vt 0.491666 0.732520
vt 0.487778 0.831087
vt 0.486468 0.932245
vt 0.683375 0.935145
vt 0.782022 0.188639
vt 0.833051 0.165043
vt 0.762757 0.241355
vt 0.786352 0.292383
vt 0.839069 0.311649
vt 0.909363 0.235338
vt 0.890097 0.288053
vt 0.885768 0.184309
vt 0.579070 0.183984
vt 0.291637 0.918521
vt 0.234438 0.918929
vt 0.245878 0.918847
vt 0.623732 0.234407
vt 0.268757 0.918685
vt 0.211558 0.919092
vt 0.222998 0.919011
vt 0.712051 0.642357
vt 0.251181 0.057381
vt 0.873399 0.709040
vt 0.677105 0.654254
vt 0.677105 0.711733
vt 0.642180 0.642353
vt 0.274060 0.057219
vt 0.481457 0.708800
vt 0.080018 0.639713
vt 0.079061 0.500067
vt 0.078104 0.360421
vt 0.077512 0.273909
vt 0.076919 0.187399
vt 0.081204 0.812735
vt 0.875420 0.932524
vt 0.101662 0.952247
vt 0.095464 0.047619
vt 0.075963 0.047753
vt 0.205422 0.057708
vt 0.303076 0.918441
vn 1.000000 -0.000000 0.000000
vn 1.000000 0.000000 0.000000
vn 1.000000 0.000000 0.000000
vn 1.000000 0.000000 0.000000
vn -1.000000 0.000000 0.000000
vn -1.000000 -0.000000 0.000000
vn -1.000000 0.000000 0.000000
vn -1.000000 0.000001 0.000000
vn 1.000000 0.000000 0.000000
vn 1.000000 0.000000 0.000000
vn -1.000000 -0.000001 0.000000
vn -1.000000 -0.000000 0.000000
vn 1.000000 -0.000000 0.000000
vn 1.000000 -0.000001 0.000000
vn 1.000000 0.000001 0.000000
vn -1.000000 0.000000 0.000000
vn -1.000000 0.000000 0.000000
vn -1.000000 0.000000 0.000000
vn -0.591634 0.763575 -0.258694
vn -0.591634 0.763575 -0.258694
vn -0.591634 0.763575 -0.258694
vn -0.591634 0.763575 -0.258694
vn -0.591634 0.258678 -0.763580
vn -0.591634 0.258678 -0.763580
vn -0.591634 0.258678 -0.763580
vn -0.591634 0.258678 -0.763580
vn -0.591633 -0.763576 -0.258694
vn -0.591633 -0.763576 -0.258694
vn -0.591633 -0.763576 -0.258694
vn -0.591633 -0.763576 -0.258694
vn -0.591636 -0.258687 -0.763576
vn -0.591636 -0.258687 -0.763576
vn -0.591636 -0.258687 -0.763576
vn -0.591636 -0.258687 -0.763576
vn -0.591634 -0.763575 0.258694
vn -0.591634 -0.763575 0.258694
vn -0.591634 -0.763575 0.258694
vn -0.591634 -0.763575 0.258694
vn -0.591636 -0.258687 0.763576
vn -0.591636 -0.258687 0.763576
vn -0.591636 -0.258687 0.763576
vn -0.591636 -0.258687 0.763576
vn -0.591634 0.258678 0.763580
vn -0.591634 0.258678 0.763580
vn -0.591634 0.258678 0.763580
vn -0.591634 0.258678 0.763580
vn -0.591633 0.763576 0.258694
vn -0.591633 0.763576 0.258694
vn -0.591633 0.763576 0.258694
vn -0.591633 0.763576 0.258694
vn 1.000000 0.000000 0.000000
vn 1.000000 0.000000 0.000000
vn 1.000000 0.000000 0.000000
vn 1.000000 0.000000 0.000000
vn 1.000000 0.000000 0.000000
vn 1.000000 0.000000 0.000000
vn 1.000000 0.000000 0.000000
vn 1.000000 0.000000 0.000000
vn 1.000000 0.000002 0.000000
vn 1.000000 0.000002 0.000000
vn 1.000000 0.000002 0.000000
vn 1.000000 0.000002 0.000000
vn 1.000000 0.000000 0.000000
vn 1.000000 0.000000 0.000000
vn 1.000000 0.000000 0.000000
vn 1.000000 0.000000 0.000000
vn 1.000000 0.000000 0.000000
vn 1.000000 0.000000 0.000000
vn 1.000000 0.000000 0.000000
vn 1.000000 0.000000 0.000000
vn 1.000000 0.000000 0.000000
vn 1.000000 0.000000 0.000000
vn 1.000000 0.000000 0.000000
vn 1.000000 0.000000 0.000000
vn 1.000000 -0.000002 0.000000
vn 1.000000 -0.000002 0.000000
vn 1.000000 -0.000002 0.000000
vn 1.000000 -0.000002 0.000000
vn 1.000000 0.000000 0.000000
vn 1.000000 0.000000 0.000000
vn 1.000000 0.000000 0.000000
vn 1.000000 0.000000 0.000000
vn 0.000000 0.320864 -0.947125
vn 0.000000 0.320864 -0.947125
vn 0.000000 0.320864 -0.947125
vn 0.000000 0.320864 -0.947125
vn 0.000000 -0.320873 -0.947122
vn 0.000000 -0.320873 -0.947122
vn 0.000000 -0.320873 -0.947122
vn 0.000000 -0.320873 -0.947122
vn 0.000000 -0.947119 -0.320884
vn 0.000000 -0.947119 -0.320884
vn 0.000000 -0.947119 -0.320884
vn 0.000000 -0.947119 -0.320884
vn 0.000000 -0.947119 0.320884
vn 0.000000 -0.947119 0.320884
vn 0.000000 -0.947119 0.320884
vn 0.000000 -0.947119 0.320884
vn 0.000000 -0.320873 0.947122
vn 0.000000 -0.320873 0.947122
vn 0.000000 -0.320873 0.947122
vn 0.000000 -0.320873 0.947122
vn 0.000000 0.320864 0.947125
vn 0.000000 0.320864 0.947125
vn 0.000000 0.320864 0.947125
vn 0.000000 0.320864 0.947125
vn 0.000000 0.947119 0.320884
vn 0.000000 0.947119 0.320884
vn 0.000000 0.947119 0.320884
vn 0.000000 0.947119 0.320884
vn 0.000000 0.947119 -0.320884
vn 0.000000 0.947119 -0.320884
vn 0.000000 0.947119 -0.320884
vn 0.000000 0.947119 -0.320884
vn 0.000000 -0.012956 -0.999916
vn 0.000000 -0.000000 -1.000000
vn 0.000000 -0.000000 -1.000000
vn 0.000000 -0.012956 -0.999916
vn 0.000000 -1.000000 0.000000
vn 0.000000 -0.999900 -0.014151
vn 0.000000 -0.999900 -0.014151
vn 0.000000 -1.000000 0.000000
vn 0.000000 -0.999900 0.014151
vn 0.000000 -0.999900 0.014151
vn 0.000000 0.000000 1.000000
vn 0.000000 -0.012956 0.999916
vn 0.000000 -0.012956 0.999916
vn 0.000000 0.000000 1.000000
vn 0.000000 0.012956 0.999916
vn 0.000000 0.012956 0.999916
vn 0.000000 1.000000 0.000000
vn 0.000000 0.999900 0.014138
vn 0.000000 0.999900 0.014138
vn 0.000000 1.000000 0.000000
vn 0.000000 0.999900 -0.014138
vn 0.000000 0.999900 -0.014138
vn 0.000000 0.012956 -0.999916
vn 0.000000 0.012956 -0.999916
vn -1.000000 0.000008 -0.000002
vn -1.000000 0.000008 -0.000002
vn -1.000000 0.000008 -0.000002
vn -1.000000 0.000008 -0.000002
vn 1.000000 0.000002 0.000000
vn 1.000000 0.000002 0.000000
vn 1.000000 0.000002 0.000000
vn 1.000000 0.000002 0.000000
vn -1.000000 -0.000006 0.000004
vn -1.000000 -0.000006 0.000004
vn -1.000000 -0.000006 0.000004
vn -1.000000 -0.000006 0.000004
vn 1.000000 0.000000 0.000000
vn 1.000000 0.000000 0.000000
vn 1.000000 0.000000 0.000000
vn 1.000000 0.000000 0.000000
vn -1.000000 -0.000006 -0.000004
vn -1.000000 -0.000006 -0.000004
vn -1.000000 -0.000006 -0.000004
vn -1.000000 -0.000006 -0.000004
vn 1.000000 0.000000 0.000000
vn 1.000000 0.000000 0.000000
vn 1.000000 0.000000 0.000000
vn 1.000000 0.000000 0.000000
vn -1.000000 0.000002 0.000000
vn -1.000000 0.000002 0.000000
vn -1.000000 0.000002 0.000000
vn -1.000000 0.000002 0.000000
vn 1.000000 0.000002 0.000000
vn 1.000000 0.000002 0.000000
vn 1.000000 0.000002 0.000000
vn 1.000000 0.000002 0.000000
vn -1.000000 -0.000002 0.000000
vn -1.000000 -0.000002 0.000000
vn -1.000000 -0.000002 0.000000
vn -1.000000 -0.000002 0.000000
vn 1.000000 -0.000002 0.000000
vn 1.000000 -0.000002 0.000000
vn 1.000000 -0.000002 0.000000
vn 1.000000 -0.000002 0.000000
vn -1.000000 0.000003 0.000000
vn -1.000000 0.000003 0.000000
vn -1.000000 0.000003 0.000000
vn -1.000000 0.000003 0.000000
vn 1.000000 0.000000 0.000000
vn 1.000000 0.000000 0.000000
vn 1.000000 0.000000 0.000000
vn 1.000000 0.000000 0.000000
vn -1.000000 0.000003 0.000000
vn -1.000000 0.000003 0.000000
vn -1.000000 0.000003 0.000000
vn -1.000000 0.000003 0.000000
vn 1.000000 0.000000 0.000000
vn 1.000000 0.000000 0.000000
vn 1.000000 0.000000 0.000000
vn 1.000000 0.000000 0.000000
vn -1.000000 -0.000008 -0.000002
vn -1.000000 -0.000008 -0.000002
vn -1.000000 -0.000008 -0.000002
vn -1.000000 -0.000008 -0.000002
vn 1.000000 -0.000002 0.000000
vn 1.000000 -0.000002 0.000000
vn 1.000000 -0.000002 0.000000
vn 1.000000 -0.000002 0.000000
vn 0.000000 -0.947117 0.320888
vn 0.000000 -1.000000 0.000000
vn 0.000000 -1.000000 0.000000
vn 0.000000 -0.947117 0.320888
vn 0.000000 -0.947117 -0.320888
vn 0.000000 -0.947117 -0.320888
vn 0.000000 -0.320875 -0.947122
vn 0.000000 0.000000 -1.000000
vn 0.000000 0.000000 -1.000000
vn 0.000000 -0.320875 -0.947122
vn 0.000000 0.320855 -0.947129
vn 0.000000 0.320855 -0.947128
vn 0.000000 0.947121 -0.320876
vn 0.000000 1.000000 0.000000
vn 0.000000 1.000000 0.000000
vn 0.000000 0.947121 -0.320876
vn 0.000000 0.947121 0.320876
vn 0.000000 0.947121 0.320876
vn 0.000000 0.320859 0.947127
vn 0.000000 0.000000 1.000000
vn 0.000000 0.000000 1.000000
vn 0.000000 0.320859 0.947127
vn 0.000000 -0.320871 0.947123
vn 0.000000 -0.320871 0.947123
vn 0.000000 -0.000000 -1.000000
vn 0.000000 -0.012956 -0.999916
vn 0.000000 -0.999900 -0.014149
vn 0.000000 -1.000000 0.000000
vn 0.000000 -0.999900 0.014149
vn 0.000000 -0.012956 0.999916
vn 0.000000 0.000000 1.000000
vn 0.000000 0.012956 0.999916
vn 0.000000 0.999900 0.014138
vn 0.000000 1.000000 0.000000
vn 0.000000 0.999900 -0.014138
vn 0.000000 0.012956 -0.999916
s 1
g pCube2
usemtl initialShadingGroup
f 13/8/1 14/9/2 11/10/3 6/11/4
s 2
f 16/12/5 17/13/6 18/14/7 19/15/8
s 1
f 14/9/2 15/17/9 8/18/10 11/10/3
s 2
f 20/19/11 21/20/12 17/13/6 16/12/5
s 1
f 10/21/13 14/9/2 13/8/1 4/22/14
f 2/23/15 15/17/9 14/9/2 10/21/13
s 2
f 17/13/6 21/20/12 22/24/16 23/25/17
f 18/14/7 17/13/6 23/25/17 24/26/18
s off
f 19/15/19 18/14/20 42/27/21 35/28/22
f 16/12/23 19/15/24 35/28/25 36/29/26
f 21/20/27 20/19/28 37/30/29 38/31/30
f 20/19/31 16/12/32 36/29/33 37/30/34
f 22/24/35 21/20/36 38/31/37 39/32/38
f 23/25/39 22/24/40 39/32/41 40/33/42
f 24/26/43 23/25/44 40/33/45 41/34/46
f 18/14/47 24/26/48 41/34/49 42/27/50
f 3/41/51 12/40/52 25/43/53 32/44/54
f 9/42/55 3/41/56 32/44/57 31/45/58
f 1/36/59 9/42/60 31/45/61 30/46/62
f 33/91/63 1/36/64 30/46/65 29/47/66
f 7/37/67 33/91/68 29/47/69 28/48/70
f 34/95/71 7/37/72 28/48/73 27/49/74
f 5/39/75 34/95/76 27/49/77 26/50/78
f 12/40/79 5/39/80 26/50/81 25/43/82
f 26/90/83 27/88/84 36/29/85 35/28/86
f 27/88/87 28/89/88 37/30/89 36/29/90
f 28/89/91 29/87/92 38/31/93 37/30/94
f 29/87/95 30/86/96 39/32/97 38/31/98
f 30/86/99 31/85/100 40/33/101 39/32/102
f 31/85/103 32/83/104 41/34/105 40/33/106
f 32/83/107 25/84/108 42/27/109 41/34/110
f 25/84/111 26/90/112 35/28/113 42/27/114
s 3
f 60/112/115 59/51/116 73/75/117 67/52/118
s 4
f 61/53/119 60/112/120 67/52/121 74/114/122
f 62/111/123 61/116/119 74/115/122 68/54/124
s 5
f 63/110/125 62/111/126 68/54/127 69/55/128
f 64/109/129 63/110/125 69/55/128 70/56/130
s 6
f 65/108/131 64/109/132 70/56/133 71/57/134
f 66/107/135 65/108/131 71/57/134 72/58/136
s 3
f 59/51/116 66/107/137 72/58/138 73/75/117
s off
f 54/5/139 43/7/140 59/59/141 60/60/142
f 11/10/143 8/18/144 46/61/145 45/62/146
f 44/63/147 54/5/148 60/60/149 61/65/150
f 8/18/151 15/17/152 47/64/153 46/61/154
f 53/67/155 44/63/156 61/65/157 62/69/158
f 15/17/159 2/23/160 48/66/161 47/64/162
f 58/71/163 53/67/164 62/69/165 63/73/166
f 2/23/167 10/21/168 49/68/169 48/66/170
f 57/99/171 58/71/172 63/73/173 64/101/174
f 10/21/175 4/22/176 50/70/177 49/68/178
f 56/102/179 57/99/180 64/101/181 65/103/182
f 4/22/183 13/8/184 51/72/185 50/70/186
f 55/104/187 56/102/188 65/103/189 66/106/190
f 13/8/191 6/11/192 52/74/193 51/72/194
f 43/7/195 55/104/196 66/106/197 59/59/198
f 6/11/199 11/10/200 45/62/201 52/74/202
s 7
f 1/92/203 33/35/204 44/105/205 53/16/206
f 33/35/204 7/96/207 54/6/208 44/105/205
s 8
f 7/96/209 34/38/210 43/100/211 54/6/212
f 34/38/210 5/94/213 55/3/214 43/100/211
s 9
f 5/94/215 12/93/216 56/4/217 55/3/218
f 12/93/216 3/98/219 57/1/220 56/4/217
s 10
f 3/98/221 9/97/222 58/117/223 57/1/224
f 9/118/222 1/92/225 53/16/226 58/2/223
s 3
f 67/76/118 73/77/117 45/62/227 46/61/228
s 4
f 74/78/122 67/76/121 46/61/229 47/64/230
f 68/79/124 74/78/122 47/64/230 48/66/231
s 5
f 69/80/128 68/79/127 48/66/232 49/68/233
f 70/81/130 69/80/128 49/68/233 50/70/234
s 6
f 71/82/134 70/81/133 50/70/235 51/72/236
f 72/113/136 71/82/134 51/72/236 52/74/237
s 3
f 73/77/117 72/113/138 52/74/238 45/62/227
