# This file uses centimeters as units for non-parametric coordinates.

mtllib bucket.mtl
g default
v -0.433483 -0.028522 0.433483
v 0.433483 -0.028522 0.433483
v -0.500000 0.117687 0.500000
v 0.500000 0.117687 0.500000
v -0.500000 0.117687 -0.500000
v 0.500000 0.117687 -0.500000
v -0.433483 -0.028522 -0.433483
v 0.433483 -0.028522 -0.433483
v 0.000000 -0.028522 0.626326
v 0.000000 -0.028522 -0.626326
v 0.000000 0.117687 -0.722434
v 0.000000 0.117687 0.722434
v -0.722434 0.117687 0.000000
v 0.722434 0.117687 0.000000
v 0.626326 -0.028522 0.000000
v 0.000000 -0.028522 0.000000
v -0.626326 -0.028522 0.000000
v 0.000000 0.117687 -0.672355
v 0.000000 0.117687 0.000000
v 0.672355 0.117687 0.000000
v 0.465340 0.117687 -0.465340
v -0.672355 0.117687 0.000000
v -0.465340 0.117687 -0.465340
v -0.465340 0.117687 0.465340
v 0.000000 0.117687 0.672355
v 0.465340 0.117687 0.465340
v 0.905958 0.871246 0.000000
v 0.627018 0.871246 -0.627018
v 0.583552 0.871246 -0.583552
v 0.843157 0.871246 0.000000
v 0.000000 0.871246 -0.905958
v 0.000000 0.871246 -0.843157
v -0.627018 0.871246 -0.627018
v -0.583552 0.871246 -0.583552
v -0.905958 0.871246 0.000000
v -0.843157 0.871246 0.000000
v -0.627018 0.871246 0.627018
v 0.000000 0.871246 0.905958
v 0.000000 0.871246 0.843157
v -0.583552 0.871246 0.583552
v 0.627018 0.871246 0.627018
v 0.583552 0.871246 0.583552
vt 0.446604 0.088461
vt 0.446604 0.000000
vt 0.508335 0.000000
vt 0.517808 0.088461
vt 0.384872 0.000000
vt 0.375400 0.088461
vt 0.535896 0.544386
vt 0.446604 0.544386
vt 0.357312 0.544386
vt 0.027561 0.000000
vt 0.089292 0.000000
vt 0.089292 0.088461
vt 0.018088 0.088461
vt 0.151024 0.000000
vt 0.160496 0.088461
vt 0.089292 0.544386
vt 0.000000 0.544386
vt 0.178585 0.544386
vt 0.694986 0.212526
vt 0.761209 0.212526
vt 0.761209 0.668140
vt 0.678163 0.668140
vt 0.827431 0.212526
vt 0.844254 0.668140
vt 0.236179 0.544386
vt 0.302402 0.544386
vt 0.319225 1.000000
vt 0.236179 1.000000
vt 0.169956 0.544386
vt 0.153134 1.000000
vt 0.791445 0.182811
vt 0.791445 0.091405
vt 0.882850 0.091405
vt 0.854707 0.154668
vt 0.700039 0.091405
vt 0.728182 0.154668
vt 0.791445 0.000000
vt 0.854707 0.028143
vt 0.728182 0.028143
vt 0.688033 0.731324
vt 0.602885 0.731324
vt 0.602885 0.646176
vt 0.661816 0.672392
vt 0.602885 0.816472
vt 0.661816 0.790255
vt 0.543954 0.672392
vt 0.517737 0.731324
vt 0.543954 0.790255
vt 0.727604 0.758500
vt 0.689682 0.843742
vt 0.683773 0.837833
vt 0.719066 0.758500
vt 0.604440 0.881664
vt 0.604440 0.873126
vt 0.689682 0.673258
vt 0.683773 0.679167
vt 0.519198 0.843742
vt 0.525107 0.837833
vt 0.604440 0.635337
vt 0.604440 0.643875
vt 0.481277 0.758500
vt 0.489815 0.758500
vt 0.519198 0.673258
vt 0.525107 0.679167
vt 0.267948 0.088461
vt 0.267948 0.000000
vt 0.329679 0.000000
vt 0.339152 0.088461
vt 0.206217 0.000000
vt 0.196744 0.088461
vt 0.357240 0.544386
vt 0.267948 0.544386
vt 0.178656 0.544386
vt 0.610676 0.544386
vt 0.610676 0.455925
vt 0.681879 0.455925
vt 0.672407 0.544386
vt 0.539472 0.455925
vt 0.548944 0.544386
vt 0.610676 0.000000
vt 0.699968 0.000000
vt 0.521383 0.000000
vt 0.403897 0.544386
vt 0.470120 0.544386
vt 0.486943 1.000000
vt 0.403897 1.000000
vt 0.337674 0.544386
vt 0.320851 1.000000
vt 0.083046 1.000000
vt 0.016823 1.000000
vt 0.000000 0.544386
vt 0.083046 0.544386
vt 0.149268 1.000000
vt 0.166091 0.544386
vn -0.000000 -0.549290 0.835632
vn -0.000000 -0.549290 0.835632
vn 0.348448 -0.514865 0.783261
vn 0.348448 -0.514865 0.783261
vn 0.000000 1.000000 0.000000
vn 0.000000 1.000000 0.000000
vn 0.000000 1.000000 0.000000
vn 0.000000 1.000000 0.000000
vn 0.000000 -0.549290 -0.835632
vn 0.000000 -0.549290 -0.835632
vn 0.348448 -0.514865 -0.783261
vn 0.348448 -0.514865 -0.783261
vn 0.000000 -1.000000 0.000000
vn 0.000000 -1.000000 0.000000
vn 0.000000 -1.000000 0.000000
vn 0.000000 -1.000000 0.000000
vn 0.835632 -0.549290 0.000000
vn 0.835632 -0.549290 0.000000
vn 0.783261 -0.514865 -0.348448
vn 0.783261 -0.514865 -0.348448
vn -0.783261 -0.514865 -0.348448
vn -0.835632 -0.549290 0.000000
vn -0.835632 -0.549290 0.000000
vn -0.783261 -0.514865 -0.348448
vn 0.000000 -1.000000 0.000000
vn 0.000000 -1.000000 0.000000
vn -0.348448 -0.514865 -0.783261
vn -0.348448 -0.514865 -0.783261
vn 0.000000 1.000000 0.000000
vn 0.000000 1.000000 0.000000
vn -0.348448 -0.514865 0.783261
vn -0.348448 -0.514865 0.783261
vn 0.000000 1.000000 -0.000000
vn 0.000000 1.000000 -0.000000
vn 0.000000 1.000000 -0.000000
vn 0.783261 -0.514865 0.348448
vn 0.783261 -0.514865 0.348448
vn 0.000000 -1.000000 0.000000
vn 0.000000 -1.000000 0.000000
vn 0.000000 -1.000000 0.000000
vn -0.783261 -0.514865 0.348448
vn -0.783261 -0.514865 0.348448
vn 0.000000 1.000000 0.000000
vn 0.000000 1.000000 0.000000
vn 0.000000 1.000000 0.000000
vn 0.000000 1.000000 0.000000
vn 0.000000 1.000000 0.000001
vn 0.000000 1.000000 0.000001
vn 0.000000 1.000000 0.000001
vn 0.000000 1.000000 0.000001
vn 0.000000 1.000000 0.000002
vn 0.000000 1.000000 0.000002
vn 0.000000 1.000000 0.000002
vn 0.000000 1.000000 0.000002
vn 0.000000 1.000000 -0.000000
vn 0.000000 1.000000 -0.000000
vn 0.000000 1.000000 -0.000000
vn 0.000000 1.000000 -0.000000
vn 0.000000 1.000000 -0.000001
vn 0.000000 1.000000 -0.000001
vn 0.000000 1.000000 -0.000001
vn 0.000000 1.000000 -0.000001
vn 0.000000 1.000000 -0.000000
vn 0.000000 1.000000 -0.000000
vn 0.000000 1.000000 -0.000000
vn 0.000000 1.000000 -0.000000
vn 0.000000 1.000000 -0.000002
vn 0.000000 1.000000 -0.000002
vn 0.000000 1.000000 -0.000002
vn 0.000000 1.000000 -0.000002
vn 0.000000 1.000000 0.000000
vn 0.000000 1.000000 0.000000
vn 0.000000 1.000000 0.000000
vn 0.000000 1.000000 0.000000
vn 0.891855 -0.217205 -0.396758
vn 0.891855 -0.217205 -0.396758
vn 0.891855 -0.217205 -0.396758
vn 0.891855 -0.217205 -0.396758
vn -0.894684 0.202789 0.398017
vn -0.894684 0.202789 0.398017
vn -0.894684 0.202789 0.398017
vn -0.894684 0.202789 0.398017
vn 0.396758 -0.217205 -0.891855
vn 0.396758 -0.217205 -0.891855
vn 0.396758 -0.217205 -0.891855
vn 0.396758 -0.217205 -0.891855
vn -0.398017 0.202789 0.894684
vn -0.398017 0.202789 0.894684
vn -0.398017 0.202789 0.894684
vn -0.398017 0.202789 0.894684
vn -0.396758 -0.217205 -0.891855
vn -0.396758 -0.217205 -0.891855
vn -0.396758 -0.217205 -0.891855
vn -0.396758 -0.217205 -0.891855
vn 0.398017 0.202789 0.894684
vn 0.398017 0.202789 0.894684
vn 0.398017 0.202789 0.894684
vn 0.398017 0.202789 0.894684
vn -0.891855 -0.217205 -0.396758
vn -0.891855 -0.217205 -0.396758
vn -0.891855 -0.217205 -0.396758
vn -0.891855 -0.217205 -0.396758
vn 0.894684 0.202789 0.398017
vn 0.894684 0.202789 0.398017
vn 0.894684 0.202789 0.398017
vn 0.894684 0.202789 0.398017
vn -0.396758 -0.217205 0.891855
vn -0.396758 -0.217205 0.891855
vn -0.396758 -0.217205 0.891855
vn -0.396758 -0.217205 0.891855
vn 0.398017 0.202789 -0.894684
vn 0.398017 0.202789 -0.894684
vn 0.398017 0.202789 -0.894684
vn 0.398017 0.202789 -0.894684
vn -0.891855 -0.217205 0.396758
vn -0.891855 -0.217205 0.396758
vn -0.891855 -0.217205 0.396758
vn -0.891855 -0.217205 0.396758
vn 0.894684 0.202789 -0.398017
vn 0.894684 0.202789 -0.398017
vn 0.894684 0.202789 -0.398017
vn 0.894684 0.202789 -0.398017
vn 0.396758 -0.217205 0.891855
vn 0.396758 -0.217205 0.891855
vn 0.396758 -0.217205 0.891855
vn 0.396758 -0.217205 0.891855
vn -0.398017 0.202789 -0.894684
vn -0.398017 0.202789 -0.894684
vn -0.398017 0.202789 -0.894684
vn -0.398017 0.202789 -0.894684
vn 0.891855 -0.217205 0.396758
vn 0.891855 -0.217205 0.396758
vn 0.891855 -0.217205 0.396758
vn 0.891855 -0.217205 0.396758
vn -0.894684 0.202789 -0.398017
vn -0.894684 0.202789 -0.398017
vn -0.894684 0.202789 -0.398017
vn -0.894684 0.202789 -0.398017
s 1
g pCube1
usemtl initialShadingGroup
f 12/65/1 9/66/2 2/67/3 4/68/4
s 2
f 18/31/5 19/32/6 20/33/7 21/34/8
s 3
f 10/74/9 11/75/10 6/76/11 8/77/12
s 4
f 15/40/13 16/41/14 10/42/15 8/43/16
s 5
f 14/1/17 15/2/18 8/3/19 6/4/20
s 6
f 7/10/21 17/11/22 13/12/23 5/13/24
s 4
f 7/46/25 10/42/15 16/41/14 17/47/26
s 3
f 5/78/27 11/75/10 10/74/9 7/79/28
s 2
f 22/35/29 19/32/6 18/31/5 23/36/30
s 1
f 1/69/31 9/66/2 12/65/1 3/70/32
s 2
f 24/39/33 25/37/34 19/32/6 22/35/29
f 20/33/7 19/32/6 25/37/34 26/38/35
s 5
f 2/5/36 15/2/18 14/1/17 4/6/37
s 4
f 9/44/38 16/41/14 15/40/13 2/45/39
f 17/47/26 16/41/14 9/44/38 1/48/40
s 6
f 13/12/23 17/11/22 1/14/41 3/15/42
s off
f 27/49/43 28/50/44 29/51/45 30/52/46
f 28/50/47 31/53/48 32/54/49 29/51/50
f 31/53/51 33/57/52 34/58/53 32/54/54
f 33/57/55 35/61/56 36/62/57 34/58/58
f 37/63/59 38/59/60 39/60/61 40/64/62
f 35/61/63 37/63/64 40/64/65 36/62/66
f 38/59/67 41/55/68 42/56/69 39/60/70
f 41/55/71 27/49/72 30/52/73 42/56/74
f 14/1/75 6/4/76 28/7/77 27/8/78
f 21/19/79 20/20/80 30/21/81 29/22/82
f 6/76/83 11/75/84 31/80/85 28/81/86
f 18/83/87 21/84/88 29/85/89 32/86/90
f 11/75/91 5/78/92 33/82/93 31/80/94
f 23/87/95 18/83/96 32/86/97 34/88/98
f 5/13/99 13/12/100 35/16/101 33/17/102
f 22/25/103 23/26/104 34/27/105 36/28/106
f 3/70/107 12/65/108 38/72/109 37/73/110
f 25/89/111 24/90/112 40/91/113 39/92/114
f 13/12/115 3/15/116 37/18/117 35/16/118
f 24/29/119 22/25/120 36/28/121 40/30/122
f 12/65/123 4/68/124 41/71/125 38/72/126
f 26/93/127 25/89/128 39/92/129 42/94/130
f 4/6/131 14/1/132 27/8/133 41/9/134
f 20/20/135 26/23/136 42/24/137 30/21/138
