# This file uses centimeters as units for non-parametric coordinates.

mtllib rock_1.mtl
g default
v -0.885129 1.619124 0.959015
v 0.846971 1.571712 1.106236
v -0.966468 3.169299 0.620383
v 0.640505 3.003983 0.614601
v -1.020789 3.223027 -1.224233
v 0.738449 3.068967 -0.986939
v -1.081022 1.560028 -1.060308
v 0.909731 1.454732 -0.928865
v -1.132695 2.134873 1.223072
v 1.293516 2.132667 1.296750
v 1.183249 1.990210 -1.266898
v -1.407609 1.991015 -1.446605
v -1.357982 2.706358 -1.477053
v 1.123294 2.720683 -1.304369
v 1.174226 2.652103 1.083111
v -1.206953 2.720894 1.171239
v -1.161814 3.299327 -0.361017
v 0.758547 3.093767 -0.187725
v 1.469018 2.661920 -0.062427
v 1.562934 2.038733 0.013425
v 0.999151 1.350219 0.085080
v -1.198496 1.460552 -0.010375
v -1.665875 1.989462 -0.046877
v -1.612993 2.712454 -0.160629
v -0.040810 1.481178 1.191508
v -0.048243 1.245255 0.034716
v -0.056816 1.398631 -1.189651
v -0.040584 1.977544 -1.731827
v -0.043705 2.735233 -1.636136
v -0.088526 3.286715 -1.190659
v -0.147390 3.382430 -0.355106
v -0.157738 3.136651 0.789943
v -0.062143 2.656922 1.421455
v 0.016273 2.135271 1.582174
v -0.061951 3.057102 -1.456163
v 0.956692 2.938512 -1.163018
v 1.163490 2.896716 -0.116606
v -0.117626 2.911149 1.175581
v 0.898338 2.865296 0.833099
v 0.301080 3.072006 0.715068
v -1.453892 3.050166 -0.268464
v -1.137061 3.291567 -0.912449
v -1.214162 3.036444 -1.399681
v -0.163875 3.296331 0.231700
v 0.701845 3.061148 0.266171
v 1.427560 2.652804 0.582172
v 1.540127 2.089771 0.730729
v 0.938023 1.440037 0.725858
v -0.049368 1.307358 0.675344
v -1.062147 1.517772 0.584344
v -1.016403 1.830064 1.121947
v -1.484778 2.061963 0.670981
v -1.204574 2.430852 1.259585
v -1.496129 2.723050 0.591448
v -1.114746 3.007893 0.897787
v -1.095522 3.265665 0.198537
v -0.664824 1.316464 0.008899
v -0.537046 1.532826 1.106976
v -0.677696 1.474390 -1.180305
v -0.795658 1.985947 -1.715696
v -0.770106 2.720961 -1.663554
v -0.643942 3.298516 -1.274273
v -0.685105 3.401517 -0.386327
v -0.636972 3.190541 0.726032
v -0.700066 2.689885 1.406853
v -0.616700 2.146563 1.500430
v -0.009896 2.411066 1.560406
v 0.719288 2.139237 1.547422
v 1.313878 2.410974 1.235665
v 0.620140 2.648902 1.338207
v -0.119640 3.387191 -0.826433
v 0.327707 3.267759 -0.278065
v 0.789283 3.083751 -0.658163
v 0.423088 3.176683 -1.098585
v -0.037575 2.357991 -1.743768
v 0.616831 2.735389 -1.558327
v 1.195522 2.375489 -1.333869
v 0.650095 1.979554 -1.598018
v -0.053519 1.270354 -0.623668
v 0.549245 1.391871 -1.091669
v 1.013694 1.365339 -0.524794
v 0.518972 1.234613 0.068708
v 1.601616 2.374691 -0.022907
v 1.465752 2.007741 -0.691101
v 1.387476 2.690370 -0.748505
v -1.668917 1.978999 -0.821536
v -1.690766 2.344611 -0.089470
v -1.602944 2.705206 -0.913104
v -1.427346 2.337786 -1.501281
v -0.006481 1.791229 1.476496
v 0.473410 1.502408 1.222340
v 1.089363 1.807942 1.272357
v 1.354626 1.657751 0.058036
v 1.096347 1.652129 -1.118842
v -0.049751 1.646059 -1.553079
v -1.202962 1.495175 -0.639579
v -1.516983 1.689830 -0.024739
v -1.284126 1.726333 -1.287267
v 0.719047 2.411238 1.497154
v 0.366135 3.261954 -0.726950
v 0.657305 2.368964 -1.636912
v 0.533060 1.258168 -0.562189
v 1.492702 2.373117 -0.745572
v -1.688521 2.332036 -0.882267
v 0.596400 1.806918 1.479000
v 1.315337 1.643506 -0.592636
v 0.601165 1.643095 -1.426607
v -1.520999 1.702401 -0.722353
v 0.522706 3.002895 -1.377298
v 1.141367 2.910236 -0.692359
v 0.447028 2.878207 1.080591
v -1.435316 3.042207 -0.922603
v 0.283665 3.203150 0.232395
v 1.109820 2.876601 0.412956
v 1.575037 2.393051 0.683242
v 1.310703 1.735391 0.739202
v 0.473345 1.313833 0.707897
v -1.342495 1.759566 0.621495
v -1.536575 2.390356 0.674101
v -1.361683 3.038349 0.383614
v -0.596151 1.371186 0.618227
v -0.672998 1.350258 -0.628074
v -0.735946 1.690679 -1.535405
v -0.804745 2.347018 -1.743503
v -0.698641 3.054847 -1.520579
v -0.659603 3.401812 -0.884329
v -0.659928 3.334414 0.184156
v -0.669139 2.959935 1.138211
v -0.673392 2.427680 1.518118
v -0.557573 1.819781 1.382213
vt 0.067667 0.558246
vt 0.028987 0.497557
vt 0.009519 0.345456
vt 0.058523 0.414871
vt 0.026432 0.434801
vt 0.000000 0.289157
vt 0.045291 0.152119
vt 0.058225 0.204446
vt 0.109805 0.285856
vt 0.865082 0.651794
vt 0.753676 0.690093
vt 0.715583 0.562378
vt 0.832701 0.521234
vt 0.606329 0.704536
vt 0.572358 0.582171
vt 0.532436 0.449838
vt 0.685043 0.429143
vt 0.792562 0.429079
vt 0.981154 0.341194
vt 1.000000 0.419506
vt 0.974956 0.274826
vt 0.947230 0.196220
vt 0.982817 0.505431
vt 0.964912 0.365999
vt 0.885202 0.252063
vt 0.882273 0.158497
vt 0.847270 0.082977
vt 0.464250 0.239089
vt 0.645849 0.230417
vt 0.621406 0.106465
vt 0.441855 0.119942
vt 0.806454 0.242785
vt 0.776925 0.115496
vt 0.728904 0.050513
vt 0.605855 0.019772
vt 0.426014 0.035493
vt 0.469877 0.187850
vt 0.450837 0.093543
vt 0.689467 0.100802
vt 0.699337 0.195898
vt 0.437564 0.034145
vt 0.663652 0.032955
vt 0.892716 0.608528
vt 0.726565 0.662321
vt 0.750670 0.736801
vt 0.918608 0.682296
vt 0.524104 0.677953
vt 0.539635 0.754057
vt 0.562035 0.818402
vt 0.767656 0.801580
vt 0.924705 0.749756
vt 0.062958 0.367229
vt 0.032790 0.246409
vt 0.147056 0.307341
vt 0.116482 0.206992
vt 0.132417 0.136926
vt 0.068789 0.132852
vt 0.426682 0.010323
vt 0.627181 0.000000
vt 0.790734 0.040282
vt 0.917136 0.280956
vt 0.883061 0.144286
vt 0.777500 0.472989
vt 0.665732 0.490499
vt 0.693944 0.584327
vt 0.842523 0.537221
vt 0.501074 0.495163
vt 0.512725 0.594082
vt 0.939913 0.586457
vt 0.916763 0.452208
vt 0.846007 0.344441
vt 0.497749 0.313014
vt 0.688550 0.306552
vt 0.254112 0.672405
vt 0.139043 0.620763
vt 0.142489 0.497123
vt 0.259827 0.563895
vt 0.199692 0.390502
vt 0.278585 0.473971
vt 0.778342 0.848228
vt 0.914863 0.799963
vt 0.594263 0.865112
vt 0.620788 0.871356
vt 0.781182 0.854844
vt 0.870739 0.812304
vt 0.424205 0.699545
vt 0.411063 0.587504
vt 0.387327 0.465643
vt 0.259617 0.213052
vt 0.326175 0.334438
vt 0.210818 0.069413
vt 0.222224 0.123128
vt 0.240537 0.082122
vt 0.220296 0.053617
vt 0.289414 0.264880
vt 0.262978 0.159341
vt 0.341787 0.589966
vt 0.332983 0.675378
vt 0.343569 0.493438
vt 0.239807 0.488661
vt 0.200181 0.556641
vt 0.175302 0.640427
vt 0.333708 0.751861
vt 0.355052 0.814894
vt 0.165663 0.715186
vt 0.187254 0.776413
vt 0.409688 0.858851
vt 0.457177 0.862506
vt 0.258040 0.819503
vt 0.331725 0.825575
vt 0.484545 0.371436
vt 0.321421 0.381301
vt 0.188767 0.411050
vt 0.806727 0.379522
vt 0.654967 0.366355
vt 0.970034 0.491655
vt 0.910147 0.425180
vt 0.983238 0.643647
vt 0.991430 0.567601
vt 0.889534 0.760404
vt 0.954535 0.708592
vt 0.623827 0.810453
vt 0.774283 0.795882
vt 0.290213 0.773743
vt 0.451553 0.801131
vt 0.101121 0.685181
vt 0.173074 0.734605
vt 0.078969 0.556157
vt 0.072568 0.625814
vt 0.112848 0.476644
vn 0.053541 0.618784 0.783735
vn 0.014060 0.288225 0.957459
vn 0.229152 0.381860 0.895362
vn 0.198316 0.698237 0.687849
vn -0.033170 -0.124180 0.991705
vn 0.226413 -0.081168 0.970644
vn 0.698085 -0.205931 0.685762
vn 0.664711 0.365287 0.651709
vn 0.464328 0.747840 0.474484
vn 0.153255 0.890390 -0.428623
vn 0.139201 0.984878 -0.103142
vn 0.308257 0.948954 -0.066811
vn 0.288111 0.896670 -0.336117
vn 0.123253 0.989427 0.076443
vn 0.283968 0.955619 0.078445
vn 0.387976 0.919568 0.062207
vn 0.411960 0.910450 -0.037015
vn 0.392105 0.899150 -0.194376
vn 0.073315 -0.271638 -0.959603
vn 0.074856 0.092614 -0.992884
vn 0.315531 0.061037 -0.946950
vn 0.332066 -0.279995 -0.900741
vn 0.079120 0.357960 -0.930378
vn 0.271472 0.395713 -0.877334
vn 0.652972 0.447211 -0.611252
vn 0.726704 0.044330 -0.685519
vn 0.713895 -0.282843 -0.640588
vn -0.068775 -0.997228 0.028396
vn -0.063044 -0.989400 -0.130817
vn 0.096874 -0.987788 -0.122022
vn 0.102618 -0.993581 0.047611
vn -0.029470 -0.923314 -0.382914
vn 0.142435 -0.909600 -0.390308
vn 0.396942 -0.850114 -0.346040
vn 0.446566 -0.888212 -0.107973
vn 0.445616 -0.892511 0.069639
vn 0.786577 0.617359 -0.012832
vn 0.989177 0.137902 -0.050114
vn 0.953552 0.085920 -0.288716
vn 0.820984 0.528975 -0.214877
vn 0.948302 -0.316722 -0.020261
vn 0.925550 -0.278805 -0.256175
vn -0.667624 -0.336031 -0.664350
vn -0.942107 -0.285926 -0.175160
vn -0.980830 0.059711 -0.185492
vn -0.696594 0.034974 -0.716613
vn -0.957396 -0.259825 0.126034
vn -0.993316 0.065676 0.094926
vn -0.943764 0.323837 0.066620
vn -0.932083 0.311596 -0.184739
vn -0.645626 0.301400 -0.701658
vn -0.072568 -0.493558 0.866680
vn 0.161675 -0.477552 0.863600
vn -0.079387 -0.849147 0.522157
vn 0.106945 -0.836400 0.537585
vn 0.380649 -0.805863 0.453531
vn 0.555628 -0.563214 0.611611
vn 0.775052 -0.630505 0.041940
vn 0.787736 -0.592526 -0.168479
vn 0.619570 -0.588174 -0.519793
vn 0.033545 -0.680676 -0.731816
vn 0.264760 -0.642023 -0.719520
vn -0.330757 -0.896136 -0.295873
vn -0.388266 -0.914752 -0.111705
vn -0.722643 -0.677988 -0.134608
vn -0.513818 -0.703133 -0.491523
vn -0.416064 -0.906996 0.065187
vn -0.750880 -0.649579 0.119271
vn 0.118851 0.631379 -0.766313
vn 0.249663 0.707498 -0.661147
vn 0.490558 0.781224 -0.386060
vn 0.521208 0.852694 0.035437
vn 0.560451 0.823673 -0.086360
vn 0.107391 0.921211 0.373949
vn 0.082347 0.802451 0.591009
vn 0.188011 0.835330 0.516600
vn 0.205794 0.920140 0.333154
vn 0.337161 0.877427 0.341238
vn 0.287235 0.921803 0.260336
vn -0.790144 0.589131 -0.169107
vn -0.526995 0.563021 -0.636620
vn -0.790602 0.610616 0.045786
vn -0.421551 0.906017 0.037794
vn -0.426492 0.895348 -0.128283
vn -0.330961 0.843103 -0.423843
vn 0.119615 0.972511 0.199788
vn 0.243582 0.951467 0.188088
vn 0.344686 0.926460 0.151208
vn 0.693831 0.699222 0.172296
vn 0.465420 0.873376 0.143520
vn 0.920396 -0.321918 0.221899
vn 0.950786 0.229017 0.208704
vn 0.435301 -0.870640 0.229125
vn 0.736604 -0.637133 0.226884
vn -0.069153 -0.976659 0.203358
vn 0.106233 -0.970264 0.217489
vn -0.720766 -0.591401 0.361581
vn -0.878091 -0.286375 0.383336
vn -0.431904 -0.864077 0.258513
vn -0.426401 -0.771662 0.471933
vn -0.561535 -0.536473 0.629980
vn -0.648781 -0.310123 0.694916
vn -0.940490 0.026048 0.338821
vn -0.889106 0.360544 0.281955
vn -0.701954 0.025470 0.711767
vn -0.624925 0.468596 0.624410
vn -0.727626 0.650441 0.217915
vn -0.369879 0.913714 0.168274
vn -0.471921 0.746002 0.469863
vn -0.267876 0.904757 0.331147
vn -0.192966 -0.980716 0.030995
vn -0.204914 -0.957585 0.202586
vn -0.238423 -0.830353 0.503655
vn -0.168351 -0.919303 -0.355724
vn -0.181845 -0.975762 -0.121739
vn -0.190067 -0.303600 -0.933650
vn -0.174175 -0.697698 -0.694896
vn -0.122482 0.306202 -0.944054
vn -0.168831 0.064973 -0.983501
vn -0.033890 0.875923 -0.481259
vn -0.059716 0.563206 -0.824156
vn -0.079338 0.995257 0.056289
vn -0.077035 0.990355 -0.115165
vn -0.030804 0.930206 0.365742
vn -0.043199 0.982727 0.179951
vn -0.172721 0.558231 0.811508
vn -0.093477 0.791556 0.603904
vn -0.281463 -0.232952 0.930866
vn -0.246803 0.143652 0.958359
vn -0.278791 -0.513546 0.811509
s 1
g pCube1
usemtl initialShadingGroup
f 33/1/1 67/2/2 99/3/3 70/4/4
f 67/2/2 34/5/5 68/6/6 99/3/3
f 99/3/3 68/6/6 10/7/7 69/8/8
f 70/4/4 99/3/3 69/8/8 15/9/9
f 30/10/10 71/11/11 100/12/12 74/13/13
f 71/11/11 31/14/14 72/15/15 100/12/12
f 100/12/12 72/15/15 18/16/16 73/17/17
f 74/13/13 100/12/12 73/17/17 6/18/18
f 28/19/19 75/20/20 101/21/21 78/22/22
f 75/20/20 29/23/23 76/24/24 101/21/21
f 101/21/21 76/24/24 14/25/25 77/26/26
f 78/22/22 101/21/21 77/26/26 11/27/27
f 26/28/28 79/29/29 102/30/30 82/31/31
f 79/29/29 27/32/32 80/33/33 102/30/30
f 102/30/30 80/33/33 8/34/34 81/35/35
f 82/31/31 102/30/30 81/35/35 21/36/36
f 19/37/37 83/38/38 103/39/39 85/40/40
f 83/38/38 20/41/41 84/42/42 103/39/39
f 103/39/39 84/42/42 11/27/27 77/26/26
f 85/40/40 103/39/39 77/26/26 14/25/25
f 12/43/43 86/44/44 104/45/45 89/46/46
f 86/44/44 23/47/47 87/48/48 104/45/45
f 104/45/45 87/48/48 24/49/49 88/50/50
f 89/46/46 104/45/45 88/50/50 13/51/51
f 34/5/5 90/52/52 105/53/53 68/6/6
f 90/52/52 25/54/54 91/55/55 105/53/53
f 105/53/53 91/55/55 2/56/56 92/57/57
f 68/6/6 105/53/53 92/57/57 10/7/7
f 20/41/41 93/58/58 106/59/59 84/42/42
f 93/58/58 21/36/36 81/35/35 106/59/59
f 106/59/59 81/35/35 8/34/34 94/60/60
f 84/42/42 106/59/59 94/60/60 11/27/27
f 27/32/32 95/61/61 107/62/62 80/33/33
f 95/61/61 28/19/19 78/22/22 107/62/62
f 107/62/62 78/22/22 11/27/27 94/60/60
f 80/33/33 107/62/62 94/60/60 8/34/34
f 7/63/63 96/64/64 108/65/65 98/66/66
f 96/64/64 22/67/67 97/68/68 108/65/65
f 108/65/65 97/68/68 23/47/47 86/44/44
f 98/66/66 108/65/65 86/44/44 12/43/43
f 29/23/23 35/69/69 109/70/70 76/24/24
f 35/69/69 30/10/10 74/13/13 109/70/70
f 109/70/70 74/13/13 6/18/18 36/71/71
f 76/24/24 109/70/70 36/71/71 14/25/25
f 18/16/16 37/72/72 110/73/73 73/17/17
f 37/72/72 19/37/37 85/40/40 110/73/73
f 110/73/73 85/40/40 14/25/25 36/71/71
f 73/17/17 110/73/73 36/71/71 6/18/18
f 32/74/74 38/75/75 111/76/76 40/77/77
f 38/75/75 33/1/1 70/4/4 111/76/76
f 111/76/76 70/4/4 15/9/9 39/78/78
f 40/77/77 111/76/76 39/78/78 4/79/79
f 13/51/51 88/50/50 112/80/80 43/81/81
f 88/50/50 24/49/49 41/82/82 112/80/80
f 112/80/80 41/82/82 17/83/83 42/84/84
f 43/81/81 112/80/80 42/84/84 5/85/85
f 31/14/14 44/86/86 113/87/87 72/15/15
f 44/86/86 32/74/74 40/77/77 113/87/87
f 113/87/87 40/77/77 4/79/79 45/88/88
f 72/15/15 113/87/87 45/88/88 18/16/16
f 15/9/9 46/89/89 114/90/90 39/78/78
f 46/89/89 19/37/37 37/72/72 114/90/90
f 114/90/90 37/72/72 18/16/16 45/88/88
f 39/78/78 114/90/90 45/88/88 4/79/79
f 10/7/7 47/91/91 115/92/92 69/8/8
f 47/91/91 20/41/41 83/38/38 115/92/92
f 115/92/92 83/38/38 19/37/37 46/89/89
f 69/8/8 115/92/92 46/89/89 15/9/9
f 2/56/56 48/93/93 116/94/94 92/57/57
f 48/93/93 21/36/36 93/58/58 116/94/94
f 116/94/94 93/58/58 20/41/41 47/91/91
f 92/57/57 116/94/94 47/91/91 10/7/7
f 25/54/54 49/95/95 117/96/96 91/55/55
f 49/95/95 26/28/28 82/31/31 117/96/96
f 117/96/96 82/31/31 21/36/36 48/93/93
f 91/55/55 117/96/96 48/93/93 2/56/56
f 23/47/47 97/68/68 118/97/97 52/98/98
f 97/68/68 22/67/67 50/99/99 118/97/97
f 118/97/97 50/99/99 1/100/100 51/101/101
f 52/98/98 118/97/97 51/101/101 9/102/102
f 24/49/49 87/48/48 119/103/103 54/104/104
f 87/48/48 23/47/47 52/98/98 119/103/103
f 119/103/103 52/98/98 9/102/102 53/105/105
f 54/104/104 119/103/103 53/105/105 16/106/106
f 17/83/83 41/82/82 120/107/107 56/108/108
f 41/82/82 24/49/49 54/104/104 120/107/107
f 120/107/107 54/104/104 16/106/106 55/109/109
f 56/108/108 120/107/107 55/109/109 3/110/110
f 22/67/67 57/111/111 121/112/112 50/99/99
f 57/111/111 26/28/28 49/95/95 121/112/112
f 121/112/112 49/95/95 25/54/54 58/113/113
f 50/99/99 121/112/112 58/113/113 1/100/100
f 7/63/63 59/114/114 122/115/115 96/64/64
f 59/114/114 27/32/32 79/29/29 122/115/115
f 122/115/115 79/29/29 26/28/28 57/111/111
f 96/64/64 122/115/115 57/111/111 22/67/67
f 12/43/43 60/116/116 123/117/117 98/66/66
f 60/116/116 28/19/19 95/61/61 123/117/117
f 123/117/117 95/61/61 27/32/32 59/114/114
f 98/66/66 123/117/117 59/114/114 7/63/63
f 13/51/51 61/118/118 124/119/119 89/46/46
f 61/118/118 29/23/23 75/20/20 124/119/119
f 124/119/119 75/20/20 28/19/19 60/116/116
f 89/46/46 124/119/119 60/116/116 12/43/43
f 5/85/85 62/120/120 125/121/121 43/81/81
f 62/120/120 30/10/10 35/69/69 125/121/121
f 125/121/121 35/69/69 29/23/23 61/118/118
f 43/81/81 125/121/121 61/118/118 13/51/51
f 17/83/83 63/122/122 126/123/123 42/84/84
f 63/122/122 31/14/14 71/11/11 126/123/123
f 126/123/123 71/11/11 30/10/10 62/120/120
f 42/84/84 126/123/123 62/120/120 5/85/85
f 3/110/110 64/124/124 127/125/125 56/108/108
f 64/124/124 32/74/74 44/86/86 127/125/125
f 127/125/125 44/86/86 31/14/14 63/122/122
f 56/108/108 127/125/125 63/122/122 17/83/83
f 16/106/106 65/126/126 128/127/127 55/109/109
f 65/126/126 33/1/1 38/75/75 128/127/127
f 128/127/127 38/75/75 32/74/74 64/124/124
f 55/109/109 128/127/127 64/124/124 3/110/110
f 9/102/102 66/128/128 129/129/129 53/105/105
f 66/128/128 34/5/5 67/2/2 129/129/129
f 129/129/129 67/2/2 33/1/1 65/126/126
f 53/105/105 129/129/129 65/126/126 16/106/106
f 1/100/100 58/113/113 130/130/130 51/101/101
f 58/113/113 25/54/54 90/52/52 130/130/130
f 130/130/130 90/52/52 34/5/5 66/128/128
f 51/101/101 130/130/130 66/128/128 9/102/102
