# Wavefront Obj file
# 
# verts: 52 uv-s: 116
mtllib lampPost.mtl

g pCube1
#pivot 0.000000 0.000000 0.000000

v -12.266330 -0.183201 12.266330
v 12.266330 -0.183201 12.266330
v -12.266330 2.013657 12.266330
v 12.266330 2.013657 12.266330
v -12.266330 2.013657 -12.266330
v 12.266330 2.013657 -12.266330
v -12.266330 -0.183201 -12.266330
v 12.266330 -0.183201 -12.266330
v -9.140090 2.013657 9.140090
v 9.140090 2.013657 9.140090
v 9.140090 2.013657 -9.140090
v -9.140090 2.013657 -9.140090
v -7.338547 7.252899 7.338547
v 7.338547 7.252899 7.338547
v 7.338547 7.252899 -7.338547
v -7.338547 7.252899 -7.338547
v -4.950793 8.583778 4.950793
v 4.950793 8.583778 4.950793
v 4.950793 8.583778 -4.950793
v -4.950793 8.583778 -4.950793
v -3.452487 13.459572 3.452487
v 3.452487 13.459572 3.452487
v 3.452487 13.459572 -3.452487
v -3.452487 13.459572 -3.452487
v -2.597690 13.459572 2.597690
v 2.597690 13.459572 2.597690
v 2.597690 13.459572 -2.597690
v -2.597690 13.459572 -2.597690
v -2.597690 82.164543 2.597690
v 2.597690 82.164543 2.597690
v 2.597690 82.164543 -2.597690
v -2.597690 82.164543 -2.597690
v -5.911843 83.366943 5.911843
v 5.911843 83.366943 5.911843
v 5.911843 83.366943 -5.911843
v -5.911843 83.366943 -5.911843
v -5.911843 100.445099 5.911843
v 5.911843 100.445099 5.911843
v 5.911843 100.445099 -5.911843
v -5.911843 100.445099 -5.911843
v -3.377204 101.812614 3.377204
v 3.377204 101.812614 3.377204
v 3.377204 101.812614 -3.377204
v -3.377204 101.812614 -3.377204
v -2.581602 103.485878 2.581602
v 2.581602 103.485878 2.581602
v 2.581602 103.485878 -2.581602
v -2.581602 103.485878 -2.581602
v -1.777143 103.891502 1.777143
v 1.777143 103.891502 1.777143
v 1.777143 103.891502 -1.777143
v -1.777143 103.891502 -1.777143
# 52 positions

vt 0.916421 0.182194
vt 0.916421 0.512611
vt 0.886833 0.512611
vt 0.886833 0.182194
vt 0.108559 0.118596
vt 0.108559 0.070725
vt 0.060688 0.070725
vt 0.060688 0.118596
vt 0.965412 0.995000
vt 0.965412 0.664583
vt 0.995000 0.664583
vt 0.995000 0.995000
vt 0.335417 0.350266
vt 0.335417 0.680683
vt 0.005000 0.680683
vt 0.005000 0.350266
vt 0.926122 0.350266
vt 0.926122 0.680683
vt 0.955711 0.680683
vt 0.955711 0.350266
vt 0.955711 0.011939
vt 0.955711 0.342356
vt 0.926122 0.342356
vt 0.926122 0.011939
vt 0.673744 0.680683
vt 0.673744 0.350266
vt 0.631639 0.392372
vt 0.631639 0.638578
vt 0.343327 0.350266
vt 0.385433 0.392372
vt 0.343327 0.680683
vt 0.385433 0.638578
vt 0.607375 0.416636
vt 0.607375 0.614314
vt 0.409697 0.416636
vt 0.409697 0.614314
vt 0.575215 0.448795
vt 0.575215 0.582154
vt 0.441856 0.448795
vt 0.441856 0.582154
vt 0.241772 0.040925
vt 0.241772 0.174284
vt 0.173072 0.154104
vt 0.173072 0.061105
vt 0.249468 0.174284
vt 0.249468 0.040925
vt 0.318169 0.061105
vt 0.318169 0.154104
vt 0.750354 0.379252
vt 0.750354 0.512611
vt 0.681654 0.492431
vt 0.681654 0.399432
vt 0.826750 0.379252
vt 0.826750 0.512611
vt 0.758050 0.492431
vt 0.758050 0.399432
vt 0.543281 0.573728
vt 0.543281 0.480729
vt 0.531769 0.492242
vt 0.531769 0.562216
vt 0.450282 0.480729
vt 0.461795 0.492242
vt 0.450282 0.573728
vt 0.461795 0.562216
vt 0.930351 0.925026
vt 0.930351 0.995000
vt 0.005000 0.995000
vt 0.005000 0.925026
vt 0.005000 0.846447
vt 0.005000 0.916421
vt 0.930350 0.916421
vt 0.930350 0.846447
vt 0.930351 0.767868
vt 0.930351 0.837842
vt 0.005000 0.837842
vt 0.005000 0.767868
vt 0.930350 0.689289
vt 0.930350 0.759263
vt 0.005000 0.759263
vt 0.005000 0.689289
vt 0.287557 0.227746
vt 0.287557 0.297720
vt 0.242920 0.342356
vt 0.242920 0.183109
vt 0.357531 0.297720
vt 0.402167 0.342356
vt 0.357531 0.227746
vt 0.402167 0.183109
vt 0.641009 0.183109
vt 0.641009 0.342356
vt 0.410992 0.342356
vt 0.410992 0.183109
vt 0.648913 0.183109
vt 0.648913 0.342356
vt 0.878929 0.342356
vt 0.878929 0.183109
vt 0.911671 0.521436
vt 0.911671 0.680683
vt 0.681654 0.680683
vt 0.681654 0.521436
vt 0.235016 0.183109
vt 0.235016 0.342356
vt 0.005000 0.342356
vt 0.005000 0.183109
vt 0.164247 0.174284
vt 0.164247 0.015037
vt 0.130109 0.049175
vt 0.130109 0.140147
vt 0.005000 0.015037
vt 0.039138 0.049175
vt 0.005000 0.174284
vt 0.039138 0.140147
vt 0.119394 0.059891
vt 0.119394 0.129431
vt 0.049853 0.059891
vt 0.049853 0.129431
# 116 texture coordinates

vn 0.000000 0.000000 1.000000
vn 0.000000 0.000000 1.000000
vn 0.000000 0.000000 1.000000
vn 0.000000 0.000000 1.000000
vn 0.000000 1.000000 0.000000
vn 0.000000 1.000000 0.000000
vn 0.000000 1.000000 0.000000
vn 0.000000 1.000000 0.000000
vn 0.000000 0.000000 -1.000000
vn 0.000000 0.000000 -1.000000
vn 0.000000 0.000000 -1.000000
vn 0.000000 0.000000 -1.000000
vn 0.000000 -1.000000 0.000000
vn 0.000000 -1.000000 0.000000
vn 0.000000 -1.000000 0.000000
vn 0.000000 -1.000000 0.000000
vn 1.000000 0.000000 0.000000
vn 1.000000 0.000000 0.000000
vn 1.000000 0.000000 0.000000
vn 1.000000 0.000000 0.000000
vn -1.000000 0.000000 0.000000
vn -1.000000 0.000000 0.000000
vn -1.000000 0.000000 0.000000
vn -1.000000 0.000000 0.000000
vn 0.000000 1.000000 0.000000
vn 0.000000 1.000000 0.000000
vn 0.000000 1.000000 0.000000
vn 0.000000 1.000000 0.000000
vn 0.000000 1.000000 0.000000
vn 0.000000 1.000000 0.000000
vn 0.000000 1.000000 0.000000
vn 0.000000 1.000000 0.000000
vn 0.000000 0.325169 0.945656
vn 0.000000 0.325169 0.945656
vn 0.000000 0.325169 0.945656
vn 0.000000 0.325169 0.945656
vn 0.945656 0.325169 0.000000
vn 0.945656 0.325169 0.000000
vn 0.945656 0.325169 0.000000
vn 0.945656 0.325169 0.000000
vn 0.000000 0.325169 -0.945656
vn 0.000000 0.325169 -0.945656
vn 0.000000 0.325169 -0.945656
vn 0.000000 0.325169 -0.945656
vn -0.945656 0.325169 0.000000
vn -0.945656 0.325169 0.000000
vn -0.945656 0.325169 0.000000
vn -0.945656 0.325169 0.000000
vn 0.000000 0.873481 0.486858
vn 0.000000 0.873481 0.486858
vn 0.000000 0.873481 0.486858
vn 0.000000 0.873481 0.486858
vn 0.486858 0.873481 0.000000
vn 0.486858 0.873481 0.000000
vn 0.486858 0.873481 0.000000
vn 0.486858 0.873481 0.000000
vn 0.000000 0.873481 -0.486858
vn 0.000000 0.873481 -0.486858
vn 0.000000 0.873481 -0.486858
vn 0.000000 0.873481 -0.486858
vn -0.486858 0.873481 0.000000
vn -0.486858 0.873481 0.000000
vn -0.486858 0.873481 0.000000
vn -0.486858 0.873481 0.000000
vn 0.000000 0.293739 0.955886
vn 0.000000 0.293739 0.955886
vn 0.000000 0.293739 0.955886
vn 0.000000 0.293739 0.955886
vn 0.955886 0.293739 0.000000
vn 0.955886 0.293739 0.000000
vn 0.955886 0.293739 0.000000
vn 0.955886 0.293739 0.000000
vn 0.000000 0.293739 -0.955886
vn 0.000000 0.293739 -0.955886
vn 0.000000 0.293739 -0.955886
vn 0.000000 0.293739 -0.955886
vn -0.955886 0.293739 0.000000
vn -0.955886 0.293739 0.000000
vn -0.955886 0.293739 0.000000
vn -0.955886 0.293739 0.000000
vn 0.000000 1.000000 0.000000
vn 0.000000 1.000000 0.000000
vn 0.000000 1.000000 0.000000
vn 0.000000 1.000000 0.000000
vn 0.000000 1.000000 0.000000
vn 0.000000 1.000000 0.000000
vn 0.000000 1.000000 0.000000
vn 0.000000 1.000000 0.000000
vn 0.000000 0.000000 1.000000
vn 0.000000 0.000000 1.000000
vn 0.000000 0.000000 1.000000
vn 0.000000 0.000000 1.000000
vn 1.000000 0.000000 0.000000
vn 1.000000 0.000000 0.000000
vn 1.000000 0.000000 0.000000
vn 1.000000 0.000000 0.000000
vn 0.000000 0.000000 -1.000000
vn 0.000000 0.000000 -1.000000
vn 0.000000 0.000000 -1.000000
vn 0.000000 0.000000 -1.000000
vn -1.000000 0.000000 0.000000
vn -1.000000 0.000000 0.000000
vn -1.000000 0.000000 0.000000
vn -1.000000 0.000000 0.000000
vn 0.000000 -0.940043 0.341055
vn 0.000000 -0.940043 0.341055
vn 0.000000 -0.940043 0.341055
vn 0.000000 -0.940043 0.341055
vn 0.341055 -0.940043 0.000000
vn 0.341055 -0.940043 0.000000
vn 0.341055 -0.940043 0.000000
vn 0.341055 -0.940043 0.000000
vn 0.000000 -0.940043 -0.341055
vn 0.000000 -0.940043 -0.341055
vn 0.000000 -0.940043 -0.341055
vn 0.000000 -0.940043 -0.341055
vn -0.341055 -0.940043 0.000000
vn -0.341055 -0.940043 0.000000
vn -0.341055 -0.940043 0.000000
vn -0.341055 -0.940043 0.000000
vn 0.000000 0.000000 1.000000
vn 0.000000 0.000000 1.000000
vn 0.000000 0.000000 1.000000
vn 0.000000 0.000000 1.000000
vn 1.000000 0.000000 0.000000
vn 1.000000 0.000000 0.000000
vn 1.000000 0.000000 0.000000
vn 1.000000 0.000000 0.000000
vn 0.000000 0.000000 -1.000000
vn 0.000000 0.000000 -1.000000
vn 0.000000 0.000000 -1.000000
vn 0.000000 0.000000 -1.000000
vn -1.000000 0.000000 0.000000
vn -1.000000 0.000000 0.000000
vn -1.000000 0.000000 0.000000
vn -1.000000 0.000000 0.000000
vn 0.000000 0.880078 0.474829
vn 0.000000 0.880078 0.474829
vn 0.000000 0.880078 0.474829
vn 0.000000 0.880078 0.474829
vn 0.474829 0.880078 0.000000
vn 0.474829 0.880078 0.000000
vn 0.474829 0.880078 0.000000
vn 0.474829 0.880078 0.000000
vn 0.000000 0.880078 -0.474829
vn 0.000000 0.880078 -0.474829
vn 0.000000 0.880078 -0.474829
vn 0.000000 0.880078 -0.474829
vn -0.474829 0.880078 0.000000
vn -0.474829 0.880078 0.000000
vn -0.474829 0.880078 0.000000
vn -0.474829 0.880078 0.000000
vn 0.000000 0.429410 0.903110
vn 0.000000 0.429410 0.903110
vn 0.000000 0.429410 0.903110
vn 0.000000 0.429410 0.903110
vn 0.903110 0.429410 0.000000
vn 0.903110 0.429410 0.000000
vn 0.903110 0.429410 0.000000
vn 0.903110 0.429410 0.000000
vn 0.000000 0.429410 -0.903110
vn 0.000000 0.429410 -0.903110
vn 0.000000 0.429410 -0.903110
vn 0.000000 0.429410 -0.903110
vn -0.903110 0.429410 0.000000
vn -0.903110 0.429410 0.000000
vn -0.903110 0.429410 0.000000
vn -0.903110 0.429410 0.000000
vn 0.000000 0.892915 0.450226
vn 0.000000 0.892915 0.450226
vn 0.000000 0.892915 0.450226
vn 0.000000 0.892915 0.450226
vn 0.450226 0.892915 0.000000
vn 0.450226 0.892915 0.000000
vn 0.450226 0.892915 0.000000
vn 0.450226 0.892915 0.000000
vn 0.000000 0.892915 -0.450226
vn 0.000000 0.892915 -0.450226
vn 0.000000 0.892915 -0.450226
vn 0.000000 0.892915 -0.450226
vn -0.450226 0.892915 0.000000
vn -0.450226 0.892915 0.000000
vn -0.450226 0.892915 0.000000
vn -0.450226 0.892915 0.000000
# 184 normals

usemtl initialShadingGroup
s 1
f 1/1/1 2/2/2 4/3/3 3/4/4
s 2
f 49/5/5 50/6/6 51/7/7 52/8/8
s 3
f 5/9/9 6/10/10 8/11/11 7/12/12
s 4
f 7/13/13 8/14/14 2/15/15 1/16/16
s 5
f 2/17/17 8/18/18 6/19/19 4/20/20
s 6
f 7/21/21 1/22/22 3/23/23 5/24/24
s 7
f 3/25/25 4/26/26 10/27/27 9/28/28
f 4/26/26 6/29/29 11/30/30 10/27/27
f 6/29/29 5/31/31 12/32/32 11/30/30
f 5/31/31 3/25/25 9/28/28 12/32/32
s 8
f 9/28/33 10/27/34 14/33/35 13/34/36
s 9
f 10/27/37 11/30/38 15/35/39 14/33/40
s 10
f 11/30/41 12/32/42 16/36/43 15/35/44
s 11
f 12/32/45 9/28/46 13/34/47 16/36/48
s 12
f 13/34/49 14/33/50 18/37/51 17/38/52
s 13
f 14/33/53 15/35/54 19/39/55 18/37/56
s 14
f 15/35/57 16/36/58 20/40/59 19/39/60
s 15
f 16/36/61 13/34/62 17/38/63 20/40/64
s 16
f 17/41/65 18/42/66 22/43/67 21/44/68
s 17
f 18/45/69 19/46/70 23/47/71 22/48/72
s 18
f 19/49/73 20/50/74 24/51/75 23/52/76
s 19
f 20/53/77 17/54/78 21/55/79 24/56/80
s 20
f 21/57/81 22/58/82 26/59/83 25/60/84
f 22/58/82 23/61/85 27/62/86 26/59/83
f 23/61/85 24/63/87 28/64/88 27/62/86
f 24/63/87 21/57/81 25/60/84 28/64/88
s 21
f 25/65/89 26/66/90 30/67/91 29/68/92
s 22
f 26/69/93 27/70/94 31/71/95 30/72/96
s 23
f 27/73/97 28/74/98 32/75/99 31/76/100
s 24
f 28/77/101 25/78/102 29/79/103 32/80/104
s 25
f 29/81/105 30/82/106 34/83/107 33/84/108
s 26
f 30/82/109 31/85/110 35/86/111 34/83/112
s 27
f 31/85/113 32/87/114 36/88/115 35/86/116
s 28
f 32/87/117 29/81/118 33/84/119 36/88/120
s 29
f 33/89/121 34/90/122 38/91/123 37/92/124
s 30
f 34/93/125 35/94/126 39/95/127 38/96/128
s 31
f 35/97/129 36/98/130 40/99/131 39/100/132
s 32
f 36/101/133 33/102/134 37/103/135 40/104/136
s 33
f 37/105/137 38/106/138 42/107/139 41/108/140
s 34
f 38/106/141 39/109/142 43/110/143 42/107/144
s 35
f 39/109/145 40/111/146 44/112/147 43/110/148
s 36
f 40/111/149 37/105/150 41/108/151 44/112/152
s 37
f 41/108/153 42/107/154 46/113/155 45/114/156
s 38
f 42/107/157 43/110/158 47/115/159 46/113/160
s 39
f 43/110/161 44/112/162 48/116/163 47/115/164
s 40
f 44/112/165 41/108/166 45/114/167 48/116/168
s 41
f 45/114/169 46/113/170 50/6/171 49/5/172
s 42
f 46/113/173 47/115/174 51/7/175 50/6/176
s 43
f 47/115/177 48/116/178 52/8/179 51/7/180
s 44
f 48/116/181 45/114/182 49/5/183 52/8/184

# 50 faces
