# This file uses centimeters as units for non-parametric coordinates.

mtllib longbread.mtl
g default
v -1.982367 -0.064293 0.265071
v 1.982367 -0.064293 0.265071
v -1.995129 1.272528 0.237260
v 1.995130 1.272528 0.237260
v -1.989082 1.272607 -0.237313
v 1.989082 1.272607 -0.237313
v -1.982365 -0.064294 -0.265072
v 1.982367 -0.064293 -0.265071
v -0.000000 -0.056846 0.264274
v -0.000000 -0.056846 -0.264274
v -0.000000 1.286859 -0.247665
v -0.000000 1.286859 0.247665
v -1.987645 1.337852 0.000059
v -0.000000 1.337871 0.000000
v 1.987645 1.337852 0.000059
v 1.981595 -0.068811 -0.000000
v -0.000000 -0.068811 0.000000
v -1.981595 -0.068811 0.000000
v 0.852893 -0.055987 0.264351
v 0.851812 -0.068811 -0.000000
v 0.852893 -0.055987 -0.264351
v 0.853359 1.282141 -0.245512
v 0.851812 1.337871 0.000000
v 0.853360 1.282141 0.245512
v -0.852893 -0.055987 0.264351
v -0.851812 -0.068811 0.000000
v -0.852892 -0.055987 -0.264351
v -0.853360 1.282141 -0.245512
v -0.851813 1.337871 -0.000000
v -0.853359 1.282141 0.245512
v 2.521531 1.229434 0.000001
v 2.521531 -0.038491 0.000001
v 2.521531 -0.020790 -0.272086
v 2.521531 1.179174 -0.211706
v 2.521531 -0.020790 0.272086
v 2.521531 1.179184 0.211716
v -2.521531 -0.018803 -0.271253
v -2.521531 -0.038491 0.000001
v -2.521531 1.229434 0.000001
v -2.521531 1.179174 -0.211706
v -2.521531 -0.018797 0.271250
v -2.521531 1.179184 0.211716
v -2.004180 0.532036 1.228337
v -0.857924 0.504401 1.303714
v -0.000000 0.502444 1.340837
v 0.857924 0.504401 1.303714
v 2.004179 0.532036 1.228337
v 2.521531 0.536754 0.948319
v 2.521531 0.536754 -0.948322
v 2.004179 0.532036 -1.228337
v 0.857924 0.504401 -1.303714
v -0.000000 0.502444 -1.340837
v -0.857924 0.504401 -1.303714
v -2.004181 0.532036 -1.228337
v -2.521531 0.536708 -0.948355
v -2.521531 0.536754 0.948319
v -1.988095 1.011320 -0.900677
v -0.855886 0.926136 -1.101871
v -0.000000 0.920157 -1.153583
v 0.855886 0.926136 -1.101872
v 1.988095 1.011320 -0.900677
v 2.521531 0.951958 -0.689185
v 2.521531 0.951960 0.689191
v 1.988095 1.011320 0.900677
v 0.855886 0.926136 1.101871
v -0.000000 0.920157 1.153583
v -0.855886 0.926136 1.101871
v -1.988095 1.011320 0.900677
v -2.521531 0.951960 0.689190
v -2.521531 0.951958 -0.689185
v -1.995897 1.195370 -0.490964
v -0.871016 1.173509 -0.655741
v -0.000000 1.179269 -0.689640
v 0.871016 1.173510 -0.655741
v 1.995898 1.195370 -0.490964
v 2.521531 1.128400 -0.409410
v 2.521531 1.128415 0.409431
v 1.995897 1.195370 0.490965
v 0.871016 1.173509 0.655741
v -0.000000 1.179269 0.689640
v -0.871016 1.173510 0.655741
v -1.995898 1.195370 0.490965
v -2.521531 1.128415 0.409431
v -2.521531 1.128400 -0.409410
v -1.994336 0.083645 1.093387
v -0.857187 0.157673 1.226459
v -0.000000 0.164409 1.268134
v 0.857187 0.157673 1.226459
v 1.994336 0.083646 1.093388
v 2.521531 0.107042 0.732454
v 2.521531 0.107042 -0.732452
v 1.994336 0.083646 -1.093388
v 0.857187 0.157673 -1.226459
v -0.000000 0.164409 -1.268134
v -0.857187 0.157673 -1.226459
v -1.994338 0.083644 -1.093385
v -2.521531 0.107042 -0.732335
v -2.521531 0.107042 0.732457
v -1.972641 -0.051600 0.789058
v -0.852170 -0.000267 0.933650
v -0.000000 0.001155 0.933651
v 0.852170 -0.000267 0.933650
v 1.972641 -0.051600 0.789058
v 2.521531 -0.014019 0.468092
v 2.521531 -0.014019 -0.468090
v 1.972641 -0.051600 -0.789058
v 0.852170 -0.000267 -0.933650
v -0.000000 0.001155 -0.933651
v -0.852170 -0.000267 -0.933650
v -1.972637 -0.051599 -0.789058
v -2.521531 -0.013906 -0.468271
v -2.521531 -0.013899 0.468244
v 2.859341 0.132002 -0.172120
v 2.859341 0.119867 0.000000
v 2.859341 0.954547 -0.133924
v 2.859341 0.919742 -0.258990
v 2.859341 0.988999 0.000000
v 2.859341 0.132002 0.172119
v 2.859341 0.954553 0.133930
v 2.859341 0.136643 0.342355
v -2.859341 0.133363 -0.171593
v -2.859341 0.119867 0.000000
v -2.859341 0.988999 -0.000000
v -2.859341 0.954547 -0.133924
v -2.859341 0.919742 -0.258990
v -2.859341 0.133368 0.171590
v -2.859341 0.136725 0.342467
v -2.859341 0.954553 0.133930
v 2.859341 0.514184 0.554592
v 2.859341 0.798797 0.435976
v 2.859341 0.514184 -0.554595
v 2.859341 0.219627 -0.463345
v -2.859341 0.514152 -0.554613
v -2.859341 0.219627 -0.463271
v -2.859341 0.514184 0.554592
v -2.859341 0.798797 0.435976
v 2.859341 0.798796 -0.435974
v 2.859341 0.919753 0.259003
v -2.859341 0.919753 0.259002
v -2.859341 0.798795 -0.435974
v 2.859341 0.219627 0.463345
v 2.859341 0.136642 -0.342355
v -2.859341 0.136720 -0.342487
v -2.859341 0.219627 0.463346
v 3.024126 0.314073 -0.000001
v 3.024126 0.743898 -0.094964
v 3.015226 0.766476 -0.000001
v 3.024126 0.323088 0.108573
v -3.024126 0.314073 -0.000001
v -3.015226 0.766476 -0.000001
v -3.024126 0.743898 -0.094964
v -3.024126 0.323132 0.108608
v 3.024126 0.525965 0.231541
v 3.024126 0.525965 -0.231544
v -3.024126 0.525948 -0.231551
v -3.024126 0.525965 0.231541
v 3.024126 0.743903 0.094967
v -3.024126 0.743904 0.094967
v 3.024126 0.323087 -0.108575
v -3.024126 0.323129 -0.108617
v 3.082578 0.525965 -0.000001
v -3.082578 0.525956 -0.000005
vt 0.256085 0.511088
vt 0.256441 0.483798
vt 0.266958 0.484181
vt 0.263942 0.511136
vt 0.292722 0.484192
vt 0.300534 0.484157
vt 0.300031 0.511173
vt 0.292723 0.511233
vt 0.318488 0.484181
vt 0.329006 0.483798
vt 0.329362 0.511088
vt 0.353683 0.484317
vt 0.361636 0.484336
vt 0.361636 0.511233
vt 0.353616 0.511208
vt 0.223811 0.551793
vt 0.353616 0.551819
vt 0.353627 0.531513
vt 0.361636 0.531513
vt 0.329333 0.531513
vt 0.329362 0.551938
vt 0.300672 0.551830
vt 0.292723 0.551793
vt 0.292723 0.531513
vt 0.300013 0.531505
vt 0.263591 0.531513
vt 0.263942 0.551890
vt 0.256085 0.551938
vt 0.256113 0.531513
vt 0.284775 0.551830
vt 0.284764 0.531513
vt 0.284914 0.484013
vt 0.284775 0.511196
vt 0.231764 0.484317
vt 0.231831 0.511208
vt 0.231831 0.551819
vt 0.231820 0.531513
vt 0.231764 0.578709
vt 0.223811 0.578691
vt 0.353683 0.578709
vt 0.318488 0.578845
vt 0.329006 0.579228
vt 0.300534 0.578869
vt 0.292722 0.578835
vt 0.284914 0.579013
vt 0.256441 0.579228
vt 0.266958 0.578845
vt 0.367309 0.471481
vt 0.377991 0.471481
vt 0.338146 0.471481
vt 0.292723 0.471481
vt 0.302786 0.471481
vt 0.218137 0.471481
vt 0.282661 0.471481
vt 0.261805 0.471481
vt 0.247301 0.471481
vt 0.207456 0.591545
vt 0.367310 0.591545
vt 0.302786 0.591545
vt 0.292723 0.591545
vt 0.338147 0.591545
vt 0.323642 0.591545
vt 0.218137 0.591545
vt 0.261805 0.591545
vt 0.247301 0.591545
vt 0.282661 0.591545
vt 0.248030 0.578994
vt 0.250133 0.551921
vt 0.250480 0.531513
vt 0.250133 0.511105
vt 0.248030 0.484032
vt 0.233150 0.471481
vt 0.352297 0.471481
vt 0.337417 0.484032
vt 0.335314 0.511105
vt 0.334967 0.531513
vt 0.335314 0.551921
vt 0.337417 0.578994
vt 0.352299 0.591545
vt 0.233150 0.591545
vt 0.308496 0.579031
vt 0.312088 0.552250
vt 0.312515 0.531513
vt 0.312088 0.510776
vt 0.308496 0.483995
vt 0.311510 0.471481
vt 0.273937 0.471481
vt 0.276950 0.483995
vt 0.273358 0.510776
vt 0.272932 0.531513
vt 0.273358 0.552250
vt 0.276950 0.579031
vt 0.273937 0.591545
vt 0.311510 0.591545
vt 0.242567 0.578477
vt 0.246580 0.551801
vt 0.247143 0.531513
vt 0.246580 0.511225
vt 0.242567 0.484549
vt 0.224424 0.471481
vt 0.361023 0.471481
vt 0.342880 0.484549
vt 0.338867 0.511225
vt 0.338304 0.531513
vt 0.338867 0.551801
vt 0.342880 0.578477
vt 0.361015 0.591545
vt 0.224431 0.591545
vt 0.373913 0.463438
vt 0.383442 0.463438
vt 0.304168 0.463438
vt 0.314013 0.463438
vt 0.292723 0.463438
vt 0.211533 0.463438
vt 0.281278 0.463438
vt 0.219399 0.463438
vt 0.202004 0.599588
vt 0.373916 0.599588
vt 0.304168 0.599588
vt 0.292723 0.599588
vt 0.314013 0.599588
vt 0.211530 0.599588
vt 0.219405 0.599588
vt 0.281278 0.599588
vt 0.241193 0.463438
vt 0.257769 0.463438
vt 0.344253 0.463438
vt 0.359171 0.463438
vt 0.359174 0.599588
vt 0.344255 0.599588
vt 0.257769 0.599588
vt 0.241193 0.599588
vt 0.271434 0.463438
vt 0.271434 0.599588
vt 0.327678 0.599588
vt 0.226275 0.463438
vt 0.366048 0.463438
vt 0.366041 0.599588
vt 0.226275 0.599588
vt 0.321505 0.511136
vt 0.321505 0.551890
vt 0.321855 0.531513
vt 0.323642 0.471481
vt 0.327678 0.463438
vt 0.377991 0.591545
vt 0.383442 0.599588
vt 0.207456 0.471481
vt 0.202004 0.463438
vt 0.361636 0.578691
vt 0.223811 0.484336
vt 0.223811 0.511233
vt 0.361636 0.551793
vt 0.223811 0.531513
vt 0.340787 0.414848
vt 0.332516 0.400412
vt 0.345627 0.401274
vt 0.358595 0.401604
vt 0.332516 0.414208
vt 0.350154 0.429260
vt 0.324246 0.414848
vt 0.332516 0.429260
vt 0.367811 0.407499
vt 0.374762 0.428423
vt 0.306438 0.401604
vt 0.319405 0.401274
vt 0.339750 0.444741
vt 0.365726 0.448640
vt 0.314879 0.429260
vt 0.332516 0.446345
vt 0.352244 0.457232
vt 0.325282 0.444741
vt 0.290271 0.428423
vt 0.297222 0.407499
vt 0.332516 0.462152
vt 0.342718 0.459704
vt 0.299307 0.448640
vt 0.312787 0.457233
vt 0.322314 0.459705
vt 0.244676 0.446365
vt 0.244676 0.462172
vt 0.237442 0.444762
vt 0.251910 0.444762
vt 0.234474 0.459725
vt 0.224948 0.457253
vt 0.244675 0.429280
vt 0.264405 0.457254
vt 0.254878 0.459726
vt 0.211466 0.448661
vt 0.227038 0.429279
vt 0.262313 0.429281
vt 0.277885 0.448661
vt 0.202429 0.428441
vt 0.236402 0.414872
vt 0.252949 0.414872
vt 0.286921 0.428444
vt 0.209387 0.407520
vt 0.218587 0.401630
vt 0.244676 0.414229
vt 0.270763 0.401631
vt 0.279970 0.407520
vt 0.244676 0.400433
vt 0.231605 0.401392
vt 0.257746 0.401392
vn 0.070847 0.155686 0.985263
vn 0.214699 0.174222 0.961016
vn 0.136194 0.747447 0.650211
vn 0.052365 0.679151 0.732128
vn 0.055741 0.998445 0.000108
vn 0.056521 0.964534 -0.257838
vn 0.009638 0.969091 -0.246516
vn 0.004218 0.999991 0.000207
vn 0.052365 0.679151 -0.732128
vn 0.136196 0.747449 -0.650208
vn 0.214699 0.174222 -0.961015
vn 0.070847 0.155686 -0.985263
vn 0.007258 -0.998939 -0.045484
vn 0.019676 -0.999806 -0.000000
vn -0.001885 -0.999998 0.000000
vn -0.009341 -0.998120 -0.060575
vn 0.001885 -0.999998 0.000000
vn 0.009341 -0.998120 -0.060575
vn -0.000000 -0.997261 -0.073968
vn 0.000000 -1.000000 0.000000
vn 0.000000 0.151125 -0.988515
vn -0.070847 0.155685 -0.985263
vn -0.052365 0.679151 -0.732129
vn 0.000000 0.678122 -0.734949
vn -0.009638 0.969091 -0.246516
vn -0.004218 0.999991 0.000207
vn 0.000000 1.000000 0.000000
vn 0.000000 0.972389 -0.233365
vn 0.000000 0.678122 0.734949
vn -0.052365 0.679151 0.732128
vn -0.070847 0.155685 0.985263
vn 0.000000 0.151125 0.988515
vn -0.009642 0.969078 0.246568
vn 0.000000 0.972389 0.233365
vn 0.056831 0.964524 0.257807
vn 0.009642 0.969078 0.246567
vn 0.007258 -0.998939 0.045484
vn -0.009341 -0.998120 0.060575
vn 0.009341 -0.998120 0.060575
vn -0.000000 -0.997261 0.073968
vn -0.007658 -0.998934 0.045522
vn -0.020254 -0.999795 0.000003
vn -0.007656 -0.998934 -0.045522
vn -0.136199 0.747448 -0.650209
vn -0.214705 0.174223 -0.961014
vn -0.056521 0.964534 -0.257838
vn -0.055741 0.998445 0.000108
vn -0.056831 0.964524 0.257807
vn -0.214698 0.174222 0.961016
vn -0.136194 0.747447 0.650211
vn 0.184216 -0.982196 -0.036829
vn 0.195155 -0.980772 0.000000
vn 0.564928 0.105744 -0.818337
vn 0.443843 0.638158 -0.629093
vn 0.311508 0.950242 -0.001400
vn 0.326882 0.913625 -0.241740
vn 0.184216 -0.982195 0.036829
vn 0.328080 0.913225 0.241627
vn 0.443842 0.638143 0.629109
vn 0.564928 0.105741 0.818337
vn -0.195569 -0.980690 0.000008
vn -0.185496 -0.981968 -0.036470
vn -0.326882 0.913625 -0.241740
vn -0.311508 0.950242 -0.001400
vn -0.564945 0.105633 -0.818339
vn -0.443848 0.638152 -0.629095
vn -0.185500 -0.981967 0.036478
vn -0.443842 0.638143 0.629109
vn -0.564927 0.105743 0.818337
vn -0.328080 0.913225 0.241627
vn -0.189077 -0.624354 0.757913
vn -0.047189 -0.563273 0.824922
vn -0.000000 -0.588690 0.808359
vn 0.047189 -0.563273 0.824922
vn 0.189080 -0.624358 0.757909
vn 0.503259 -0.591709 0.629770
vn 0.503259 -0.591712 -0.629768
vn 0.189080 -0.624359 -0.757908
vn 0.047189 -0.563273 -0.824922
vn -0.000000 -0.588690 -0.808359
vn -0.047190 -0.563273 -0.824923
vn -0.189087 -0.624368 -0.757899
vn -0.503287 -0.591694 -0.629762
vn -0.503273 -0.591688 0.629779
vn -0.073441 0.927940 -0.365422
vn -0.022300 0.922378 -0.385643
vn 0.000000 0.922688 -0.385546
vn 0.022300 0.922379 -0.385643
vn 0.073441 0.927940 -0.365422
vn 0.336035 0.862783 -0.377738
vn 0.336522 0.862302 0.378402
vn 0.073287 0.927933 0.365471
vn 0.022298 0.922395 0.385604
vn 0.000000 0.922688 0.385546
vn -0.022298 0.922395 0.385604
vn -0.073287 0.927933 0.365471
vn -0.336523 0.862302 0.378402
vn -0.336034 0.862783 -0.377739
vn -0.044510 -0.979825 0.194836
vn 0.004324 -0.972954 0.230960
vn -0.000000 -0.976283 0.216497
vn -0.004324 -0.972954 0.230960
vn 0.044469 -0.979792 0.195014
vn 0.224930 -0.962062 0.154414
vn 0.224929 -0.962062 -0.154414
vn 0.044469 -0.979792 -0.195014
vn -0.004324 -0.972953 -0.230960
vn -0.000000 -0.976283 -0.216497
vn 0.004324 -0.972954 -0.230960
vn -0.044515 -0.979823 -0.194845
vn -0.224937 -0.962446 -0.151990
vn -0.224949 -0.962447 0.151965
vn 0.556824 -0.829476 -0.043778
vn 0.530104 -0.847933 -0.000000
vn 0.653510 0.732757 -0.189714
vn 0.654357 0.678178 -0.334503
vn 0.634625 0.772820 -0.000021
vn 0.556825 -0.829476 0.043779
vn 0.653515 0.732763 0.189678
vn 0.645487 -0.716993 0.263187
vn -0.528273 -0.849075 0.000010
vn -0.554912 -0.830693 -0.044967
vn -0.653510 0.732757 -0.189714
vn -0.634625 0.772820 -0.000021
vn -0.654356 0.678178 -0.334504
vn -0.554910 -0.830693 0.044982
vn -0.644197 -0.719133 0.260496
vn -0.653514 0.732762 0.189679
vn 0.788424 0.019716 0.614817
vn 0.736162 0.409865 0.538588
vn 0.788423 0.019719 -0.614818
vn 0.751899 -0.374739 -0.542419
vn -0.751872 -0.374719 -0.542471
vn -0.788400 0.019665 -0.614848
vn -0.736161 0.409866 0.538588
vn -0.788412 0.019734 0.614831
vn 0.736156 0.409888 -0.538578
vn 0.654368 0.678163 0.334511
vn -0.654367 0.678163 0.334511
vn -0.736159 0.409884 -0.538578
vn 0.751901 -0.374735 0.542420
vn 0.645486 -0.716993 -0.263188
vn -0.644164 -0.719146 -0.260540
vn -0.751901 -0.374689 0.542451
vn 0.887467 -0.391224 -0.243609
vn 0.894822 0.310538 -0.320717
vn 0.884006 0.467475 -0.000015
vn 0.894826 0.310533 0.320712
vn 0.887468 -0.391223 0.243609
vn -0.884009 0.467470 -0.000015
vn -0.894823 0.310531 -0.320721
vn -0.867873 -0.496786 0.000006
vn -0.887171 -0.391719 0.243892
vn -0.920709 0.036355 -0.388553
vn -0.887172 -0.391735 -0.243863
vn -0.894827 0.310532 0.320710
vn 0.920725 0.036283 0.388522
vn 0.920725 0.036288 -0.388522
vn -0.920718 0.036333 0.388534
vn 0.999968 0.007958 0.000001
vn -0.999968 0.007975 -0.000002
vn 0.867914 -0.496715 0.000000
s 1
g pCube1
usemtl initialShadingGroup
f 46/1/1 47/2/2 64/3/3 65/4/4
f 15/5/5 6/6/6 22/7/7 23/8/8
f 60/140/9 61/9/10 50/10/11 51/11/12
f 8/12/13 16/13/14 20/14/15 21/15/16
f 26/152/17 27/17/18 10/18/19 17/19/20
f 52/20/21 53/21/22 58/141/23 59/142/24
f 28/22/25 29/23/26 14/24/27 11/25/28
f 66/26/29 67/27/30 44/28/31 45/29/32
f 29/23/26 30/30/33 12/31/34 14/24/27
f 4/32/35 15/5/5 23/8/8 24/33/36
f 16/150/14 2/34/37 19/35/38 20/151/15
f 25/36/39 26/16/17 17/153/20 9/37/40
f 9/37/40 17/153/20 20/151/15 19/35/38
f 21/15/16 20/14/15 17/19/20 10/18/19
f 51/11/12 52/20/21 59/142/24 60/140/9
f 11/25/28 14/24/27 23/8/8 22/7/7
f 24/33/36 23/8/8 14/24/27 12/31/34
f 65/4/4 66/26/29 45/29/32 46/1/1
f 26/16/17 25/36/39 1/38/41 18/39/42
f 27/17/18 26/152/17 18/149/42 7/40/43
f 57/41/44 58/141/23 53/21/22 54/42/45
f 29/23/26 28/22/25 5/43/46 13/44/47
f 30/30/33 29/23/26 13/44/47 3/45/48
f 43/46/49 44/28/31 67/27/30 68/47/50
f 16/13/14 8/12/13 33/48/51 32/49/52
f 49/50/53 50/10/11 61/9/10 62/143/54
f 6/6/6 15/5/5 31/51/55 34/52/56
f 2/34/37 16/150/14 32/147/52 35/53/57
f 15/5/5 4/32/35 36/54/58 31/51/55
f 63/55/59 64/3/3 47/2/2 48/56/60
f 18/149/42 38/145/61 37/58/62 7/40/43
f 5/43/46 40/59/63 39/60/64 13/44/47
f 54/42/45 55/61/65 70/62/66 57/41/44
f 1/38/41 41/63/67 38/57/61 18/39/42
f 68/47/50 69/64/68 56/65/69 43/46/49
f 13/44/47 39/60/64 42/66/70 3/45/48
f 85/67/71 86/68/72 44/28/31 43/46/49
f 45/29/32 44/28/31 86/68/72 87/69/73
f 46/1/1 45/29/32 87/69/73 88/70/74
f 88/70/74 89/71/75 47/2/2 46/1/1
f 48/56/60 47/2/2 89/71/75 90/72/76
f 91/73/77 92/74/78 50/10/11 49/50/53
f 51/11/12 50/10/11 92/74/78 93/75/79
f 93/75/79 94/76/80 52/20/21 51/11/12
f 94/76/80 95/77/81 53/21/22 52/20/21
f 54/42/45 53/21/22 95/77/81 96/78/82
f 96/78/82 97/79/83 55/61/65 54/42/45
f 43/46/49 56/65/69 98/80/84 85/67/71
f 71/81/85 72/82/86 58/141/23 57/41/44
f 59/142/24 58/141/23 72/82/86 73/83/87
f 60/140/9 59/142/24 73/83/87 74/84/88
f 74/84/88 75/85/89 61/9/10 60/140/9
f 62/143/54 61/9/10 75/85/89 76/86/90
f 77/87/91 78/88/92 64/3/3 63/55/59
f 65/4/4 64/3/3 78/88/92 79/89/93
f 79/89/93 80/90/94 66/26/29 65/4/4
f 80/90/94 81/91/95 67/27/30 66/26/29
f 68/47/50 67/27/30 81/91/95 82/92/96
f 82/92/96 83/93/97 69/64/68 68/47/50
f 57/41/44 70/62/66 84/94/98 71/81/85
f 5/43/46 28/22/25 72/82/86 71/81/85
f 73/83/87 72/82/86 28/22/25 11/25/28
f 74/84/88 73/83/87 11/25/28 22/7/7
f 22/7/7 6/6/6 75/85/89 74/84/88
f 75/85/89 6/6/6 34/52/56 76/86/90
f 36/54/58 4/32/35 78/88/92 77/87/91
f 78/88/92 4/32/35 24/33/36 79/89/93
f 12/31/34 80/90/94 79/89/93 24/33/36
f 30/30/33 81/91/95 80/90/94 12/31/34
f 81/91/95 30/30/33 3/45/48 82/92/96
f 3/45/48 42/66/70 83/93/97 82/92/96
f 84/94/98 40/59/63 5/43/46 71/81/85
f 99/95/99 100/96/100 86/68/72 85/67/71
f 87/69/73 86/68/72 100/96/100 101/97/101
f 88/70/74 87/69/73 101/97/101 102/98/102
f 102/98/102 103/99/103 89/71/75 88/70/74
f 90/72/76 89/71/75 103/99/103 104/100/104
f 105/101/105 106/102/106 92/74/78 91/73/77
f 93/75/79 92/74/78 106/102/106 107/103/107
f 107/103/107 108/104/108 94/76/80 93/75/79
f 108/104/108 109/105/109 95/77/81 94/76/80
f 96/78/82 95/77/81 109/105/109 110/106/110
f 110/106/110 111/107/111 97/79/83 96/78/82
f 85/67/71 98/80/84 112/108/112 99/95/99
f 1/38/41 25/36/39 100/96/100 99/95/99
f 101/97/101 100/96/100 25/36/39 9/37/40
f 102/98/102 101/97/101 9/37/40 19/35/38
f 19/35/38 2/34/37 103/99/103 102/98/102
f 103/99/103 2/34/37 35/53/57 104/100/104
f 33/48/51 8/12/13 106/102/106 105/101/105
f 106/102/106 8/12/13 21/15/16 107/103/107
f 10/18/19 108/104/108 107/103/107 21/15/16
f 27/17/18 109/105/109 108/104/108 10/18/19
f 109/105/109 27/17/18 7/40/43 110/106/110
f 7/40/43 37/58/62 111/107/111 110/106/110
f 112/108/112 41/63/67 1/38/41 99/95/99
f 32/49/52 33/48/51 113/109/113 114/110/114
f 76/86/90 34/52/56 115/111/115 116/112/116
f 34/52/56 31/51/55 117/113/117 115/111/115
f 35/53/57 32/147/52 114/148/114 118/114/118
f 31/51/55 36/54/58 119/115/119 117/113/117
f 104/100/104 35/53/57 118/114/118 120/116/120
f 37/58/62 38/145/61 122/146/121 121/118/122
f 39/60/64 40/59/63 124/119/123 123/120/124
f 40/59/63 84/94/98 125/121/125 124/119/123
f 38/57/61 41/63/67 126/122/126 122/117/121
f 41/63/67 112/108/112 127/123/127 126/122/126
f 42/66/70 39/60/64 123/120/124 128/124/128
f 63/55/59 48/56/60 129/125/129 130/126/130
f 91/73/77 49/50/53 131/127/131 132/128/132
f 55/61/65 97/79/83 134/129/133 133/130/134
f 56/65/69 69/64/68 136/131/135 135/132/136
f 49/50/53 62/143/54 137/144/137 131/127/131
f 77/87/91 63/55/59 130/126/130 138/133/138
f 69/64/68 83/93/97 139/134/139 136/131/135
f 70/62/66 55/61/65 133/130/134 140/135/140
f 62/143/54 76/86/90 116/112/116 137/144/137
f 36/54/58 77/87/91 138/133/138 119/115/119
f 83/93/97 42/66/70 128/124/128 139/134/139
f 84/94/98 70/62/66 140/135/140 125/121/125
f 48/56/60 90/72/76 141/136/141 129/125/129
f 105/101/105 91/73/77 132/128/132 142/137/142
f 97/79/83 111/107/111 143/138/143 134/129/133
f 98/80/84 56/65/69 135/132/136 144/139/144
f 90/72/76 104/100/104 120/116/120 141/136/141
f 33/48/51 105/101/105 142/137/142 113/109/113
f 111/107/111 37/58/62 121/118/122 143/138/143
f 112/108/112 98/80/84 144/139/144 127/123/127
f 159/154/145 114/155/114 113/156/113 142/157/142
f 146/166/146 116/170/116 115/175/115 117/174/117
f 147/169/147 117/174/117 157/171/148
f 114/155/114 148/160/149 120/164/120 118/165/118
f 150/179/150 123/180/124 151/181/151
f 149/198/152 122/201/121 152/194/153
f 155/189/154 143/197/143 160/193/155
f 158/182/156 136/191/135 139/186/139
f 146/166/146 137/167/137 116/170/116
f 153/168/157 157/171/148 130/176/130 129/172/129
f 123/180/124 158/182/156 139/186/139 128/187/128
f 155/189/154 151/181/151 140/188/140 133/192/134
f 153/168/157 120/164/120 148/160/149
f 154/159/158 142/157/142 132/162/132 131/163/131
f 149/198/152 160/193/155 122/201/121
f 156/190/159 127/199/127 144/200/144 135/195/136
f 161/161/160 159/154/145 154/159/158
f 150/179/150 162/185/161 158/182/156
f 147/169/147 161/161/160 146/166/146
f 162/185/161 152/194/153 156/190/159
f 153/168/157 161/161/160 157/171/148
f 145/158/162 161/161/160 148/160/149
f 155/189/154 162/185/161 151/181/151
f 149/198/152 162/185/161 160/193/155
f 157/171/148 161/161/160 147/169/147
f 158/182/156 162/185/161 156/190/159
f 146/166/146 161/161/160 154/159/158
f 151/181/151 162/185/161 150/179/150
f 145/158/162 159/154/145 161/161/160
f 160/193/155 162/185/161 155/189/154
f 148/160/149 161/161/160 153/168/157
f 149/198/152 152/194/153 162/185/161
f 157/171/148 117/174/117 119/178/119 138/177/138
f 150/179/150 158/182/156 123/180/124
f 146/166/146 117/174/117 147/169/147
f 151/181/151 123/180/124 124/183/123 125/184/125
f 130/176/130 157/171/148 138/177/138
f 156/190/159 135/195/136 136/191/135 158/182/156
f 154/159/158 131/163/131 137/167/137 146/166/146
f 140/188/140 151/181/151 125/184/125
f 153/168/157 129/172/129 141/173/141 120/164/120
f 156/190/159 152/194/153 127/199/127
f 145/158/162 148/160/149 114/155/114
f 152/194/153 122/201/121 126/203/126 127/199/127
f 145/158/162 114/155/114 159/154/145
f 122/201/121 160/193/155 143/197/143 121/202/122
f 154/159/158 159/154/145 142/157/142
f 155/189/154 133/192/134 134/196/133 143/197/143
