# This file uses centimeters as units for non-parametric coordinates.

mtllib seed_packet.mtl
g default
v -0.294900 0.010458 2.038995
v 0.294900 0.010458 2.038995
v -0.360139 4.793403 1.595292
v 0.360139 4.793403 1.595292
v -0.360139 4.793403 -1.595292
v 0.360139 4.793403 -1.595292
v -0.294900 0.010458 -2.038995
v 0.294900 0.010458 -2.038995
v -0.335285 4.329526 1.618281
v 0.335285 4.329526 1.618281
v 0.335285 4.329526 -1.618281
v -0.335285 4.329526 -1.618281
v 0.000000 -0.044842 2.122682
v 0.000000 -0.044842 -2.122682
v 0.000000 4.329526 -1.684701
v 0.000000 4.793403 -1.807994
v 0.000000 4.793403 1.807994
v 0.000000 4.329526 1.684701
v -0.264022 1.931778 1.976979
v 0.000000 1.931778 2.093654
v 0.264022 1.931778 1.976979
v 0.264022 1.931778 -1.976979
v 0.000000 1.931778 -2.093654
v -0.264022 1.931778 -1.976979
v -0.419582 4.736914 0.000000
v 0.000000 4.624485 0.000000
v 0.419582 4.736914 0.000000
v 0.335285 4.329526 0.000000
v 0.606614 1.931778 -0.000000
v 0.445042 -0.057424 0.000000
v 0.000000 -0.136427 0.000000
v -0.448896 -0.057424 0.000000
v -0.611214 1.931778 -0.000000
v -0.335285 4.329526 0.000000
vt 0.543748 0.967880
vt 0.465761 0.526830
vt 0.563167 0.877723
vt 0.567060 0.928413
vt 0.047661 0.608900
vt 0.743034 0.968215
vt 0.743113 0.921965
vt 0.919143 0.929017
vt 0.960524 0.879424
vt 0.923210 0.878341
vt 0.743997 0.407078
vt 0.257339 0.000000
vt 0.977018 0.386464
vt 0.952268 0.409417
vt 0.743189 0.877542
vt 0.068441 0.519050
vt 0.248462 0.521641
vt 0.247706 0.566056
vt 0.071566 0.569795
vt 0.494138 0.612170
vt 0.525867 0.614563
vt 0.743629 0.621303
vt 0.961413 0.615311
vt 0.003425 0.252431
vt 0.035112 0.255312
vt 0.252822 0.265431
vt 0.048200 0.049579
vt 0.256466 0.051296
vt 0.428467 0.525176
vt 0.423617 0.575786
vt 0.470750 0.262725
vt 0.464670 0.056666
vt 0.511047 0.385664
vt 0.535718 0.408703
vt 0.744084 0.356192
vt 0.023875 0.026175
vt 0.993150 0.613027
vt 0.031113 0.519433
vt 0.502518 0.260924
vt 0.489778 0.034104
vt 0.525850 0.878678
vt 0.521637 0.930358
vt 0.469000 0.578580
vt 0.026115 0.571043
vt 0.964559 0.931118
vt 0.246919 0.612299
vt 0.446178 0.615682
vt 0.942320 0.968564
vn -0.000000 -0.118036 0.993009
vn -0.000000 0.104218 0.994555
vn 0.306958 0.096600 0.946808
vn 0.370239 -0.109648 0.922443
vn 0.000000 0.997622 0.068915
vn 0.000000 1.000000 0.000000
vn -0.160912 0.986969 0.000000
vn -0.160539 0.984683 0.068022
vn 0.000000 0.104218 -0.994555
vn -0.000000 -0.118036 -0.993009
vn 0.370239 -0.109648 -0.922443
vn 0.306958 0.096600 -0.946808
vn 0.183434 -0.983032 0.000000
vn -0.000004 -1.000000 0.000000
vn 0.000000 -0.998984 -0.045073
vn 0.183255 -0.982069 -0.044242
vn 0.992310 -0.123774 -0.000000
vn 0.999698 0.024580 0.000000
vn 0.995969 0.026919 -0.085566
vn 0.992101 -0.123748 -0.020527
vn -0.995848 0.027835 -0.086670
vn -0.999675 0.025486 -0.000000
vn -0.992310 -0.123774 0.000000
vn -0.992101 -0.123748 -0.020527
vn 0.000000 0.097734 0.995213
vn 0.309025 0.095944 0.946202
vn 0.999945 0.010488 0.000000
vn 0.994032 0.008109 -0.108790
vn 0.309024 0.095944 -0.946202
vn -0.000000 0.097734 -0.995213
vn -0.993844 0.008546 -0.110458
vn -0.999940 0.010959 0.000000
vn -0.182350 -0.982231 -0.044385
vn -0.182530 -0.983200 0.000000
vn -0.306958 0.096600 -0.946808
vn -0.309025 0.095944 -0.946202
vn -0.370239 -0.109648 -0.922443
vn 0.160912 0.986969 0.000000
vn 0.160539 0.984683 0.068022
vn -0.306958 0.096600 0.946808
vn -0.370239 -0.109648 0.922443
vn -0.309025 0.095944 0.946202
vn -0.335189 0.024654 0.941828
vn 0.000000 0.026167 0.999658
vn 0.335189 0.024654 0.941828
vn 0.999505 -0.031451 0.000000
vn 0.992010 -0.031216 -0.122241
vn -0.000000 0.026167 -0.999658
vn 0.335187 0.024654 -0.941829
vn -0.335187 0.024654 -0.941829
vn -0.991749 -0.031363 -0.124299
vn -0.999500 -0.031608 0.000000
vn 0.160539 0.984683 -0.068022
vn 0.000000 0.997622 -0.068915
vn -0.160539 0.984683 -0.068022
vn 0.995969 0.026919 0.085566
vn 0.992101 -0.123748 0.020527
vn 0.994032 0.008109 0.108790
vn 0.992010 -0.031216 0.122241
vn 0.000000 -0.998984 0.045073
vn 0.183255 -0.982069 0.044242
vn -0.182350 -0.982231 0.044385
vn -0.991749 -0.031363 0.124299
vn -0.993844 0.008546 0.110458
vn -0.995848 0.027835 0.086670
vn -0.992101 -0.123748 0.020527
s 1
g pCube1
usemtl initialShadingGroup
f 17/42/1 18/41/2 10/3/3 4/4/4
s 2
f 16/48/5 26/6/6 27/7/7 6/8/8
s 3
f 15/9/9 16/45/10 6/8/11 11/10/12
s 4
f 30/11/13 31/35/14 14/13/15 8/14/16
s 5
f 27/7/17 28/15/18 11/10/19 6/8/20
s 6
f 12/16/21 34/17/22 25/18/23 5/19/24
s 1
f 18/41/2 20/20/25 21/21/26 10/3/3
s 5
f 28/15/18 29/22/27 22/23/28 11/10/19
s 3
f 22/23/29 23/37/30 15/9/9 11/10/12
s 6
f 24/25/31 33/26/32 34/17/22 12/16/21
s 4
f 7/27/33 14/36/15 31/12/14 32/28/34
s 3
f 12/16/35 15/38/9 23/24/30 24/25/36
f 5/19/37 16/44/10 15/38/9 12/16/35
s 2
f 25/18/38 26/46/6 16/5/5 5/19/39
s 1
f 9/29/40 18/2/2 17/43/1 3/30/41
f 19/31/42 20/39/25 18/2/2 9/29/40
f 1/32/43 13/40/44 20/39/25 19/31/42
f 21/21/26 20/20/25 13/33/44 2/34/45
s 5
f 29/22/27 30/11/46 8/14/47 22/23/28
s 3
f 14/13/48 23/37/30 22/23/29 8/14/49
f 24/25/36 23/24/30 14/36/48 7/27/50
s 6
f 7/27/51 32/28/52 33/26/32 24/25/31
s 2
f 3/30/53 17/47/54 26/46/6 25/18/38
f 27/7/7 26/6/6 17/1/54 4/4/55
s 5
f 10/3/56 28/15/18 27/7/17 4/4/57
f 21/21/58 29/22/27 28/15/18 10/3/56
f 2/34/59 30/11/46 29/22/27 21/21/58
s 4
f 13/33/60 31/35/14 30/11/13 2/34/61
f 32/28/34 31/12/14 13/40/60 1/32/62
s 6
f 33/26/32 32/28/52 1/32/63 19/31/64
f 34/17/22 33/26/32 19/31/64 9/29/65
f 25/18/23 34/17/22 9/29/65 3/30/66
