# This file uses centimeters as units for non-parametric coordinates.

mtllib mountain2_low.mtl
g default
v -260.143204 710.935707 7.314610
v -333.437233 631.455860 -15.063601
v -366.812382 631.637535 97.755718
v -272.788496 806.113243 85.340703
v -145.110126 690.276031 86.479983
v -151.466875 642.397041 -7.580250
v -330.354996 613.284416 195.472784
v -256.076431 711.382999 170.281806
v -157.515578 627.478638 176.718636
v 231.357837 458.244581 -127.770510
v 220.654836 524.529133 -70.807171
v 329.239740 619.030094 -91.115005
v 308.293962 556.865673 -160.264378
v 356.222076 556.515083 -44.234061
v 265.480442 506.977272 19.716809
v 419.367113 494.085102 -55.466791
v 419.292784 509.778214 -121.563420
v 384.765072 476.785841 -178.420215
v -53.948275 538.950062 167.642627
v -59.923668 601.199856 77.184699
v 94.389353 392.278891 64.088187
v 87.295568 447.272186 -6.297160
v 197.395463 440.374002 33.029881
v 137.504454 468.114424 -31.745131
v 11.662369 486.508656 117.797220
v 14.815581 514.616661 34.112824
v -82.575581 566.375999 -3.667859
v -29.160161 494.090366 -20.685566
v 42.810427 438.713980 -63.954728
v 125.712833 408.992786 -110.156937
v -404.772921 476.807556 -20.359470
v -447.002964 485.577965 73.850942
v -422.526512 502.758007 199.165735
v -495.735283 377.193861 -45.618210
v -489.083462 463.482170 68.374772
v -497.045059 381.894693 178.719420
v -550.247898 468.079891 55.799789
v -617.079735 351.248646 139.543791
v -603.495655 354.622736 -23.921589
v -659.438152 298.101339 40.112758
v -759.397087 102.421596 -71.402779
v -830.766335 4.026660 -75.988863
v -910.190105 -7.547820 64.769969
v -819.357147 69.048479 54.694920
v -729.475193 192.476807 48.604245
v -682.640076 235.504360 -55.942730
v -693.852596 235.840387 163.850927
v -779.442272 109.502220 182.706871
v -848.003597 5.527560 188.132129
v -581.611748 251.319380 241.991129
v -636.803570 116.092215 258.330202
v -673.888321 3.285840 277.427301
v -566.504860 253.336000 -112.027273
v -644.197197 127.407646 -150.074673
v -705.070267 13.304520 -180.657277
v 522.308693 425.974674 -101.721017
v 478.604765 387.892628 -167.298503
v 605.076485 317.304125 -80.700753
v 580.980034 311.027584 -173.370523
v 738.866844 224.063959 -70.028379
v 673.443203 212.532120 -160.535731
v 834.541855 105.341578 -60.876002
v 744.472046 106.948063 -152.286272
v 913.068523 15.033810 -48.702811
v 812.865429 17.484149 -162.258124
v 789.686279 109.351802 20.440110
v 825.567284 11.625570 30.103801
v 707.454872 225.683656 19.826476
v 599.512196 330.588284 10.946639
v 519.948864 420.047951 -19.126080
v -243.930016 574.421940 -51.350548
v -345.760517 498.666801 -118.612661
v -412.463207 393.318014 -140.652595
v -443.561239 258.397636 -145.296922
v -488.376732 118.596539 -166.435175
v -534.132957 11.842710 -211.477175
v -144.345031 518.937435 -74.169445
v -88.808777 440.055027 -87.043104
v -10.563111 385.973940 -136.127801
v 101.122620 324.161224 -177.284603
v 224.758387 379.329872 -190.541410
v 297.719765 446.120596 -211.041369
v 350.844641 397.770338 -226.285772
v 705.280781 10.791761 -235.657582
v 644.802132 92.677989 -218.832765
v 592.128983 184.627762 -225.412288
v 518.407345 269.979029 -234.338264
v 420.565367 320.158281 -204.494233
v 278.473206 322.278757 -243.250751
v 365.298185 284.109535 -291.976004
v 449.702311 221.342154 -285.548687
v 526.978340 173.734117 -308.331585
v 569.820042 98.111336 -322.567692
v 585.066090 9.182040 -315.789413
v -408.271322 21.293761 -261.372070
v -383.133688 154.782257 -242.946711
v -352.247486 258.192644 -219.190307
v -307.159824 369.349194 -190.440359
v -236.120167 445.038414 -118.950062
v 183.999739 224.033818 -237.702484
v 74.313025 189.780064 -248.343258
v 2.580746 243.554478 -233.735404
v -83.577862 302.426062 -186.065240
v -156.775417 380.766191 -159.710069
v 166.316156 110.625536 -285.942307
v 45.794485 111.835370 -288.705883
v 159.312487 15.108451 -326.129808
v 27.761670 12.327990 -326.759834
v -80.494380 9.851640 -360.549402
v -70.394547 155.902534 -321.967106
v -218.925347 316.205235 -237.269897
v -142.673922 255.000229 -281.997499
v -261.067600 217.985029 -241.640253
v -321.560926 25.116540 -316.049337
v -295.363369 133.047380 -288.176622
v -199.855256 193.619785 -285.310507
v -193.717360 114.979849 -329.788084
v -198.578939 6.519930 -360.239811
v 304.808779 192.043934 -285.166368
v 282.228642 101.143527 -305.571928
v 275.370770 18.799253 -346.434431
v 363.711891 103.363216 -367.405128
v 373.028326 16.242033 -380.036545
v 390.961733 180.056806 -344.485703
v 461.892185 149.507217 -344.653816
v 467.319660 93.245330 -372.334499
v 472.557764 19.104540 -380.695210
v 347.895212 435.285301 9.208075
v 438.464727 355.896721 15.440515
v 531.207104 303.132734 76.313303
v 616.805878 209.705544 91.527486
v 669.417057 106.936111 80.305831
v 696.222553 12.331800 90.938580
v 289.315338 405.912294 86.912434
v 365.703506 329.832602 85.500183
v 440.768652 264.477396 110.996389
v 506.406956 187.925262 134.201760
v 553.782005 100.039115 135.691323
v 572.499390 5.225310 127.388248
v 203.346777 354.687281 122.535024
v 45.438212 353.124075 172.334347
v 137.468519 294.664564 167.319217
v 287.090092 291.511288 129.088984
v 355.688238 235.044107 144.659171
v 404.117346 172.459846 181.694083
v 432.290182 97.256720 208.708448
v 437.525597 12.340770 213.379955
v 223.401275 243.072309 154.564834
v 284.646578 206.856623 142.037287
v 299.835720 146.699224 159.354000
v 309.176731 83.952420 189.079442
v 320.947351 16.799880 221.412120
v -225.694542 559.112606 249.024982
v -117.921760 483.602371 237.653446
v -45.247221 415.051517 190.529351
v -309.089527 455.731344 253.679438
v -388.882685 351.927595 261.287956
v -451.748514 232.807889 270.308533
v -508.042946 126.464739 314.377241
v -544.165363 14.500470 313.763666
v -202.463093 410.678587 281.461630
v -279.204340 321.765776 300.891066
v -335.372372 217.213068 307.103548
v -394.586592 5.181270 364.098444
v -368.411636 111.975832 322.478256
v -105.796587 351.129398 258.401642
v -162.313628 291.922131 337.129240
v -253.939619 7.916730 362.996435
v -238.356929 113.143795 366.585932
v -218.527522 207.340736 361.090193
v -32.232628 275.784988 202.479386
v 81.599207 219.437070 206.777658
v 196.582217 180.821414 193.440771
v 191.209517 110.645056 250.422363
v 198.994403 10.780407 282.319136
v -69.111850 223.384509 294.713459
v -99.301558 115.073998 346.494484
v -73.536429 10.802135 356.358290
v -125.717154 187.624741 351.722403
v 25.710252 127.465010 268.006496
v 75.231693 8.193147 340.198603
vt 0.369476 0.056525
vt 0.341093 0.098907
vt 0.295322 0.068839
vt 0.598902 0.411648
vt 0.423741 0.082090
vt 0.528622 0.457087
vt 0.592960 0.471044
vt 0.629260 0.515846
vt 0.545024 0.506151
vt 0.683957 0.155228
vt 0.630745 0.180269
vt 0.629261 0.138106
vt 0.248778 0.480962
vt 0.296380 0.547991
vt 0.247373 0.519589
vt 0.215651 0.548414
vt 0.196303 0.522944
vt 0.716259 0.191971
vt 0.493892 0.542738
vt 0.480965 0.064697
vt 0.391457 0.579855
vt 0.556057 0.137400
vt 0.337710 0.565282
vt 0.580625 0.146215
vt 0.450477 0.554615
vt 0.518921 0.106901
vt 0.465532 0.104941
vt 0.497979 0.134473
vt 0.535653 0.165641
vt 0.576174 0.192566
vt 0.292694 0.161687
vt 0.252763 0.134675
vt 0.675706 0.563268
vt 0.255587 0.215790
vt 0.237007 0.150045
vt 0.723395 0.611548
vt 0.211001 0.161649
vt 0.141040 0.185215
vt 0.203884 0.229767
vt 0.156660 0.238853
vt 0.068676 0.336576
vt 0.134718 0.351397
vt 0.101323 0.397050
vt 0.029399 0.376479
vt 0.116086 0.282447
vt 0.172380 0.290064
vt 0.818353 0.681410
vt 0.856852 0.742536
vt 0.000000 0.319489
vt 0.754546 0.685255
vt 0.781669 0.748432
vt 0.798967 0.801907
vt 0.233031 0.287335
vt 0.200990 0.351786
vt 0.176457 0.408559
vt 0.764143 0.227993
vt 0.155423 0.570362
vt 0.811820 0.265163
vt 0.115611 0.623029
vt 0.860949 0.305977
vt 0.067267 0.684166
vt 0.029413 0.745942
vt 0.900400 0.351450
vt 0.000000 0.793961
vt 0.932196 0.393802
vt 0.054580 0.802274
vt 0.071257 0.756714
vt 0.107710 0.702194
vt 0.151409 0.647743
vt 0.180402 0.598774
vt 0.387003 0.124441
vt 0.345454 0.175735
vt 0.315461 0.225224
vt 0.292816 0.285304
vt 0.273120 0.352084
vt 0.257124 0.407910
vt 0.437930 0.145422
vt 0.471841 0.176783
vt 0.511464 0.209616
vt 0.565826 0.245457
vt 0.628784 0.228050
vt 0.672410 0.207947
vt 0.695180 0.232876
vt 0.873095 0.408125
vt 0.846746 0.368137
vt 0.816295 0.328536
vt 0.776727 0.292819
vt 0.734884 0.261714
vt 0.655484 0.264699
vt 0.696736 0.293703
vt 0.739060 0.319781
vt 0.771398 0.347889
vt 0.790411 0.383035
vt 0.806036 0.421470
vt 0.334486 0.345269
vt 0.320006 0.407951
vt 0.347580 0.295161
vt 0.369160 0.241378
vt 0.400579 0.190934
vt 0.604163 0.303412
vt 0.553080 0.319489
vt 0.519321 0.293221
vt 0.478908 0.257110
vt 0.440926 0.222604
vt 0.595199 0.362079
vt 0.540285 0.361894
vt 0.592457 0.411040
vt 0.533346 0.412654
vt 0.481986 0.421746
vt 0.483033 0.351180
vt 0.412371 0.270790
vt 0.448603 0.304148
vt 0.390131 0.315323
vt 0.378369 0.361196
vt 0.367013 0.413441
vt 0.422048 0.332352
vt 0.427719 0.373796
vt 0.427168 0.426067
vt 0.661014 0.329574
vt 0.646723 0.415235
vt 0.648291 0.372123
vt 0.695075 0.425015
vt 0.693278 0.383664
vt 0.706729 0.347515
vt 0.738906 0.362688
vt 0.739716 0.391517
vt 0.743156 0.426067
vt 0.259827 0.580490
vt 0.225088 0.621323
vt 0.193067 0.666642
vt 0.159828 0.714454
vt 0.122397 0.806216
vt 0.133808 0.761404
vt 0.302236 0.603736
vt 0.269385 0.641531
vt 0.239846 0.680313
vt 0.214576 0.722698
vt 0.183604 0.809707
vt 0.193953 0.765490
vt 0.387533 0.652444
vt 0.348330 0.623996
vt 0.432331 0.623528
vt 0.312510 0.659685
vt 0.283740 0.691996
vt 0.266410 0.729008
vt 0.258983 0.767221
vt 0.259232 0.806619
vt 0.347124 0.680245
vt 0.318888 0.699116
vt 0.315954 0.728803
vt 0.315714 0.761691
vt 0.314133 0.797161
vt 0.580369 0.548464
vt 0.528625 0.578673
vt 0.481238 0.600145
vt 0.620993 0.593469
vt 0.661968 0.639057
vt 0.693122 0.693969
vt 0.716300 0.749582
vt 0.735645 0.800792
vt 0.569503 0.617295
vt 0.608286 0.658137
vt 0.636872 0.705660
vt 0.661731 0.809707
vt 0.651492 0.755614
vt 0.553114 0.676637
vt 0.517801 0.638574
vt 0.587670 0.758350
vt 0.595125 0.807011
vt 0.578563 0.715693
vt 0.468214 0.662618
vt 0.418190 0.691351
vt 0.365798 0.712517
vt 0.377132 0.754029
vt 0.376724 0.803524
vt 0.502419 0.701026
vt 0.508811 0.803935
vt 0.521308 0.755755
vt 0.535913 0.723562
vt 0.452679 0.740669
vt 0.439484 0.808934
vt 0.958392 0.335987
vt 1.000000 0.373782
vt 0.908598 0.284441
vt 0.846833 0.237407
vt 0.793381 0.198994
vt 0.740178 0.165887
vt 0.889721 0.790630
vt 0.039440 0.277592
vt 0.091004 0.228047
vt 0.784171 0.624208
vt 0.771406 0.552111
vt 0.743055 0.548149
vt 0.726339 0.533104
vt 0.664938 0.481465
vt 0.429151 0.519542
vt 0.480499 0.493172
vt 0.313347 0.504546
vt 0.358522 0.527262
vt 0.383843 0.537654
vt 0.431377 0.033606
vt 0.695270 0.112839
vt 0.357627 0.000000
vn -0.134608 0.664131 -0.735399
vn -0.595730 0.523922 -0.608779
vn -0.842232 0.538933 0.014024
vn -0.188246 0.981310 0.039914
vn 0.393665 0.580436 -0.712826
vn 0.656793 0.752049 0.055187
vn -0.071335 0.657428 0.750133
vn -0.499891 0.490322 0.713928
vn 0.430274 0.563562 0.705168
vn -0.225375 0.631835 -0.741614
vn -0.581075 0.548395 -0.601344
vn -0.607807 0.793236 -0.036707
vn -0.090791 0.989971 -0.108235
vn -0.045608 0.662746 0.747454
vn 0.313763 0.665565 0.677182
vn 0.500443 0.616007 0.608352
vn 0.639111 0.680013 -0.359332
vn 0.413412 0.451773 -0.790564
vn 0.639404 0.454766 0.619960
vn 0.726768 0.684075 0.062042
vn 0.730405 0.465325 0.499981
vn 0.711023 0.700486 -0.061369
vn 0.353020 0.700317 0.620430
vn -0.166185 0.729650 0.663320
vn -0.415478 0.909351 0.021414
vn 0.321484 0.942216 0.094216
vn 0.493993 0.571973 -0.654842
vn 0.381586 0.663602 -0.643448
vn 0.102970 0.780559 -0.616543
vn -0.259885 0.700786 -0.664348
vn -0.686479 0.581703 -0.436312
vn -0.803774 0.588398 -0.087957
vn -0.631430 0.435187 0.641801
vn -0.459436 0.589518 -0.664369
vn -0.542817 0.839740 -0.013618
vn -0.437018 0.513948 0.738155
vn -0.493963 0.868787 -0.034788
vn -0.656854 0.633456 0.408994
vn -0.601345 0.629233 -0.492391
vn -0.829501 0.555566 -0.057213
vn -0.774015 0.629524 -0.067835
vn -0.689493 0.540020 -0.482678
vn -0.677966 0.597992 -0.427513
vn -0.739852 0.671560 -0.040326
vn -0.824460 0.562223 -0.064590
vn -0.659384 0.540791 -0.522262
vn -0.698969 0.537704 0.471505
vn -0.675746 0.506668 0.535401
vn -0.665896 0.558661 0.494449
vn -0.391121 0.435843 0.810596
vn -0.411672 0.312030 0.856250
vn -0.409826 0.269079 0.871573
vn -0.351405 0.414611 -0.839412
vn -0.337358 0.410514 -0.847153
vn -0.398908 0.444395 -0.802113
vn 0.469016 0.493418 -0.732504
vn 0.682824 0.684992 -0.254040
vn 0.533021 0.570192 -0.625115
vn 0.681623 0.708042 -0.184570
vn 0.607615 0.482345 -0.630989
vn 0.734562 0.653729 -0.181817
vn 0.791218 0.592931 -0.149691
vn 0.586198 0.440790 -0.679762
vn 0.795869 0.602448 -0.060397
vn 0.579775 0.499449 -0.643748
vn 0.572180 0.369759 0.732044
vn 0.619755 0.415251 0.665935
vn 0.632264 0.574090 0.520253
vn 0.544530 0.706284 0.452383
vn 0.468613 0.708562 0.527581
vn -0.020658 0.493510 -0.869495
vn -0.295365 0.576485 -0.761856
vn -0.491184 0.477958 -0.728213
vn -0.457984 0.334089 -0.823793
vn -0.330654 0.340747 -0.880090
vn -0.265862 0.374226 -0.888410
vn 0.263563 0.481031 -0.836148
vn 0.208668 0.586336 -0.782731
vn 0.045827 0.637671 -0.768944
vn -0.129940 0.539113 -0.832149
vn -0.398956 0.443216 -0.802741
vn -0.318501 0.421799 -0.848907
vn 0.179485 0.365125 -0.913493
vn 0.535236 0.418406 -0.733797
vn 0.587678 0.360252 -0.724467
vn 0.567227 0.399229 -0.720326
vn 0.363389 0.533650 -0.763654
vn 0.302264 0.493355 -0.815621
vn -0.239203 0.332846 -0.912138
vn 0.000309 0.461963 -0.886899
vn 0.251675 0.601936 -0.757848
vn 0.489041 0.514857 -0.704103
vn 0.598111 0.307999 -0.739865
vn 0.591866 0.232865 -0.771666
vn -0.477485 0.338384 -0.810866
vn -0.486133 0.319832 -0.813254
vn -0.419425 0.306846 -0.854358
vn -0.167988 0.449381 -0.877403
vn 0.108535 0.528277 -0.842107
vn -0.185094 0.367155 -0.911558
vn 0.103863 0.450963 -0.886479
vn 0.148654 0.559129 -0.815645
vn 0.165505 0.630800 -0.758089
vn 0.172832 0.620287 -0.765097
vn -0.085542 0.389990 -0.916837
vn 0.179448 0.369059 -0.911918
vn -0.058938 0.394190 -0.917137
vn 0.201467 0.300493 -0.932263
vn 0.136623 0.260211 -0.955837
vn 0.166865 0.407878 -0.897659
vn -0.002093 0.533562 -0.845758
vn 0.087955 0.575319 -0.813186
vn -0.271225 0.349762 -0.896718
vn -0.327683 0.348634 -0.878110
vn -0.380653 0.275495 -0.882726
vn -0.263946 0.391900 -0.881332
vn -0.166377 0.324204 -0.931241
vn -0.145087 0.276911 -0.949879
vn -0.305888 0.321422 -0.896170
vn -0.286421 0.354778 -0.889998
vn -0.302402 0.359655 -0.882724
vn -0.235579 0.197394 -0.951598
vn -0.308875 0.287512 -0.906605
vn -0.154391 0.446827 -0.881197
vn 0.221883 0.479589 -0.848977
vn 0.237374 0.210256 -0.948391
vn 0.265128 0.096568 -0.959365
vn 0.343955 0.484453 0.804363
vn 0.226611 0.598241 0.768606
vn 0.250189 0.565008 0.786239
vn 0.414673 0.350834 0.839620
vn 0.394356 0.175211 0.902100
vn 0.424046 0.195688 0.884246
vn 0.209485 0.553079 0.806362
vn 0.304348 0.551651 0.776566
vn 0.197598 0.560152 0.804478
vn 0.320259 0.352757 0.879202
vn 0.433604 0.076799 0.897825
vn 0.427988 0.142817 0.892429
vn 0.218982 0.471666 0.854153
vn 0.107760 0.587464 0.802044
vn 0.412472 0.416063 0.810407
vn 0.208882 0.331453 0.920058
vn 0.085999 0.430787 0.898347
vn 0.109511 0.406570 0.907033
vn 0.254014 0.233995 0.938468
vn 0.317492 0.127217 0.939688
vn 0.261073 0.310031 0.914178
vn 0.108077 0.277884 0.954516
vn 0.115774 0.408572 0.905353
vn 0.194382 0.375865 0.906058
vn 0.231324 0.317246 0.919698
vn 0.040846 0.367757 0.929024
vn 0.406607 0.288663 0.866801
vn 0.583036 0.228523 0.779645
vn -0.247866 0.272591 0.929654
vn -0.325790 0.298341 0.897136
vn -0.252001 0.347147 0.903319
vn -0.233692 0.280726 0.930903
vn -0.272726 0.206376 0.939696
vn 0.099659 0.299364 0.948920
vn -0.186840 0.311421 0.931723
vn -0.264834 0.252459 0.930660
vn -0.167046 0.218769 0.961372
vn -0.192177 0.241402 0.951206
vn 0.218018 0.389505 0.894849
vn 0.496769 0.293241 0.816842
vn -0.091151 0.116477 0.989002
vn -0.042186 0.123848 0.991404
vn -0.129229 0.216601 0.967669
vn 0.467349 0.339920 0.816112
vn 0.270734 0.439274 0.856587
vn 0.304929 0.457409 0.835341
vn 0.308247 0.472109 0.825891
vn 0.321292 0.432791 0.842296
vn 0.546381 0.364924 0.753855
vn 0.206650 0.263961 0.942136
vn 0.263126 0.197201 0.944392
vn 0.348113 0.166781 0.922497
vn 0.325876 0.451493 0.830637
vn 0.261758 0.444537 0.856662
s 1
g mountain2_low
usemtl initialShadingGroup
f 1/1/1 2/2/2 3/3/3 4/203/4
f 6/5/5 1/1/1 4/203/4 5/201/6
f 8/7/7 4/4/4 3/195/3 7/8/8
f 5/6/6 4/4/4 8/7/7 9/9/9
f 13/10/10 10/11/11 11/12/12 12/202/13
f 15/14/14 14/15/15 12/13/13 11/198/12
f 14/15/15 16/16/16 17/17/17 12/13/13
f 18/18/18 13/10/10 12/202/13 17/187/17
f 9/9/9 19/19/19 20/197/20 5/6/6
f 19/19/19 25/25/21 26/196/22 20/197/20
f 21/21/23 23/23/24 24/199/25 22/200/26
f 23/23/24 15/14/14 11/198/12 24/199/25
f 26/196/22 25/25/21 21/21/23 22/200/26
f 27/27/27 6/5/5 5/201/6 20/20/20
f 28/28/28 27/27/27 20/20/20 26/26/22
f 29/29/29 28/28/28 26/26/22 22/22/26
f 30/30/30 29/29/29 22/22/26 24/24/25
f 10/11/11 30/30/30 24/24/25 11/12/12
f 2/2/2 31/31/31 32/32/32 3/3/3
f 33/33/33 7/8/8 3/195/3 32/194/32
f 32/32/32 31/31/31 34/34/34 35/35/35
f 35/193/35 36/36/36 33/33/33 32/194/32
f 36/36/36 35/193/35 37/192/37 38/191/38
f 35/35/35 34/34/34 39/39/39 37/37/37
f 37/37/37 39/39/39 40/40/40 38/38/38
f 44/41/41 41/42/42 42/43/43 43/44/44
f 41/42/42 44/41/41 45/45/45 46/46/46
f 40/40/40 39/39/39 46/46/46 45/45/45
f 38/38/38 40/40/40 45/45/45 47/190/47
f 45/45/45 44/41/41 48/189/48 47/190/47
f 43/44/44 49/49/49 48/189/48 44/41/41
f 38/191/38 47/47/47 50/50/50 36/36/36
f 48/48/48 51/51/51 50/50/50 47/47/47
f 51/51/51 48/48/48 49/188/49 52/52/52
f 34/34/34 53/53/53 46/46/46 39/39/39
f 53/53/53 54/54/54 41/42/42 46/46/46
f 55/55/55 42/43/43 41/42/42 54/54/54
f 57/56/56 18/18/18 17/187/17 56/186/57
f 59/58/58 57/56/56 56/186/57 58/185/59
f 61/60/60 59/58/58 58/185/59 60/184/61
f 60/184/61 62/182/62 63/63/63 61/60/60
f 63/63/63 62/182/62 64/183/64 65/65/65
f 67/66/66 64/64/64 62/62/62 66/67/67
f 68/68/68 66/67/67 62/62/62 60/61/61
f 69/69/69 68/68/68 60/61/61 58/59/59
f 70/70/70 69/69/69 58/59/59 56/57/57
f 16/16/16 70/70/70 56/57/57 17/17/17
f 71/71/71 2/2/2 1/1/1 6/5/5
f 71/71/71 72/72/72 31/31/31 2/2/2
f 34/34/34 31/31/31 72/72/72 73/73/73
f 73/73/73 74/74/74 53/53/53 34/34/34
f 74/74/74 75/75/75 54/54/54 53/53/53
f 54/54/54 75/75/75 76/76/76 55/55/55
f 77/77/77 71/71/71 6/5/5 27/27/27
f 28/28/28 78/78/78 77/77/77 27/27/27
f 29/29/29 79/79/79 78/78/78 28/28/28
f 30/30/30 80/80/80 79/79/79 29/29/29
f 30/30/30 10/11/11 81/81/81 80/80/80
f 81/81/81 10/11/11 13/10/10 82/82/82
f 82/82/82 13/10/10 18/18/18 83/83/83
f 65/65/65 84/84/84 85/85/85 63/63/63
f 86/86/86 61/60/60 63/63/63 85/85/85
f 87/87/87 59/58/58 61/60/60 86/86/86
f 87/87/87 88/88/88 57/56/56 59/58/58
f 83/83/83 18/18/18 57/56/56 88/88/88
f 83/83/83 89/89/89 81/81/81 82/82/82
f 90/90/90 89/89/89 83/83/83 88/88/88
f 87/87/87 91/91/91 90/90/90 88/88/88
f 86/86/86 92/92/92 91/91/91 87/87/87
f 92/92/92 86/86/86 85/85/85 93/93/93
f 84/84/84 94/94/94 93/93/93 85/85/85
f 96/95/95 95/96/96 76/76/76 75/75/75
f 75/75/75 74/74/74 97/97/97 96/95/95
f 98/98/98 97/97/97 74/74/74 73/73/73
f 72/72/72 99/99/99 98/98/98 73/73/73
f 72/72/72 71/71/71 77/77/77 99/99/99
f 80/80/80 81/81/81 89/89/89 100/100/100
f 100/100/100 101/101/101 102/102/102 80/80/80
f 80/80/80 102/102/102 103/103/103 79/79/79
f 104/104/104 99/99/99 77/77/77 78/78/78
f 79/79/79 103/103/103 104/104/104 78/78/78
f 101/101/101 100/100/100 105/105/105 106/106/106
f 106/106/106 105/105/105 107/107/107 108/108/108
f 106/106/106 108/108/108 109/109/109 110/110/110
f 110/110/110 102/102/102 101/101/101 106/106/106
f 104/104/104 111/111/111 98/98/98 99/99/99
f 112/112/112 111/111/111 104/104/104 103/103/103
f 102/102/102 110/110/110 112/112/112 103/103/103
f 97/97/97 98/98/98 111/111/111 113/113/113
f 115/114/114 114/115/115 95/96/96 96/95/95
f 113/113/113 115/114/114 96/95/95 97/97/97
f 116/116/116 113/113/113 111/111/111 112/112/112
f 117/117/117 115/114/114 113/113/113 116/116/116
f 110/110/110 117/117/117 116/116/116 112/112/112
f 109/109/109 118/118/118 117/117/117 110/110/110
f 118/118/118 114/115/115 115/114/114 117/117/117
f 119/119/119 100/100/100 89/89/89 90/90/90
f 121/120/120 107/107/107 105/105/105 120/121/121
f 100/100/100 119/119/119 120/121/121 105/105/105
f 123/122/122 121/120/120 120/121/121 122/123/123
f 120/121/121 119/119/119 124/124/124 122/123/123
f 90/90/90 91/91/91 124/124/124 119/119/119
f 91/91/91 92/92/92 125/125/125 124/124/124
f 126/126/126 122/123/123 124/124/124 125/125/125
f 93/93/93 126/126/126 125/125/125 92/92/92
f 94/94/94 127/127/127 126/126/126 93/93/93
f 123/122/122 122/123/123 126/126/126 127/127/127
f 128/128/128 16/16/16 14/15/15 15/14/14
f 70/70/70 16/16/16 128/128/128 129/129/129
f 129/129/129 130/130/130 69/69/69 70/70/70
f 130/130/130 131/131/131 68/68/68 69/69/69
f 133/132/132 67/66/66 66/67/67 132/133/133
f 66/67/67 68/68/68 131/131/131 132/133/133
f 23/23/24 134/134/134 128/128/128 15/14/14
f 134/134/134 135/135/135 129/129/129 128/128/128
f 135/135/135 136/136/136 130/130/130 129/129/129
f 136/136/136 137/137/137 131/131/131 130/130/130
f 139/138/138 133/132/132 132/133/133 138/139/139
f 131/131/131 137/137/137 138/139/139 132/133/133
f 142/140/140 140/141/141 21/21/23 141/142/142
f 140/141/141 134/134/134 23/23/24 21/21/23
f 140/141/141 143/143/143 135/135/135 134/134/134
f 144/144/144 136/136/136 135/135/135 143/143/143
f 145/145/145 137/137/137 136/136/136 144/144/144
f 137/137/137 145/145/145 146/146/146 138/139/139
f 147/147/147 139/138/138 138/139/139 146/146/146
f 148/148/148 143/143/143 140/141/141 142/140/140
f 149/149/149 144/144/144 143/143/143 148/148/148
f 150/150/150 145/145/145 144/144/144 149/149/149
f 146/146/146 151/151/151 152/152/152 147/147/147
f 151/151/151 146/146/146 145/145/145 150/150/150
f 7/8/8 153/153/153 9/9/9 8/7/7
f 153/153/153 154/154/154 19/19/19 9/9/9
f 154/154/154 155/155/155 25/25/21 19/19/19
f 141/142/142 21/21/23 25/25/21 155/155/155
f 156/156/156 153/153/153 7/8/8 33/33/33
f 36/36/36 157/157/157 156/156/156 33/33/33
f 50/50/50 158/158/158 157/157/157 36/36/36
f 159/159/159 158/158/158 50/50/50 51/51/51
f 52/52/52 160/160/160 159/159/159 51/51/51
f 156/156/156 161/161/161 154/154/154 153/153/153
f 162/162/162 161/161/161 156/156/156 157/157/157
f 157/157/157 158/158/158 163/163/163 162/162/162
f 160/160/160 164/164/164 165/165/165 159/159/159
f 159/159/159 165/165/165 163/163/163 158/158/158
f 167/166/166 166/167/167 161/161/161 162/162/162
f 166/167/167 155/155/155 154/154/154 161/161/161
f 169/168/168 165/165/165 164/164/164 168/169/169
f 165/165/165 169/168/168 170/170/170 163/163/163
f 162/162/162 163/163/163 170/170/170 167/166/166
f 171/171/171 141/142/142 155/155/155 166/167/167
f 171/171/171 172/172/172 142/140/140 141/142/142
f 173/173/173 148/148/148 142/140/140 172/172/172
f 150/150/150 149/149/149 148/148/148 173/173/173
f 174/174/174 151/151/151 150/150/150 173/173/173
f 175/175/175 152/152/152 151/151/151 174/174/174
f 176/176/176 171/171/171 166/167/167 167/166/166
f 168/169/169 178/177/177 177/178/178 169/168/168
f 167/166/166 170/170/170 179/179/179 176/176/176
f 169/168/168 177/178/178 179/179/179 170/170/170
f 172/172/172 171/171/171 176/176/176 180/180/180
f 173/173/173 172/172/172 180/180/180 174/174/174
f 180/180/180 176/176/176 179/179/179 177/178/178
f 178/177/177 181/181/181 180/180/180 177/178/178
f 174/174/174 180/180/180 181/181/181 175/175/175
