# Wavefront Obj file
# 
# verts: 132 uv-s: 265
mtllib flower.mtl

g pCube8
#pivot 0.000000 0.000000 0.000000

v -0.034148 -0.251030 0.046707
v -0.043217 -0.191870 -0.244987
v -0.610600 0.648494 0.444847
v -0.631471 0.784638 -0.226426
v -0.698160 0.594751 0.436669
v -0.719030 0.730896 -0.234603
v -0.103167 -0.293392 0.040261
v -0.112236 -0.234232 -0.251433
v -0.038683 -0.221450 -0.099140
v -0.107701 -0.263812 -0.105586
v -0.934763 1.019237 0.180351
v -0.847204 1.072979 0.188528
v -0.685596 0.659938 0.523184
v -0.952079 1.142386 0.205866
v -0.710863 0.824764 -0.289504
v -0.078682 -0.206819 -0.278935
v -0.073192 -0.242631 -0.102363
v -0.067702 -0.278442 0.074210
v -0.182822 -0.289481 -0.172556
v 0.114949 -0.289481 -0.172556
v -0.376565 0.842523 -0.392138
v 0.308692 0.842523 -0.392138
v -0.376565 0.821941 -0.493123
v 0.308692 0.821941 -0.493123
v -0.182822 -0.305705 -0.252158
v 0.114949 -0.305705 -0.252158
v -0.033936 -0.289481 -0.172556
v -0.033936 -0.305705 -0.252158
v -0.033936 1.253856 -0.581153
v -0.033936 1.274438 -0.480168
v -0.448746 0.896043 -0.455636
v -0.033936 1.380820 -0.554440
v 0.380873 0.896043 -0.455636
v 0.146314 -0.297593 -0.212357
v -0.033936 -0.297593 -0.212357
v -0.214187 -0.297593 -0.212357
v 0.216339 -0.175942 0.110172
v 0.230585 -0.127882 -0.183350
v 0.618965 1.001255 0.519011
v 0.651748 1.111855 -0.156467
v 0.521105 1.033581 0.519554
v 0.553888 1.144181 -0.155924
v 0.139202 -0.150461 0.110600
v 0.153447 -0.102401 -0.182921
v 0.223462 -0.151912 -0.036589
v 0.146324 -0.126431 -0.036161
v 0.690997 1.552167 0.265122
v 0.788856 1.519841 0.264578
v 0.589260 1.074213 0.602741
v 0.781391 1.661152 0.287354
v 0.628949 1.208114 -0.215039
v 0.193517 -0.110079 -0.214053
v 0.184893 -0.139172 -0.036375
v 0.176270 -0.168264 0.141304
v -2.107504 5.477534 0.298306
v -0.988857 6.817512 0.298306
v -2.300914 5.638998 0.298306
v -1.182267 6.978976 0.298306
v -2.300914 5.638998 -1.447235
v -1.182267 6.978976 -1.447235
v -2.107504 5.477534 -1.447235
v -0.988857 6.817512 -1.447235
v -2.446578 5.464513 -0.574464
v -1.036603 7.153460 -0.574464
v -0.843193 6.991996 -0.574464
v -2.253168 5.303050 -0.574464
v -1.548180 6.147523 0.525600
v -1.443630 6.076835 -0.574464
v -1.548180 6.147523 -1.674529
v -1.741590 6.308987 -1.674529
v -1.637040 6.238298 -0.574464
v -1.741590 6.308987 0.525600
v -2.251017 5.502196 0.371346
v -1.644885 6.228255 0.617662
v -1.038754 6.954313 0.371346
v -0.880900 7.143399 -0.574464
v -1.038754 6.954313 -1.520274
v -1.644885 6.228255 -1.766590
v -2.251017 5.502196 -1.520274
v -2.408871 5.313110 -0.574464
v -1.789365 5.993900 -0.304658
v -1.409981 6.465743 -0.291744
v -1.904972 6.158883 -0.361025
v -1.594399 6.545145 -0.350454
v -1.893103 6.162903 -0.856614
v -1.582530 6.549165 -0.846042
v -1.774866 5.998811 -0.910051
v -1.395482 6.470654 -0.897137
v -2.004291 6.029990 -0.612402
v -1.483212 6.678059 -0.594665
v -1.274158 6.628106 -0.590064
v -1.910689 5.836448 -0.611731
v -1.604586 6.228157 -0.093033
v -1.592423 6.232277 -0.600897
v -1.580260 6.236397 -1.108761
v -1.733794 6.357397 -1.019283
v -1.743751 6.354024 -0.603534
v -1.753708 6.350651 -0.187785
v -0.148885 -0.115971 0.265869
v 0.148885 -0.115971 0.265869
v -0.342629 0.638370 0.484843
v 0.342629 0.638370 0.484843
v -0.342629 0.682469 0.318625
v 0.342629 0.682469 0.318625
v -0.148885 -0.081209 0.134848
v 0.148885 -0.081209 0.134848
v 0.000000 -0.115971 0.265869
v 0.000000 -0.081209 0.134848
v 0.000000 0.972627 0.395608
v 0.000000 0.928527 0.561825
v -0.414810 0.703287 0.413107
v 0.000000 1.028957 0.499512
v 0.414810 0.703287 0.413107
v 0.180251 -0.098590 0.200359
v 0.000000 -0.098590 0.200359
v -0.180251 -0.098590 0.200359
v -0.216206 -0.082135 0.216206
v 0.216206 -0.082135 0.216206
v -0.216206 2.157544 0.216206
v 0.216206 2.157544 0.216206
v -0.216206 2.157544 -0.216206
v 0.216206 2.157544 -0.216206
v -0.216206 -0.082135 -0.216206
v 0.216206 -0.082135 -0.216206
v -0.876869 4.501552 -0.273490
v -0.582266 4.602245 -0.273490
v -0.582266 4.602245 -0.584827
v -0.876869 4.501552 -0.584827
v -1.700456 6.243001 -0.493639
v -1.550543 6.343695 -0.493639
v -1.550543 6.343695 -0.652067
v -1.700456 6.243001 -0.652067
# 132 positions

vt 0.184376 0.714615
vt 0.150131 0.618364
vt 0.132768 0.618904
vt 0.134978 0.688933
vt 0.599856 0.337251
vt 0.585196 0.340288
vt 0.623007 0.281317
vt 0.634182 0.287853
vt 0.752597 0.303211
vt 0.749076 0.285849
vt 0.166447 0.989698
vt 0.145427 0.990352
vt 0.145811 0.986244
vt 0.163173 0.985704
vt 0.745812 0.282575
vt 0.756118 0.320574
vt 0.754339 0.324615
vt 0.642629 0.378063
vt 0.650389 0.367764
vt 0.128449 0.986784
vt 0.124407 0.991006
vt 0.167493 0.617824
vt 0.214890 0.686448
vt 0.186440 0.727099
vt 0.224215 0.695376
vt 0.127469 0.698384
vt 0.128727 0.623126
vt 0.145044 0.994460
vt 0.162406 0.993920
vt 0.127681 0.995000
vt 0.608977 0.510261
vt 0.507307 0.612285
vt 0.502530 0.608552
vt 0.596017 0.510154
vt 0.550380 0.174081
vt 0.550380 0.360258
vt 0.568104 0.360258
vt 0.591168 0.225499
vt 0.724898 0.736479
vt 0.724898 0.751593
vt 0.675517 0.693883
vt 0.684110 0.685061
vt 0.724898 0.550821
vt 0.707174 0.550821
vt 0.123022 0.898556
vt 0.123022 0.877098
vt 0.127760 0.877098
vt 0.127760 0.894822
vt 0.703440 0.551787
vt 0.742622 0.550821
vt 0.746356 0.551787
vt 0.774279 0.693883
vt 0.765686 0.685061
vt 0.127760 0.859374
vt 0.123022 0.855640
vt 0.532656 0.360258
vt 0.509591 0.225499
vt 0.550380 0.161417
vt 0.500999 0.219127
vt 0.599761 0.219127
vt 0.571838 0.361224
vt 0.118284 0.877098
vt 0.118284 0.894822
vt 0.118284 0.859374
vt 0.528922 0.361224
vt 0.338529 0.256671
vt 0.139515 0.292524
vt 0.142375 0.309995
vt 0.289960 0.306794
vt 0.269035 0.556784
vt 0.256061 0.559431
vt 0.309993 0.499624
vt 0.317604 0.506661
vt 0.468864 0.520918
vt 0.466003 0.503447
vt 0.110069 0.866588
vt 0.088917 0.865561
vt 0.088892 0.860969
vt 0.106363 0.861817
vt 0.466917 0.499741
vt 0.471725 0.538389
vt 0.473844 0.542045
vt 0.325933 0.596976
vt 0.330770 0.587073
vt 0.071420 0.860122
vt 0.067765 0.864534
vt 0.136654 0.275052
vt 0.276793 0.226382
vt 0.355351 0.253960
vt 0.285479 0.216415
vt 0.301419 0.313767
vt 0.144495 0.313650
vt 0.088943 0.870152
vt 0.106414 0.871000
vt 0.071472 0.869304
vt 0.137568 0.271346
vt 0.599732 0.640366
vt 0.611244 0.649977
vt 0.683401 0.563543
vt 0.666316 0.560607
vt 0.397924 0.581530
vt 0.406340 0.712488
vt 0.297394 0.712488
vt 0.318166 0.608589
vt 0.523778 0.695077
vt 0.595935 0.608644
vt 0.607447 0.618254
vt 0.540863 0.698013
vt 0.586991 0.864043
vt 0.595405 0.995000
vt 0.675164 0.967942
vt 0.695936 0.864043
vt 0.711568 0.258155
vt 0.711568 0.239619
vt 0.598974 0.258411
vt 0.607669 0.275496
vt 0.493969 0.599894
vt 0.516479 0.712488
vt 0.498455 0.712488
vt 0.477683 0.608589
vt 0.397924 0.843445
vt 0.318166 0.816387
vt 0.824162 0.258411
vt 0.815467 0.275496
vt 0.595405 0.733086
vt 0.675164 0.760144
vt 0.493969 0.825082
vt 0.477683 0.816387
vt 0.494875 0.864043
vt 0.515647 0.760144
vt 0.515647 0.967942
vt 0.674032 0.538495
vt 0.668092 0.522210
vt 0.539087 0.736410
vt 0.533147 0.720125
vt 0.556171 0.739346
vt 0.622756 0.659588
vt 0.689341 0.579829
vt 0.713960 0.864043
vt 0.691450 0.751449
vt 0.691450 0.976637
vt 0.584423 0.599033
vt 0.517838 0.678792
vt 0.651007 0.519274
vt 0.374579 0.355100
vt 0.270680 0.337760
vt 0.270680 0.319224
vt 0.383274 0.338016
vt 0.158086 0.338016
vt 0.166781 0.355100
vt 0.422114 0.845028
vt 0.440886 0.862423
vt 0.404476 0.886309
vt 0.392308 0.864581
vt 0.432012 0.884735
vt 0.432413 0.934227
vt 0.393839 0.935283
vt 0.409183 0.905358
vt 0.053576 0.720442
vt 0.034784 0.737815
vt 0.005000 0.718228
vt 0.017194 0.696514
vt 0.059776 0.929949
vt 0.060267 0.990407
vt 0.088153 0.965215
vt 0.106897 0.928659
vt 0.172661 0.756727
vt 0.173209 0.731840
vt 0.136654 0.746283
vt 0.142737 0.768551
vt 0.474700 0.897738
vt 0.494028 0.933252
vt 0.470988 0.933172
vt 0.455165 0.904099
vt 0.432815 0.983720
vt 0.409661 0.964355
vt 0.208723 0.748009
vt 0.201734 0.769964
vt 0.059285 0.869490
vt 0.087569 0.893146
vt 0.475284 0.969807
vt 0.455644 0.963097
vt 0.012654 0.931238
vt 0.031398 0.894683
vt 0.031983 0.966752
vt 0.446416 0.874083
vt 0.447397 0.995000
vt 0.348307 0.870658
vt 0.348307 0.995000
vt 0.366030 0.995000
vt 0.389094 0.905199
vt 0.214707 0.867545
vt 0.227076 0.867545
vt 0.216791 0.818164
vt 0.205543 0.826757
vt 0.045789 0.744016
vt 0.045789 0.869469
vt 0.005000 0.834928
vt 0.028064 0.744016
vt 0.110773 0.995000
vt 0.110773 0.973542
vt 0.118573 0.973542
vt 0.118573 0.991266
vt 0.173395 0.841914
vt 0.223036 0.752089
vt 0.231222 0.755443
vt 0.187726 0.841367
vt 0.092259 0.880973
vt 0.100444 0.877619
vt 0.150085 0.967445
vt 0.135754 0.966897
vt 0.118573 0.955818
vt 0.110773 0.952084
vt 0.086577 0.834928
vt 0.063512 0.744016
vt 0.216791 0.916926
vt 0.205543 0.908333
vt 0.330582 0.995000
vt 0.307518 0.905199
vt 0.348307 0.858702
vt 0.298925 0.897471
vt 0.397687 0.897471
vt 0.369764 0.992931
vt 0.102975 0.973542
vt 0.102975 0.991266
vt 0.102975 0.955818
vt 0.326848 0.992931
vt 0.241396 0.995000
vt 0.292873 0.995000
vt 0.292873 0.728377
vt 0.241396 0.728377
vt 0.242024 0.442053
vt 0.230036 0.442053
vt 0.230036 0.423193
vt 0.242024 0.423193
vt 0.056476 0.496660
vt 0.005000 0.496660
vt 0.005000 0.230037
vt 0.056476 0.230037
vt 0.146797 0.560808
vt 0.146797 0.612285
vt 0.095321 0.612285
vt 0.095321 0.560808
vt 0.208604 0.361959
vt 0.208604 0.413435
vt 0.475227 0.413435
vt 0.475227 0.361959
vt 0.995000 0.475080
vt 0.995000 0.526557
vt 0.728377 0.526557
vt 0.728377 0.475080
vt 0.197818 0.437348
vt 0.162748 0.449335
vt 0.766257 0.457318
vt 0.766257 0.420255
vt 0.135125 0.775702
vt 0.100054 0.787689
vt 0.449334 0.468261
vt 0.449334 0.431198
vt 0.082550 0.230037
vt 0.064704 0.242024
vt 0.973567 0.465322
vt 0.973567 0.446462
vt 0.233169 0.983013
vt 0.215323 0.995000
# 265 texture coordinates

vn 0.853593 0.515079 0.077926
vn 0.853593 0.515079 0.077926
vn 0.853778 0.513736 0.084490
vn 0.853778 0.513736 0.084490
vn -0.982359 -0.186862 -0.007356
vn -0.526584 0.829822 0.184675
vn -0.359956 0.683136 -0.635418
vn -0.913181 -0.092252 -0.396975
vn -0.845517 -0.527806 -0.080760
vn -0.845517 -0.527806 -0.080760
vn -0.845294 -0.529125 -0.074193
vn -0.845294 -0.529125 -0.074193
vn 0.526576 -0.829827 -0.184675
vn 0.526576 -0.829827 -0.184673
vn 0.526582 -0.829824 -0.184673
vn 0.526581 -0.829824 -0.184675
vn 0.068400 0.040238 -0.996846
vn 0.068400 0.040238 -0.996846
vn -0.544230 -0.335287 -0.769023
vn -0.544230 -0.335287 -0.769023
vn -0.501388 -0.614742 0.608853
vn 0.128242 -0.350127 0.927882
vn 0.128242 -0.350127 0.927882
vn -0.501388 -0.614742 0.608853
vn 0.526582 -0.829824 -0.184670
vn 0.526576 -0.829828 -0.184672
vn -0.845702 -0.526462 -0.087323
vn -0.845702 -0.526462 -0.087323
vn -0.313107 0.377517 0.871461
vn -0.888916 -0.250539 0.383482
vn 0.853370 0.516399 0.071359
vn 0.853370 0.516399 0.071359
vn 0.564579 0.641596 0.519234
vn 0.602302 0.785781 0.140644
vn 0.540317 0.799885 -0.261230
vn 0.642162 0.392899 -0.658224
vn 0.642162 0.392899 -0.658224
vn 0.526571 -0.829831 -0.184674
vn 0.526571 -0.829830 -0.184675
vn 0.526570 -0.829831 -0.184673
vn 0.685001 0.113443 0.719656
vn 0.685001 0.113443 0.719656
vn -0.000000 0.192381 0.981320
vn -0.000000 0.192381 0.981320
vn -0.006700 0.192377 0.981298
vn -0.006700 0.192377 0.981298
vn 0.000000 0.158817 -0.987308
vn 0.000001 0.979856 -0.199707
vn 0.777206 0.616571 -0.125665
vn 0.399467 0.145595 -0.905112
vn -0.000000 -0.207023 -0.978336
vn -0.000000 -0.207023 -0.978336
vn -0.006701 -0.207019 -0.978314
vn -0.006701 -0.207019 -0.978314
vn 0.000000 -0.979855 0.199710
vn 0.000000 -0.979855 0.199710
vn 0.000000 -0.979855 0.199713
vn 0.000000 -0.979855 0.199713
vn 0.983281 -0.178428 0.036366
vn 0.983281 -0.178428 0.036366
vn 0.703609 -0.267182 -0.658444
vn 0.703609 -0.267182 -0.658444
vn -0.703609 -0.267182 -0.658444
vn -0.983281 -0.178428 0.036366
vn -0.983281 -0.178428 0.036366
vn -0.703609 -0.267182 -0.658444
vn 0.000000 -0.979854 0.199713
vn 0.000000 -0.979855 0.199710
vn 0.006701 -0.207019 -0.978314
vn 0.006701 -0.207019 -0.978314
vn -0.777205 0.616572 -0.125665
vn -0.399467 0.145595 -0.905112
vn 0.006700 0.192377 0.981298
vn 0.006700 0.192377 0.981298
vn -0.399467 0.488214 0.775934
vn 0.000000 0.532550 0.846398
vn 0.399467 0.488214 0.775934
vn 0.703609 0.011825 0.710489
vn 0.703609 0.011825 0.710489
vn 0.000000 -0.979856 0.199707
vn 0.000000 -0.979856 0.199707
vn 0.000000 -0.979856 0.199707
vn -0.703609 0.011825 0.710489
vn -0.703609 0.011825 0.710489
vn 0.947439 -0.319873 -0.006392
vn 0.947439 -0.319873 -0.006392
vn 0.947097 -0.320947 0.000213
vn 0.947097 -0.320947 0.000213
vn -0.801505 0.595115 0.058544
vn 0.310027 0.935720 0.168259
vn 0.220092 0.678081 -0.701260
vn -0.713909 0.609605 -0.344551
vn -0.951564 0.307424 0.004154
vn -0.951564 0.307424 0.004154
vn -0.951863 0.306336 0.010759
vn -0.951863 0.306336 0.010759
vn -0.310031 -0.935719 -0.168261
vn -0.310031 -0.935719 -0.168258
vn -0.310037 -0.935717 -0.168258
vn -0.310035 -0.935717 -0.168261
vn -0.003232 0.007027 -0.999970
vn -0.003232 0.007027 -0.999970
vn -0.666757 0.224506 -0.710656
vn -0.666757 0.224506 -0.710656
vn -0.734200 -0.003017 0.678926
vn -0.097639 -0.311472 0.945226
vn -0.097639 -0.311472 0.945226
vn -0.734200 -0.003017 0.678926
vn -0.310040 -0.935717 -0.168255
vn -0.310032 -0.935719 -0.168255
vn -0.951222 0.308498 -0.002451
vn -0.951222 0.308498 -0.002451
vn 0.142476 0.416217 0.898033
vn -0.752550 0.479236 0.451665
vn 0.947738 -0.318785 -0.012998
vn 0.947738 -0.318785 -0.012998
vn 0.894415 -0.064804 0.442518
vn 0.998821 0.000418 0.048543
vn 0.933057 0.065568 -0.353702
vn 0.662139 -0.214466 -0.718036
vn 0.662139 -0.214466 -0.718036
vn -0.310025 -0.935721 -0.168258
vn -0.310027 -0.935720 -0.168260
vn -0.310024 -0.935722 -0.168256
vn 0.594700 -0.441992 0.671546
vn 0.594700 -0.441992 0.671546
vn -0.452942 0.378127 0.807381
vn 0.000001 -0.000000 1.000000
vn 0.161512 0.193466 0.967721
vn -0.311383 0.527993 0.790104
vn -0.766011 0.638810 0.071751
vn -0.767991 0.640461 -0.000000
vn -0.811966 0.583704 -0.000000
vn -0.809854 0.582186 0.072083
vn 0.161512 0.193466 -0.967721
vn 0.000001 -0.000000 -1.000000
vn -0.452939 0.378125 -0.807383
vn -0.311379 0.527991 -0.790107
vn 0.767991 -0.640461 0.000000
vn 0.766011 -0.638810 -0.071750
vn 0.809854 -0.582186 -0.072083
vn 0.811966 -0.583704 0.000000
vn 0.064483 0.997919 0.000000
vn 0.640861 0.767657 0.000000
vn 0.620175 0.742878 -0.252022
vn 0.063103 0.976565 -0.205766
vn -0.620173 -0.742880 -0.252022
vn -0.640859 -0.767659 0.000000
vn -0.970359 -0.241667 0.000000
vn -0.949595 -0.236496 -0.205766
vn -0.766011 0.638810 -0.071751
vn -0.809854 0.582186 -0.072084
vn 0.620175 0.742878 0.252022
vn 0.063103 0.976565 0.205766
vn 0.766011 -0.638810 0.071750
vn 0.809854 -0.582186 0.072083
vn -0.620173 -0.742880 0.252022
vn -0.949595 -0.236495 0.205766
vn 0.720060 -0.693912 0.000000
vn 0.718240 -0.692158 0.071049
vn 0.718240 -0.692158 -0.071049
vn -0.575114 0.212076 -0.790106
vn -0.161510 -0.193467 -0.967722
vn -0.720060 0.693912 -0.000000
vn -0.718240 0.692159 0.071050
vn -0.718240 0.692159 -0.071050
vn -0.161510 -0.193467 0.967722
vn -0.575117 0.212079 0.790104
vn 0.311384 -0.527994 0.790103
vn 0.452943 -0.378128 0.807379
vn 0.575118 -0.212079 0.790103
vn 0.949595 0.236497 0.205766
vn 0.970359 0.241668 0.000000
vn 0.949594 0.236497 -0.205766
vn 0.452940 -0.378126 -0.807382
vn 0.575115 -0.212076 -0.790105
vn 0.311381 -0.527992 -0.790105
vn -0.063096 -0.976565 -0.205765
vn -0.064475 -0.997919 0.000000
vn -0.063095 -0.976565 0.205765
vn -0.355544 0.261314 0.897387
vn -0.355544 0.261314 0.897387
vn 0.023963 0.629753 0.776426
vn 0.023963 0.629753 0.776426
vn -0.779074 0.626785 -0.013575
vn -0.779074 0.626785 -0.013574
vn -0.779075 0.626784 -0.013574
vn -0.779074 0.626785 -0.013574
vn -0.312280 0.275968 -0.909023
vn -0.312280 0.275968 -0.909023
vn 0.060860 0.642250 -0.764075
vn 0.060860 0.642250 -0.764075
vn 0.779075 -0.626784 0.013574
vn 0.779075 -0.626784 0.013574
vn 0.779075 -0.626784 0.013573
vn 0.779075 -0.626783 0.013574
vn 0.232104 0.972598 0.013449
vn 0.232104 0.972598 0.013449
vn 0.210439 0.833664 -0.510607
vn 0.210439 0.833664 -0.510607
vn -0.754953 -0.367001 -0.543467
vn -0.899928 -0.435316 -0.025084
vn -0.899928 -0.435316 -0.025084
vn -0.754953 -0.367001 -0.543467
vn -0.779074 0.626785 -0.013573
vn -0.779075 0.626784 -0.013573
vn 0.185435 0.825193 0.533545
vn 0.185435 0.825193 0.533545
vn 0.779075 -0.626784 0.013574
vn 0.779075 -0.626783 0.013575
vn -0.779959 -0.375472 0.500684
vn -0.779959 -0.375472 0.500684
vn 0.779074 -0.626785 0.013574
vn 0.779074 -0.626786 0.013574
vn 0.779074 -0.626785 0.013574
vn -0.593483 -0.171560 -0.786349
vn -0.593483 -0.171560 -0.786349
vn -0.779074 0.626786 -0.013574
vn -0.779074 0.626785 -0.013575
vn -0.779073 0.626786 -0.013572
vn -0.630378 -0.184058 0.754153
vn -0.630378 -0.184058 0.754153
vn -0.000000 -0.274090 0.961704
vn -0.000000 -0.274090 0.961704
vn -0.011180 -0.274073 0.961644
vn -0.011180 -0.274073 0.961644
vn 0.000000 0.844233 -0.535977
vn 0.000000 0.966560 0.256440
vn 0.643716 0.739674 0.196245
vn 0.495714 0.733205 -0.465488
vn 0.000000 0.238706 -0.971092
vn 0.000000 0.238706 -0.971092
vn -0.011179 0.238692 -0.971031
vn -0.011179 0.238692 -0.971031
vn 0.000000 -0.966559 -0.256445
vn 0.000000 -0.966559 -0.256445
vn 0.000000 -0.966560 -0.256441
vn 0.000000 -0.966560 -0.256441
vn 0.964959 -0.253626 -0.067290
vn 0.964959 -0.253626 -0.067290
vn 0.836839 -0.092267 -0.539618
vn 0.836839 -0.092267 -0.539618
vn -0.836839 -0.092267 -0.539618
vn -0.964959 -0.253626 -0.067290
vn -0.964959 -0.253626 -0.067290
vn -0.836839 -0.092267 -0.539618
vn 0.000000 -0.966560 -0.256441
vn 0.000000 -0.966559 -0.256445
vn 0.011179 0.238692 -0.971031
vn 0.011179 0.238692 -0.971031
vn -0.643716 0.739674 0.196245
vn -0.495714 0.733205 -0.465488
vn 0.011180 -0.274073 0.961644
vn 0.011180 -0.274073 0.961644
vn -0.495714 0.406014 0.767737
vn 0.000000 0.467497 0.883995
vn 0.495714 0.406014 0.767737
vn 0.836838 -0.347637 0.422907
vn 0.836838 -0.347637 0.422907
vn 0.000000 -0.966558 -0.256448
vn 0.000000 -0.966558 -0.256448
vn 0.000000 -0.966558 -0.256448
vn -0.836838 -0.347637 0.422907
vn -0.836838 -0.347637 0.422907
vn 0.000000 0.000000 1.000000
vn 0.000000 0.000000 1.000000
vn 0.000000 0.000000 1.000000
vn 0.000000 0.000000 1.000000
vn -0.557580 0.830123 0.000000
vn -0.557580 0.830123 0.000000
vn -0.557580 0.830123 0.000000
vn -0.557580 0.830123 0.000000
vn 0.000000 0.000000 -1.000000
vn 0.000000 0.000000 -1.000000
vn 0.000000 0.000000 -1.000000
vn 0.000000 0.000000 -1.000000
vn 0.000000 -1.000000 0.000000
vn 0.000000 -1.000000 0.000000
vn 0.000000 -1.000000 0.000000
vn 0.000000 -1.000000 0.000000
vn 1.000000 0.000000 0.000000
vn 1.000000 0.000000 0.000000
vn 1.000000 0.000000 0.000000
vn 1.000000 0.000000 0.000000
vn -1.000000 0.000000 0.000000
vn -1.000000 0.000000 0.000000
vn -1.000000 0.000000 0.000000
vn -1.000000 0.000000 0.000000
vn -0.026661 0.192498 0.980935
vn -0.026661 0.192498 0.980935
vn -0.036448 0.147349 0.988413
vn -0.036448 0.147349 0.988413
vn 0.950582 0.310473 0.000000
vn 0.950582 0.310473 0.000000
vn 0.916494 0.400050 0.000000
vn 0.916494 0.400050 0.000000
vn 0.020236 -0.146104 -0.989062
vn 0.020236 -0.146104 -0.989062
vn 0.017236 -0.088848 -0.995896
vn 0.017236 -0.088848 -0.995896
vn -0.962500 -0.271282 0.000000
vn -0.962500 -0.271282 0.000000
vn -0.936514 -0.350629 0.000000
vn -0.936514 -0.350629 0.000000
vn -0.046156 0.101878 0.993726
vn -0.046156 0.101878 0.993726
vn 0.873986 0.485951 0.000000
vn 0.873986 0.485951 0.000000
vn 0.014178 -0.031295 -0.999410
vn 0.014178 -0.031295 -0.999410
vn -0.904001 -0.427531 0.000000
vn -0.904001 -0.427531 0.000000
# 312 normals

usemtl initialShadingGroup
s 1
f 12/1/1 9/2/2 2/3/3 4/4/4
f 1/22/31 9/2/2 12/1/1 3/23/32
s 2
f 11/5/5 14/6/6 15/7/7 6/8/8
f 13/18/29 14/6/6 11/5/5 5/19/30
f 3/23/33 12/1/34 14/24/6 13/25/29
f 15/26/7 14/24/6 12/1/34 4/4/35
s 3
f 10/9/9 11/5/10 6/8/11 8/10/12
f 5/19/27 11/5/10 10/9/9 7/16/28
s 4
f 16/11/13 17/12/14 10/13/15 8/14/16
f 7/20/25 10/13/15 17/12/14 18/21/26
f 9/28/38 17/12/14 16/11/13 2/29/39
f 18/21/26 17/12/14 9/28/38 1/30/40
s 5
f 15/7/17 16/15/18 8/10/19 6/8/20
f 2/3/36 16/27/18 15/26/17 4/4/37
s 6
f 7/16/21 18/17/22 13/18/23 5/19/24
f 13/31/23 18/32/22 1/33/41 3/34/42
s 7
f 30/35/43 27/36/44 20/37/45 22/38/46
f 19/56/73 27/36/44 30/35/43 21/57/74
s 8
f 29/39/47 32/40/48 33/41/49 24/42/50
f 31/52/71 32/40/48 29/39/47 23/53/72
f 21/57/75 30/35/76 32/58/48 31/59/71
f 33/60/49 32/58/48 30/35/76 22/38/77
s 9
f 28/43/51 29/39/52 24/42/53 26/44/54
f 23/53/69 29/39/52 28/43/51 25/50/70
s 10
f 34/45/55 35/46/56 28/47/57 26/48/58
f 25/54/67 28/47/57 35/46/56 36/55/68
f 27/62/80 35/46/56 34/45/55 20/63/81
f 36/55/68 35/46/56 27/62/80 19/64/82
s 11
f 33/41/59 34/49/60 26/44/61 24/42/62
f 20/37/78 34/61/60 33/60/59 22/38/79
s 12
f 25/50/63 36/51/64 31/52/65 23/53/66
f 31/59/65 36/65/64 19/56/83 21/57/84
s 13
f 48/66/85 45/67/86 38/68/87 40/69/88
f 37/87/115 45/67/86 48/66/85 39/88/116
s 14
f 47/70/89 50/71/90 51/72/91 42/73/92
f 49/83/113 50/71/90 47/70/89 41/84/114
f 39/88/117 48/66/118 50/89/90 49/90/113
f 51/91/91 50/89/90 48/66/118 40/69/119
s 15
f 46/74/93 47/70/94 42/73/95 44/75/96
f 41/84/111 47/70/94 46/74/93 43/81/112
s 16
f 52/76/97 53/77/98 46/78/99 44/79/100
f 43/85/109 46/78/99 53/77/98 54/86/110
f 45/93/122 53/77/98 52/76/97 38/94/123
f 54/86/110 53/77/98 45/93/122 37/95/124
s 17
f 51/72/101 52/80/102 44/75/103 42/73/104
f 38/68/120 52/92/102 51/91/101 40/69/121
s 18
f 43/81/105 54/82/106 49/83/107 41/84/108
f 49/90/107 54/96/106 37/87/125 39/88/126
s 19
f 72/97/127 74/98/128 75/99/129 58/100/130
f 73/134/167 74/98/128 72/97/127 57/135/168
f 55/136/169 67/137/170 74/98/128 73/134/167
f 75/99/129 74/98/128 67/137/170 56/138/171
s 20
f 70/101/131 71/102/132 64/103/133 60/104/134
f 71/102/132 72/121/151 58/122/152 64/103/133
f 63/119/164 71/102/132 70/101/131 59/120/165
f 57/128/166 72/121/151 71/102/132 63/119/164
s 21
f 77/105/135 78/106/136 70/107/137 60/108/138
f 59/132/162 70/107/137 78/106/136 79/133/163
f 69/142/175 78/106/136 77/105/135 62/143/176
f 79/133/163 78/106/136 69/142/175 61/144/177
s 22
f 68/109/139 69/110/140 62/111/141 65/112/142
f 67/125/155 68/109/139 65/112/142 56/126/156
f 66/129/159 68/109/139 67/125/155 55/130/160
f 61/131/161 69/110/140 68/109/139 66/129/159
s 23
f 64/113/143 76/114/144 77/115/145 60/116/146
f 75/123/153 76/114/144 64/113/143 58/124/154
f 56/126/172 65/112/173 76/139/144 75/140/153
f 77/141/145 76/139/144 65/112/173 62/111/174
s 24
f 79/117/147 80/118/148 63/119/149 59/120/150
f 63/119/149 80/118/148 73/127/157 57/128/158
f 61/145/178 66/146/179 80/147/148 79/148/147
f 73/149/157 80/147/148 66/146/179 55/150/180
s 25
f 98/151/181 93/152/182 82/153/183 84/154/184
f 81/181/221 93/187/182 98/175/181 83/182/222
s 26
f 96/155/185 97/156/186 90/157/187 86/158/188
f 97/156/186 98/175/205 84/176/206 90/157/187
f 89/173/218 97/156/186 96/155/185 85/174/219
f 83/182/220 98/175/205 97/156/186 89/173/218
s 27
f 95/159/189 96/160/190 86/161/191 88/162/192
f 85/174/216 96/155/190 95/186/189 87/171/217
s 28
f 94/163/193 95/164/194 88/165/195 91/166/196
f 93/179/209 94/163/193 91/166/196 82/180/210
f 92/183/213 94/163/193 93/179/209 81/184/214
f 87/185/215 95/164/194 94/163/193 92/183/213
s 29
f 90/167/197 91/168/198 88/169/199 86/170/200
f 82/177/207 91/168/198 90/167/197 84/178/208
s 30
f 87/171/201 92/172/202 89/173/203 85/174/204
f 89/173/203 92/172/202 81/181/211 83/182/212
s 31
f 110/188/223 107/189/224 100/190/225 102/191/226
f 99/218/253 107/189/224 110/188/223 101/219/254
s 32
f 109/192/227 112/193/228 113/194/229 104/195/230
f 111/216/251 112/193/228 109/192/227 103/217/252
f 101/219/255 110/188/256 112/220/228 111/221/251
f 113/222/229 112/220/228 110/188/256 102/191/257
s 33
f 108/196/231 109/197/232 104/198/233 106/199/234
f 103/214/249 109/197/232 108/196/231 105/215/250
s 34
f 114/200/235 115/201/236 108/202/237 106/203/238
f 105/212/247 108/202/237 115/201/236 116/213/248
f 107/224/260 115/201/236 114/200/235 100/225/261
f 116/213/248 115/201/236 107/224/260 99/226/262
s 35
f 113/204/239 114/205/240 106/206/241 104/207/242
f 100/190/258 114/223/240 113/222/239 102/191/259
s 36
f 105/208/243 116/209/244 111/210/245 103/211/246
f 111/221/245 116/227/244 99/218/263 101/219/264
s 37
f 117/228/265 118/229/266 120/230/267 119/231/268
s 38
f 129/232/269 130/233/270 131/234/271 132/235/272
s 39
f 121/236/273 122/237/274 124/238/275 123/239/276
s 40
f 123/240/277 124/241/278 118/242/279 117/243/280
s 41
f 118/244/281 124/245/282 122/246/283 120/247/284
s 42
f 123/248/285 117/249/286 119/250/287 121/251/288
s 43
f 119/231/289 120/230/290 126/252/291 125/253/292
f 125/253/292 126/252/291 130/260/305 129/261/306
s 44
f 120/247/293 122/246/294 127/254/295 126/255/296
f 126/255/296 127/254/295 131/262/307 130/263/308
s 45
f 122/237/297 121/236/298 128/256/299 127/257/300
f 127/257/300 128/256/299 132/264/309 131/265/310
s 46
f 121/251/301 119/250/302 125/258/303 128/259/304
f 128/259/304 125/258/303 129/232/311 132/235/312

# 118 faces
